<?xml version="1.0" encoding="UTF-8"?>
<svg id="Layer_1" data-name="Layer 1" xmlns="http://www.w3.org/2000/svg" xmlns:xlink="http://www.w3.org/1999/xlink" viewBox="0 0 120 120">
  <defs>
    <style>
      .cls-1 {
        fill: #ffcd6c;
      }

      .cls-2 {
        fill: #e07f84;
      }

      .cls-3 {
        fill: #6399d1;
      }

      .cls-4 {
        fill: #79abdc;
      }

      .cls-5 {
        clip-path: url(#clippath);
      }

      .cls-6 {
        fill: none;
      }

      .cls-7 {
        fill: #fddd80;
      }
    </style>
    <clipPath id="clippath">
      <rect class="cls-6" x="2.8" y="2.32" width="113.88" height="103.2"/>
    </clipPath>
  </defs>
  <g>
    <path class="cls-7" d="M114.71,71.03H4.78c-.17,0-.3-.14-.3-.3V37.12c0-.17,.14-.3,.3-.3H114.71c.17,0,.3,.14,.3,.3v33.6c0,.17-.14,.3-.3,.3h0Zm0,0"/>
    <path class="cls-1" d="M114.71,36.82h-8.59v16.55c0,7.3-5.91,13.21-13.21,13.21H4.47v4.14c0,.17,.14,.3,.3,.3H114.71c.17,0,.3-.14,.3-.3V37.12c0-.17-.14-.3-.3-.3h0Zm0,0"/>
    <path class="cls-2" d="M20.36,53.92c0,1.89-1.53,3.43-3.43,3.43s-3.43-1.53-3.43-3.43,1.53-3.43,3.43-3.43,3.43,1.53,3.43,3.43h0Zm0,0"/>
    <path class="cls-4" d="M106.64,36.82C99.66,17.68,81.29,4.02,59.74,4.02S19.83,17.68,12.84,36.82H106.64Zm0,0"/>
    <path class="cls-4" d="M12.84,71.03c6.98,19.14,25.34,32.8,46.9,32.8s39.91-13.66,46.9-32.8H12.84Zm0,0"/>
    <path class="cls-3" d="M77.47,7.26c3.24,2.05,6.22,4.45,8.9,7.16,6.57,6.66,1.84,17.95-7.51,17.95H14.72c-.69,1.45-1.32,2.93-1.87,4.45H106.64c-4.96-13.59-15.66-24.42-29.17-29.56h0Zm0,0"/>
    <g class="cls-5">
      <path class="cls-3" d="M95.87,71.03c-8.04,16.77-25.18,28.35-45.02,28.35-6.25,0-12.22-1.15-17.73-3.24,7.71,4.87,16.84,7.69,26.63,7.69,21.55,0,39.91-13.66,46.9-32.8h-10.77Zm0,0"/>
      <path d="M114.71,35.15h-6.91c-3.66-9.37-9.92-17.39-18.17-23.27C71.9-.74,47.86-.94,29.86,11.88c-8.25,5.87-14.51,13.9-18.17,23.27H4.78c-1.09,0-1.97,.89-1.97,1.97v33.6c0,1.09,.88,1.97,1.97,1.97h6.92c1.28,3.27,2.9,6.42,4.83,9.38,.32,.49,.85,.76,1.4,.76,1.31,0,2.12-1.46,1.39-2.58-1.56-2.39-2.91-4.93-4.02-7.55h22.38c.51,2.93,1.14,5.71,1.86,8.31-4.65,1.98-9.02,4.65-12.94,7.95-.92-.87-1.81-1.78-2.67-2.73-.62-.68-1.67-.74-2.36-.12-.68,.62-.74,1.67-.12,2.36,9.78,10.84,23.74,17.03,38.3,17.03,21.66,0,40.47-13.4,48.05-32.8h6.91c1.09,0,1.97-.88,1.97-1.97V37.12c0-1.09-.88-1.97-1.97-1.97h0Zm-24.36-18.48c-3.52,2.89-7.34,5.22-11.36,6.97-2.45-7.5-5.75-13.32-9.6-16.97,7.75,1.59,14.93,5.07,20.95,10h0Zm-49.29,18.48c.45-2.46,.98-4.84,1.6-7.1,4.92,1.73,10.11,2.7,15.41,2.87v4.22h-17.01Zm20.35-4.22c5.3-.17,10.49-1.15,15.41-2.87,.61,2.25,1.15,4.62,1.6,7.1h-17.01v-4.22Zm0-3.31V5.85c4.24,.86,7.54,4.85,9.65,8.27,1.86,3.01,3.48,6.63,4.82,10.75-4.68,1.66-9.56,2.58-14.46,2.75h0ZM50.13,6.66c-2.14,2.03-4.13,4.74-5.91,8.08-.43,.81-.12,1.82,.69,2.26,.81,.43,1.82,.12,2.26-.69,3.18-5.99,6.99-9.63,10.9-10.44V27.61c-4.9-.17-9.78-1.08-14.46-2.74,.16-.51,.33-1,.51-1.5,.31-.87-.15-1.82-1.02-2.13-.87-.3-1.82,.15-2.13,1.02-.16,.45-.32,.91-.47,1.38-4.02-1.75-7.85-4.08-11.37-6.97,6.03-4.95,13.23-8.42,21-10.01h0Zm-23.53,12.24c3.92,3.3,8.29,5.96,12.94,7.94-.73,2.64-1.36,5.41-1.87,8.31H15.29c2.64-6.24,6.53-11.74,11.31-16.25h0Zm14.46,53.8h17.01v4.22c-5.3,.17-10.49,1.15-15.41,2.88-.61-2.25-1.15-4.62-1.6-7.1h0Zm37.36,0c-.45,2.48-.98,4.85-1.6,7.1-4.92-1.73-10.12-2.7-15.41-2.88v-4.22h17.01Zm-30,21.03c-1.86-3.01-3.48-6.64-4.82-10.75,4.68-1.66,9.56-2.58,14.46-2.75v21.76c-4.24-.86-7.54-4.85-9.65-8.26h0Zm12.99,8.26v-21.76c4.9,.17,9.78,1.08,14.46,2.75-1.33,4.11-2.95,7.74-4.82,10.75-2.11,3.41-5.41,7.4-9.65,8.26h0Zm-32.29-10.8c3.52-2.9,7.35-5.23,11.37-6.98,2.45,7.5,5.76,13.33,9.6,16.97-7.68-1.57-14.89-5-20.98-9.99h0Zm40.27,9.99c3.84-3.65,7.15-9.47,9.6-16.97,4.01,1.75,7.84,4.07,11.36,6.97-6.02,4.93-13.21,8.41-20.95,10h0Zm23.49-12.23c-3.92-3.3-8.28-5.96-12.93-7.94,.72-2.6,1.34-5.38,1.86-8.31h22.38c-2.64,6.24-6.53,11.74-11.31,16.25h0Zm20.46-19.59c-177.83,0,85.73,0-107.2,0v-30.87H94.12c.92,0,1.67-.75,1.67-1.67s-.75-1.67-1.67-1.67h-12.31c-.51-2.93-1.14-5.71-1.86-8.31,4.65-1.98,9.01-4.64,12.93-7.94,4.78,4.51,8.67,10.01,11.31,16.25h-2.28c-.92,0-1.67,.75-1.67,1.67s.75,1.67,1.67,1.67h11.44v30.87Zm0,0"/>
    </g>
    <path d="M42.55,61.23h-9.31v-16.29c0-.92-.75-1.67-1.67-1.67s-1.67,.75-1.67,1.67v17.96c0,.92,.75,1.67,1.67,1.67h10.98c.92,0,1.67-.75,1.67-1.67s-.75-1.67-1.67-1.67h0Zm0,0"/>
    <path d="M69.48,43.35c-.88-.27-1.81,.23-2.08,1.11l-3.89,12.74-3.9-12.74c-.27-.88-1.2-1.38-2.08-1.11-.88,.27-1.38,1.2-1.11,2.08l5.49,17.96c.21,.7,.86,1.18,1.6,1.18s1.38-.48,1.6-1.18l5.49-17.96c.27-.88-.23-1.81-1.11-2.08h0Zm0,0"/>
    <path d="M87.92,46.61c.92,0,1.67-.75,1.67-1.67s-.75-1.67-1.67-1.67h-10.98c-.92,0-1.67,.75-1.67,1.67v17.96c0,.92,.75,1.67,1.67,1.67h10.98c.92,0,1.67-.75,1.67-1.67s-.75-1.67-1.67-1.67h-9.31v-5.64h9.31c.92,0,1.67-.75,1.67-1.67s-.75-1.67-1.67-1.67h-9.31v-5.64h9.31Zm0,0"/>
    <path d="M50.08,43.27c-.92,0-1.67,.75-1.67,1.67v17.96c0,.92,.75,1.67,1.67,1.67s1.67-.75,1.67-1.67v-17.96c0-.92-.75-1.67-1.67-1.67h0Zm0,0"/>
    <path d="M16.93,48.83c-2.81,0-5.1,2.29-5.1,5.09s2.29,5.1,5.1,5.1,5.1-2.29,5.1-5.1-2.29-5.09-5.1-5.09h0Zm0,6.85c-.97,0-1.76-.79-1.76-1.76s.79-1.76,1.76-1.76,1.76,.79,1.76,1.76-.79,1.76-1.76,1.76h0Zm0,0"/>
  </g>
  <g>
    <path class="cls-2" d="M102.32,53.92c0,1.89-1.53,3.43-3.43,3.43s-3.43-1.53-3.43-3.43,1.53-3.43,3.43-3.43,3.43,1.53,3.43,3.43h0Zm0,0"/>
    <path d="M98.89,48.83c-2.81,0-5.1,2.29-5.1,5.09s2.29,5.1,5.1,5.1,5.1-2.29,5.1-5.1-2.29-5.09-5.1-5.09h0Zm0,6.85c-.97,0-1.76-.79-1.76-1.76s.79-1.76,1.76-1.76,1.76,.79,1.76,1.76-.79,1.76-1.76,1.76h0Zm0,0"/>
  </g>
</svg>