<?xml version="1.0" encoding="utf-8"?>
<!-- Generator: Adobe Illustrator 24.0.1, SVG Export Plug-In . SVG Version: 6.00 Build 0)  -->
<svg version="1.1" id="Layer_1" xmlns="http://www.w3.org/2000/svg" xmlns:xlink="http://www.w3.org/1999/xlink" x="0px" y="0px"
	 viewBox="0 0 120 120" style="enable-background:new 0 0 120 120;" xml:space="preserve">
<style type="text/css">
	.st0{fill:#506E8F;}
	.st1{fill:#44617E;}
	.st2{fill:#E4EFF9;}
	.st3{fill:#D1E4F5;}
	.st4{fill:#3E5A72;}
	.st5{fill:#FFFFFF;}
	.st6{fill:#E8E3EE;}
	.st7{fill:#D9848F;}
	.st8{fill:#D1717E;}
	.st9{fill:#EFC5B5;}
	.st10{fill:#EAA795;}
	.st11{fill:#C79170;}
	.st12{fill:#C2825A;}
	.st13{fill:#F3DC81;}
	.st14{fill:#ECCD74;}
	.st15{fill:#F3E8A7;}
	.st16{fill:#3A4246;}
	.st17{fill:#DACC81;}
	.st18{fill:#646768;}
	.st19{fill:#4C2618;}
	.st20{fill:#323537;}
	.st21{fill:#EFB384;}
	.st22{fill:#ECC99E;}
	.st23{fill:#EFDB54;}
	.st24{fill:#E7BF40;}
	.st25{fill:#DB545C;}
	.st26{fill:#C42E3C;}
	.st27{fill:#DD6871;}
	.st28{fill:#86CA90;}
	.st29{fill:#9AD1A2;}
	.st30{clip-path:url(#SVGID_2_);fill:#86CA90;}
	.st31{clip-path:url(#SVGID_2_);}
	.st32{fill:#564737;}
	.st33{fill:#FEE897;}
	.st34{fill:#F15E3B;}
	.st35{fill:#957A5C;}
	.st36{fill:#F89832;}
	.st37{clip-path:url(#SVGID_4_);fill:#FEE897;}
	.st38{clip-path:url(#SVGID_4_);}
	.st39{fill:#F2E9B3;}
	.st40{fill:#FACD57;}
	.st41{fill:#E9AE51;}
	.st42{fill:#F6A149;}
	.st43{fill:#F0523D;}
	.st44{fill:#FEC86B;}
	.st45{fill:#7D443F;}
	.st46{fill:#B4714C;}
	.st47{fill:#F9A35D;}
	.st48{fill:#DE8D54;}
	.st49{fill:#8F9192;}
	.st50{fill:#A8ABAB;}
	.st51{fill:#484A4C;}
	.st52{fill:#31454D;}
	.st53{fill:#4E595D;}
	.st54{fill:#F8982D;}
	.st55{fill:#888A8C;}
	.st56{fill:#C4D1D4;}
	.st57{fill:#ABADB0;}
	.st58{fill:#F3F4F4;}
	.st59{fill:#B1BABF;}
	.st60{fill:#DA4F27;}
	.st61{fill:#F26439;}
	.st62{fill:#FBBD77;}
	.st63{fill:#FEBE2B;}
	.st64{fill:#FDDA2D;}
	.st65{fill:#75888F;}
	.st66{clip-path:url(#SVGID_6_);fill:none;stroke:#000000;stroke-width:2;stroke-linecap:round;stroke-linejoin:round;}
	.st67{fill:#FBB15F;}
	.st68{fill:#95C93F;}
	.st69{fill:#BBBDC2;}
	.st70{fill:#A0A2A9;}
	.st71{fill:#F47C5F;}
	.st72{fill:#FDE6A6;}
	.st73{fill:#9EAAB5;}
	.st74{fill:#C1C9D1;}
	.st75{fill:#63CBE8;}
	.st76{fill:#A8D387;}
	.st77{fill:#EDC9AD;}
	.st78{fill:#D8AA86;}
	.st79{fill:#FBD474;}
	.st80{fill:#AF7754;}
	.st81{fill:#FCD362;}
	.st82{fill:#F89C68;}
	.st83{fill:#F383A4;}
	.st84{fill:#FED9BD;}
	.st85{fill:#F68E51;}
	.st86{fill:#8F5630;}
	.st87{fill:#FCC4A4;}
	.st88{fill:#75D1F7;}
	.st89{clip-path:url(#SVGID_8_);}
	.st90{fill:#FBC536;}
	.st91{fill:#F58226;}
	.st92{fill:#5D7A87;}
	.st93{fill:#CA2A2C;}
	.st94{fill:#F05344;}
	.st95{fill:#FCEC4E;}
	.st96{fill:#252C37;}
	.st97{clip-path:url(#SVGID_10_);fill:none;stroke:#000000;stroke-width:2;stroke-linecap:round;stroke-linejoin:round;}
	.st98{fill:#3D5CAA;}
	.st99{fill:#2DA4DD;}
	.st100{clip-path:url(#SVGID_12_);fill:none;stroke:#000000;stroke-width:2;stroke-linecap:round;stroke-linejoin:round;}
	.st101{fill:none;stroke:#000000;stroke-width:2;stroke-linecap:round;stroke-linejoin:round;}
	.st102{fill:#6A7184;}
	.st103{fill:#F7932D;}
	.st104{fill:#5B6373;}
	.st105{fill:#D8E8F7;}
	.st106{fill:#B9D5ED;}
	.st107{fill:#EEA249;}
	.st108{fill:#DD8637;}
	.st109{fill:#DAE2E6;}
	.st110{fill:#4BBA7A;}
	.st111{fill:#1F8642;}
	.st112{fill:#C3D6E0;}
	.st113{fill:#0B7CBF;}
	.st114{fill:#23459A;}
	.st115{fill:#93C5CE;}
	.st116{clip-path:url(#SVGID_14_);fill:none;stroke:#000000;stroke-width:2;stroke-linecap:round;stroke-linejoin:round;}
	.st117{fill:#F37F86;}
	.st118{fill:#F26B74;}
	.st119{fill:#F8E57F;}
	.st120{fill:#FFCD6C;}
	.st121{fill:#FEE6DB;}
	.st122{fill:#FDD6C5;}
	.st123{fill:#82959F;}
	.st124{clip-path:url(#SVGID_16_);fill:#738590;}
	.st125{clip-path:url(#SVGID_16_);}
	.st126{fill:#E2E3E3;}
	.st127{fill:#427DC0;}
	.st128{fill:#505359;}
	.st129{fill:#7F828A;}
	.st130{fill:#6F717C;}
	.st131{fill:#36393F;}
	.st132{fill:#F1D8C4;}
	.st133{fill:#60503C;}
	.st134{fill:#B66B27;}
	.st135{fill:#F69324;}
	.st136{fill:#D07C27;}
	.st137{fill:#8F9597;}
	.st138{fill:#F9A25F;}
	.st139{fill:#DD8C54;}
	.st140{fill:#8D9192;}
	.st141{fill:#A8ABAA;}
	.st142{fill:#30A2DC;}
	.st143{fill:#234695;}
	.st144{fill:#3D5DA9;}
	.st145{fill:#5D7A86;}
	.st146{fill:#4E5A5E;}
	.st147{fill:#75878D;}
	.st148{clip-path:url(#SVGID_18_);fill:none;stroke:#000000;stroke-linecap:round;stroke-linejoin:round;}
	.st149{fill:#F8E7D0;}
	.st150{fill:#F7BF30;}
	.st151{clip-path:url(#SVGID_20_);fill:#F4F3D2;}
	.st152{clip-path:url(#SVGID_20_);}
	.st153{clip-path:url(#SVGID_22_);fill:#F4F3D2;}
	.st154{clip-path:url(#SVGID_22_);}
	.st155{clip-path:url(#SVGID_24_);fill:#F4F3D2;}
	.st156{clip-path:url(#SVGID_24_);}
	.st157{clip-path:url(#SVGID_26_);fill:#F4F3D2;}
	.st158{clip-path:url(#SVGID_26_);}
	.st159{display:none;}
	.st160{display:inline;}
	.st161{display:inline;clip-path:url(#SVGID_28_);}
	.st162{display:inline;clip-path:url(#SVGID_28_);fill:#F8E7D0;}
	.st163{display:inline;clip-path:url(#SVGID_28_);fill:#F7BF30;}
	.st164{clip-path:url(#SVGID_30_);fill:#F4F3D2;}
	.st165{clip-path:url(#SVGID_30_);}
	.st166{clip-path:url(#SVGID_32_);fill:#F4F3D2;}
	.st167{clip-path:url(#SVGID_32_);}
	.st168{fill:#887D8C;}
	.st169{fill:#9C93A0;}
	.st170{fill:#FDCD9E;}
	.st171{fill:#FBB784;}
	.st172{fill:#FFE0BA;}
	.st173{fill:#BCE6F6;}
	.st174{fill:#F5EDE9;}
	.st175{fill:#EEE3DE;}
	.st176{fill:#F7F2F1;}
	.st177{fill:#FCE780;}
</style>
<rect x="16.5" y="66.6" class="st19" width="83.8" height="3.5"/>
<rect x="95.1" y="70.1" class="st19" width="3.5" height="14.1"/>
<rect x="19.1" y="70.1" class="st19" width="3.5" height="14.1"/>
<path class="st20" d="M40.4,84.2H26.3v-1.8c0-1,0.8-1.8,1.8-1.8h10.6c1,0,1.8,0.8,1.8,1.8V84.2z"/>
<path class="st20" d="M65.8,84.2H51.7v-1.8c0-1,0.8-1.8,1.8-1.8H64c1,0,1.8,0.8,1.8,1.8V84.2z"/>
<path class="st20" d="M91.5,84.2H77.4v-1.8c0-1,0.8-1.8,1.8-1.8h10.6c1,0,1.8,0.8,1.8,1.8V84.2z"/>
<rect x="79.4" y="63.6" class="st20" width="14.1" height="7.9"/>
<path d="M83.5,70.4h1.8c0.5,0,0.9-0.4,0.9-0.9s-0.4-0.9-0.9-0.9h-1.8c-0.5,0-0.9,0.4-0.9,0.9S83.1,70.4,83.5,70.4"/>
<rect x="28.3" y="63.6" class="st20" width="14.1" height="7.9"/>
<path d="M32.5,70.4h1.8c0.5,0,0.9-0.4,0.9-0.9s-0.4-0.9-0.9-0.9h-1.8c-0.5,0-0.9,0.4-0.9,0.9S32,70.4,32.5,70.4"/>
<path d="M100.2,65.6h-7.9c0-0.5-0.4-0.9-0.9-0.9H77.4c-0.5,0-0.9,0.4-0.9,0.9H41.2c0-0.5-0.4-0.9-0.9-0.9H26.2
	c-0.5,0-0.9,0.4-0.9,0.9h-8.8c-0.5,0-0.9,0.4-0.9,0.9V70c0,0.5,0.4,0.9,0.9,0.9h1.8v13.2c0,0.5,0.4,0.9,0.9,0.9h3.5
	c0.5,0,0.9-0.4,0.9-0.9V70.9h1.8v2.6c0,0.5,0.4,0.9,0.9,0.9H28v5.3c-1.5,0-2.6,1.2-2.6,2.6v1.8c0,0.5,0.4,0.9,0.9,0.9h14.1
	c0.5,0,0.9-0.4,0.9-0.9v-1.8c0-1.5-1.2-2.6-2.6-2.6v-5.3h1.8c0.5,0,0.9-0.4,0.9-0.9v-2.6h35.3v2.6c0,0.5,0.4,0.9,0.9,0.9h1.8v5.3
	c-1.5,0-2.6,1.2-2.6,2.6v1.8c0,0.5,0.4,0.9,0.9,0.9h14.1c0.5,0,0.9-0.4,0.9-0.9v-1.8c0-1.5-1.2-2.6-2.6-2.6v-5.3h1.8
	c0.5,0,0.9-0.4,0.9-0.9v-2.6h1.8v13.2c0,0.5,0.4,0.9,0.9,0.9h3.5c0.5,0,0.9-0.4,0.9-0.9V70.9h0.9c0.5,0,0.9-0.4,0.9-0.9v-3.5
	C101.1,66,100.7,65.6,100.2,65.6 M21.8,83.2h-1.8V70.9h1.8V83.2z M17.4,67.4h7.9v1.8h-7.9V67.4z M39.4,82.3v0.9H27.1v-0.9
	c0-0.5,0.4-0.9,0.9-0.9h10.6C39,81.5,39.4,81.9,39.4,82.3 M36.8,79.7h-7v-5.3h7V79.7z M39.4,72.7H27.1v-6.2h12.3V72.7z M41.2,67.4
	h35.3v1.8H41.2V67.4z M90.6,82.3v0.9H78.2v-0.9c0-0.5,0.4-0.9,0.9-0.9h10.6C90.2,81.5,90.6,81.9,90.6,82.3 M87.9,79.7h-7v-5.3h7
	V79.7z M90.6,72.7H78.2v-6.2h12.3V72.7z M97.6,83.2h-1.8V70.9h1.8V83.2z M99.4,69.1h-7v-1.8h7V69.1z"/>
<rect x="53.4" y="63.6" class="st20" width="14.1" height="7.9"/>
<path d="M57.5,70.4h1.8c0.5,0,0.9-0.4,0.9-0.9s-0.4-0.9-0.9-0.9h-1.8c-0.5,0-0.9,0.4-0.9,0.9S57,70.4,57.5,70.4"/>
<path d="M66.3,65.6c0-0.5-0.4-0.9-0.9-0.9H51.4c-0.5,0-0.9,0.4-0.9,0.9v5.3v2.6c0,0.5,0.4,0.9,0.9,0.9h1.8v5.3
	c-1.5,0-2.6,1.2-2.6,2.6v1.8c0,0.5,0.4,0.9,0.9,0.9h14.1c0.5,0,0.9-0.4,0.9-0.9v-1.8c0-1.5-1.2-2.6-2.6-2.6v-5.3h1.8
	c0.5,0,0.9-0.4,0.9-0.9v-2.6V65.6z M64.6,82.3v0.9H52.2v-0.9c0-0.5,0.4-0.9,0.9-0.9h10.6C64.2,81.5,64.6,81.9,64.6,82.3 M61.9,79.7
	h-7v-5.3h7V79.7z M64.6,72.7H52.2v-6.2h12.3V72.7z"/>
<rect x="16.5" y="89.6" class="st19" width="83.8" height="3.5"/>
<rect x="95.1" y="93.1" class="st19" width="3.5" height="14.1"/>
<rect x="19.1" y="93.1" class="st19" width="3.5" height="14.1"/>
<path class="st20" d="M40.4,107.2H26.3v-1.8c0-1,0.8-1.8,1.8-1.8h10.6c1,0,1.8,0.8,1.8,1.8V107.2z"/>
<path class="st20" d="M65.8,107.2H51.7v-1.8c0-1,0.8-1.8,1.8-1.8H64c1,0,1.8,0.8,1.8,1.8V107.2z"/>
<path class="st20" d="M91.5,107.2H77.4v-1.8c0-1,0.8-1.8,1.8-1.8h10.6c1,0,1.8,0.8,1.8,1.8V107.2z"/>
<rect x="79.4" y="86.5" class="st20" width="14.1" height="7.9"/>
<path d="M83.5,93.4h1.8c0.5,0,0.9-0.4,0.9-0.9c0-0.5-0.4-0.9-0.9-0.9h-1.8c-0.5,0-0.9,0.4-0.9,0.9C82.7,93,83.1,93.4,83.5,93.4"/>
<rect x="28.3" y="86.5" class="st20" width="14.1" height="7.9"/>
<path d="M32.5,93.4h1.8c0.5,0,0.9-0.4,0.9-0.9c0-0.5-0.4-0.9-0.9-0.9h-1.8c-0.5,0-0.9,0.4-0.9,0.9C31.6,93,32,93.4,32.5,93.4"/>
<path d="M100.2,88.6h-7.9c0-0.5-0.4-0.9-0.9-0.9H77.4c-0.5,0-0.9,0.4-0.9,0.9H41.2c0-0.5-0.4-0.9-0.9-0.9H26.2
	c-0.5,0-0.9,0.4-0.9,0.9h-8.8c-0.5,0-0.9,0.4-0.9,0.9V93c0,0.5,0.4,0.9,0.9,0.9h1.8v13.2c0,0.5,0.4,0.9,0.9,0.9h3.5
	c0.5,0,0.9-0.4,0.9-0.9V93.9h1.8v2.6c0,0.5,0.4,0.9,0.9,0.9H28v5.3c-1.5,0-2.6,1.2-2.6,2.6v1.8c0,0.5,0.4,0.9,0.9,0.9h14.1
	c0.5,0,0.9-0.4,0.9-0.9v-1.8c0-1.5-1.2-2.6-2.6-2.6v-5.3h1.8c0.5,0,0.9-0.4,0.9-0.9v-2.6h35.3v2.6c0,0.5,0.4,0.9,0.9,0.9h1.8v5.3
	c-1.5,0-2.6,1.2-2.6,2.6v1.8c0,0.5,0.4,0.9,0.9,0.9h14.1c0.5,0,0.9-0.4,0.9-0.9v-1.8c0-1.5-1.2-2.6-2.6-2.6v-5.3h1.8
	c0.5,0,0.9-0.4,0.9-0.9v-2.6h1.8v13.2c0,0.5,0.4,0.9,0.9,0.9h3.5c0.5,0,0.9-0.4,0.9-0.9V93.9h0.9c0.5,0,0.9-0.4,0.9-0.9v-3.5
	C101.1,89,100.7,88.6,100.2,88.6 M21.8,106.2h-1.8V93.9h1.8V106.2z M17.4,90.4h7.9v1.8h-7.9V90.4z M39.4,105.3v0.9H27.1v-0.9
	c0-0.5,0.4-0.9,0.9-0.9h10.6C39,104.4,39.4,104.8,39.4,105.3 M36.8,102.7h-7v-5.3h7V102.7z M39.4,95.6H27.1v-6.2h12.3V95.6z
	 M41.2,90.4h35.3v1.8H41.2V90.4z M90.6,105.3v0.9H78.2v-0.9c0-0.5,0.4-0.9,0.9-0.9h10.6C90.2,104.4,90.6,104.8,90.6,105.3
	 M87.9,102.7h-7v-5.3h7V102.7z M90.6,95.6H78.2v-6.2h12.3V95.6z M97.6,106.2h-1.8V93.9h1.8V106.2z M99.4,92.1h-7v-1.8h7V92.1z"/>
<rect x="53.4" y="86.5" class="st20" width="14.1" height="7.9"/>
<path d="M57.5,93.4h1.8c0.5,0,0.9-0.4,0.9-0.9c0-0.5-0.4-0.9-0.9-0.9h-1.8c-0.5,0-0.9,0.4-0.9,0.9C56.6,93,57,93.4,57.5,93.4"/>
<path d="M66.3,88.6c0-0.5-0.4-0.9-0.9-0.9H51.4c-0.5,0-0.9,0.4-0.9,0.9v5.3v2.6c0,0.5,0.4,0.9,0.9,0.9h1.8v5.3
	c-1.5,0-2.6,1.2-2.6,2.6v1.8c0,0.5,0.4,0.9,0.9,0.9h14.1c0.5,0,0.9-0.4,0.9-0.9v-1.8c0-1.5-1.2-2.6-2.6-2.6v-5.3h1.8
	c0.5,0,0.9-0.4,0.9-0.9v-2.6V88.6z M64.6,105.3v0.9H52.2v-0.9c0-0.5,0.4-0.9,0.9-0.9h10.6C64.2,104.4,64.6,104.8,64.6,105.3
	 M61.9,102.7h-7v-5.3h7V102.7z M64.6,95.6H52.2v-6.2h12.3V95.6z"/>
<path class="st126" d="M79.4,47H36.7V24.9c0-0.8,0.7-1.5,1.5-1.5h39.7c0.8,0,1.5,0.7,1.5,1.5V47z"/>
<rect x="38.9" y="25.7" class="st127" width="38.2" height="19.1"/>
<path class="st128" d="M60.2,23.5h-4.4l0.5-3.4c1.1,0.6,2.4,0.6,3.5,0L60.2,23.5z"/>
<path class="st129" d="M61.7,17.6c0,2-1.6,3.7-3.7,3.7c-2,0-3.7-1.6-3.7-3.7c0-2,1.6-3.7,3.7-3.7C60.1,13.9,61.7,15.5,61.7,17.6"/>
<path class="st70" d="M79.4,47v1.5c0,0.8-0.7,1.5-1.5,1.5H38.2c-0.8,0-1.5-0.7-1.5-1.5V47H79.4z"/>
<rect x="50.7" y="53.6" class="st70" width="14.7" height="2.9"/>
<rect x="55.8" y="49.9" class="st130" width="4.4" height="3.7"/>
<path class="st34" d="M59.5,17.6c0,0.8-0.7,1.5-1.5,1.5c-0.8,0-1.5-0.7-1.5-1.5c0-0.8,0.7-1.5,1.5-1.5
	C58.9,16.1,59.5,16.8,59.5,17.6"/>
<path class="st131" d="M55.9,39l-1.5,2.5l-1.5-1.1h-8.1c-1.6,0-2.9,1.3-2.9,2.9v1.5h14.7l2.1-3.8L55.9,39z"/>
<path class="st132" d="M58.7,37.4C58.7,37.4,58.7,37.4,58.7,37.4c0.9,0.5,1.2,1.5,0.7,2.3L58.7,41L55.9,39l0.6-1
	c0.3-0.5,0.8-0.8,1.4-0.8C58.2,37.2,58.4,37.3,58.7,37.4"/>
<polygon class="st5" points="50.7,40.4 48.5,43.3 46.3,40.4 "/>
<path class="st77" d="M50.2,37.7l0.5,2.6h-4.4l0.5-2.6C47.8,38.3,49.1,38.3,50.2,37.7"/>
<path class="st133" d="M52.2,31.5h-9.6c0-2,1.6-3.7,3.7-3.7c0.8,0,1.6,0.3,2.3,0.8c0.2-0.1,0.4-0.1,0.7-0.1
	C50.8,28.6,52.2,29.9,52.2,31.5"/>
<path class="st132" d="M44.8,31.5h7.4v2.9c0,2-1.6,3.7-3.7,3.7c-2,0-3.7-1.6-3.7-3.7V31.5z"/>
<path d="M76.9,23.7h-17l-0.3-1.6c1.6-1.1,2.2-3.1,1.7-4.9c-0.6-1.8-2.3-3.1-4.2-3.1c-1.9,0-3.6,1.2-4.2,3.1
	c-0.6,1.8,0.1,3.8,1.7,4.9l-0.3,1.6H37.9c-1.6,0-2.9,1.3-2.9,2.9v22.8c0,1.2,1,2.2,2.2,2.2h16.9v2.2h-4.4c-0.4,0-0.7,0.3-0.7,0.7
	v2.9c0,0.4,0.3,0.7,0.7,0.7h14.7c0.4,0,0.7-0.3,0.7-0.7v-2.9c0-0.4-0.3-0.7-0.7-0.7H60v-2.2h16.9c1.2,0,2.2-1,2.2-2.2V25.9
	C79.1,24.7,78.1,23.7,76.9,23.7 M54.1,18.6c0-1.2,0.7-2.3,1.8-2.7c1.1-0.5,2.4-0.2,3.2,0.6c0.8,0.8,1.1,2.1,0.6,3.2
	c-0.5,1.1-1.5,1.8-2.7,1.8C55.4,21.5,54.1,20.2,54.1,18.6 M58.4,23.7h-2.7l0.2-0.9c0.8,0.2,1.6,0.2,2.4,0L58.4,23.7z M63.7,56.8
	H50.4v-1.5h13.2V56.8z M55.6,51.7h2.9v2.2h-2.9V51.7z M77.6,49.5c0,0.4-0.3,0.7-0.7,0.7H37.2c-0.4,0-0.7-0.3-0.7-0.7v-0.7h41.2V49.5
	z M77.6,47.3H36.4V26.7c0-0.8,0.7-1.5,1.5-1.5h39c0.4,0,0.7,0.3,0.7,0.7V47.3z"/>
<path d="M58,19.8c0.9,0,1.7-0.5,2-1.4c0.3-0.8,0.2-1.8-0.5-2.4c-0.6-0.6-1.6-0.8-2.4-0.5c-0.8,0.3-1.4,1.1-1.4,2
	C55.8,18.8,56.8,19.8,58,19.8 M58,16.8c0.3,0,0.6,0.2,0.7,0.5c0.1,0.3,0.1,0.6-0.2,0.8c-0.2,0.2-0.5,0.3-0.8,0.2
	c-0.3-0.1-0.5-0.4-0.5-0.7C57.3,17.2,57.6,16.8,58,16.8"/>
<path d="M77.2,24.9H38.9c-0.4,0-0.7,0.3-0.7,0.7v19.1c0,0.4,0.3,0.7,0.7,0.7h38.2c0.4,0,0.7-0.3,0.7-0.7V25.7
	C77.9,25.3,77.6,24.9,77.2,24.9 M56.1,44H42.6v-0.7c0-1.2,1-2.2,2.2-2.2h1.1l2,2.6c0.1,0.2,0.4,0.3,0.6,0.3c0.2,0,0.4-0.1,0.6-0.3
	l2-2.6h1.6L54,42c0.2,0.1,0.4,0.2,0.6,0.1c0.2,0,0.4-0.2,0.5-0.3l1.1-1.8l1.6,1.2L56.1,44z M45.5,32.3h5.9v2.2
	c0,1.6-1.3,2.9-2.9,2.9c-1.6,0-2.9-1.3-2.9-2.9V32.3z M43.4,30.8c0.2-1,1-1.7,1.9-2.1c0.9-0.3,2-0.1,2.8,0.5
	c0.2,0.1,0.4,0.2,0.6,0.1c0.2,0,0.3-0.1,0.5-0.1c0.9,0,1.8,0.6,2.1,1.5H43.4z M47.2,39.6l0.2-0.9c0.7,0.2,1.5,0.2,2.3,0l0.2,0.9
	H47.2z M49.2,41.1l-0.7,1l-0.7-1H49.2z M56.9,38.8l0.2-0.4c0.3-0.4,0.8-0.6,1.2-0.3c0.2,0.1,0.4,0.3,0.5,0.6
	c0.1,0.2,0.1,0.5-0.1,0.7l-0.3,0.6L56.9,38.8z M76.4,44H57.8l2.2-4c0.3-0.6,0.4-1.3,0.2-1.9c-0.1-0.3-0.3-0.7-0.5-0.9l2.7-5.4
	l-1.3-0.7l-2.7,5.3c-1-0.2-2,0.2-2.5,1.1l-1.7,2.8l-0.9-0.6c-0.1-0.1-0.3-0.1-0.4-0.1h-1.6L51,38.1c1.2-0.8,1.9-2.2,1.9-3.6v-2.9
	c0-2-1.6-3.7-3.7-3.7c-0.2,0-0.3,0-0.5,0c-0.7-0.5-1.6-0.8-2.5-0.8c-2.4,0-4.4,2-4.4,4.4c0,0.4,0.3,0.7,0.7,0.7h1.5v2.2
	c0,1.4,0.7,2.8,1.9,3.6l-0.3,1.5h-0.9c-2,0-3.7,1.6-3.7,3.7V44h-1.5V26.4h36.8V44z"/>
<rect x="63.2" y="27.9" width="5.9" height="1.5"/>
<rect x="70.5" y="27.9" width="4.4" height="1.5"/>
<rect x="63.2" y="30.8" width="2.9" height="1.5"/>
<rect x="67.6" y="30.8" width="7.4" height="1.5"/>
<rect x="63.2" y="33.7" width="4.4" height="1.5"/>
<rect x="69.1" y="33.7" width="5.9" height="1.5"/>
<rect x="63.2" y="36.7" width="11.8" height="1.5"/>
<rect x="63.2" y="39.6" width="11.8" height="1.5"/>
</svg>
