<?xml version="1.0" encoding="UTF-8"?>
<svg id="Layer_1" data-name="Layer 1" xmlns="http://www.w3.org/2000/svg" viewBox="0 0 120 120">
  <defs>
    <style>
      .cls-1 {
        fill: #fff;
      }

      .cls-2 {
        fill: #427dc0;
      }

      .cls-3 {
        fill: #f1d8c4;
      }

      .cls-4 {
        fill: #a0a2a9;
      }

      .cls-5 {
        fill: #f15e3b;
      }

      .cls-6 {
        fill: #36393f;
      }

      .cls-7 {
        fill: #7f828a;
      }

      .cls-8 {
        fill: #323537;
      }

      .cls-9 {
        fill: #6f717c;
      }

      .cls-10 {
        fill: #edc9ad;
      }

      .cls-11 {
        fill: #4c2618;
      }

      .cls-12 {
        fill: #e2e3e3;
      }

      .cls-13 {
        fill: #231f20;
      }

      .cls-14 {
        fill: #505359;
      }

      .cls-15 {
        fill: #60503c;
      }
    </style>
  </defs>
  <rect class="cls-11" x="16.48" y="66.61" width="83.84" height="3.52"/>
  <rect class="cls-11" x="95.12" y="70.13" width="3.52" height="14.08"/>
  <rect class="cls-11" x="19.12" y="70.13" width="3.52" height="14.08"/>
  <path class="cls-8" d="M40.4,84.21h-14.08v-1.76c0-.97,.79-1.76,1.76-1.76h10.56c.97,0,1.76,.79,1.76,1.76v1.76Z"/>
  <path class="cls-8" d="M65.79,84.21h-14.08v-1.76c0-.97,.79-1.76,1.76-1.76h10.56c.97,0,1.76,.79,1.76,1.76v1.76Z"/>
  <path class="cls-8" d="M91.46,84.21h-14.08v-1.76c0-.97,.79-1.76,1.76-1.76h10.56c.97,0,1.76,.79,1.76,1.76v1.76Z"/>
  <rect class="cls-8" x="79.39" y="63.57" width="14.08" height="7.92"/>
  <path class="cls-13" d="M83.55,70.41h1.76c.49,0,.88-.39,.88-.88s-.39-.88-.88-.88h-1.76c-.49,0-.88,.4-.88,.88s.39,.88,.88,.88"/>
  <rect class="cls-8" x="28.32" y="63.57" width="14.08" height="7.92"/>
  <path class="cls-13" d="M32.48,70.41h1.76c.49,0,.88-.39,.88-.88s-.4-.88-.88-.88h-1.76c-.49,0-.88,.4-.88,.88s.4,.88,.88,.88"/>
  <path class="cls-13" d="M100.24,65.62h-7.92c0-.49-.39-.88-.88-.88h-14.08c-.49,0-.88,.39-.88,.88H41.19c0-.49-.39-.88-.88-.88h-14.08c-.49,0-.88,.39-.88,.88h-8.8c-.49,0-.88,.39-.88,.88v3.52c0,.49,.39,.88,.88,.88h1.76v13.2c0,.49,.39,.88,.88,.88h3.52c.49,0,.88-.4,.88-.88v-13.2h1.76v2.64c0,.49,.4,.88,.88,.88h1.76v5.28c-1.46,0-2.64,1.18-2.64,2.64v1.76c0,.49,.4,.88,.88,.88h14.08c.49,0,.88-.4,.88-.88v-1.76c0-1.46-1.18-2.64-2.64-2.64v-5.28h1.76c.49,0,.88-.39,.88-.88v-2.64h35.29v2.64c0,.49,.39,.88,.88,.88h1.76v5.28c-1.46,0-2.64,1.18-2.64,2.64v1.76c0,.49,.39,.88,.88,.88h14.08c.49,0,.88-.4,.88-.88v-1.76c0-1.46-1.18-2.64-2.64-2.64v-5.28h1.76c.49,0,.88-.39,.88-.88v-2.64h1.76v13.2c0,.49,.39,.88,.88,.88h3.52c.48,0,.88-.4,.88-.88v-13.2h.88c.49,0,.88-.39,.88-.88v-3.52c0-.49-.39-.88-.88-.88M21.83,83.22h-1.76v-12.32h1.76v12.32Zm-4.4-15.84h7.92v1.76h-7.92v-1.76Zm22,14.96v.88h-12.32v-.88c0-.49,.39-.88,.88-.88h10.56c.49,0,.88,.4,.88,.88m-2.64-2.64h-7.04v-5.28h7.04v5.28Zm2.64-7.04h-12.32v-6.16h12.32v6.16Zm1.76-5.28h35.29v1.76H41.19v-1.76Zm49.37,14.96v.88h-12.32v-.88c0-.49,.39-.88,.88-.88h10.56c.48,0,.88,.4,.88,.88m-2.64-2.64h-7.04v-5.28h7.04v5.28Zm2.64-7.04h-12.32v-6.16h12.32v6.16Zm7.04,10.56h-1.76v-12.32h1.76v12.32Zm1.76-14.08h-7.04v-1.76h7.04v1.76Z"/>
  <rect class="cls-8" x="53.36" y="63.57" width="14.08" height="7.92"/>
  <path class="cls-13" d="M57.52,70.41h1.76c.49,0,.88-.39,.88-.88s-.39-.88-.88-.88h-1.76c-.49,0-.88,.4-.88,.88s.39,.88,.88,.88"/>
  <path class="cls-13" d="M66.31,65.62c0-.49-.39-.88-.88-.88h-14.08c-.49,0-.88,.39-.88,.88v7.92c0,.49,.39,.88,.88,.88h1.76v5.28c-1.46,0-2.64,1.18-2.64,2.64v1.76c0,.49,.39,.88,.88,.88h14.08c.49,0,.88-.4,.88-.88v-1.76c0-1.46-1.18-2.64-2.64-2.64v-5.28h1.76c.49,0,.88-.39,.88-.88v-7.92Zm-1.76,16.72v.88h-12.32v-.88c0-.49,.39-.88,.88-.88h10.56c.49,0,.88,.4,.88,.88m-2.64-2.64h-7.04v-5.28h7.04v5.28Zm2.64-7.04h-12.32v-6.16h12.32v6.16Z"/>
  <rect class="cls-11" x="16.48" y="89.58" width="83.84" height="3.52"/>
  <rect class="cls-11" x="95.12" y="93.1" width="3.52" height="14.08"/>
  <rect class="cls-11" x="19.12" y="93.1" width="3.52" height="14.08"/>
  <path class="cls-8" d="M40.4,107.18h-14.08v-1.76c0-.97,.79-1.76,1.76-1.76h10.56c.97,0,1.76,.79,1.76,1.76v1.76Z"/>
  <path class="cls-8" d="M65.79,107.18h-14.08v-1.76c0-.97,.79-1.76,1.76-1.76h10.56c.97,0,1.76,.79,1.76,1.76v1.76Z"/>
  <path class="cls-8" d="M91.46,107.18h-14.08v-1.76c0-.97,.79-1.76,1.76-1.76h10.56c.97,0,1.76,.79,1.76,1.76v1.76Z"/>
  <rect class="cls-8" x="79.39" y="86.54" width="14.08" height="7.92"/>
  <path class="cls-13" d="M83.55,93.38h1.76c.49,0,.88-.39,.88-.88s-.39-.88-.88-.88h-1.76c-.49,0-.88,.39-.88,.88s.39,.88,.88,.88"/>
  <rect class="cls-8" x="28.32" y="86.54" width="14.08" height="7.92"/>
  <path class="cls-13" d="M32.48,93.38h1.76c.49,0,.88-.39,.88-.88s-.4-.88-.88-.88h-1.76c-.49,0-.88,.39-.88,.88s.4,.88,.88,.88"/>
  <path class="cls-13" d="M100.24,88.59h-7.92c0-.49-.39-.88-.88-.88h-14.08c-.49,0-.88,.4-.88,.88H41.19c0-.49-.39-.88-.88-.88h-14.08c-.49,0-.88,.4-.88,.88h-8.8c-.49,0-.88,.4-.88,.88v3.52c0,.49,.39,.88,.88,.88h1.76v13.2c0,.49,.39,.88,.88,.88h3.52c.49,0,.88-.39,.88-.88v-13.2h1.76v2.64c0,.49,.4,.88,.88,.88h1.76v5.28c-1.46,0-2.64,1.18-2.64,2.64v1.76c0,.49,.4,.88,.88,.88h14.08c.49,0,.88-.39,.88-.88v-1.76c0-1.46-1.18-2.64-2.64-2.64v-5.28h1.76c.49,0,.88-.39,.88-.88v-2.64h35.29v2.64c0,.49,.39,.88,.88,.88h1.76v5.28c-1.46,0-2.64,1.18-2.64,2.64v1.76c0,.49,.39,.88,.88,.88h14.08c.49,0,.88-.39,.88-.88v-1.76c0-1.46-1.18-2.64-2.64-2.64v-5.28h1.76c.49,0,.88-.39,.88-.88v-2.64h1.76v13.2c0,.49,.39,.88,.88,.88h3.52c.48,0,.88-.39,.88-.88v-13.2h.88c.49,0,.88-.39,.88-.88v-3.52c0-.48-.39-.88-.88-.88M21.83,106.19h-1.76v-12.32h1.76v12.32Zm-4.4-15.84h7.92v1.76h-7.92v-1.76Zm22,14.96v.88h-12.32v-.88c0-.49,.39-.88,.88-.88h10.56c.49,0,.88,.39,.88,.88m-2.64-2.64h-7.04v-5.28h7.04v5.28Zm2.64-7.04h-12.32v-6.16h12.32v6.16Zm1.76-5.28h35.29v1.76H41.19v-1.76Zm49.37,14.96v.88h-12.32v-.88c0-.49,.39-.88,.88-.88h10.56c.48,0,.88,.39,.88,.88m-2.64-2.64h-7.04v-5.28h7.04v5.28Zm2.64-7.04h-12.32v-6.16h12.32v6.16Zm7.04,10.56h-1.76v-12.32h1.76v12.32Zm1.76-14.08h-7.04v-1.76h7.04v1.76Z"/>
  <rect class="cls-8" x="53.36" y="86.54" width="14.08" height="7.92"/>
  <path class="cls-13" d="M57.52,93.38h1.76c.49,0,.88-.39,.88-.88s-.39-.88-.88-.88h-1.76c-.49,0-.88,.39-.88,.88s.39,.88,.88,.88"/>
  <path class="cls-13" d="M66.31,88.59c0-.49-.39-.88-.88-.88h-14.08c-.49,0-.88,.4-.88,.88v7.92c0,.49,.39,.88,.88,.88h1.76v5.28c-1.46,0-2.64,1.18-2.64,2.64v1.76c0,.49,.39,.88,.88,.88h14.08c.49,0,.88-.39,.88-.88v-1.76c0-1.46-1.18-2.64-2.64-2.64v-5.28h1.76c.49,0,.88-.39,.88-.88v-7.92Zm-1.76,16.72v.88h-12.32v-.88c0-.49,.39-.88,.88-.88h10.56c.49,0,.88,.39,.88,.88m-2.64-2.64h-7.04v-5.28h7.04v5.28Zm2.64-7.04h-12.32v-6.16h12.32v6.16Z"/>
  <path class="cls-12" d="M79.36,46.99H36.71V24.92c0-.81,.66-1.47,1.47-1.47h39.71c.81,0,1.47,.66,1.47,1.47v22.06Z"/>
  <rect class="cls-2" x="38.92" y="25.66" width="38.24" height="19.12"/>
  <path class="cls-14" d="M60.24,23.45h-4.41l.46-3.38c1.09,.59,2.4,.59,3.49,0l.46,3.38Z"/>
  <path class="cls-7" d="M61.71,17.57c0,2.03-1.65,3.68-3.68,3.68s-3.68-1.65-3.68-3.68,1.65-3.68,3.68-3.68,3.68,1.65,3.68,3.68"/>
  <path class="cls-4" d="M79.36,46.99v1.47c0,.81-.66,1.47-1.47,1.47H38.18c-.81,0-1.47-.66-1.47-1.47v-1.47h42.65Z"/>
  <rect class="cls-4" x="50.68" y="53.6" width="14.71" height="2.94"/>
  <rect class="cls-9" x="55.83" y="49.93" width="4.41" height="3.68"/>
  <path class="cls-5" d="M59.51,17.57c0,.81-.66,1.47-1.47,1.47s-1.47-.66-1.47-1.47,.66-1.47,1.47-1.47,1.47,.66,1.47,1.47"/>
  <path class="cls-6" d="M55.91,38.96l-1.52,2.48-1.49-1.07h-8.09c-1.62,0-2.94,1.32-2.94,2.94v1.47h14.71l2.09-3.76-2.75-2.06Z"/>
  <path class="cls-3" d="M58.68,37.37s.07,.04,.1,.06c.79,.46,1.06,1.46,.62,2.26l-.74,1.32-2.75-2.06,.59-.96c.31-.5,.85-.8,1.43-.8,.26,0,.52,.06,.75,.18"/>
  <polygon class="cls-1" points="50.68 40.37 48.48 43.31 46.27 40.37 50.68 40.37"/>
  <path class="cls-10" d="M50.16,37.75l.52,2.62h-4.41l.52-2.62c1.06,.55,2.31,.55,3.37,0"/>
  <path class="cls-15" d="M52.15,31.54h-9.56c0-2.03,1.65-3.68,3.68-3.68,.83,0,1.64,.29,2.28,.82,.22-.05,.44-.08,.66-.08,1.62,0,2.94,1.32,2.94,2.94"/>
  <path class="cls-3" d="M44.8,31.54h7.35v2.94c0,2.03-1.65,3.68-3.68,3.68s-3.68-1.65-3.68-3.68v-2.94Z"/>
  <path class="cls-13" d="M76.89,23.72h-17.03l-.27-1.55c1.57-1.11,2.24-3.11,1.65-4.94-.58-1.83-2.28-3.07-4.2-3.07s-3.62,1.24-4.2,3.07c-.58,1.83,.09,3.83,1.65,4.94l-.27,1.55h-16.29c-1.62,0-2.94,1.32-2.94,2.94v22.8c0,1.22,.99,2.2,2.21,2.21h16.91v2.21h-4.41c-.41,0-.74,.33-.74,.74v2.94c0,.41,.33,.74,.74,.74h14.71c.41,0,.74-.33,.74-.74v-2.94c0-.41-.33-.74-.74-.74h-4.41v-2.21h16.91c1.22,0,2.2-.99,2.21-2.21V25.92c0-1.22-.99-2.2-2.21-2.21m-22.8-5.15c0-1.19,.72-2.26,1.82-2.72,1.1-.46,2.36-.2,3.21,.64s1.09,2.11,.64,3.21c-.46,1.1-1.53,1.82-2.72,1.82-1.62,0-2.94-1.32-2.94-2.94m4.27,5.15h-2.66l.15-.9c.77,.22,1.58,.22,2.35,0l.15,.9Zm5.29,33.09h-13.24v-1.47h13.24v1.47Zm-8.09-5.15h2.94v2.21h-2.94v-2.21Zm22.06-2.21c0,.41-.33,.74-.74,.74H37.18c-.41,0-.74-.33-.74-.74v-.74h41.18v.74Zm0-2.21H36.45V26.66c0-.81,.66-1.47,1.47-1.47h38.98c.4,0,.74,.33,.74,.74v21.33Z"/>
  <path class="cls-13" d="M58.04,19.78c.89,0,1.7-.54,2.04-1.36,.34-.82,.15-1.77-.48-2.4-.63-.63-1.58-.82-2.4-.48-.82,.34-1.36,1.15-1.36,2.04,0,1.22,.99,2.21,2.21,2.21m0-2.94c.3,0,.56,.18,.68,.45,.11,.27,.05,.59-.16,.8-.21,.21-.53,.27-.8,.16-.28-.11-.45-.38-.45-.68,0-.41,.33-.74,.74-.74"/>
  <path class="cls-13" d="M77.16,24.92H38.92c-.41,0-.73,.33-.73,.74v19.12c0,.41,.33,.74,.73,.74h38.24c.41,0,.74-.33,.74-.74V25.66c0-.4-.33-.74-.74-.74m-21.02,19.12h-13.54v-.73c0-1.22,.99-2.2,2.21-2.21h1.1l1.99,2.65c.14,.18,.36,.29,.59,.29s.45-.11,.59-.29l1.99-2.65h1.6l1.3,.93c.16,.12,.37,.17,.57,.12,.2-.04,.38-.16,.48-.34l1.1-1.79,1.6,1.19-1.57,2.82Zm-10.6-11.77h5.88v2.21c0,1.62-1.32,2.94-2.94,2.94s-2.94-1.32-2.94-2.94v-2.21Zm-2.11-1.47c.24-.97,.96-1.74,1.91-2.06,.95-.31,1.99-.12,2.76,.51,.18,.14,.41,.19,.63,.14,.16-.04,.33-.06,.49-.06,.93,0,1.77,.59,2.08,1.47h-7.87Zm3.74,8.82l.18-.89c.74,.21,1.52,.21,2.26,0l.18,.89h-2.62Zm2.04,1.47l-.74,.98-.74-.98h1.47Zm7.67-2.33l.24-.39c.25-.42,.79-.57,1.22-.35,.23,.12,.4,.32,.48,.57,.08,.25,.05,.51-.07,.74l-.32,.58-1.54-1.15Zm19.54,5.27h-18.61l2.22-3.99c.32-.57,.39-1.26,.19-1.88-.1-.35-.29-.67-.54-.93l2.68-5.37-1.31-.66-2.65,5.31c-.99-.21-2,.23-2.54,1.09l-1.7,2.76-.85-.6c-.12-.09-.27-.14-.43-.14h-1.6l-.3-1.52c1.19-.82,1.9-2.18,1.9-3.62v-2.94c0-2.03-1.65-3.68-3.68-3.68-.16,0-.32,.02-.48,.04-.72-.5-1.58-.77-2.46-.77-2.44,0-4.41,1.98-4.41,4.41,0,.4,.33,.74,.74,.74h1.47v2.21c0,1.45,.71,2.8,1.9,3.62l-.3,1.52h-.87c-2.03,0-3.68,1.64-3.68,3.68v.73h-1.47V26.4h36.77v17.65Z"/>
  <rect class="cls-13" x="63.19" y="27.87" width="5.88" height="1.47"/>
  <rect class="cls-13" x="70.54" y="27.87" width="4.41" height="1.47"/>
  <rect class="cls-13" x="63.19" y="30.81" width="2.94" height="1.47"/>
  <rect class="cls-13" x="67.6" y="30.81" width="7.35" height="1.47"/>
  <rect class="cls-13" x="63.19" y="33.75" width="4.41" height="1.47"/>
  <rect class="cls-13" x="69.07" y="33.75" width="5.88" height="1.47"/>
  <rect class="cls-13" x="63.19" y="36.69" width="11.77" height="1.47"/>
  <rect class="cls-13" x="63.19" y="39.63" width="11.77" height="1.47"/>
</svg>