<?xml version="1.0" encoding="UTF-8"?>
<svg id="Layer_1" data-name="Layer 1" xmlns="http://www.w3.org/2000/svg" viewBox="0 0 120 120">
  <defs>
    <style>
      .cls-1 {
        fill: #fdd7c6;
      }

      .cls-2 {
        fill: #37617e;
      }

      .cls-3 {
        fill: #945c5d;
      }

      .cls-4 {
        fill: #4b80a7;
      }

      .cls-5 {
        fill: #416f8d;
      }

      .cls-6 {
        fill: #c8eaf5;
      }

      .cls-7 {
        fill: #dd6871;
      }

      .cls-8 {
        fill: #fbc6b6;
      }

      .cls-9 {
        fill: #f8aa9b;
      }

      .cls-10 {
        fill: #8dcda4;
      }

      .cls-11 {
        fill: #427292;
      }

      .cls-12 {
        fill: #a2ddf2;
      }

      .cls-13 {
        fill: #a96a6b;
      }

      .cls-14 {
        fill: #daf1fb;
      }

      .cls-15 {
        fill: #a9d69e;
      }
    </style>
  </defs>
  <path class="cls-4" d="M73.66,101.1c-2.03-1.35-3.26-3.75-3.26-6.32v-6.45l-.94-.89h-17.73l-1.84,.89v6.45c0,2.58-1.24,4.97-3.26,6.32l-4.55,3.03,.94,.87h34.42l.76-.87-4.55-3.03Zm0,0"/>
  <path class="cls-11" d="M56.02,101.1c2.03-1.35,3.26-3.75,3.26-6.32v-6.45l1.84-.89h-9.39l-1.84,.89v6.45c0,2.58-1.24,4.97-3.26,6.32l-4.55,3.03,.94,.87h9.39l-.94-.87,4.55-3.03Zm0,0"/>
  <path class="cls-5" d="M108.54,9.98H11.75c-3.5,0-6.35,2.85-6.35,6.35V81.98c0,3.5,2.85,6.35,6.35,6.35H108.54c3.5,0,6.35-2.85,6.35-6.35V16.33c0-3.5-2.85-6.35-6.35-6.35h0Zm0,0"/>
  <path class="cls-2" d="M12.6,81.98V16.33c0-3.5,2.85-6.35,6.35-6.35h-7.2c-3.5,0-6.35,2.85-6.35,6.35V81.98c0,3.5,2.85,6.35,6.35,6.35h7.2c-3.5,0-6.35-2.85-6.35-6.35h0Zm0,0"/>
  <path class="cls-14" d="M107.02,24.1H13.84l-1.56,.93v55.52c0,.5,.41,.91,.91,.91h6.64l1.39-1.11H60.15l1.44,1.11h45.52c.5,0,.91-.41,.91-.91V25.03l-.99-.93Zm0,0"/>
  <path class="cls-13" d="M55.26,56.79c-.69-.36-1.3-.76-1.75-1.29-.24-.28-.36-.63-.36-1v-9.71c0-6.92-5.66-12.52-12.6-12.43-6.83,.09-12.27,5.79-12.27,12.62v9.52c0,.37-.13,.72-.37,1h0c-.45,.53-1.06,.94-1.75,1.29-2.11,1.09-2.72,7.13,1.35,9.04l.55,.57h24.82l1.04-.57c4.08-1.9,3.46-7.95,1.35-9.04h0Zm0,0"/>
  <path class="cls-3" d="M31.33,56.79c.69-.36,1.3-.76,1.75-1.29h0c.24-.28,.37-.64,.37-1v-9.52c0-6.01,4.2-11.13,9.85-12.35-.89-.19-1.81-.29-2.76-.27-6.83,.09-12.27,5.78-12.27,12.62v9.52c0,.37-.13,.72-.37,1h0c-.45,.53-1.06,.94-1.75,1.29-2.11,1.09-2.72,7.13,1.35,9.04l.55,.57h5.18l-.54-.57c-4.08-1.9-3.46-7.95-1.35-9.04h0Zm0,0"/>
  <path class="cls-6" d="M19.83,81.46l1.39-1.11h.98V24.1H13.84l-1.56,.93v55.52c0,.5,.41,.91,.91,.91h6.64Zm0,0"/>
  <path class="cls-5" d="M81.99,104.14H38.3c-1.22,0-2.2,.99-2.2,2.2v2.47c0,1.22,.99,2.2,2.2,2.2h43.69c1.22,0,2.2-.99,2.2-2.2v-2.47c0-1.22-.99-2.2-2.2-2.2h0Zm0,0"/>
  <path class="cls-2" d="M45.49,108.8v-2.47c0-1.22,.99-2.2,2.2-2.2h-9.39c-1.22,0-2.2,.99-2.2,2.2v2.47c0,1.22,.99,2.2,2.2,2.2h9.39c-1.22,0-2.2-.99-2.2-2.2h0Zm0,0"/>
  <path class="cls-15" d="M57.17,67.09c-.42-.16-6.65-2.58-9.74-3.77-1.46,2.08-3.87,3.45-6.6,3.45-3.02,0-5.42-1.41-6.84-3.45-2.98,1.15-9.63,3.73-9.73,3.77-1.89,.78-4.42,3.22-4.42,6.85v7.51H61.59v-7.51c0-3.13-2-5.86-4.42-6.85h0Zm0,0"/>
  <path class="cls-7" d="M22.2,16.85H13.19c-.5,0-.91,.41-.91,.91v7.26h9.92l.4-.32v-7.3l-.4-.55Zm0,0"/>
  <path class="cls-12" d="M107.11,16.85H22.2v8.17H108.02v-7.26c0-.5-.41-.91-.91-.91h0Zm0,0"/>
  <path class="cls-8" d="M33.75,63.41c1.39,2.23,3.88,3.8,7.07,3.8,2.88,0,5.41-1.52,6.84-3.8-1.04-.4-1.78-.69-1.91-.74-.31-.12-.52-.42-.52-.76v-3.4c-1.27,.87-2.8,1.37-4.44,1.37-1.78,0-3.34-.51-4.61-1.35v3.38c0,.63-.56,.78-.8,.87-.04,.02-.68,.26-1.64,.64h0Zm0,0"/>
  <path class="cls-10" d="M23.31,72.86c0-2.59,1.5-4.9,2.97-6.55-1.18,.46-2,.77-2.03,.79-1.89,.78-4.42,3.22-4.42,6.85v7.51h3.48v-8.6h0Zm0,0"/>
  <path class="cls-9" d="M40.71,59.88c-1.75-.02-3.28-.52-4.52-1.35v3.38c0,.63-.56,.78-.8,.87-.04,.02-.68,.26-1.64,.64,1.37,2.21,3.83,3.76,6.96,3.8v-7.33Zm0,0"/>
  <path class="cls-1" d="M47.83,46.85h-1.27c-.25,0-.27,0-1.67-.13-1.93-.16-3.6-1.63-4.06-3.53-.01-.06-.07-.1-.13-.1s-.12,.04-.13,.1c-.47,1.93-2.17,3.39-4.1,3.54,.11,0-1.43,.12-1.7,.12h-1.19c-.5,0-.91,.41-.91,.91v4.86c0,4.16,3.28,7.96,8.23,7.92,4.36-.04,7.84-3.64,7.84-8v-4.78c0-.5-.41-.91-.91-.91h0Zm0,0"/>
  <path class="cls-8" d="M37.85,52.62v-6.23c-.43,.18-.9,.3-1.37,.34,.11,0-1.43,.12-1.7,.12h-1.19c-.5,0-.91,.41-.91,.91v4.86c0,4.16,3.28,7.96,8.23,7.92,.85,0,1.66-.15,2.43-.41-3.38-1.08-5.48-4.18-5.48-7.51h0Zm0,0"/>
  <path d="M13.2,15.13c-1.41,0-2.57,1.15-2.57,2.57v62.77c0,1.41,1.15,2.57,2.57,2.57H107.12c1.41,0,2.57-1.15,2.57-2.57V17.69c0-1.41-1.15-2.57-2.57-2.57H13.2Zm.74,3.3h6.62v4.87h-6.62v-4.87Zm46.01,61.3h-4.28v-5.9c0-.91-.74-1.65-1.65-1.65s-1.65,.74-1.65,1.65v5.9H29.08v-5.9c0-.91-.74-1.65-1.65-1.65s-1.65,.74-1.65,1.65v5.9h-4.28v-5.86c0-2.87,2.02-4.75,3.38-5.32,.07-.03,8.26-3.2,8.3-3.22,3.73,4.45,11.07,4.78,15.08,0,4.39,1.7,6.95,2.69,8.31,3.22,1.68,.7,3.38,2.75,3.38,5.32v5.86Zm-5.43-21.54c.77,.4,1.48,4.13-.73,5.74-2.57-1-5.65-2.19-6.89-2.67v-1.33c2.28-1.89,3.52-4.66,3.52-7.46v-4.78c0-1.41-1.15-2.56-2.56-2.56-1.72,0-1.11,.02-2.8-.12-1.21-.1-2.3-1.06-2.59-2.27-.2-.81-.91-1.37-1.74-1.37s-1.54,.56-1.74,1.37c-.28,1.14-1.29,2.16-2.65,2.28-1.67,.14-1.46,.11-2.74,.11-1.41,0-2.56,1.15-2.56,2.56v4.86c0,2.92,1.34,5.64,3.51,7.4v1.31c-1.09,.42-5.19,2.01-6.89,2.67-2.21-1.61-1.51-5.35-.74-5.74,1.59-.82,3.02-1.98,3.02-3.76v-9.52c0-5.97,4.77-10.89,10.64-10.97,6-.08,10.93,4.75,10.93,10.78v9.71c0,1.78,1.41,2.93,3.01,3.76h0Zm-14.18,.61c-3.56-.23-6-3.02-6-6.25v-4.12c2.64,0,4.68-.29,6.39-2.16,1.75,1.91,3.81,2.16,6.38,2.16v4.04c0,3.49-2.92,6.58-6.77,6.33h0Zm4.58,5.23c-2.55,2.12-6.19,1.8-8.39-.01,.95-.52,1.33-1.28,1.33-2.32,1.8,.54,3.85,.6,5.74,.02,0,1.11,.51,1.89,1.33,2.31h0Zm61.47,15.71H63.25v-5.86c0-3.62-2.24-7.06-5.44-8.38-.01,0-.02,0-.03-.01-.07-.03-.31-.12-.66-.26,2.45-3.28,1.65-8.56-1.08-9.97-.58-.3-.97-.57-1.22-.86v-9.67c0-7.83-6.37-14.18-14.27-14.09-7.67,.1-13.9,6.5-13.9,14.27v9.47c-.26,.29-.65,.57-1.23,.87-2.74,1.41-3.53,6.71-1.08,9.97-.4,.15-.64,.25-.66,.26-.01,0-.02,0-.03,.01-2.62,1.08-5.44,4.16-5.44,8.38v5.86h-4.25V26.6H106.38v53.13Zm0-56.43H23.86v-4.87H106.38v4.87Zm0,0"/>
  <path d="M68.42,36.9h2.25c.91,0,1.65-.74,1.65-1.65s-.74-1.65-1.65-1.65h-2.25c-.91,0-1.65,.74-1.65,1.65s.74,1.65,1.65,1.65h0Zm0,0"/>
  <path d="M68.42,43.78h2.25c.91,0,1.65-.74,1.65-1.65s-.74-1.65-1.65-1.65h-2.25c-.91,0-1.65,.74-1.65,1.65s.74,1.65,1.65,1.65h0Zm0,0"/>
  <path d="M68.42,50.66h2.25c.91,0,1.65-.74,1.65-1.65s-.74-1.65-1.65-1.65h-2.25c-.91,0-1.65,.74-1.65,1.65s.74,1.65,1.65,1.65h0Zm0,0"/>
  <path d="M68.42,57.54h2.25c.91,0,1.65-.74,1.65-1.65s-.74-1.65-1.65-1.65h-2.25c-.91,0-1.65,.74-1.65,1.65s.74,1.65,1.65,1.65h0Zm0,0"/>
  <path d="M68.42,64.33h2.25c.91,0,1.65-.74,1.65-1.65s-.74-1.65-1.65-1.65h-2.25c-.91,0-1.65,.74-1.65,1.65s.74,1.65,1.65,1.65h0Zm0,0"/>
  <path d="M68.42,71.21h2.25c.91,0,1.65-.74,1.65-1.65s-.74-1.65-1.65-1.65h-2.25c-.91,0-1.65,.74-1.65,1.65s.74,1.65,1.65,1.65h0Zm0,0"/>
  <path d="M76.94,36.9h20.75c.91,0,1.65-.74,1.65-1.65s-.74-1.65-1.65-1.65h-20.75c-.91,0-1.65,.74-1.65,1.65s.74,1.65,1.65,1.65h0Zm0,0"/>
  <path d="M76.94,43.78h20.75c.91,0,1.65-.74,1.65-1.65s-.74-1.65-1.65-1.65h-20.75c-.91,0-1.65,.74-1.65,1.65s.74,1.65,1.65,1.65h0Zm0,0"/>
  <path d="M76.94,50.66h20.75c.91,0,1.65-.74,1.65-1.65s-.74-1.65-1.65-1.65h-20.75c-.91,0-1.65,.74-1.65,1.65s.74,1.65,1.65,1.65h0Zm0,0"/>
  <path d="M76.94,57.54h20.75c.91,0,1.65-.74,1.65-1.65s-.74-1.65-1.65-1.65h-20.75c-.91,0-1.65,.74-1.65,1.65s.74,1.65,1.65,1.65h0Zm0,0"/>
  <path d="M76.94,64.33h20.75c.91,0,1.65-.74,1.65-1.65s-.74-1.65-1.65-1.65h-20.75c-.91,0-1.65,.74-1.65,1.65s.74,1.65,1.65,1.65h0Zm0,0"/>
  <path d="M76.94,71.21h20.75c.91,0,1.65-.74,1.65-1.65s-.74-1.65-1.65-1.65h-20.75c-.91,0-1.65,.74-1.65,1.65s.74,1.65,1.65,1.65h0Zm0,0"/>
  <path d="M114.9,49.54c.91,0,1.65-.74,1.65-1.65V16.26c0-4.41-3.59-8-8-8H11.76c-4.41,0-8,3.59-8,8V81.91c0,4.41,3.59,8,8,8H48.25v4.8c0,2.01-.97,3.91-2.53,4.95l-4.13,2.75h-3.28c-2.13,0-3.86,1.73-3.86,3.86v2.47c0,2.13,1.73,3.86,3.86,3.86h17.99c.91,0,1.65-.74,1.65-1.65s-.74-1.65-1.65-1.65h-17.99c-.3,0-.55-.25-.55-.55v-2.47c0-.3,.25-.55,.55-.55h43.69c.3,0,.55,.25,.55,.55v2.47c0,.3-.25,.55-.55,.55h-17.99c-.91,0-1.65,.74-1.65,1.65s.74,1.65,1.65,1.65h17.99c2.12,0,3.86-1.73,3.86-3.86v-2.47c0-2.13-1.73-3.86-3.86-3.86h-3.28l-4.13-2.75c-1.56-1.04-2.53-2.94-2.53-4.95v-4.8h36.49c4.41,0,8-3.59,8-8v-26.31c0-.91-.74-1.65-1.65-1.65s-1.65,.74-1.65,1.65v26.31c0,2.59-2.11,4.7-4.7,4.7H11.76c-2.59,0-4.7-2.11-4.7-4.7V16.26c0-2.59,2.11-4.7,4.7-4.7H108.55c2.59,0,4.7,2.11,4.7,4.7v31.63c0,.91,.74,1.65,1.65,1.65h0Zm-63.35,45.17v-4.8h17.2v4.8c0,3.15,1.5,6.03,4,7.7h0s-25.22,0-25.22,0h0c2.5-1.68,4-4.55,4-7.7h0Zm0,0"/>
</svg>