<?xml version="1.0" encoding="UTF-8"?>
<svg id="Layer_1" data-name="Layer 1" xmlns="http://www.w3.org/2000/svg" viewBox="0 0 120 120">
  <defs>
    <style>
      .cls-1 {
        fill: #4bba7a;
      }

      .cls-2 {
        fill: #c3d6e0;
      }

      .cls-3 {
        fill: #1f8642;
      }

      .cls-4 {
        fill: #dae2e6;
      }

      .cls-5 {
        fill: #dd8637;
      }

      .cls-6 {
        fill: #eea249;
      }
    </style>
  </defs>
  <path class="cls-6" d="M67.93,90.48h-9.66V33.2h9.66c.41,0,.74,.33,.74,.74v55.79c0,.41-.33,.74-.74,.74"/>
  <path class="cls-5" d="M86.02,90.48h-5.69V33.2h5.69c.41,0,.74,.33,.74,.74v55.79c0,.41-.33,.74-.74,.74"/>
  <path class="cls-4" d="M58.92,33.2l5.2,4.33,3.62-3.01c.54-.44,.22-1.31-.48-1.31h-8.35Z"/>
  <path class="cls-1" d="M49.02,33.2v-11.59c0-.41-.33-.74-.74-.74h-6.3c-.41,0-.74-.33-.74-.74v-2.78c0-.41,.33-.74,.74-.74h8.97c1.23,0,2.23,1,2.23,2.23v14.37h-4.16Z"/>
  <path class="cls-3" d="M49.56,18.83v14.37h-2.48v-14.37c0-1.23-1-2.23-2.23-2.23h2.48c1.23,0,2.23,1,2.23,2.23"/>
  <path class="cls-6" d="M75.34,90.48H41.95c-.41,0-.74-.33-.74-.74V33.94c0-.41,.33-.74,.74-.74h33.39v57.28Z"/>
  <rect class="cls-5" x="73.86" y="33.2" width="6.44" height="57.28"/>
  <rect class="cls-4" x="41.24" y="45.21" width="44.47" height="33.26"/>
  <rect class="cls-2" x="68.69" y="45.21" width="6.44" height="33.26"/>
  <rect class="cls-2" x="79.03" y="45.21" width="6.44" height="33.26"/>
  <path d="M82.96,34.08h-19.57c-.62,0-1.12,.5-1.12,1.12s.5,1.12,1.12,1.12h8.79v9.78h-31.84v-9.78h15.27c.62,0,1.12-.5,1.12-1.12s-.5-1.12-1.12-1.12h-3.32v-13.26c0-1.84-1.5-3.35-3.35-3.35h-8.97c-1.03,0-1.86,.83-1.86,1.86v2.78c0,1.03,.83,1.86,1.86,1.86h5.92v10.1h-5.92c-1.03,0-1.86,.83-1.86,1.86v55.79c0,1.02,.83,1.86,1.86,1.86h5.68c.62,0,1.12-.5,1.12-1.12s-.5-1.12-1.12-1.12h-5.31v-9.78h31.84v9.78h-18.8c-.62,0-1.11,.5-1.11,1.12s.5,1.12,1.11,1.12h29.58c1.02,0,1.86-.83,1.86-1.86V35.94c0-1.02-.83-1.86-1.86-1.86m-36.69-12.33h-5.92v-2.04h8.6c.62,0,1.12,.5,1.12,1.11v13.26h-1.93v-10.47c0-1.03-.83-1.86-1.86-1.86m36.32,57.61h-8.11v-31.03h8.11v31.03Zm-8.11-33.26v-8.46l3.31,2.75c.21,.17,.46,.26,.71,.26s.51-.09,.71-.26l3.38-2.81v8.52h-8.11Zm6.14-9.78l-2.12,1.76-2.12-1.76h4.24Zm-40.27,12.01h31.84v31.03h-31.84v-31.03Zm34.13,33.26h8.11v9.78h-8.11v-9.78Z"/>
  <path class="cls-1" d="M67.28,51.08s-2.64-1.26-5.21,.54c-2.61,1.73-2.41,4.65-2.41,4.65,0,0,2.64,1.26,5.21-.54,2.61-1.73,2.41-4.65,2.41-4.65"/>
  <path class="cls-3" d="M64.87,55.73c-2.57,1.8-5.21,.54-5.21,.54,0,0-.02-.36,.06-.9,.97,.24,2.73,.42,4.47-.79,1.7-1.12,2.21-2.75,2.35-3.75,.47,.12,.75,.25,.75,.25,0,0,.2,2.92-2.41,4.65"/>
  <path class="cls-6" d="M63.47,55.63c4.81,0,8.7,3.9,8.7,8.7s-3.9,8.7-8.7,8.7-8.7-3.9-8.7-8.7,3.89-8.7,8.7-8.7"/>
  <path class="cls-5" d="M71.78,64.18c.08,4.81-3.74,8.77-8.55,8.85-3.57,.06-6.67-2.03-8.06-5.07,1.26,.67,2.69,1.03,4.22,1.01,4.81-.08,8.63-4.05,8.55-8.85-.02-1.24-.3-2.42-.79-3.48,2.71,1.43,4.58,4.26,4.64,7.54"/>
  <path d="M70.96,56.65c3.11-2.07,2.91-5.51,2.9-5.65-.03-.4-.27-.76-.63-.93-.13-.06-3.26-1.51-6.32,.62-1.38,.91-2.1,2.1-2.48,3.15v-2.12c0-.62-.5-1.12-1.12-1.12s-1.12,.5-1.12,1.12v2.82c-2.41,.17-4.65,1.22-6.34,2.97-1.82,1.88-2.8,4.37-2.76,6.99,.05,2.62,1.11,5.07,3,6.89,1.84,1.78,4.26,2.76,6.82,2.76,.06,0,.12,0,.18,0,2.62-.04,5.07-1.11,6.89-3,1.82-1.89,2.8-4.37,2.75-6.99-.05-2.68-1.17-5.1-2.96-6.84,.39-.17,.79-.38,1.19-.66m-2.81-4.11s.01-.01,.02-.02c1.3-.91,2.63-.83,3.41-.66-.12,.79-.54,2.05-1.86,2.93,0,0-.02,.01-.02,.01-.82,.57-1.64,.75-2.34,.77-.33-.17-.66-.31-1.01-.44,.18-.78,.64-1.83,1.8-2.6m-5.11,19.37c-2.02,.04-3.95-.72-5.4-2.13-1.46-1.41-2.28-3.3-2.32-5.32s.72-3.95,2.13-5.4c1.41-1.46,3.3-2.28,5.33-2.32,.05,0,.09,0,.13,0,4.12,0,7.51,3.32,7.58,7.45,.07,4.18-3.27,7.65-7.45,7.72"/>
</svg>