<?xml version="1.0" encoding="UTF-8"?>
<svg id="Layer_1" data-name="Layer 1" xmlns="http://www.w3.org/2000/svg" viewBox="0 0 120 120">
  <defs>
    <style>
      .cls-1 {
        fill: #fde6a6;
      }

      .cls-2 {
        fill: #a0a2a9;
      }

      .cls-3 {
        fill: #f47c5f;
      }

      .cls-4 {
        fill: #bbbdc2;
      }

      .cls-5 {
        fill: #fbb15f;
      }

      .cls-6 {
        fill: #95c93f;
      }

      .cls-7 {
        fill: #231f20;
      }
    </style>
  </defs>
  <rect class="cls-5" x="92.64" y="90.18" width="4.85" height="9.7"/>
  <rect class="cls-6" x="82.94" y="85.33" width="14.55" height="4.85"/>
  <rect class="cls-5" x="92.64" y="68.36" width="4.85" height="16.97"/>
  <rect class="cls-5" x="82.94" y="90.18" width="4.85" height="9.7"/>
  <rect class="cls-4" x="36.87" y="65.93" width="50.92" height="29.1"/>
  <rect class="cls-2" x="36.87" y="46.53" width="50.92" height="19.4"/>
  <rect class="cls-4" x="36.87" y="29.56" width="50.92" height="16.97"/>
  <rect class="cls-3" x="75.95" y="53.41" width="4.85" height="12.12" transform="translate(-19.23 47.14) rotate(-29.99)"/>
  <rect class="cls-6" x="41.72" y="73.21" width="41.22" height="7.28"/>
  <path class="cls-3" d="M82.94,42.9v3.64h-8.49c-2.01,0-3.64-1.63-3.64-3.64s1.63-3.64,3.64-3.64h8.49v3.64Z"/>
  <polygon class="cls-2" points="73.24 55.43 79.31 65.93 73.24 65.93 73.24 55.43"/>
  <polygon class="cls-5" points="78.09 95.03 78.09 99.88 73.24 99.88 73.24 80.48 78.09 80.48 78.09 95.03"/>
  <rect class="cls-6" x="51.42" y="90.18" width="21.82" height="4.85"/>
  <rect class="cls-4" x="51.42" y="80.48" width="21.82" height="9.7"/>
  <polygon class="cls-1" points="73.24 55.43 73.24 65.93 68.39 65.93 68.39 53.81 73.24 53.81 73.24 55.43"/>
  <rect class="cls-3" x="63.54" y="53.81" width="4.85" height="12.12"/>
  <rect class="cls-1" x="61.12" y="34.41" width="4.85" height="12.12"/>
  <rect class="cls-1" x="58.69" y="53.81" width="4.85" height="12.12"/>
  <rect class="cls-3" x="56.27" y="34.41" width="4.85" height="12.12"/>
  <rect class="cls-1" x="51.42" y="34.41" width="4.85" height="12.12"/>
  <path class="cls-1" d="M53.84,62.3v3.64h-8.49c-2.01,0-3.64-1.63-3.64-3.64s1.63-3.64,3.64-3.64h8.49v3.64Z"/>
  <path class="cls-3" d="M53.84,55.02v3.64h-8.49c-2.01,0-3.64-1.63-3.64-3.64s1.63-3.64,3.64-3.64h8.49v3.64Z"/>
  <polygon class="cls-5" points="51.42 95.03 51.42 99.88 46.57 99.88 46.57 80.48 51.42 80.48 51.42 95.03"/>
  <rect class="cls-3" x="46.57" y="34.41" width="4.85" height="12.12"/>
  <rect class="cls-1" x="41.72" y="34.41" width="4.85" height="12.12"/>
  <polygon class="cls-5" points="41.72 95.03 41.72 99.88 36.87 99.88 36.87 90.18 41.72 90.18 41.72 95.03"/>
  <rect class="cls-6" x="27.17" y="85.33" width="14.55" height="4.85"/>
  <rect class="cls-5" x="27.17" y="90.18" width="4.85" height="9.7"/>
  <rect class="cls-5" x="27.17" y="68.36" width="4.85" height="16.97"/>
  <path class="cls-7" d="M95.49,67.15h-4.85c-.67,0-1.21,.54-1.21,1.21v15.76h-2.42V29.56c0-.67-.54-1.21-1.21-1.21H34.87c-.67,0-1.21,.54-1.21,1.21v54.56h-2.42v-15.76c0-.67-.54-1.21-1.21-1.21h-4.85c-.67,0-1.21,.54-1.21,1.21v31.52c0,.67,.54,1.21,1.21,1.21h4.85c.67,0,1.21-.54,1.21-1.21v-8.49h2.42v8.49c0,.67,.54,1.21,1.21,1.21h4.85c.67,0,1.21-.54,1.21-1.21v-3.64h2.42v3.64c0,.67,.54,1.21,1.21,1.21h4.85c.67,0,1.21-.54,1.21-1.21v-3.64h19.4v3.64c0,.67,.54,1.21,1.21,1.21h4.85c.67,0,1.21-.54,1.21-1.21v-3.64h2.43v3.64c0,.67,.54,1.21,1.21,1.21h4.85c.67,0,1.21-.54,1.21-1.21v-8.49h2.42v8.49c0,.67,.54,1.21,1.21,1.21h4.85c.67,0,1.21-.54,1.21-1.21v-31.52c0-.67-.54-1.21-1.21-1.21m-3.64,2.42h2.42v14.55h-2.42v-14.55Zm2.42,19.4h-12.12v-2.42h12.12v2.42ZM57.91,55.02h2.42v9.7h-2.42v-9.7Zm4.85,0h2.42v9.7h-2.42v-9.7Zm4.85,0h2.42v9.7h-2.42v-9.7Zm4.85,4.94l2.75,4.76h-2.75v-4.76Zm.44-4.08l2.1-1.21,4.85,8.4-2.1,1.21-4.85-8.4Zm9.66,7.02l-6.06-10.5c-.33-.58-1.08-.78-1.66-.44l-2.47,1.42c-.17-.47-.62-.78-1.13-.79h-14.55c-.67,0-1.21,.54-1.21,1.21v10.91h-2.42v-13.34c0-.67-.54-1.21-1.21-1.21h-8.49c-2.02,0-3.82,1.25-4.53,3.14-.71,1.89-.18,4.02,1.33,5.35-1.75,1.52-2.15,4.07-.97,6.06h-3.1v-16.97h48.5v16.97h-2.75l.28-.16c.58-.33,.78-1.08,.44-1.66m-41.62-.61c0-1.34,1.08-2.43,2.42-2.43h7.27v1.21h-6.06v2.42h6.06v1.21h-7.27c-1.34,0-2.42-1.09-2.42-2.42m9.7-8.49h-6.06v2.42h6.06v1.21h-7.27c-1.34,0-2.42-1.08-2.42-2.42s1.08-2.42,2.42-2.42h7.27v1.21Zm12.12-8.49h-2.43v-9.7h2.43v9.7Zm-4.85,0h-2.42v-9.7h2.42v9.7Zm-4.85,0h-2.42v-9.7h2.42v9.7Zm-4.85,0h-2.42v-9.7h2.42v9.7Zm-4.85,0h-2.42v-9.7h2.42v9.7Zm26.67-2.42c0-1.34,1.08-2.42,2.42-2.42h7.27v1.21h-6.06v2.42h6.06v1.21h-7.27c-1.34,0-2.42-1.08-2.42-2.42m14.55-12.12v14.55h-2.43v-6.06c0-.67-.54-1.21-1.21-1.21h-8.49c-2.68,0-4.85,2.17-4.85,4.85,0,.85,.24,1.69,.67,2.42h-3.1v-10.91c0-.67-.54-1.21-1.21-1.21h-24.25c-.67,0-1.21,.54-1.21,1.21v10.91h-2.42v-14.55h48.5Zm-46.07,58.2h-12.12v-2.42h12.12v2.42Zm-9.7-4.85h-2.42v-14.55h2.42v14.55Zm0,14.55h-2.42v-7.27h2.42v7.27Zm7.27-7.27h2.42v7.27h-2.42v-7.27Zm4.85-16.97h38.8v4.85H40.93v-4.85Zm9.7,7.27h19.4v7.27h-19.4v-7.27Zm-4.85,0h2.42v16.97h-2.42v-16.97Zm4.85,9.7h19.4v2.42h-19.4v-2.42Zm21.82-9.7h2.42v16.97h-2.42v-16.97Zm4.85,12.12v-12.12h3.64c.67,0,1.21-.54,1.21-1.21v-7.27c0-.67-.54-1.21-1.21-1.21H39.72c-.67,0-1.21,.54-1.21,1.21v7.27c0,.67,.54,1.21,1.21,1.21h3.64v12.12h-2.42v-8.49c0-.67-.54-1.21-1.21-1.21h-3.64v-16.97h48.5v16.97h-3.64c-.67,0-1.21,.54-1.21,1.21v8.49h-2.43Zm7.28,4.85h-2.43v-7.27h2.43v7.27Zm7.27-7.27h2.42v7.27h-2.42v-7.27Z"/>
</svg>