<?xml version="1.0" encoding="UTF-8"?>
<svg id="Layer_1" data-name="Layer 1" xmlns="http://www.w3.org/2000/svg" xmlns:xlink="http://www.w3.org/1999/xlink" viewBox="0 0 120 120">
  <defs>
    <style>
      .cls-1 {
        fill: #31454d;
      }

      .cls-2 {
        fill: #c4d1d4;
      }

      .cls-3 {
        fill: #f3f4f4;
      }

      .cls-4 {
        fill: #75888f;
      }

      .cls-5 {
        fill: #2da4dd;
      }

      .cls-6 {
        fill: #3d5caa;
      }

      .cls-7 {
        stroke: #231f20;
        stroke-linecap: round;
        stroke-linejoin: round;
        stroke-width: 2px;
      }

      .cls-7, .cls-8 {
        fill: none;
      }

      .cls-9 {
        clip-path: url(#clippath);
      }

      .cls-10 {
        fill: #231f20;
      }
    </style>
    <clipPath id="clippath">
      <rect class="cls-8" x="3.91" y="2.66" width="114.21" height="116.03"/>
    </clipPath>
  </defs>
  <path class="cls-2" d="M110.15,54.08l2.2,6.59-7.65-1.14-16.92-16.9c-1.45-1.45-3.42-2.27-5.47-2.26h-16.46v-7.74h16.46c4.11-.01,8.05,1.61,10.95,4.53l16.9,16.92Z"/>
  <path class="cls-6" d="M118.86,68.23c-.72,.73-1.7,1.14-2.73,1.14s-2.01-.41-2.73-1.14l-8.7-8.7,5.45-5.45,8.7,8.7c.73,.72,1.14,1.7,1.14,2.73s-.41,2.01-1.14,2.73"/>
  <polygon class="cls-6" points="69.72 32.63 69.72 40.36 56.18 42.3 52.31 36.5 56.18 30.7 69.72 32.63"/>
  <path class="cls-5" d="M38.78,1.69h9.67c1.07,0,1.93,.87,1.93,1.94V13.29h-11.6V1.69Z"/>
  <path class="cls-4" d="M75.52,69.93v32c0,1.71-.76,3.34-2.07,4.45-3.37,2.84-11.51,7.47-28.87,7.47-1,0-1.97-.02-2.9-.06-15.39-.46-22.8-4.72-25.99-7.41-1.3-1.11-2.05-2.74-2.05-4.45v-32h61.88Z"/>
  <path class="cls-4" d="M69.72,69.93v32c0,1.71-.76,3.34-2.07,4.45-3.17,2.69-10.58,6.94-25.97,7.41-15.39-.46-22.8-4.72-25.99-7.41-1.3-1.11-2.05-2.74-2.05-4.45v-32h56.08Z"/>
  <path class="cls-3" d="M79.39,65.5c0,1.59-1.39,3.09-3.87,4.43-5.78,3.11-17.46,5.24-30.94,5.24-.97,0-1.95-.02-2.9-.04-12.24-.27-22.68-2.32-28.04-5.2-2.48-1.33-3.87-2.84-3.87-4.43,0-3.75,7.7-7,18.93-8.61,2.03-.29,4.18-.52,6.42-.7,.46-.04,.93-.08,1.41-.1,.7-.06,1.41-.1,2.13-.14,.19,0,.41-.02,.62-.02,.46-.02,.95-.04,1.43-.04h7.74c.48,0,.97,.02,1.43,.04,.21,0,.42,.02,.62,.02,.72,.04,1.43,.08,2.13,.14,.48,.02,.95,.06,1.41,.1l1.43,.12c.85,.08,1.68,.18,2.49,.27,.52,.06,1.02,.12,1.53,.19,11.78,1.53,19.9,4.85,19.9,8.72"/>
  <path class="cls-3" d="M73.59,65.5c0,1.59-1.39,3.09-3.87,4.43-5.36,2.88-15.8,4.93-28.04,5.2-12.24-.27-22.68-2.32-28.04-5.2-2.48-1.33-3.87-2.84-3.87-4.43,0-3.75,7.7-7,18.93-8.61,2.03-.29,4.18-.52,6.42-.7,.46-.04,.93-.08,1.41-.1,.7-.06,1.41-.1,2.13-.14,.19,0,.41-.02,.62-.02,.46-.02,.95-.04,1.43-.04h1.93c.48,0,.97,.02,1.43,.04,.21,0,.42,.02,.62,.02,.72,.04,1.43,.08,2.13,.14,.48,.02,.95,.06,1.41,.1l1.43,.12c.85,.08,1.68,.18,2.49,.27,.52,.06,1.03,.12,1.53,.19,11.78,1.53,19.9,4.85,19.9,8.72"/>
  <path class="cls-4" d="M71.65,61.64c0,1.57-2.92,3-7.64,4.04-6.4,1.25-12.91,1.84-19.43,1.76-14.95,0-27.07-2.59-27.07-5.8,0-.74,.62-1.41,1.76-2.07,.01-.01,.02-.02,.04-.02,2.99-1.36,6.17-2.24,9.44-2.61,1.95-.31,4.1-.54,6.38-.74,.46-.04,.93-.08,1.41-.1,.7-.06,1.41-.1,2.13-.14,.19,0,.41-.02,.62-.02l1.43-.06h7.74l1.43,.06c.21,0,.42,.02,.62,.02,.71,.04,1.43,.08,2.13,.14,.48,.02,.95,.06,1.41,.1l1.43,.12c.85,.08,1.68,.17,2.49,.27,.52,.06,1.02,.12,1.53,.19,7.33,1.04,12.16,2.82,12.16,4.85"/>
  <path class="cls-4" d="M65.85,63.57c0,.74-.66,1.45-1.84,2.11-6.4,1.25-12.91,1.84-19.44,1.76-14.95,0-27.07-2.59-27.07-5.8,0-.74,.62-1.41,1.76-2.07,.01-.01,.02-.02,.04-.02,1.1-.25,2.32-.48,3.63-.68,1.95-.31,4.1-.54,6.38-.74,.46-.04,.93-.08,1.41-.1,.7-.06,1.41-.1,2.13-.13,.19,0,.41-.02,.62-.02l1.43-.06h7.74l1.43,.06c.21,0,.42,.02,.62,.02,.71,.04,1.43,.08,2.13,.13,.48,.02,.95,.06,1.41,.1l1.43,.12c.85,.08,1.68,.17,2.49,.27,.52,.06,1.03,.12,1.53,.19,7.33,1.04,12.16,2.82,12.16,4.85"/>
  <path class="cls-1" d="M40.71,42.3h7.74v15.47c0,1.07-.87,1.93-1.93,1.93h-3.87c-1.07,0-1.93-.87-1.93-1.93v-15.47Z"/>
  <path class="cls-5" d="M56.18,13.29v29.01c0,2.13-1.73,3.86-3.87,3.87h-15.47c-2.14,0-3.87-1.73-3.87-3.87V13.29c0-2.14,1.73-3.87,3.87-3.87h15.47c2.13,0,3.86,1.73,3.87,3.87"/>
  <path class="cls-5" d="M50.38,13.29v29.01c0,2.13-1.73,3.86-3.87,3.87h-9.67c-2.14,0-3.87-1.73-3.87-3.87V13.29c0-2.14,1.73-3.87,3.87-3.87h9.67c2.13,0,3.86,1.73,3.87,3.87"/>
  <path class="cls-6" d="M19.43,9.42h3.87c1.07,0,1.93,.86,1.93,1.93v29.01c0,1.07-.86,1.93-1.93,1.93h-3.87c-1.07,0-1.94-.86-1.94-1.93V11.36c0-1.07,.86-1.93,1.94-1.93"/>
  <g class="cls-9">
    <path class="cls-7" d="M36.84,58.81c-.48,0-.97,.02-1.43,.04-.21,0-.43,.02-.62,.02-.71,.04-1.43,.08-2.13,.14-.48,.02-.95,.06-1.41,.1-2.24,.17-4.39,.41-6.42,.7-11.24,1.6-18.93,4.85-18.93,8.61,0,1.59,1.39,3.09,3.87,4.43,5.78,3.11,17.46,5.24,30.94,5.24s25.16-2.13,30.94-5.24c2.47-1.33,3.87-2.84,3.87-4.43,0-3.87-8.12-7.19-19.9-8.72-.5-.08-1.01-.13-1.53-.19-.81-.1-1.64-.19-2.49-.27l-1.43-.12c-.46-.04-.93-.08-1.41-.1-.7-.06-1.41-.1-2.13-.14-.19,0-.41-.02-.62-.02-.46-.02-.95-.04-1.43-.04m-7.74-.02l-1.43,.06c-.21,0-.43,.02-.62,.02-.71,.04-1.43,.08-2.13,.14-.48,.02-.95,.06-1.41,.1-2.28,.19-4.43,.43-6.38,.74-6.81,1.04-11.24,2.77-11.24,4.7,0,3.21,12.13,5.8,27.07,5.8s27.07-2.59,27.07-5.8c0-2.03-4.83-3.81-12.16-4.85-.5-.08-1.01-.13-1.53-.19-.81-.1-1.64-.19-2.49-.27l-1.43-.12c-.46-.04-.93-.08-1.41-.1-.7-.06-1.41-.1-2.13-.14-.19,0-.41-.02-.62-.02l-1.43-.06m27.07,14.04v32.01c0,1.71-.75,3.34-2.06,4.45-3.38,2.84-11.51,7.46-28.88,7.46s-25.51-4.62-28.88-7.47c-1.31-1.1-2.06-2.73-2.06-4.44v-32.01M32.97,12.33h15.47c2.14,0,3.87,1.72,3.87,3.87v29.01c0,2.14-1.72,3.87-3.87,3.87h-15.47c-2.14,0-3.87-1.73-3.87-3.87V16.19c0-2.14,1.73-3.87,3.87-3.87Zm1.94-7.74h9.67c1.07,0,1.93,.87,1.93,1.94v5.8h-11.6V4.59Zm1.93,44.48h7.74v11.6c0,1.07-.87,1.93-1.94,1.93h-3.87c-1.07,0-1.93-.87-1.93-1.93v-11.6Zm-19.34-3.87v3.69c0,1.36,.48,2.68,1.35,3.72l8.32,10M17.51,12.33v-1.94c0-3.2,2.6-5.8,5.8-5.8h11.6M15.57,12.33h3.87c1.07,0,1.93,.86,1.93,1.93v29.01c0,1.07-.86,1.93-1.93,1.93h-3.87c-1.07,0-1.94-.86-1.94-1.93V14.26c0-1.07,.86-1.93,1.94-1.93Zm50.28,30.94l-13.54,1.93v-11.6l13.54,1.93v7.74Zm0,0h12.59c2.05,0,4.02,.81,5.47,2.26l25.62,25.6c1.51,1.51,3.95,1.51,5.46,0,1.5-1.51,1.5-3.95,0-5.45l-25.61-25.62c-2.9-2.91-6.84-4.54-10.95-4.53h-12.58M23.31,83.87v23.21m5.8-19.34h-5.8"/>
  </g>
  <path class="cls-10" d="M40.71,86.78c-.51,0-1-.21-1.37-.56-.17-.19-.31-.4-.41-.64-.1-.23-.15-.48-.15-.73,0-.13,.01-.26,.04-.39,.02-.12,.06-.24,.12-.35,.04-.12,.1-.24,.17-.35l.23-.29c.55-.56,1.39-.73,2.11-.42,.73,.3,1.2,1.01,1.19,1.8,0,.25-.06,.5-.16,.73-.1,.23-.23,.45-.41,.64-.37,.36-.86,.56-1.37,.56"/>
  <line class="cls-7" x1="32.98" y1="92.55" x2="27.17" y2="92.55"/>
  <path class="cls-10" d="M40.71,94.49c-.51,0-1-.21-1.37-.56-.17-.19-.31-.41-.41-.64-.1-.23-.15-.48-.15-.73,0-.13,.01-.26,.04-.39,.02-.12,.06-.24,.12-.35,.04-.12,.1-.24,.17-.35l.23-.29c.55-.56,1.39-.73,2.11-.42,.73,.3,1.2,1.01,1.19,1.8,0,.25-.06,.5-.16,.73-.1,.23-.23,.45-.41,.64-.37,.35-.86,.56-1.37,.56"/>
  <line class="cls-7" x1="32.98" y1="100.29" x2="27.17" y2="100.29"/>
  <path class="cls-10" d="M40.71,102.22c-.51,0-1-.21-1.37-.56-.17-.19-.31-.4-.41-.64-.1-.23-.15-.48-.15-.73,0-.13,.01-.26,.04-.39,.02-.12,.06-.24,.12-.35,.04-.12,.1-.24,.17-.35l.23-.29c.55-.56,1.39-.73,2.11-.42,.73,.3,1.2,1.01,1.19,1.8,0,.25-.06,.5-.16,.73-.1,.23-.23,.45-.41,.64-.37,.35-.86,.56-1.37,.56"/>
  <line class="cls-7" x1="110.15" y1="54.08" x2="104.7" y2="59.53"/>
</svg>