<?xml version="1.0" encoding="UTF-8"?>
<svg id="Layer_1" data-name="Layer 1" xmlns="http://www.w3.org/2000/svg" xmlns:xlink="http://www.w3.org/1999/xlink" viewBox="0 0 120 120">
  <defs>
    <style>
      .cls-1 {
        fill: #fff;
      }

      .cls-2 {
        fill: #facd57;
      }

      .cls-3 {
        fill: #fee897;
      }

      .cls-4 {
        fill: #f6a149;
      }

      .cls-5 {
        fill: #f2e9b3;
      }

      .cls-6 {
        fill: #f15e3b;
      }

      .cls-7 {
        fill: #564737;
      }

      .cls-8 {
        fill: #f89832;
      }

      .cls-9 {
        fill: #957a5c;
      }

      .cls-10 {
        clip-path: url(#clippath);
      }

      .cls-11 {
        fill: #e9ae51;
      }

      .cls-12 {
        fill: none;
      }

      .cls-13 {
        fill: #231f20;
      }
    </style>
    <clipPath id="clippath">
      <rect class="cls-12" x="28.75" y="56.98" width="65.3" height="63.02"/>
    </clipPath>
  </defs>
  <path class="cls-7" d="M74.75,114.81h-29.16c-4.26,0-7.72-4.23-7.72-9.45s3.46-9.45,7.72-9.45h43.75v4.2h-2.57v10.5h2.57v4.2h-6"/>
  <path class="cls-3" d="M84.88,109.4h4.2v-10.5H38.67c-2.9,0-5.25,2.35-5.25,5.25s2.35,5.25,5.25,5.25h35.71"/>
  <polygon class="cls-6" points="92.61 116.7 88.55 113.84 84.49 116.7 84.49 102.38 92.61 102.38 92.61 116.7"/>
  <path class="cls-9" d="M55.47,94.69h-13.66v-4.2h3.15v-10.5h-3.15v-4.2h49.37c5.22,0,9.45,4.23,9.45,9.45s-4.23,9.45-9.45,9.45H55.47Z"/>
  <path class="cls-3" d="M36.57,90.49h46.21c2.9,0,5.25-2.35,5.25-5.25s-2.35-5.25-5.25-5.25H36.57v10.5Z"/>
  <path class="cls-8" d="M84.13,74.58H48.42c-5.22,0-9.45-4.23-9.45-9.45s4.23-9.45,9.45-9.45h49.37v4.2h-3.15v10.5h3.15v4.2h-13.65Z"/>
  <g class="cls-10">
    <path class="cls-3" d="M85.64,72.73v-10.5H39.43c-2.9,0-5.25,2.35-5.25,5.25s2.35,5.25,5.25,5.25h46.21Z"/>
    <path class="cls-13" d="M93,94.79h-3.16c2.44-1.82,3.97-4.62,4.18-7.66,.22-3.04-.89-6.02-3.05-8.17-.46-.46-.95-.87-1.49-1.23,.23-.2,.36-.49,.36-.79v-4.2c0-.58-.47-1.05-1.05-1.05h-2.1v-8.4h2.1c.58,0,1.05-.47,1.05-1.05v-4.2c0-.58-.47-1.05-1.05-1.05H39.43c-4.6,0-8.67,3-10.03,7.39-1.36,4.4,.3,9.17,4.1,11.77-.23,.2-.37,.49-.37,.79v4.2c0,.58,.47,1.05,1.05,1.05h2.1v8.4h-2.1c-.58,0-1.05,.47-1.05,1.05v4.2c0,.3,.13,.59,.36,.79-.53,.37-1.03,.78-1.49,1.23-3.01,3-3.9,7.52-2.28,11.45,1.63,3.93,5.46,6.48,9.71,6.48h34.66v3.15c0,.38,.2,.73,.53,.91,.33,.19,.73,.18,1.06-.01l4.71-2.83,4.71,2.83c.32,.19,.73,.2,1.06,.01,.33-.19,.53-.54,.53-.91v-3.15h6.3c.58,0,1.05-.47,1.05-1.05v-4.2c0-.58-.47-1.05-1.05-1.05h-2.1v-8.4h2.1c.58,0,1.05-.47,1.05-1.05v-4.2c0-.58-.47-1.05-1.05-1.05m-61.97-27.31c0-4.64,3.76-8.4,8.4-8.4h48.31v2.1H39.43c-3.48,0-6.3,2.82-6.3,6.3s2.82,6.3,6.3,6.3h48.31v2.1H39.43c-4.64,0-8.4-3.76-8.4-8.4m15.76,1.05h37.81v3.15H39.43c-2.32,0-4.2-1.88-4.2-4.2s1.88-4.2,4.2-4.2h45.16v3.15H46.78c-.58,0-1.05,.47-1.05,1.05s.47,1.05,1.05,1.05m-11.55,24.16h48.32c3.48,0,6.3-2.82,6.3-6.3s-2.82-6.3-6.3-6.3H35.23v-2.1h48.32c4.64,0,8.4,3.76,8.4,8.4s-3.76,8.4-8.4,8.4H35.23v-2.1Zm40.96-7.35H38.38v-3.15h45.16c2.32,0,4.2,1.88,4.2,4.2s-1.88,4.2-4.2,4.2H38.38v-3.15h37.81c.58,0,1.05-.47,1.05-1.05s-.47-1.05-1.05-1.05m8.4,31.76l-3.66-2.2c-.33-.2-.75-.2-1.08,0l-3.66,2.2v-12.85h8.4v12.85Zm1.05-14.95h-10.5c-.58,0-1.05,.47-1.05,1.05v6.3H39.43c-2.32,0-4.2-1.88-4.2-4.2s1.88-4.2,4.2-4.2h49.36v8.4h-2.1v-6.3c0-.58-.47-1.05-1.05-1.05m6.3,11.55h-5.25v-2.1h5.25v2.1Zm0-14.7H39.43c-3.48,0-6.3,2.82-6.3,6.3s2.82,6.3,6.3,6.3h34.66v2.1H39.43c-4.64,0-8.4-3.76-8.4-8.4s3.76-8.4,8.4-8.4h52.52v2.1Z"/>
  </g>
  <path class="cls-13" d="M46.02,105.2h24.16c.58,0,1.05-.47,1.05-1.05s-.47-1.05-1.05-1.05h-24.16c-.58,0-1.05,.47-1.05,1.05s.47,1.05,1.05,1.05"/>
  <path class="cls-13" d="M41.82,105.2h1.05c.58,0,1.05-.47,1.05-1.05s-.47-1.05-1.05-1.05h-1.05c-.58,0-1.05,.47-1.05,1.05s.47,1.05,1.05,1.05"/>
  <path class="cls-13" d="M78.58,86.29h1.05c.58,0,1.05-.47,1.05-1.05s-.47-1.05-1.05-1.05h-1.05c-.58,0-1.05,.47-1.05,1.05s.47,1.05,1.05,1.05"/>
  <path class="cls-13" d="M42.87,65.28h-1.05c-.58,0-1.05,.47-1.05,1.05s.47,1.05,1.05,1.05h1.05c.58,0,1.05-.47,1.05-1.05s-.47-1.05-1.05-1.05"/>
  <path class="cls-1" d="M41.08,32.49l-.11-1.16c-.11-2.43-.21-4.86-.11-7.28v-1.27l1.48,.32,.84,.21v3.91c0,.95,.84,1.79,1.8,1.79s1.79-.84,1.79-1.79v-3.38h1.9c2.01,0,4.01-.21,5.91-.63l.63-.11,1.37-.21v1.27c.11,2.43,.11,4.86,0,7.18l-.11,1.16h-15.41Z"/>
  <path class="cls-5" d="M56.6,24.15v-1.37l-1.27,.32-.63,.11c-.53,.11-1.16,.21-1.8,.32v.53c.11,2.43,.11,4.86,0,7.18l-.11,1.16h3.59l.11-1.16c.21-2.32,.21-4.75,.11-7.07"/>
  <path class="cls-2" d="M48.26,56.35c-1.69,.11-3.38-.11-5.07-.63l-1.06-.32,.42-1.06c.32-.74,.53-1.37,.63-2.11l.32-.95,.95,.21c1.48,.32,2.85,.53,4.33,.53,1.37,0,2.64-.21,4.01-.53l1.06-.21,.32,1.06c.21,.74,.42,1.37,.63,2.11l.42,1.06-1.06,.32c-1.58,.42-3.27,.63-5.07,.63l-.85-.11Z"/>
  <path class="cls-11" d="M54.81,54.34c-.32-.74-.53-1.37-.63-2.11l-.32-1.06-1.06,.21c-1.06,.32-2.11,.42-3.27,.42l.21,.74c.21,.74,.42,1.37,.63,2.11l.42,1.06-1.06,.32-.63,.21c1.69,0,3.38-.11,4.96-.63l1.06-.32-.32-.95Z"/>
  <path class="cls-1" d="M44.99,29c-.95,0-1.8-.84-1.8-1.8v-3.91l-1.06-.21-.85-.21v-2.53c.32-1.06,1.37-1.8,2.53-1.48,.74,.21,1.37,.85,1.48,1.58h.21c-.11-.32-.11-.63-.11-.95,0-1.79,1.37-3.17,3.06-3.27,1.8,0,3.17,1.37,3.27,3.06,0,.42-.11,.84-.21,1.16h.21c.11-1.37,1.37-2.32,2.64-2.22,1.37,.11,2.32,1.37,2.22,2.64-.11,1.27-1.16,2.22-2.43,2.22l-.11,.11h-.11c-1.69,.32-3.48,.53-5.17,.53-.63,0-1.27,0-1.9-.11v3.38c-.11,1.16-.84,2.01-1.9,2.01,.11,0,0,0,0,0"/>
  <path class="cls-5" d="M54.17,18.34c-.63,0-1.27,.21-1.69,.63,.95,.95,1.06,2.53,.11,3.48-.42,.53-1.16,.84-1.8,.84l-.1,.11h-.11c-1.16,.21-2.32,.42-3.59,.42,.63,0,1.16,.11,1.69,.11,1.8,0,3.48-.21,5.17-.53h.11l.11-.11c1.37,0,2.43-1.06,2.43-2.43s-.95-2.53-2.32-2.53"/>
  <path class="cls-4" d="M52.01,51.94c-1.48,0-3.06-.21-4.43-.53l-.95-.21,.11-.95c.42-4.22-.85-10.14-1.9-14.36-.21-.74-.32-1.48-.42-2.11l-.32-1.27h15.31l-.32,1.27c-.11,.63-.32,1.37-.42,2.11-.95,4.22-2.32,10.14-1.9,14.36l.11,.84-.84,.21c-1.16,.42-2.64,.63-4.01,.63"/>
  <path class="cls-2" d="M68.03,57.34c-2.85,0-4.43-1.58-4.43-4.33v-14.89h4.43l.11,.84c.42,2.85,3.17,4.75,6.02,4.33,2.22-.32,3.91-2.11,4.33-4.33l.11-.84h4.43v14.89c0,2.74-1.58,4.33-4.43,4.33h-10.56Z"/>
  <path class="cls-4" d="M73.31,33.23c2.86,0,5.17,2.32,5.17,5.17s-2.32,5.17-5.17,5.17-5.17-2.32-5.17-5.17,2.32-5.17,5.17-5.17"/>
  <path class="cls-2" d="M78.59,37.73l-.11-.84c-.42-2.85-3.17-4.75-6.02-4.33-2.22,.32-3.91,2.11-4.33,4.33l-.11,.84h-4.43v-9.82l4.86-8.87,.63-7.81h8.45l.63,7.81,4.86,8.87v9.82h-4.43Z"/>
  <polygon class="cls-4" points="69.09 10.84 69.61 3.77 76.9 3.77 77.53 10.84 69.09 10.84"/>
  <path class="cls-13" d="M54.17,17.28c-.63,0-1.27,.21-1.8,.53-.95-2.11-3.48-3.06-5.6-2.11-1.06,.42-1.79,1.27-2.22,2.32-1.58-.74-3.38,0-4.12,1.58-.11,.21-.21,.53-.21,.74v1.69c-.21,.21-.42,.53-.42,.85-.21,2.85-.21,5.8,0,8.66,.21,1.58,.53,3.17,.95,4.65,1.06,4.54,2.53,11.3,1.69,15.31-.21,1.16-.63,2.22-1.16,3.27-.32,.42-.21,.95,.21,1.37,.21,.21,1.79,1.37,6.76,1.37h.95c4.96,0,6.55-1.16,6.76-1.37,.42-.32,.42-.95,.21-1.37-.53-1.06-.85-2.11-1.16-3.27-.84-4.01,.63-10.77,1.69-15.31,.42-1.58,.74-3.06,.95-4.65,.21-2.85,.21-5.81,0-8.66,0-.21-.11-.32-.21-.53,.74-1.8,0-3.8-1.79-4.65-.42-.32-.95-.42-1.48-.42m-4.96,38.01h-.95c-1.58,.11-3.17-.11-4.64-.53,.32-.74,.53-1.48,.74-2.32,1.48,.32,3.06,.53,4.54,.53,1.37,0,2.85-.21,4.22-.53,.21,.74,.42,1.48,.74,2.22-1.48,.53-3.06,.63-4.64,.63m5.38-19.64c-1.06,4.43-2.32,10.35-1.9,14.78-2.64,.63-5.38,.63-8.02,0,.42-4.43-.84-10.35-1.9-14.78-.21-.74-.32-1.48-.42-2.11h12.77c-.21,.63-.32,1.37-.53,2.11m.95-4.43v.21h-13.51v-.21c-.11-2.32-.11-4.75-.11-7.07h.21v3.06c0,1.58,1.26,2.85,2.85,2.85s2.85-1.27,2.85-2.85v-2.22h.84c2.11,0,4.12-.21,6.12-.74l.63-.11c.21,2.32,.21,4.75,.11,7.07m-.74-9.08c-.21,.11-.74,.11-.95,.21-1.69,.32-3.38,.53-5.07,.53-.53,0-1.16,0-1.8-.11-.32,0-.63,.11-.84,.32-.21,.21-.32,.53-.32,.74v3.38c0,.42-.32,.74-.74,.74s-.74-.32-.74-.74v-3.91c0-.53-.32-.95-.84-1.06l-1.06-.21v-1.48c.11-.42,.53-.74,.95-.74s.85,.32,.95,.84c.11,.53,.53,.85,1.06,.85h.21c.32,0,.63-.11,.85-.42,.21-.32,.32-.63,.21-.95-.32-1.06,.21-2.32,1.37-2.64,1.06-.32,2.32,.21,2.64,1.37,.1,.42,.1,.95,0,1.48-.21,.53,.1,1.16,.63,1.37,.11,0,.21,.11,.32,.11h.21c.53,0,1.06-.42,1.06-.95,.11-.74,.63-1.27,1.37-1.27s1.37,.63,1.37,1.37c0,.42-.42,.95-.85,1.16"/>
  <path class="cls-13" d="M76.87,18.45l-1.16-13.62h.11c.63,0,1.06-.42,1.06-1.06s-.42-1.06-1.06-1.06h-9.71c-.63,0-1.06,.42-1.06,1.06s.42,1.06,1.06,1.06h.11l-1.06,13.62-4.86,8.55c-.11,.1-.11,.32-.11,.53v24.71c0,3.38,2.11,5.38,5.49,5.38h10.45c3.48,0,5.49-2.01,5.49-5.38V27.52c0-.21,0-.32-.11-.53l-4.64-8.55Zm-8.55-13.62h5.28l.42,4.96h-6.12l.42-4.96Zm11.3,47.4c0,2.22-1.16,3.27-3.38,3.27h-10.45c-2.32,0-3.38-1.06-3.38-3.27v-13.83h2.43c.53,3.38,3.8,5.7,7.18,5.17,2.64-.42,4.75-2.53,5.17-5.17h2.43v13.83Zm-12.77-14.89c0-2.32,1.9-4.12,4.12-4.12s4.12,1.9,4.12,4.12-1.9,4.12-4.12,4.12-4.12-1.8-4.12-4.12m12.77-1.06h-2.43c-.53-3.38-3.8-5.7-7.18-5.17-2.64,.42-4.75,2.53-5.17,5.17h-2.43v-8.45l4.75-8.55c.11-.11,.11-.32,.11-.42l.53-6.86h6.55l.53,6.86c0,.11,.11,.32,.11,.42l4.75,8.55-.11,8.45Z"/>
</svg>