<?xml version="1.0" encoding="UTF-8"?>
<svg id="Layer_1" data-name="Layer 1" xmlns="http://www.w3.org/2000/svg" xmlns:xlink="http://www.w3.org/1999/xlink" viewBox="0 0 120 120">
  <defs>
    <style>
      .cls-1 {
        fill: #31454d;
      }

      .cls-2 {
        fill: #8d9192;
      }

      .cls-3 {
        stroke: #231f20;
        stroke-linecap: round;
        stroke-linejoin: round;
      }

      .cls-3, .cls-4 {
        fill: none;
      }

      .cls-5 {
        fill: #fff;
      }

      .cls-6 {
        fill: #f9a25f;
      }

      .cls-7 {
        fill: #3d5da9;
      }

      .cls-8 {
        fill: #f69324;
      }

      .cls-9 {
        fill: #a8abaa;
      }

      .cls-10 {
        fill: #b66b27;
      }

      .cls-11 {
        fill: #30a2dc;
      }

      .cls-12 {
        fill: #4e5a5e;
      }

      .cls-13 {
        fill: #dd8c54;
      }

      .cls-14 {
        fill: #8f9597;
      }

      .cls-15 {
        fill: #484a4c;
      }

      .cls-16 {
        clip-path: url(#clippath);
      }

      .cls-17 {
        fill: #0b7cbf;
      }

      .cls-18 {
        fill: #d07c27;
      }

      .cls-19 {
        fill: #75878d;
      }

      .cls-20 {
        fill: #5d7a86;
      }

      .cls-21 {
        fill: #234695;
      }

      .cls-22 {
        fill: #93c5ce;
      }
    </style>
    <clipPath id="clippath">
      <polygon class="cls-4" points="68.25 88.14 81.64 87.25 81.64 65.45 68.25 64.55 68.25 88.14"/>
    </clipPath>
  </defs>
  <polygon class="cls-10" points="58.13 34.63 47.06 40.17 47.06 56.78 58.13 61.53 102.83 57.57 102.83 39.38 58.13 34.63"/>
  <polygon class="cls-8" points="47.06 40.17 47.06 56.78 51.81 58.82 51.81 37.8 47.06 40.17"/>
  <polygon class="cls-18" points="58.13 34.63 51.81 37.8 51.81 58.82 58.13 61.53 58.13 34.63"/>
  <polygon class="cls-14" points="61.71 38.63 61.32 57.57 89.79 55.2 89.79 41.75 61.71 38.63"/>
  <path d="M49.43,52.04c.44,0,.79-.35,.79-.79v-5.54c0-.44-.35-.79-.79-.79s-.79,.35-.79,.79v5.54c0,.44,.35,.79,.79,.79"/>
  <path d="M54.97,52.83c.44,0,.79-.35,.79-.79v-6.33c0-.44-.35-.79-.79-.79s-.79,.35-.79,.79v6.33c0,.44,.35,.79,.79,.79"/>
  <path d="M58,33.82l-.21,.11-11.08,5.54-.44,.22v17.62l.48,.21,5.39,2.31,5.87,2.52,45.6-4.06v-19.59l-45.38-4.84-.24-.03Zm-.66,2.1v24.42l-4.75-2.03v-20.01l4.75-2.37Zm-6.33,3.16v18.54l-3.16-1.36v-15.6l3.16-1.58Zm51.02,17.79l-43.11,3.78v-25.1l43.11,4.53v16.8Z"/>
  <path d="M60.76,58.16c.15,.13,.34,.21,.54,.21,.02,0,.04,0,.07,0l28.48-2.37c.41-.03,.73-.38,.73-.79v-13.45c0-.4-.3-.74-.7-.79l-28.48-3.16c-.43-.05-.83,.26-.87,.7,0,.03,0,.06,0,.09v18.99c0,.22,.09,.43,.26,.58m1.33-18.68l26.9,2.99v12.01l-26.9,2.24v-17.24Z"/>
  <polygon class="cls-10" points="30.94 49.58 10.6 59.75 10.6 90.26 30.94 98.98 113.03 91.72 113.03 58.3 30.94 49.58"/>
  <polygon class="cls-8" points="10.6 59.75 10.6 90.26 19.31 94 19.31 55.39 10.6 59.75"/>
  <polygon class="cls-18" points="30.94 49.58 19.31 55.39 19.31 94 30.94 98.98 30.94 49.58"/>
  <polygon class="cls-14" points="37.51 56.93 36.79 91.71 89.08 87.35 89.08 62.66 37.51 56.93"/>
  <polygon points="94.15 62.67 94.32 69.31 110.07 69.62 110.07 63.82 94.15 62.67"/>
  <path d="M14.96,81.54c.8,0,1.45-.65,1.45-1.45v-10.17c0-.8-.65-1.45-1.45-1.45s-1.45,.65-1.45,1.45v10.17c0,.8,.65,1.45,1.45,1.45"/>
  <path d="M25.13,83c.8,0,1.45-.65,1.45-1.45v-11.62c0-.8-.65-1.45-1.45-1.45s-1.45,.65-1.45,1.45v11.62c0,.8,.65,1.45,1.45,1.45"/>
  <polygon class="cls-6" points="52.69 81.37 46.17 81.54 46.17 77.09 52.69 77.07 52.69 81.37"/>
  <polygon class="cls-13" points="50.7 84.72 48.32 84.82 46.08 81.38 52.69 81.21 50.7 84.72"/>
  <polygon class="cls-2" points="65.61 80.94 55.45 81.2 55.45 68.39 65.61 68.81 65.61 80.94"/>
  <path class="cls-5" d="M62.16,75.89c0,.66-.6,1.2-1.34,1.2-.75,0-1.36-.54-1.36-1.2s.61-1.2,1.36-1.2c.75,0,1.34,.55,1.34,1.2"/>
  <polygon class="cls-9" points="65.61 80.94 55.45 81.2 55.45 78.84 65.61 78.7 65.61 80.94"/>
  <polygon class="cls-15" points="65.61 84.07 55.45 84.51 55.45 82.83 65.61 82.48 65.61 84.07"/>
  <path d="M66.2,71.74c.24,0,.43-.17,.43-.39s-.19-.4-.43-.41h-.15v-1.6h.15c.24,.02,.43-.15,.43-.37s-.19-.4-.43-.42l-5.07-.22v-1.5c0-1.13-1.04-2.11-2.33-2.19l-5.01-.31c-1.38-.09-2.52,.81-2.52,2v8.58h-1.79c-.29-.02-.52,.18-.52,.42s.23,.44,.52,.44h1.79v.87h-5.21c-.3,0-.54,.21-.54,.45v12.12c0,.25,.24,.43,.54,.41,.3-.02,.54-.23,.54-.48v-5.95l1.38,1.99c.09,.13,.27,.21,.46,.2l2.08-.1c.19,0,.36-.1,.45-.24l1.23-2.03v5.78c.09,.21,.32,.39,.59,.37,.28-.02,.5-.22,.5-.46v-11.65c0-.24-.22-.43-.5-.43h-.5s0-10.25,0-10.25c0-.71,.68-1.25,1.5-1.2l1.64,.1c.81,.05,1.46,.65,1.46,1.34v1.53l-2.11-.09c-.27-.01-.49,.17-.49,.4s.22,.43,.49,.44h.16v1.7h-.16c-.27-.01-.49,.17-.49,.4s.22,.43,.49,.44h.16v6.88h-.16c-.27,0-.49,.2-.49,.43s.22,.42,.49,.42h.16s0,1.69,0,1.69h-.16c-.27,.01-.49,.2-.49,.44s.22,.42,.49,.41l4.49-.13v.83l-3.83,.13c-.27,0-.49,.2-.49,.44v5.63c0,.23,.22,.41,.49,.39,.27-.02,.49-.22,.49-.45v-3.5l3.35-.15v1.79c0,.68,.63,1.2,1.4,1.15,.76-.05,1.38-.63,1.38-1.31v-1.76l3.13-.14v3.33c0,.22,.2,.39,.44,.37,.24-.02,.44-.21,.44-.43v-5.3c0-.22-.19-.39-.44-.38l-3.57,.12v-.81l4.15-.12c.24,0,.43-.19,.43-.41s-.19-.39-.43-.39h-.15s0-1.59,0-1.59h.15c.24,0,.43-.19,.43-.41s-.19-.39-.43-.39h-.15s0-6.47,0-6.47h.15Zm-13.91,5.76v3.43l-5.69,.13v-3.53l5.69-.03Zm-2.07,6.94l-1.47,.06-1.77-2.57,4.96-.14-1.71,2.65Zm7.15-19.04l1.43,.08c.78,.05,1.41,.63,1.41,1.31v1.51l-2.35-.1v-1.53c0-.47-.18-.91-.48-1.28m3.76,21.18c0,.23-.21,.42-.46,.44-.26,.01-.46-.16-.46-.38v-1.78l.92-.04v1.77Zm4.05-2.76l-9.25,.38v-.84l9.25-.34v.8Zm-4.05-1.47l-.92,.03v-.82l.92-.03v.82Zm4.05-1.73l-9.25,.22v-1.68l9.25-.14v1.6Zm0-2.4l-9.25,.1v-6.84h.49c.27,.02,.48-.16,.48-.39s-.22-.42-.48-.43h-.49v-1.7l9.25,.36v1.6l-6.85-.21c-.26,0-.48,.17-.48,.4s.21,.42,.48,.43l6.85,.18v6.5Z"/>
  <path d="M60.67,77.45c1.01,0,1.83-.74,1.83-1.63s-.82-1.63-1.83-1.64c-1.03-.01-1.87,.72-1.87,1.63s.84,1.65,1.87,1.64m0-2.46c.51,0,.92,.37,.92,.82s-.41,.82-.92,.82c-.51,0-.93-.37-.93-.82s.42-.82,.93-.82"/>
  <path class="cls-17" d="M79.42,68.98v1.11l-8.64-.33v-1.16c0-.86,.74-1.51,1.64-1.46l1.61,.09c.22,.01,.4-.15,.4-.36s.18-.37,.4-.36l.78,.05c.21,.01,.39,.19,.39,.4s.17,.39,.39,.4l1.54,.08c.84,.04,1.51,.74,1.51,1.55"/>
  <path class="cls-11" d="M78.67,68.95v1.11l-7.89-.3v-1.16c0-.86,.74-1.51,1.64-1.46l1.61,.09c.22,.01,.4-.15,.4-.36s.18-.37,.4-.36c.22,.01,.39,.19,.39,.4s.18,.39,.39,.4l1.55,.08c.84,.04,1.52,.74,1.52,1.56"/>
  <path class="cls-21" d="M79.79,69.73v9.92l-4.58,1.98-.59-.22-4.25-1.57v-10.49c0-.21,.19-.38,.41-.37l8.64,.36c.21,0,.37,.18,.37,.38"/>
  <path class="cls-7" d="M78.67,69.69v9.99l-4.05,1.74-4.25-1.57v-10.49c0-.21,.19-.38,.41-.37l7.51,.32c.21,0,.38,.18,.38,.39"/>
  <path class="cls-22" d="M76.76,76.35c0,.83-.69,1.5-1.56,1.51-.87,0-1.58-.67-1.58-1.51s.71-1.52,1.58-1.51c.86,0,1.56,.68,1.56,1.51"/>
  <path class="cls-1" d="M79.42,80.31v6.35c0,.2-.17,.38-.37,.39l-.75,.05c-.21,.01-.38-.14-.38-.35v-3.81l-5.5,.22v3.93c0,.21-.18,.4-.41,.41l-.82,.05c-.23,.01-.41-.15-.41-.36v-6.69l8.64-.21Z"/>
  <path class="cls-1" d="M79.79,79.66l-3.03,5.3c-.39,.77-.69,.79-1.56,.83-.23,.01-.42,.02-.59,.02-.46-.01-.7-.15-.99-.69l-3.26-5.27,9.43-.19Z"/>
  <path class="cls-20" d="M78.67,79.68l-3.07,5.34c-.29,.57-.53,.73-.98,.79-.46-.01-.7-.15-.99-.69l-3.26-5.27,8.31-.17Z"/>
  <polygon class="cls-12" points="77.15 79.71 75.21 85.79 74.82 84.6 73.22 79.79 77.15 79.71"/>
  <polygon class="cls-19" points="76.38 79.72 74.82 84.6 73.22 79.79 76.38 79.72"/>
  <g class="cls-16">
    <path class="cls-3" d="M70.78,68.98l8.64,.37c.21,0,.37,.18,.37,.38v9.92l-9.43,.19v-10.49c0-.21,.19-.38,.41-.37Zm1.64,10.82l-1.64,.03m1.64,3.33v3.93c0,.21-.18,.4-.41,.41l-.82,.05c-.23,.01-.41-.15-.41-.36v-6.69m8.64-.85l-1.51,.03m1.51,.61v6.35c0,.2-.17,.38-.37,.39l-.75,.05c-.21,.01-.38-.14-.38-.35v-3.81m-2.7,3.6v-.76m-4.85-7.11h-.83c-.46,.02-.84-.33-.84-.76v-9.41c0-1.95,1.69-3.42,3.73-3.29l2.79,.18v1.13m4.58,12.03h.74c.41-.02,.73-.35,.73-.75v-8.74c0-1.81-1.48-3.37-3.35-3.49l-2.7-.17v1.13m-4.43,2.46v-.39c0-.86,.74-1.51,1.64-1.46l1.61,.09c.22,.01,.4-.15,.4-.36s.18-.37,.4-.36l.79,.05c.21,.01,.39,.19,.39,.4s.17,.39,.39,.4l1.53,.08c.84,.04,1.51,.74,1.51,1.55v.37m-2.66,7c0,.83-.69,1.5-1.56,1.51-.87,0-1.58-.67-1.58-1.51s.71-1.52,1.58-1.51c.86,0,1.56,.68,1.56,1.51Zm-2.93-.76h-1.02m1.02,1.52h-1.02m-.81-6.53h.41m1.61,.07l1.97,.07m.77,14.25l3.03-5.3-9.43,.19,3.26,5.27c.4,.74,.71,.72,1.58,.67,.86-.05,1.17-.06,1.56-.83Zm-3.54-5.17l1.99,6,1.94-6.08"/>
  </g>
  <path d="M28.69,50.08l-.4,.2L7.95,60.45l-.81,.4v32.37l.88,.38,9.91,4.25,10.79,4.62,83.77-7.45V59.03L29.13,50.14l-.44-.06Zm-1.21,3.85v44.85l-8.72-3.74V58.29l8.72-4.36Zm-11.62,5.81v34.05l-5.81-2.49v-28.66l5.81-2.91Zm93.72,32.68l-79.19,6.93V53.24l79.19,8.32v30.85Z"/>
  <path d="M35.77,92.78c.27,.25,.62,.38,.98,.38,.04,0,.08,0,.12,0l52.31-4.36c.76-.06,1.34-.7,1.33-1.45v-24.7c0-.74-.56-1.36-1.29-1.44l-52.31-5.81c-.8-.09-1.52,.49-1.6,1.28,0,.05,0,.11,0,.16v34.87c0,.41,.17,.79,.47,1.07m2.44-34.32l49.4,5.49v22.06l-49.4,4.12v-31.67Z"/>
  <polygon points="68.25 35.77 31.7 35.77 31.7 50.16 68.25 54 68.25 35.77"/>
  <polygon points="48.52 41.86 33.41 48.87 4.6 62.25 4.29 36.05 48.52 14.32 48.52 41.86"/>
  <polygon points="68.25 48.77 48.52 41.97 48.52 14.32 68.25 21.13 68.25 48.77"/>
  <polygon class="cls-18" points="66.64 45.96 50.13 40.26 50.13 17.14 66.64 22.83 66.64 45.96"/>
  <polygon class="cls-18" points="46.56 40.15 6.65 58.48 6.4 37.72 46.56 18.32 46.56 40.15"/>
  <rect x="58.13" y="19.01" width="1.36" height="25.87"/>
  <path d="M63.28,37.8c.62,0,1.11-.5,1.11-1.11v-8.92c0-.62-.5-1.11-1.11-1.11s-1.12,.5-1.12,1.11v8.92c0,.62,.5,1.11,1.12,1.11"/>
  <path d="M54.18,35.64c.62,0,1.11-.5,1.11-1.11v-8.92c0-.62-.5-1.11-1.11-1.11s-1.11,.5-1.11,1.11v8.92c0,.62,.5,1.11,1.11,1.11"/>
</svg>