<?xml version="1.0" encoding="UTF-8"?>
<svg id="Layer_1" data-name="Layer 1" xmlns="http://www.w3.org/2000/svg" viewBox="0 0 120 120">
  <defs>
    <style>
      .cls-1 {
        fill: #d8e8f7;
      }

      .cls-2 {
        fill: #6a7184;
      }

      .cls-3 {
        fill: #f7932d;
      }

      .cls-4 {
        fill: #b9d5ed;
      }

      .cls-5 {
        fill: #5b6373;
      }
    </style>
  </defs>
  <path class="cls-2" d="M72.2,13.29h-19.25c-.62,0-1.13-.51-1.13-1.13V6.72c0-2.21,1.79-4,4-4h13.51c2.21,0,4,1.79,4,4v5.44c0,.62-.51,1.13-1.13,1.13"/>
  <path class="cls-3" d="M84.31,48.94l-7.3-6.17c-2.69-2.28-4.25-5.62-4.25-9.15v-11.67c0-2.14-.68-4.22-1.94-5.95l-1.97-2.71h-12.56l-1.97,2.71c-1.26,1.73-1.94,3.81-1.94,5.95v11.67c0,3.53-1.55,6.87-4.25,9.15l-7.3,6.17c-2.69,2.28-4.25,5.62-4.25,9.15v52.84c0,2.38,1.93,4.31,4.31,4.31h43.33c2.38,0,4.31-1.93,4.31-4.31V58.09c0-3.53-1.55-6.87-4.25-9.15"/>
  <rect class="cls-2" x="36.6" y="59.69" width="51.95" height="43.58"/>
  <path class="cls-2" d="M72.76,21.95v12.54h-20.37v-12.54c0-2.14,.68-4.22,1.93-5.95l1.97-2.71h12.56l1.97,2.71c1.26,1.73,1.93,3.81,1.93,5.95"/>
  <path class="cls-5" d="M72.62,21.95v12.54h-6.07v-12.54c0-2.13-.68-4.22-1.93-5.95l-1.97-2.71h6.07l1.97,2.71c1.26,1.73,1.93,3.81,1.93,5.95"/>
  <path class="cls-5" d="M73.1,6.72v5.44c0,.62-.51,1.13-1.13,1.13h-9.54V2.71h6.67c2.21,0,4,1.79,4,4"/>
  <path class="cls-1" d="M62.58,68.45c4.38,0,7.93,2.51,7.93,5.61s-3.55,5.61-7.93,5.61-7.93-2.51-7.93-5.61,3.55-5.61,7.93-5.61"/>
  <path class="cls-4" d="M69.15,74.06c0,3.1-3.55,5.61-7.93,5.61-2,0-3.82-.52-5.22-1.39,.26,.02,.52,.03,.78,.03,4.38,0,7.93-2.51,7.93-5.61,0-1.68-1.05-3.19-2.71-4.22,4.01,.28,7.15,2.67,7.15,5.58"/>
  <path d="M81.43,49.88c-.68-.64-1.76-.61-2.4,.07-.64,.68-.61,1.76,.07,2.4,2.02,1.91,3.19,4.6,3.22,7.38H33.77c.03-3,1.35-5.82,3.64-7.76l7.3-6.17c2.42-2.04,4.02-4.82,4.6-7.88h17.47c.54,2.81,1.96,5.42,4.07,7.4,.68,.64,1.76,.61,2.4-.08,.64-.68,.61-1.76-.07-2.4-2.06-1.93-3.24-4.67-3.24-7.5v-11.67c0-1.41-.25-2.79-.73-4.09-.34-.91-.79-1.78-1.35-2.59-.06-.09-.12-.18-.19-.27h0c1.53-.05,2.76-1.3,2.76-2.84v-5.44c0-3.14-2.56-5.7-5.7-5.7h-13.51c-3.14,0-5.7,2.56-5.7,5.7v5.44c0,1.56,1.27,2.83,2.83,2.83h.08c-1.11,1.53-1.83,3.26-2.12,5.1-.1,.61-.14,1.23-.14,1.86v11.67c0,3.03-1.33,5.9-3.64,7.85l-7.3,6.17c-3.08,2.6-4.85,6.41-4.85,10.45v52.84c0,3.31,2.7,6.01,6.01,6.01h43.33c3.31,0,6.01-2.7,6.01-6.01V59.83c0-3.75-1.56-7.37-4.29-9.95m-14.9-15.35h-16.97v-10.84c0-1.64,.49-3.27,1.4-4.64,.07-.1,.14-.21,.21-.31l1.46-2.01h10.83l1.46,2.01c1.04,1.42,1.61,3.18,1.61,4.95v10.84ZM48.9,8.46c0-1.27,1.03-2.3,2.3-2.3h13.51c1.27,0,2.3,1.03,2.3,2.3v4.88h-18.11v-4.88Zm30.81,106.83H36.38c-1.44,0-2.61-1.17-2.61-2.61v-5.96h26.92c.94,0,1.7-.76,1.7-1.7s-.76-1.7-1.7-1.7h-26.92V63.13h48.55v40.18h-11.11c-.94,0-1.7,.76-1.7,1.7s.76,1.7,1.7,1.7h11.11v5.96c0,1.44-1.17,2.61-2.61,2.61"/>
  <path d="M59.75,72.77c.94,0,1.7-.76,1.7-1.7v-3.96h3.97c.94,0,1.7-.76,1.7-1.7s-.76-1.7-1.7-1.7h-4.98c-1.31,0-2.38,1.07-2.38,2.38v4.98c0,.94,.76,1.7,1.7,1.7"/>
  <path d="M59.75,67.11h3.96v3.96c0,.94,.76,1.7,1.7,1.7s1.7-.76,1.7-1.7v-4.98c0-1.31-1.07-2.38-2.38-2.38h-4.98c-.94,0-1.7,.76-1.7,1.7s.76,1.7,1.7,1.7"/>
  <path d="M65.41,95.85h-3.97v-3.96c0-.94-.76-1.7-1.7-1.7s-1.7,.76-1.7,1.7v4.98c0,1.31,1.07,2.38,2.38,2.38h4.98c.94,0,1.7-.76,1.7-1.7s-.76-1.7-1.7-1.7"/>
  <path d="M65.41,90.2c-.94,0-1.7,.76-1.7,1.7v3.96h-3.96c-.94,0-1.7,.76-1.7,1.7s.76,1.7,1.7,1.7h4.98c1.31,0,2.38-1.07,2.38-2.38v-4.98c0-.94-.76-1.7-1.7-1.7"/>
  <path d="M51.48,87.71h22.21c.94,0,1.7-.76,1.7-1.7s-.76-1.7-1.7-1.7h-22.21c-.94,0-1.7,.76-1.7,1.7s.76,1.7,1.7,1.7"/>
  <path d="M75.38,92.13c0-.94-.76-1.7-1.7-1.7h-22.21c-.94,0-1.7,.76-1.7,1.7s.76,1.7,1.7,1.7h22.21c.94,0,1.7-.76,1.7-1.7"/>
  <path d="M62.58,81.37c5.4,0,9.63-3.21,9.63-7.31s-4.23-7.31-9.63-7.31-9.63,3.21-9.63,7.31,4.23,7.31,9.63,7.31m0-11.22c3.38,0,6.23,1.79,6.23,3.91s-2.85,3.91-6.23,3.91-6.23-1.79-6.23-3.91,2.85-3.91,6.23-3.91"/>
  <path d="M66.07,22.19h-6.98c-.94,0-1.7,.76-1.7,1.7s.76,1.7,1.7,1.7h6.98c.94,0,1.7-.76,1.7-1.7s-.76-1.7-1.7-1.7"/>
  <path d="M66.07,26.9h-6.98c-.94,0-1.7,.76-1.7,1.7s.76,1.7,1.7,1.7h6.98c.94,0,1.7-.76,1.7-1.7s-.76-1.7-1.7-1.7"/>
</svg>