<?xml version="1.0" encoding="UTF-8"?>
<svg id="Layer_1" data-name="Layer 1" xmlns="http://www.w3.org/2000/svg" xmlns:xlink="http://www.w3.org/1999/xlink" viewBox="0 0 120 120">
  <defs>
    <style>
      .cls-1 {
        fill: #ffcd6c;
      }

      .cls-2 {
        fill: #e07f84;
      }

      .cls-3 {
        fill: #c44557;
      }

      .cls-4 {
        fill: #dd6871;
      }

      .cls-5 {
        fill: #d1c6c2;
      }

      .cls-6 {
        clip-path: url(#clippath-1);
      }

      .cls-7 {
        fill: #eae1dd;
      }

      .cls-8 {
        fill: #79abdc;
      }

      .cls-9 {
        fill: #f5f0f0;
      }

      .cls-10 {
        clip-path: url(#clippath);
      }

      .cls-11 {
        fill: none;
      }

      .cls-12 {
        fill: #bab4b0;
      }

      .cls-13 {
        fill: #fddd80;
      }
    </style>
    <clipPath id="clippath">
      <rect class="cls-11" x="1.82" y="2.62" width="116.1" height="116.1"/>
    </clipPath>
    <clipPath id="clippath-1">
      <rect class="cls-11" x="1.82" y="2.62" width="116.1" height="116.1"/>
    </clipPath>
  </defs>
  <path class="cls-12" d="M99.38,21.15l-2.28,2.28c7.08,4.48,13.31,6.17,16.33,3.96,.08-.06,.16-.13,.23-.2,2.04-2.04-.86-8.25-6.47-13.86-5.61-5.61-11.82-8.51-13.86-6.47-1.99,1.99,.71,7.94,6.05,13.44,.23,.24,.23,.61,0,.84h0Zm0,0"/>
  <path class="cls-7" d="M97.1,23.43l2.28-2.28c.23-.23,.23-.61,0-.84-5.15-5.3-7.84-11.02-6.25-13.21l-6.31,8.31c3.45,3.21,6.95,5.93,10.27,8.02h0Zm0,0"/>
  <path class="cls-5" d="M94.08,26.45c3.38,3.38,6.91,6.09,10.14,7.93l9.21-6.99c-4.74,3.46-17.32-2.63-28.75-14.06h-.01c1.66,3.95,4.96,8.67,9.41,13.11h0Zm0,0"/>
  <path class="cls-12" d="M84.67,13.35h.01c.71,.7,1.43,1.39,2.14,2.06l6.31-8.31c.06-.08,.13-.16,.2-.23,.24-.24,.54-.41,.88-.52-4.33-2.22-7.97-2.73-9.71-.98-1.52,1.52-1.33,4.47,.21,8.07-.01-.03-.02-.06-.04-.09h0Zm0,0"/>
  <path class="cls-12" d="M114.18,26.31c-.11,.35-.28,.64-.52,.88-.07,.07-.15,.14-.23,.2-.02,.02-.04,.03-.06,.05,.02-.02,.04-.03,.06-.05l-9.21,6.99s-.1-.06-.15-.08c4.92,2.84,9.16,3.66,11.09,1.73,1.75-1.75,1.24-5.39-.98-9.71h0Zm0,0"/>
  <path class="cls-13" d="M67.06,62.43c0,4.95-4.01,8.96-8.96,8.96s-8.96-4.01-8.96-8.96,4.01-8.96,8.96-8.96,8.96,4.01,8.96,8.96h0Zm0,0"/>
  <path class="cls-1" d="M61.39,62.43c0,1.82-1.48,3.29-3.29,3.29s-3.29-1.48-3.29-3.29,1.48-3.29,3.29-3.29,3.29,1.48,3.29,3.29h0Zm0,0"/>
  <path class="cls-2" d="M51.76,56.1c1.65-1.65,3.78-2.52,5.95-2.62-2.03-2.48-3.88-5.11-5.54-7.88l-.18-.31c-.39-.65-1.33-.61-1.67,.07l-.91,1.85c-.87,1.78-2.39,3.16-4.24,3.86l-1.11,.42c-.55,.21-.78,.87-.48,1.37l.5,.83c1.55,2.59,3.28,5.07,5.16,7.41,.27-1.83,1.12-3.6,2.53-5.01h0Zm0,0"/>
  <path class="cls-2" d="M52.69,69.58v28.82c0,.13,.15,.21,.25,.13l3.93-2.68c.74-.5,1.71-.5,2.44,0l3.93,2.68c.11,.07,.25,0,.25-.13v-28.82c-3.19,2.42-7.62,2.42-10.81,0h0Zm0,0"/>
  <path class="cls-8" d="M60.07,71.18s-.02,0-.03,0c.01,0,.02,0,.03,0h0Zm0,0"/>
  <path class="cls-4" d="M78.43,92.6l-12.38-26.03c-.63,1.21-1.51,2.23-2.55,3.01v16.81l5.16,10.85c.06,.12,.22,.12,.29,.01l2.4-4.11c.45-.77,1.33-1.19,2.21-1.05l4.7,.73c.13,.02,.23-.11,.17-.23h0Zm0,0"/>
  <path class="cls-3" d="M69.83,74.53c.77-1.47,1.98-2.67,3.49-3.41l1.85-.91c.67-.33,.71-1.28,.07-1.67l-.31-.18c-2.77-1.66-5.4-3.51-7.88-5.54-.06,1.29-.39,2.57-1,3.74l3.79,7.96Zm0,0"/>
  <g class="cls-10">
    <path class="cls-7" d="M20.47,111.84c6.41,4.68,12.36,6.52,14.75,4.13,.11-.11,.21-.23,.31-.36l17.16-22.4v-23.43L20.47,111.84Zm0,0"/>
    <path class="cls-9" d="M52.69,69.58c-.32-.24-.64-.52-.93-.81-2.09-2.09-2.93-4.95-2.53-7.67h0c-1.87-2.33-3.58-4.79-5.13-7.36-4.81,4.52-9.86,8.8-15.11,12.82L4.92,85h0c-.13,.09-.25,.2-.36,.31-3.18,3.18,1.11,12.62,9.57,21.08,2.09,2.09,4.23,3.92,6.33,5.45l32.22-42.07v-.19Zm0,0"/>
  </g>
  <path class="cls-9" d="M99.98,31.59c-1.96-1.47-3.96-3.19-5.91-5.14-8.17-8.17-12.45-17.24-9.88-20.72l-18.44,24.07c-4.24,5.53-8.76,10.83-13.55,15.88,1.65,2.74,3.48,5.35,5.49,7.8,2.42-.11,4.88,.77,6.73,2.62,.65,.65,1.19,1.39,1.6,2.16,3.58-3.18,7.29-6.24,11.1-9.16l22.86-17.51Zm0,0"/>
  <path class="cls-7" d="M99.98,31.59l-22.86,17.51c-3.81,2.92-7.51,5.97-11.1,9.16,.75,1.42,1.09,3,1.02,4.57,2.46,2.01,5.06,3.85,7.8,5.49,5.05-4.79,10.34-9.31,15.88-13.55l24.07-18.44c-2.65,1.95-8.55-.06-14.82-4.74h0Zm0,0"/>
  <g class="cls-6">
    <path d="M54.56,58.9c-1.95,1.95-1.95,5.11,0,7.06,1.95,1.95,5.11,1.95,7.06,0,1.95-1.95,1.95-5.12,0-7.06-1.95-1.95-5.12-1.95-7.06,0h0Zm4.66,2.4c.62,.62,.62,1.63,0,2.25-.62,.62-1.63,.62-2.25,0-.62-.62-.62-1.63,0-2.25,.62-.62,1.63-.62,2.25,0h0Zm0,0"/>
    <path d="M32.21,118.72c1.74,0,3.17-.51,4.21-1.56,.34-.34-.6,.85,14.56-18.95v.19c0,1.49,1.68,2.38,2.91,1.54l3.93-2.68c.16-.11,.37-.11,.53,0l3.93,2.68c1.23,.84,2.91-.04,2.91-1.54v-4.48l1.92,4.04c.64,1.35,2.53,1.43,3.29,.14l2.4-4.11c.1-.17,.29-.26,.48-.23l4.7,.73c1.48,.23,2.61-1.29,1.97-2.64l-8.2-17.24c.59-.84,1.37-1.52,2.31-1.98l1.85-.91c1.24-.61,1.79-2.05,1.31-3.32,4.63-4.32,9.52-8.45,14.54-12.3,25.99-19.9,24.25-18.54,24.6-18.89,2.19-2.19,2.05-6.13-.39-11.14,.17-1.2-.05-2.83-1.04-5.01-.39-.86-1.39-1.24-2.25-.85-.86,.39-1.24,1.39-.85,2.25,1.05,2.33,.8,3.34,.63,3.51,0,0-.02,.02-.03,.02-2.06,1.5-6.89,.35-12.59-2.92l.75-.75c.88-.88,.89-2.33,.02-3.23-2.45-2.53-4.39-5.21-5.44-7.55-1.05-2.32-.8-3.33-.62-3.5,.03-.03,.06-.05,.1-.07,.08-.02,.16-.05,.23-.08,1.37-.26,5.87,1.37,11.12,6.62,.56,.56,1.09,1.13,1.6,1.7,.62,.7,1.7,.77,2.4,.15,.7-.62,.77-1.7,.15-2.4-.55-.63-1.14-1.25-1.75-1.86-4.54-4.54-10.22-8.04-13.94-7.57-5.01-2.44-8.96-2.59-11.15-.4-.17,.17-.34,.37-.5,.59-19.78,25.83-19.53,25.55-21.99,28.57-.91,1.12-.09,2.77,1.32,2.77,.49,0,.98-.21,1.32-.63q2.52-3.1,18.7-24.26c.25,.99,.61,1.96,1.01,2.9,2.74,6.42,8.63,13.04,14.06,17.47-21.12,16.18-24.52,18.61-30.84,24.12-1.94-2.38-4.78-3.79-7.84-3.91-1.5-1.88-2.9-3.85-4.18-5.89,1.25-1.34,2.49-2.7,3.7-4.06,.62-.7,.56-1.78-.15-2.4-.7-.62-1.78-.56-2.4,.15-1.11,1.25-2.24,2.5-3.39,3.73-1.27-.49-2.72,.07-3.32,1.31l-.91,1.85c-.69,1.39-1.86,2.47-3.32,3.02l-1.11,.42c-1.42,.54-2.09,2.15-1.5,3.52-4.47,4.13-9.17,8.1-13.99,11.79C2.14,84.99,3.7,83.77,3.36,84.1c-2.07,2.07-2.05,5.79,.08,10.46,5.03,11.07,19.99,24.15,28.77,24.15h0Zm28.06-24.26c-1.32-.9-3.04-.9-4.36,0l-1.53,1.04v-9.71c0-.94-.76-1.7-1.7-1.7s-1.7,.76-1.7,1.7v6.83c-17.97,23.46-16.87,22.04-16.97,22.14-1.26,1.26-5.5,.46-11.12-3.3l28.09-36.67v3.07c0,.94,.76,1.7,1.7,1.7s1.7-.76,1.7-1.7v-5.42c2.29,.85,4.93,.92,7.41,0v23.07l-1.53-1.04Zm13.54-4.04c-1.58-.25-3.13,.49-3.94,1.87l-.93,1.59-3.75-7.87v-15.63c.19-.17,.36-.34,.53-.51l9.91,20.83-1.82-.28Zm-3.65-19.14l-2.24-4.72c.09-.23,.18-.45,.26-.68,1.62,1.21,3.29,2.35,5,3.42-1.01,.5-1.9,.91-3.02,1.98h0ZM113.68,29.34c1.16,3.03,.94,4.82,.27,5.49-.83,.83-3.11,.83-6.55-.72l6.28-4.77Zm-16.26-8.63l-.55,.55c-2.57-1.72-5.2-3.77-7.75-6.06l2.5-3.29c1.05,2.84,3.25,6.02,5.8,8.8h0Zm-6.23-13.85l-4.57,6.01c-.18-.17-.36-.35-.53-.52-1.09-2.72-1.24-4.91-.39-5.77,.66-.66,2.46-.89,5.49,.28h0Zm1.5,15.63c4.13,3.03,9.71,6.38,14.76,7.31l-3.35,2.55c-4.15-2.54-8.21-6.19-11.41-9.86h0Zm7.32,11.23c2.71,1.91,6.11,3.87,9.3,4.68l-19.62,15.02c-5.21,3.99-10.27,8.28-15.06,12.77-2.04-1.28-4.01-2.68-5.89-4.18-.04-1.12-.26-2.24-.66-3.3,6.54-5.73,9.62-7.91,31.93-25h0Zm-36.78,33.86c-2.83,2.83-7.44,2.83-10.27,0-2.83-2.83-2.83-7.44,0-10.27,2.83-2.83,7.44-2.83,10.27,0,2.83,2.83,2.83,7.44,0,10.27h0Zm-17.46-14.91c2.26-.86,4.1-2.52,5.17-4.7l.3-.62c1.06,1.71,2.2,3.39,3.42,5-2.69,.91-4.81,2.84-6.02,5.17-1.13-1.56-2.16-3.13-3.14-4.76l.27-.1ZM5.77,86.51c.1-.1-1.45,1.1,24.26-18.59,4.72-3.62,9.33-7.49,13.72-11.52,1.16,1.8,2.4,3.55,3.72,5.23-.22,2.95,.77,5.98,2.99,8.26l-30.32,39.58c-1.63-1.28-3.24-2.72-4.8-4.28-8.62-8.62-11.43-16.82-9.57-18.68h0Zm0,0"/>
  </g>
</svg>