<?xml version="1.0" encoding="UTF-8"?>
<svg id="Layer_1" data-name="Layer 1" xmlns="http://www.w3.org/2000/svg" xmlns:xlink="http://www.w3.org/1999/xlink" viewBox="0 0 120 120">
  <defs>
    <style>
      .cls-1 {
        fill: #75d1f7;
      }

      .cls-2 {
        fill: #8f5630;
      }

      .cls-3 {
        fill: #fed9bd;
      }

      .cls-4 {
        fill: #fcc4a4;
      }

      .cls-5 {
        fill: #f89c68;
      }

      .cls-6 {
        fill: #f383a4;
      }

      .cls-7 {
        fill: #fcd362;
      }

      .cls-8 {
        clip-path: url(#clippath);
      }

      .cls-9 {
        fill: none;
      }

      .cls-10 {
        fill: #af7754;
      }

      .cls-11 {
        fill: #f68e51;
      }

      .cls-12 {
        fill: #231f20;
      }
    </style>
    <clipPath id="clippath">
      <rect class="cls-9" x="14.79" y="17" width="83.78" height="81.98"/>
    </clipPath>
  </defs>
  <path class="cls-10" d="M66.71,81.53l-18.48-18.48c-1.16-1.16-1.16-3.03,0-4.19,.46-.46,1.03-.73,1.62-.83,.9-.15,1.87,.13,2.57,.83l-4.76-4.76c-.58-.58-.87-1.34-.87-2.09,0-.16,.01-.32,.04-.47,.1-.59,.37-1.16,.83-1.62,.45-.45,1.01-.73,1.6-.82,.8-.13,1.64,.06,2.31,.58l-1.81-1.81c-.58-.58-.87-1.34-.87-2.1,0-.16,.01-.32,.04-.48,.1-.59,.37-1.16,.83-1.61,.46-.46,1.03-.73,1.62-.83,.9-.15,1.87,.13,2.57,.83l2.07,2.07c-.7-.7-.98-1.66-.83-2.57,.09-.59,.37-1.16,.83-1.62,1.16-1.15,3.03-1.15,4.19,0l12.01,12.01,.03-.05c.61-.61,1.33-1.04,2.09-1.3,1.89-.64,4.06-.2,5.57,1.3l5.6,5.6c1.08,1.08,1.68,2.53,1.68,4.05v3.5c0,1.64,.66,3.21,1.82,4.37l1.25,1.25-14.28,14.28-1.6-1.6c-1.06-1.06-2.47-1.7-3.97-1.8-1.39-.09-2.7-.68-3.68-1.67"/>
  <path class="cls-7" d="M75.03,87.52l16.21-16.21c.53-.54,1.4-.54,1.93,0l5.77,5.77c.53,.54,.53,1.4,0,1.93l-16.21,16.21c-.53,.53-1.4,.53-1.93,0l-5.77-5.77c-.54-.53-.54-1.4,0-1.93"/>
  <path class="cls-5" d="M50.66,81.53l18.48-18.48c1.16-1.16,1.16-3.03,0-4.19-.46-.46-1.03-.73-1.62-.83-.91-.15-1.87,.13-2.57,.83l4.76-4.76c.58-.58,.87-1.34,.87-2.09,0-.16-.01-.32-.04-.47-.1-.59-.37-1.16-.83-1.62-.45-.45-1.01-.73-1.6-.82-.8-.13-1.64,.06-2.31,.58l1.81-1.81c.58-.58,.87-1.34,.87-2.1,0-.16-.01-.32-.04-.48-.09-.59-.37-1.16-.82-1.61-.46-.46-1.03-.73-1.62-.83-.9-.15-1.87,.13-2.57,.83l-2.07,2.07c.7-.7,.98-1.66,.83-2.57-.09-.59-.37-1.16-.83-1.62-1.15-1.15-3.03-1.15-4.19,0l-12.01,12.01-.03-.05c-.61-.61-1.33-1.04-2.09-1.3-1.89-.64-4.06-.2-5.57,1.3l-5.6,5.6c-1.08,1.08-1.68,2.53-1.68,4.05v3.5c0,1.64-.66,3.21-1.82,4.37l-1.25,1.25,14.28,14.28,1.6-1.6c1.06-1.06,2.47-1.7,3.97-1.8,1.39-.09,2.7-.69,3.68-1.67"/>
  <path class="cls-6" d="M42.34,87.52l-16.21-16.21c-.54-.54-1.4-.54-1.93,0l-5.77,5.77c-.53,.53-.53,1.4,0,1.93l16.21,16.21c.53,.53,1.4,.53,1.93,0l5.77-5.77c.53-.53,.53-1.4,0-1.93"/>
  <path class="cls-3" d="M70.5,37.25v26.13c0,1.64-1.32,2.96-2.96,2.96-.65,0-1.24-.21-1.73-.56-.74-.54-1.23-1.41-1.23-2.4v6.73c0,.82-.33,1.56-.86,2.1-.11,.11-.23,.21-.36,.31-.49,.35-1.08,.56-1.73,.56s-1.23-.2-1.71-.55c-.66-.47-1.11-1.2-1.22-2.04v2.56c0,.82-.33,1.56-.87,2.1-.11,.11-.24,.22-.37,.31-.49,.35-1.08,.56-1.72,.56s-1.24-.21-1.73-.56c-.74-.54-1.23-1.41-1.23-2.4v-2.93c0,.99-.48,1.87-1.23,2.4-.49,.35-1.08,.56-1.73,.56-1.63,0-2.96-1.33-2.96-2.96v-16.98h-.06c-.86,.01-1.67-.19-2.4-.55-1.78-.89-3.01-2.73-3.01-4.86v-7.92c0-1.52,.6-2.98,1.68-4.06l2.47-2.48c1.16-1.16,1.81-2.73,1.81-4.37v-1.77h20.2v2.26c0,1.5,.55,2.95,1.54,4.08,.92,1.05,1.42,2.39,1.42,3.79"/>
  <path class="cls-11" d="M69.14,58.87c-.46-.46-1.03-.73-1.62-.83-.9-.15-1.87,.13-2.57,.83l4.76-4.76c.58-.58,.87-1.34,.87-2.09,0-.16-.01-.32-.04-.47-.09-.6-.37-1.16-.83-1.62-.45-.45-1.01-.73-1.6-.82-.8-.13-1.64,.06-2.31,.58l1.81-1.81c.58-.58,.87-1.34,.87-2.1,0-.16-.01-.32-.04-.48-.1-.59-.37-1.16-.83-1.61-.46-.46-1.03-.73-1.62-.83-.9-.15-1.87,.13-2.57,.83l-2.07,2.07c.7-.7,.98-1.66,.83-2.57-.09-.59-.37-1.16-.83-1.62-1.16-1.15-3.03-1.15-4.19,0l-12.01,12.01-.03-.05c-.61-.61-1.33-1.04-2.09-1.3-.91-.31-1.88-.36-2.81-.17,.75,1.13,1.8,2.08,3.08,2.71,.36,.17,.72,.32,1.09,.44v14.89c0,2.99,2.43,5.42,5.41,5.42,.36,0,.71-.04,1.06-.1,.39,.79,.96,1.48,1.68,2,.45,.33,.94,.58,1.46,.75l15.12-15.12c1.16-1.16,1.16-3.03,0-4.19"/>
  <path class="cls-2" d="M72.95,63.38v-10.45c-.25,.18-.5,.38-.72,.61l-.03,.05-12.01-12.01c-1.16-1.16-3.03-1.16-4.19,0-.46,.46-.73,1.03-.83,1.62-.15,.91,.13,1.87,.83,2.57l-2.07-2.07c-.7-.7-1.66-.98-2.57-.83-.6,.09-1.17,.37-1.62,.83-.45,.46-.73,1.02-.83,1.61-.03,.16-.04,.32-.04,.48,0,.76,.29,1.52,.87,2.1l1.81,1.81c-.67-.52-1.51-.72-2.31-.58-.59,.1-1.15,.37-1.6,.82-.46,.46-.73,1.03-.83,1.62-.03,.16-.04,.32-.04,.47,0,.76,.29,1.52,.87,2.09l4.76,4.76c-.7-.7-1.66-.98-2.57-.83-.59,.09-1.16,.37-1.62,.83-1.16,1.16-1.15,3.03,0,4.19l12.38,12.38c.33,.06,.67,.1,1.02,.1,1.15,0,2.24-.35,3.17-1.02,.24-.17,.46-.36,.66-.56,1.02-1.02,1.59-2.38,1.59-3.83v-1.33c.17,.01,.33,.02,.5,.02,2.98,0,5.41-2.43,5.41-5.42"/>
  <path class="cls-3" d="M70.5,37.25v26.13c0,1.64-1.32,2.96-2.96,2.96-.04,0-.09,0-.14,0-.59-.03-1.14-.23-1.59-.56,0,0,0,0,0,0-.74-.54-1.23-1.41-1.23-2.4v6.73c0,.82-.33,1.56-.86,2.1-.11,.11-.23,.21-.36,.31-.49,.35-1.08,.56-1.73,.56s-1.23-.2-1.71-.55c-.66-.47-1.11-1.2-1.22-2.04v2.56c0,.82-.33,1.56-.87,2.1-.11,.11-.24,.22-.37,.31-.49,.35-1.08,.56-1.72,.56s-1.24-.21-1.73-.56c-.74-.54-1.23-1.41-1.23-2.4v-2.93c0,.99-.48,1.87-1.23,2.4-.49,.35-1.08,.56-1.73,.56-1.63,0-2.96-1.33-2.96-2.96v-16.98h-.06c-.86,.01-1.67-.19-2.4-.55-1.78-.89-3.01-2.73-3.01-4.86v-7.92c0-1.52,.6-2.98,1.68-4.06l2.47-2.48c.72-.72,1.24-1.59,1.53-2.54,.18-.59,.28-1.21,.28-1.83v-1.77h20.2v2.26c0,.51,.05,1.04,.2,1.53,.23,.94,.69,1.81,1.34,2.55,.91,1.04,1.42,2.4,1.42,3.79"/>
  <path class="cls-4" d="M70.5,37.25v26.13c0,1.64-1.32,2.96-2.96,2.96-.04,0-.09,0-.14,0-.59-.03-1.14-.23-1.59-.56l.05-25.18c0-.15-.04-.39-.1-.7-1.13-5.5-5.77-9.18-11.39-9.18h-7.31c.18-.59,.28-1.21,.28-1.83v-1.77h20.2v2.26c0,.51,.05,1.04,.2,1.53,.23,.94,.69,1.81,1.34,2.55,.91,1.04,1.42,2.4,1.42,3.79"/>
  <path class="cls-1" d="M68.86,27.13h-22.92c-.76,0-1.37-.61-1.37-1.37v-8.16c0-.76,.61-1.37,1.37-1.37h22.92c.75,0,1.37,.61,1.37,1.37v8.16c0,.76-.61,1.37-1.37,1.37"/>
  <path class="cls-12" d="M51.22,88.29l-.25,1.2,.24-1.2c-.66-.13-1.31,.3-1.44,.97-.13,.66,.3,1.31,.97,1.44,0,0,.02,0,.02,0,.08,.01,.16,.02,.23,.02,.58,0,1.09-.41,1.2-1,.13-.67-.31-1.31-.97-1.44"/>
  <path class="cls-12" d="M60.6,88.68l.12,1.22-.13-1.22c-.67,.07-1.16,.67-1.1,1.35,.07,.63,.6,1.1,1.22,1.1,.04,0,.08,0,.13,0h.03c.67-.08,1.15-.69,1.07-1.36-.08-.67-.68-1.15-1.35-1.08"/>
  <path class="cls-12" d="M55.9,88.84h-.02c-.68-.03-1.24,.49-1.27,1.17-.03,.68,.5,1.25,1.18,1.28,.02,0,.04,0,.06,0,.65,0,1.19-.51,1.22-1.17,.03-.68-.49-1.25-1.17-1.28"/>
  <path class="cls-12" d="M46.68,87.04h-.02c-.64-.23-1.33,.1-1.56,.74-.23,.64,.11,1.34,.75,1.57,.14,.05,.28,.07,.42,.07,.5,0,.98-.31,1.15-.81,.23-.64-.1-1.34-.74-1.57"/>
  <path class="cls-12" d="M65.23,87.82l.3,1.19-.31-1.19c-.66,.17-1.05,.84-.88,1.49,.14,.55,.64,.92,1.19,.92,.1,0,.21-.01,.31-.04,0,0,.03,0,.03,0,.65-.18,1.03-.85,.86-1.5-.17-.65-.85-1.04-1.5-.87"/>
  <path class="cls-12" d="M69.67,86.28l.49,1.13-.49-1.12c-.62,.27-.91,.99-.64,1.62,.2,.46,.65,.74,1.13,.74,.16,0,.33-.03,.49-.1,0,0,.03,0,.03-.01,.62-.28,.89-1,.61-1.61-.28-.62-1-.89-1.62-.62"/>
  <path class="cls-12" d="M42,30.33c.2,0,.4-.05,.58-.15,.6-.32,.82-1.06,.5-1.66-.32-.6-1.06-.82-1.66-.5h-.01c-.6,.33-.82,1.07-.5,1.66,.22,.41,.65,.65,1.09,.65"/>
  <path class="cls-12" d="M27.8,44.04c.18,.1,.38,.14,.57,.14,.44,0,.87-.24,1.09-.66l.02-.04c.3-.61,.05-1.34-.56-1.64-.6-.3-1.33-.05-1.64,.55-.31,.6-.08,1.34,.52,1.65"/>
  <path class="cls-12" d="M26.07,48.66c.13,.04,.26,.07,.39,.07,.51,0,.99-.32,1.16-.83l.02-.05c.2-.65-.16-1.33-.81-1.53-.64-.2-1.33,.16-1.53,.8-.22,.64,.13,1.34,.77,1.55"/>
  <path class="cls-12" d="M30.22,39.75c.22,.16,.47,.24,.72,.24,.38,0,.75-.17,.99-.51l.02-.02c.39-.55,.26-1.32-.28-1.71-.55-.4-1.32-.27-1.71,.28l.99,.73-.99-.72c-.4,.55-.28,1.32,.27,1.71"/>
  <path class="cls-12" d="M37.83,32.98c.26,0,.52-.08,.74-.25,.55-.4,.67-1.17,.26-1.71s-1.17-.66-1.71-.26l-.03,.02c-.54,.41-.65,1.18-.24,1.72,.24,.32,.61,.49,.98,.49"/>
  <path class="cls-12" d="M24.98,67.27c.16,.53,.65,.87,1.17,.87,.12,0,.24-.02,.36-.06,.64-.2,1.01-.88,.82-1.53-.19-.64-.85-1.02-1.5-.85-.65,.18-1.04,.85-.86,1.51,0,.01,.01,.04,.02,.05"/>
  <path class="cls-12" d="M34.12,36.22c.32,0,.64-.12,.88-.37,.48-.48,.48-1.26,0-1.73-.48-.48-1.26-.48-1.74,0l-.02,.02c-.47,.48-.46,1.26,.02,1.73,.24,.23,.55,.35,.86,.35"/>
  <path class="cls-12" d="M26.33,61.92c-.09-.67-.7-1.14-1.36-1.06-.67,.08-1.15,.69-1.07,1.36v.05c.1,.61,.62,1.05,1.22,1.05,.06,0,.12,0,.18-.01,.67-.1,1.13-.72,1.04-1.39"/>
  <path class="cls-12" d="M24.79,58.4s.02,0,.04,0c.66,0,1.21-.53,1.23-1.19v-.05c0-.68-.55-1.23-1.23-1.23s-1.22,.54-1.23,1.21c-.02,.68,.51,1.24,1.19,1.26"/>
  <path class="cls-12" d="M25.06,53.48c.07,.01,.15,.02,.22,.02,.58,0,1.1-.42,1.21-1.01,0-.02,0-.04,0-.05,.1-.67-.36-1.29-1.04-1.39-.66-.1-1.28,.36-1.39,1.02-.12,.67,.33,1.3,.99,1.42"/>
  <path class="cls-12" d="M82.95,40.13c.24,.35,.62,.53,1.01,.53,.24,0,.48-.07,.69-.22,.56-.38,.7-1.15,.32-1.71l-1.02,.68,1.02-.69c-.38-.56-1.14-.71-1.71-.33-.56,.38-.71,1.14-.33,1.71l.02,.02Z"/>
  <path class="cls-12" d="M89.22,52.48c-.67,.08-1.16,.68-1.08,1.36v.05c.09,.61,.62,1.05,1.22,1.05,.06,0,.12,0,.18-.01,.67-.1,1.13-.71,1.04-1.37-.08-.67-.69-1.15-1.36-1.08"/>
  <path class="cls-12" d="M87.15,49.02v.02c.16,.54,.65,.88,1.18,.88,.11,0,.23-.02,.35-.05,.65-.19,1.02-.87,.83-1.52v-.02c-.2-.65-.88-1.02-1.53-.83-.65,.19-1.02,.87-.83,1.52"/>
  <path class="cls-12" d="M85.42,44.43c.21,.44,.65,.69,1.11,.69,.18,0,.36-.04,.54-.13,.61-.3,.86-1.03,.56-1.64l-1.11,.52,1.11-.52c-.29-.61-1.02-.88-1.63-.59-.61,.29-.88,1.02-.59,1.63l.02,.04Z"/>
  <path class="cls-12" d="M79.86,36.3c.24,.25,.56,.37,.88,.37s.62-.12,.86-.35c.48-.47,.49-1.24,.03-1.72-.46-.5-1.24-.53-1.73-.07-.5,.46-.53,1.24-.07,1.73l.04,.04Z"/>
  <path class="cls-12" d="M89.62,57.61c-.67-.02-1.24,.51-1.26,1.19-.03,.67,.49,1.24,1.16,1.28,.02,0,.05,0,.07,0,.65,0,1.19-.51,1.22-1.16v-.05c.02-.68-.51-1.24-1.19-1.26"/>
  <path class="cls-12" d="M72.01,30.27l.03,.02c.18,.1,.38,.14,.57,.14,.44,0,.86-.24,1.08-.65,.32-.59,.09-1.34-.5-1.66l-.59,1.07,.59-1.08c-.59-.33-1.34-.11-1.67,.49-.33,.59-.11,1.34,.49,1.67"/>
  <g class="cls-8">
    <path class="cls-12" d="M74.16,34.97l.02,.02c.22,.17,.48,.25,.74,.25,.37,0,.74-.17,.98-.49,.41-.54,.3-1.31-.24-1.72h0c-.54-.42-1.31-.32-1.72,.22-.41,.54-.31,1.31,.23,1.72"/>
    <path class="cls-12" d="M97.82,78.19l-5.76-5.77c-.49-.49-1.14-.76-1.83-.76s-1.35,.27-1.83,.76l-.13,.13-.38-.38c-.47-.47-.83-1.01-1.07-1.61-.02-.08-.05-.16-.09-.23-.19-.53-.28-1.09-.28-1.67v-1.63c.11,.06,.23,.1,.36,.12,.07,.01,.14,.02,.21,.02,.58,0,1.1-.42,1.21-1.01,.13-.66-.3-1.31-.96-1.44-.29-.06-.58,0-.82,.12-.07-1.74-.79-3.37-2.03-4.62l-5.59-5.6c-1.25-1.26-2.92-1.95-4.7-1.95-1.37,0-2.68,.42-3.78,1.19l-.59-.6v-14.04c0-1.69-.61-3.33-1.73-4.6-.79-.9-1.23-2.07-1.23-3.27v-1.03h.08c1.43,0,2.6-1.16,2.6-2.6v-8.16c0-1.43-1.16-2.6-2.6-2.6h-22.92c-1.43,0-2.6,1.16-2.6,2.6v8.16c0,1.43,1.16,2.6,2.6,2.6h.19v.54c0,1.32-.52,2.57-1.45,3.5l-2.47,2.48c-1.31,1.32-2.03,3.06-2.03,4.92v7.92c0,1.08,.26,2.09,.71,2.99-1.63,.09-3.14,.77-4.31,1.93l-5.59,5.6c-1.31,1.32-2.04,3.06-2.04,4.92v3.51c0,1.32-.51,2.57-1.45,3.5l-.37,.38s0,0,0,0l-.13-.13c-.49-.49-1.14-.76-1.83-.76s-1.35,.27-1.83,.76l-5.76,5.77c-1.01,1.01-1.01,2.66,0,3.67l1.97,1.98c.48,.48,1.26,.48,1.74,0,.48-.48,.48-1.26,0-1.74l-1.97-1.98c-.06-.06-.06-.15,0-.2l5.76-5.77c.05-.05,.14-.05,.19,0l1,1,13.68,13.7,1.53,1.54c.06,.05,.06,.15,0,.2l-5.76,5.77c-.05,.05-.14,.05-.2,0l-10.76-10.78c-.48-.48-1.26-.48-1.74,0-.48,.48-.48,1.26,0,1.74l10.76,10.78c.49,.49,1.14,.76,1.83,.76s1.34-.27,1.83-.76l5.76-5.77c1.01-1.01,1.01-2.66,0-3.67l-.06-.06,.73-.73c.85-.85,1.98-1.36,3.17-1.44,1.69-.11,3.27-.83,4.47-2.03l5.29-5.3c1.53-.4,2.72-1.64,3.04-3.2,.54,.26,1.15,.4,1.79,.4,2.31,0,4.19-1.88,4.19-4.19v-2.91c.53,.24,1.12,.38,1.73,.38,2.31,0,4.18-1.88,4.18-4.19v-8.61l3.78,3.79c.24,.24,.56,.36,.87,.36s.63-.12,.87-.36c.48-.48,.48-1.26,0-1.74l-3.15-3.16c.61-.34,1.3-.51,2.01-.51,1.12,0,2.17,.44,2.96,1.23l5.59,5.6c.85,.85,1.32,1.99,1.32,3.19v3.51c0,1.98,.77,3.84,2.17,5.24l.38,.38-1.78,1.78-10.77,10.79-.6-.6s-.01-.01-.02-.02l-.1-.11c-1.27-1.27-2.96-2.04-4.75-2.15-1.09-.07-2.12-.54-2.89-1.31l-4.03-4.01c-.48-.48-1.26-.48-1.74,0-.48,.48-.48,1.26,0,1.73l4.03,4.01c1.19,1.2,2.78,1.92,4.47,2.03,1.2,.08,2.33,.59,3.18,1.44l.06,.06s.07,.07,.1,.1l.57,.57-.06,.06c-1.01,1.01-1.01,2.66,0,3.67l5.76,5.77c.49,.49,1.14,.76,1.84,.76s1.35-.27,1.83-.76l16.21-16.24c1.01-1.01,1.01-2.66,0-3.67m-10.57-12.2h-.02s-.22-.05-.22-.05l.25,.05Zm-39.48,16.68c-.77,.77-1.8,1.24-2.89,1.31-1.79,.12-3.48,.88-4.75,2.15l-.72,.73-.65-.65s-.02-.02-.03-.02l-11.87-11.89,.38-.38c1.4-1.4,2.17-3.26,2.17-5.24v-3.51c0-1.2,.47-2.34,1.32-3.19l5.59-5.6c.79-.79,1.84-1.23,2.96-1.23,.72,0,1.4,.18,2.02,.52l-3.15,3.16c-.48,.48-.48,1.26,0,1.74,.24,.24,.55,.36,.87,.36s.63-.12,.87-.36l3.76-3.77v15.32c0,2.31,1.88,4.19,4.19,4.19,.65,0,1.27-.15,1.82-.42,.25,1.22,1.03,2.24,2.08,2.83l-3.95,3.96Zm19.51-17.29c0,.96-.78,1.74-1.73,1.74s-1.73-.78-1.73-1.74v-13.69c0-.68-.55-1.23-1.23-1.23s-1.23,.55-1.23,1.23v20.42c0,.96-.78,1.74-1.73,1.74-.86,0-1.57-.63-1.71-1.45v-20.72c0-.68-.55-1.23-1.23-1.23-.22,0-.42,.06-.6,.16-.39,.21-.65,.61-.65,1.08v20.42c0,.16,0,.31,.03,.46v2.47c0,.96-.78,1.74-1.73,1.74s-1.73-.78-1.73-1.74v-23.38c0-.68-.55-1.23-1.23-1.23s-1.23,.55-1.23,1.23v20.45c0,.96-.78,1.74-1.73,1.74s-1.73-.78-1.73-1.74v-22.83c0-.68-.55-1.23-1.23-1.23s-1.23,.55-1.23,1.23v4.22c-.1,.03-.2,.08-.29,.14-1.59-.6-2.72-2.13-2.72-3.93v-7.92c0-1.2,.47-2.34,1.32-3.19l2.47-2.48c1.4-1.4,2.17-3.26,2.17-5.24v-.54h2.47c.68,0,1.23-.55,1.23-1.23s-.55-1.23-1.23-1.23h-5.11c-.08,0-.14-.06-.14-.14v-8.16c0-.08,.06-.14,.14-.14h22.92c.08,0,.14,.06,.14,.14v8.16c0,.08-.06,.14-.14,.14h-12.05c-.68,0-1.23,.55-1.23,1.23s.55,1.23,1.23,1.23h9.51v1.03c0,1.8,.65,3.54,1.84,4.89,.72,.82,1.12,1.88,1.12,2.98v26.13Zm28.81,14.74l-16.21,16.24s-.06,.04-.1,.04-.07-.01-.1-.04l-5.76-5.77c-.06-.05-.06-.15,0-.2l.93-.93h0s9.41-9.43,9.41-9.43l5.87-5.88c.05-.05,.14-.05,.19,0l5.76,5.77c.06,.06,.06,.15,0,.2"/>
  </g>
  <path class="cls-12" d="M49.82,20.37c-.72,0-1.31,.59-1.31,1.31s.59,1.31,1.31,1.31,1.31-.59,1.31-1.31-.59-1.31-1.31-1.31"/>
  <path class="cls-12" d="M92.62,76.31c-.72,0-1.31,.59-1.31,1.31s.59,1.31,1.31,1.31,1.31-.59,1.31-1.31-.59-1.31-1.31-1.31"/>
  <path class="cls-12" d="M37.25,88.83c0-.72-.59-1.31-1.31-1.31s-1.31,.59-1.31,1.31,.59,1.31,1.31,1.31,1.31-.59,1.31-1.31"/>
</svg>