<?xml version="1.0" encoding="UTF-8"?>
<svg id="Layer_1" data-name="Layer 1" xmlns="http://www.w3.org/2000/svg" viewBox="0 0 120 120">
  <defs>
    <style>
      .cls-1 {
        fill: #fce780;
      }

      .cls-2 {
        fill: #887d8c;
      }

      .cls-3 {
        fill: #ffe0ba;
      }

      .cls-4 {
        fill: #eee3de;
      }

      .cls-5 {
        fill: #9c93a0;
      }

      .cls-6 {
        fill: #fdcd9e;
      }

      .cls-7 {
        fill: #bce6f6;
      }

      .cls-8 {
        fill: #f7f2f1;
      }

      .cls-9 {
        fill: #fbb784;
      }

      .cls-10 {
        fill: #231f20;
      }

      .cls-11 {
        fill: #f5ede9;
      }
    </style>
  </defs>
  <path class="cls-2" d="M45.47,2.9h-.88c-4.17,0-7.56,3.38-7.56,7.56v5.34h15.99v-5.34c0-4.17-3.38-7.56-7.56-7.56"/>
  <path class="cls-5" d="M75.91,57.66c1.17,2.08,1.71,4.3,1.71,6.48,0,5.21-3.1,10.16-8.17,12.25-.95,.39-2.03-.14-2.28-1.14l-.67-2.68c-.07-.27-.41-.33-.57-.1-2.48,3.56-5.7,5.88-10.08,6.32h-21.68c-4.37-.44-7.6-2.76-10.08-6.32-.16-.23-.51-.16-.57,.1l-.78,3.11c-.19,.75-.98,1.16-1.71,.89-7.52-2.78-10.97-11.73-6.92-18.91l5.96-10.58,4.59-8.94c.53-1.04,.6-2.25,.19-3.34-2.31-6.11-.92-13,3.58-17.73v-.09s23.45,4.83,23.45,4.83l18.06,25.27,5.96,10.58Z"/>
  <polygon class="cls-6" points="35.62 59.56 35.62 94.82 53.21 94.82 54.14 81.34 54.14 59.56 35.62 59.56"/>
  <path class="cls-9" d="M39.27,69v.79h-3.65v25.03h5.73v-14.22c0-1.29,1.09-2.3,2.37-2.2,.45,.03,.91,.05,1.37,.05,2.14,0,4.26-.37,6.27-1.09l.79-.28c.68-.24,1.34-.52,1.98-.82v-7.25h-14.87Z"/>
  <path class="cls-9" d="M24.67,37.71c-3.55,0-6.43,2.88-6.43,6.43s2.88,6.43,6.43,6.43h8.64v-12.86h-8.64Z"/>
  <path class="cls-6" d="M64.35,50.17c3.55,0,6.43-2.88,6.43-6.43s-2.88-6.43-6.43-6.43h-10.51v12.85h10.51Z"/>
  <path class="cls-2" d="M63.11,37.52l-11.22-15.71-23.44-4.83v.09c-1.83,1.91-3.14,4.17-3.9,6.59,1.25,6.41,6.9,11.27,13.67,11.27h15.69c2.8,0,5.59,.69,8.06,1.99l1.14,.6Z"/>
  <path class="cls-3" d="M36.55,32.9l-4.83,1-3.37,9.38,4.1,22.5,4.28,4.68s8.83,2.7,9.11,2.42c.27-.28,6.04,0,6.23,0,7.78-3.32,12.9-10.97,12.9-19.51v-14.87l-3.89-3.83-24.53-1.77Z"/>
  <path class="cls-6" d="M45.27,24.24h-5.09l-8.62,4.93-2.28,1.89c-2.81,2.33-4.44,5.79-4.44,9.44v12.93c0,8.95,5.62,16.94,14.04,19.97l.79,.28c3.3,1.19,6.9,1.19,10.2,.02l.96-.34c.42-.15,.83-.31,1.24-.48-1.48-.07-2.96-.37-4.38-.88l-.79-.28c-8.42-3.03-14.04-11.02-14.04-19.97v-12.98c0-2.29,2.01-4.06,4.3-3.89,.35,.03,.71,.04,1.07,.04h15.69c2.81,0,5.58,.68,8.06,1.99l3,1.57v-3.76s.22-10.5,.22-10.5h-19.91Z"/>
  <path class="cls-5" d="M66.56,28.34l-1.6,6.33-1.41-.74c-2.97-1.56-6.28-2.38-9.64-2.38h-15.69c-5.82,0-10.54-4.72-10.54-10.54s4.72-10.54,10.54-10.54h14.09c9.39,0,16.34,8.73,14.25,17.88"/>
  <path class="cls-7" d="M57.61,115.24l6.73-6.33-7.6-26.44-2.61-1.13-7.6,5.11c-1.01,.68-2.33,.68-3.34,0l-7.58-5.1-2.42,1.06-15.1,16.25,1.17,8.51,17.67,8.14,20.67-.05Z"/>
  <path class="cls-11" d="M45,115.16l-8.18-13.03-6.1-15.41-7.08-.12c-9.26,4.06-15.24,13.22-15.24,23.33v3.88c0,.99,.81,1.8,1.81,1.79l34.8-.22v-.23Z"/>
  <path class="cls-4" d="M45,115.16l-13.88-15.97v-2.65l-7.48-9.94c-9.26,4.06-15.24,13.22-15.24,23.33v3.88c0,.99,.81,1.8,1.81,1.79l6.29-.04v-2.81c0-6.18,2.24-12,6.09-16.52,1.11-1.3,3.13-1.23,4.16,.13l.99,1.31v1.72c0,.68,.25,1.34,.69,1.86l12.3,14.16,4.27-.03v-.23Z"/>
  <polygon class="cls-8" points="33.31 82.64 45 115.16 31.12 99.19 31.12 96.54 23.64 86.6 33.21 82.4 33.31 82.64"/>
  <path class="cls-11" d="M66.41,86.72l-4.53,.59-12.62,19.91-4.26,7.94v.23s34.9-.22,34.9-.22c.82,0,1.47-.67,1.47-1.48v-3.76c0-10.01-5.86-19.09-14.97-23.21"/>
  <path class="cls-4" d="M62.26,99.42v-1.73l7.17-9.34c-.96-.6-1.97-1.15-3.02-1.62l-4.53,.58-12.62,19.91-4.26,7.94v.22s4.32-.03,4.32-.03l12.27-14.12c.44-.51,.68-1.15,.68-1.82"/>
  <path class="cls-8" d="M66.13,86.6c.09,.04,.18,.08,.27,.12l-7.53,9.82v2.65l-13.88,15.97,11.69-32.52,.07-.16,9.38,4.12Z"/>
  <path class="cls-7" d="M31.18,114.68h-13.96c-.65,0-1.18-.53-1.18-1.18v-3.61c0-.65,.53-1.18,1.18-1.18h13.96c.65,0,1.18,.53,1.18,1.18v3.61c0,.65-.53,1.18-1.18,1.18"/>
  <path class="cls-7" d="M116.34,88.06c0,15.01-12.17,27.19-27.18,27.19s-27.19-12.17-27.19-27.19,12.17-27.19,27.19-27.19,27.18,12.17,27.18,27.19"/>
  <path class="cls-8" d="M96.89,86.22v-14.49c0-.7-.57-1.27-1.27-1.27h-12.94c-.7,0-1.26,.57-1.26,1.27v14.49l-3.24,6.64,3.19,2.88h16.53l2.23-2.88-3.24-6.64Z"/>
  <path class="cls-1" d="M102.72,98.16c1.69,3.46-.83,7.5-4.68,7.5h-17.76c-3.85,0-6.37-4.04-4.68-7.5l2.59-5.3h21.94l2.59,5.3Z"/>
  <path class="cls-10" d="M9.55,97.38c-.83-.44-1.85-.12-2.29,.7-2.08,3.91-3.17,8.31-3.17,12.73v5.68c0,.94,.76,1.69,1.69,1.69s1.69-.76,1.69-1.69v-5.68c0-3.87,.96-7.72,2.78-11.14,.44-.83,.12-1.85-.7-2.29"/>
  <path class="cls-10" d="M31.18,107.01h-13.96c-1.59,0-2.87,1.29-2.87,2.87v3.61c0,1.58,1.29,2.87,2.87,2.87h13.96c1.58,0,2.87-1.29,2.87-2.87v-3.61c0-1.59-1.29-2.87-2.87-2.87m-.52,5.97h-12.93v-2.58h12.93v2.58Z"/>
  <path class="cls-10" d="M103.17,67.27c-.76-.54-1.82-.37-2.36,.4-.54,.76-.37,1.82,.4,2.36,6.71,4.78,10.71,12.55,10.71,20.77,0,14.06-11.44,25.49-25.49,25.49s-25.49-11.43-25.49-25.49,11.43-25.49,25.49-25.49c3.02,0,5.97,.52,8.78,1.55,.88,.32,1.85-.13,2.17-1.01,.32-.88-.13-1.85-1.01-2.18-3.18-1.17-6.53-1.76-9.95-1.76s-7.01,.66-10.18,1.85c-.31-1.46-.85-2.87-1.6-4.21l-5.42-9.61c.63-1.01,1-2.2,1-3.47,0-3.53-2.81-6.42-6.31-6.56v-1.8c.04-.09,.07-.18,.09-.28l1.47-6.39c.86-3.77,.36-7.73-1.42-11.15-.43-.83-1.45-1.15-2.28-.72-.83,.43-1.15,1.45-.72,2.28,1.43,2.74,1.81,5.79,1.12,8.83l-.97,4.25c-3.1-1.55-6.56-2.37-10.02-2.37h-15.69c-4.88,0-8.85-3.97-8.85-8.84s3.97-8.85,8.85-8.85h14.09c2.6,0,5.1,.76,7.22,2.2,.78,.52,1.83,.32,2.35-.45,.52-.78,.32-1.83-.45-2.35-2.06-1.39-4.39-2.28-6.84-2.62-.73-4.37-4.54-7.71-9.12-7.71h-.87c-4.63,0-8.48,3.42-9.15,7.88-3.8,.88-6.93,3.54-8.46,7.06-4.75,5.17-6.21,12.69-3.72,19.26l.44,1.16c-.06,.2-.11,.41-.16,.62-3.58,.04-6.49,2.97-6.49,6.56,0,1.27,.37,2.46,1,3.47l-5.42,9.61c-2.31,4.09-2.57,8.91-.72,13.22,1.85,4.32,5.52,7.45,10.08,8.59,.44,.11,.9,.04,1.29-.19,.38-.23,.66-.61,.77-1.04l.43-1.74c2.34,2.51,5.12,4.06,8.29,4.64l-9.7,4.26c-3.21,1.41-6.09,3.4-8.54,5.92-.65,.67-.64,1.74,.03,2.4,.33,.32,.76,.48,1.18,.48s.88-.17,1.21-.51c1.84-1.89,3.94-3.43,6.27-4.61l6.31,8.38v2.08c0,.41,.15,.8,.42,1.11l13.88,15.97c.33,.38,.8,.58,1.28,.58,.29,0,.59-.08,.86-.23,.16-.1,.31-.22,.42-.35l13.87-15.97c.27-.31,.42-.7,.42-1.11v-2.07l.64-.83c3.39,12.18,14.58,21.14,27.82,21.14,15.92,0,28.88-12.96,28.88-28.88,0-9.32-4.53-18.12-12.13-23.53M41.86,7.33h.87c2.64,0,4.88,1.76,5.61,4.17h-12.1c.73-2.41,2.97-4.17,5.61-4.17m16.34,77.33l-3.7-1.62c1.65-.3,3.2-.87,4.63-1.7-.37,1.08-.69,2.19-.93,3.32m-15.81,27.74l-9.64-26.84,.09-.04,6.8,4.63c.8,.54,1.71,.81,2.62,.81s1.82-.27,2.62-.81l6.83-4.63,.29,.13-9.61,26.76Zm-6.82-34.67l.79,.28c1.84,.66,3.77,.99,5.7,.99s3.82-.32,5.64-.97l.96-.34c.4-.14,.79-.3,1.18-.46v5.46l-6.86,4.65c-.44,.3-1,.3-1.43,0l-6.84-4.65v-5.3c.28,.12,.57,.23,.86,.33m37.49-12.53c-3.79,1.99-7.09,4.79-9.66,8.18-.63,.02-1.23,.33-1.6,.86-2.31,3.32-5.12,5.14-8.57,5.57v-4.34c6.54-4.14,10.68-11.41,10.68-19.37v-3.06c.99-.04,1.92-.3,2.75-.73l5.02,8.91c.71,1.25,1.16,2.58,1.37,3.97m-6.23-18.71c0,1.66-1.29,3.03-2.92,3.16v-6.32c1.63,.13,2.92,1.49,2.92,3.16m-15.66-10.52c3.07,0,6.13,.76,8.85,2.19l.5,.27v17.68c0,8.25-5.22,15.64-13,18.4l-.96,.34c-2.92,1.04-6.14,1.03-9.06-.02l-.79-.28c-7.73-2.78-12.92-10.16-12.92-18.37v-12.93c0-3.16,1.39-6.12,3.83-8.13l1.28-1.06c1.9,1.22,4.16,1.93,6.58,1.93h15.69Zm-27.6-9.45c.47,1.99,1.42,3.8,2.73,5.28l-.83,.69c-.89,.74-1.68,1.58-2.35,2.49-.65-2.82-.48-5.76,.45-8.46m-3.16,16.83v6.27c-1.52-.23-2.69-1.55-2.69-3.13s1.17-2.9,2.69-3.13m2.34,30.89c-.45-.65-1.24-.97-2.02-.83-.77,.14-1.4,.73-1.59,1.49l-.66,2.66c-2.77-1.14-4.97-3.3-6.17-6.11-1.43-3.34-1.23-7.06,.55-10.22l5.03-8.91c.77,.4,1.62,.65,2.53,.71v3.14c0,8.04,4.24,15.4,10.91,19.51v4.13c-3.46-.42-6.26-2.25-8.57-5.57m7.46,26.57v-2.02c0-.37-.12-.72-.34-1.02l-6.19-8.23,5.96-2.62,8.1,22.55-7.53-8.67Zm24.72-3.05c-.23,.3-.35,.66-.35,1.03v2.02l-7.53,8.67,8.07-22.46,2.55,1.12c-.08,.88-.12,1.77-.12,2.67,0,1.12,.07,2.22,.19,3.31l-2.81,3.65Z"/>
  <path class="cls-10" d="M95.63,68.77h-12.94c-1.63,0-2.96,1.33-2.96,2.96v14.1l-5.66,11.59c-1.05,2.15-.92,4.65,.35,6.69,1.27,2.03,3.46,3.25,5.86,3.25h17.76c2.4,0,4.59-1.21,5.86-3.25,1.27-2.03,1.4-4.53,.35-6.69l-5.66-11.59v-14.1c0-1.63-1.33-2.96-2.96-2.96m-12.68,18.2c.11-.23,.17-.49,.17-.74v-14.07h12.08v14.07c0,.26,.06,.51,.17,.74l2.05,4.2h-16.52l2.05-4.2Zm18.07,15.35c-.66,1.05-1.74,1.65-2.98,1.65h-17.76c-1.24,0-2.33-.6-2.98-1.65-.66-1.05-.72-2.29-.18-3.4l2.12-4.35h19.83l2.13,4.35c.54,1.11,.48,2.35-.18,3.4"/>
</svg>