<?xml version="1.0" encoding="UTF-8"?>
<svg id="Layer_1" data-name="Layer 1" xmlns="http://www.w3.org/2000/svg" xmlns:xlink="http://www.w3.org/1999/xlink" viewBox="0 0 120 120">
  <defs>
    <style>
      .cls-1 {
        fill: #31454d;
      }

      .cls-2 {
        fill: #5d7a87;
      }

      .cls-3 {
        fill: #4e595d;
      }

      .cls-4 {
        fill: #75888f;
      }

      .cls-5 {
        fill: #2da4dd;
      }

      .cls-6 {
        fill: #3d5caa;
      }

      .cls-7 {
        stroke: #231f20;
        stroke-linecap: round;
        stroke-linejoin: round;
        stroke-width: 2px;
      }

      .cls-7, .cls-8 {
        fill: none;
      }

      .cls-9 {
        clip-path: url(#clippath);
      }

      .cls-10 {
        fill: #0b7cbf;
      }

      .cls-11 {
        fill: #23459a;
      }

      .cls-12 {
        fill: #93c5ce;
      }
    </style>
    <clipPath id="clippath">
      <rect class="cls-8" x="37.09" y="21.97" width="45.45" height="80.07"/>
    </clipPath>
  </defs>
  <path class="cls-10" d="M76.5,33.31v4h-29.36v-4c0-2.95,2.39-5.34,5.34-5.34h5.34c.74,0,1.33-.6,1.33-1.33s.6-1.33,1.34-1.33h2.67c.74,0,1.33,.6,1.33,1.33s.6,1.33,1.33,1.33h5.34c2.95,0,5.34,2.39,5.34,5.34"/>
  <path class="cls-5" d="M73.83,33.31v4h-26.69v-4c0-2.95,2.39-5.34,5.34-5.34h5.34c.74,0,1.33-.6,1.33-1.33s.6-1.33,1.34-1.33,1.33,.6,1.33,1.33,.6,1.33,1.33,1.33h5.34c2.95,0,5.34,2.39,5.34,5.34"/>
  <path class="cls-11" d="M77.83,35.98v36.03l-16.01,6.67-2-.83-14.01-5.85V35.98c0-.74,.6-1.33,1.33-1.33h29.36c.74,0,1.34,.6,1.34,1.33"/>
  <path class="cls-6" d="M73.83,35.98v36.03l-14.01,5.85-14.01-5.85V35.98c0-.74,.6-1.33,1.33-1.33h25.35c.74,0,1.34,.6,1.34,1.33"/>
  <path class="cls-12" d="M67.16,60c0,2.95-2.39,5.34-5.34,5.34s-5.34-2.39-5.34-5.34,2.39-5.34,5.34-5.34,5.34,2.39,5.34,5.34"/>
  <path class="cls-1" d="M76.5,74.35v23.02c0,.74-.6,1.33-1.33,1.33h-2.67c-.74,0-1.33-.6-1.33-1.33v-13.68h-18.68v13.68c0,.74-.6,1.33-1.33,1.33h-2.67c-.74,0-1.33-.6-1.33-1.33v-23.02h29.36Z"/>
  <path class="cls-1" d="M77.83,72.01l-10.68,18.68c-1.33,2.67-2.39,2.67-5.34,2.67-.79,0-1.44,0-2-.05-1.54-.13-2.36-.65-3.34-2.62l-10.67-18.68h32.03Z"/>
  <path class="cls-2" d="M73.83,72.01l-10.68,18.68c-.97,1.96-1.8,2.48-3.34,2.62-1.54-.13-2.36-.65-3.34-2.62l-10.67-18.68h28.02Z"/>
  <polygon class="cls-3" points="68.49 72.01 61.82 93.36 60.49 89.09 55.15 72.01 68.49 72.01"/>
  <polygon class="cls-4" points="65.82 72.01 60.49 89.09 55.15 72.01 65.82 72.01"/>
  <g class="cls-9">
    <path class="cls-7" d="M45.14,36.64h29.36c.74,0,1.34,.6,1.34,1.34v36.03H43.81V37.98c0-.74,.6-1.34,1.33-1.34Zm5.34,37.37h-5.34m5.34,11.68v13.68c0,.74-.6,1.34-1.33,1.34h-2.67c-.74,0-1.33-.6-1.33-1.34v-23.02m29.36-2.34h-5.34m5.34,2.34v23.02c0,.74-.6,1.34-1.33,1.34h-2.67c-.74,0-1.33-.6-1.33-1.34v-13.68m-9.34,12.34v-2.67m-16.01-25.36h-2.67c-1.47,0-2.67-1.19-2.67-2.67V35.31c0-6.63,5.38-12.01,12.01-12.01h9.34v4m16.01,42.7h2.67c1.47,0,2.67-1.19,2.67-2.67V35.31c0-6.63-5.38-12.01-12.01-12.01h-9.34v4m-14.68,9.34v-1.33c0-2.95,2.39-5.34,5.34-5.34h5.34c.74,0,1.33-.6,1.33-1.33s.6-1.33,1.33-1.33h2.67c.74,0,1.33,.6,1.33,1.33s.6,1.33,1.33,1.33h5.34c2.95,0,5.34,2.39,5.34,5.34v1.33m-9.34,25.36c0,2.95-2.39,5.34-5.34,5.34s-5.34-2.39-5.34-5.34,2.39-5.34,5.34-5.34,5.34,2.39,5.34,5.34Zm-9.95-2.67h-3.39m3.39,5.34h-3.39m-2.67-22.69h1.33m5.34,0h6.67m2.67,50.71l10.68-18.68H43.81l10.67,18.68c1.34,2.67,2.39,2.67,5.34,2.67s4,0,5.34-2.67Zm-12.01-18.68l6.67,21.35,6.67-21.35"/>
  </g>
</svg>