<?xml version="1.0" encoding="UTF-8"?>
<svg id="Layer_1" data-name="Layer 1" xmlns="http://www.w3.org/2000/svg" xmlns:xlink="http://www.w3.org/1999/xlink" viewBox="0 0 120 120">
  <defs>
    <style>
      .cls-1 {
        fill: #ffcd6c;
      }

      .cls-2 {
        fill: #fdd6c5;
      }

      .cls-3 {
        fill: #fee6db;
      }

      .cls-4 {
        fill: #82959f;
      }

      .cls-5 {
        clip-path: url(#clippath);
      }

      .cls-6 {
        fill: #f8e57f;
      }

      .cls-7 {
        fill: none;
      }

      .cls-8 {
        fill: #738590;
      }

      .cls-9 {
        fill: #f26b74;
      }

      .cls-10 {
        fill: #f37f86;
      }

      .cls-11 {
        fill: #231f20;
      }
    </style>
    <clipPath id="clippath">
      <rect class="cls-7" x="15.98" y="20.83" width="84.05" height="84.05"/>
    </clipPath>
  </defs>
  <g>
    <path class="cls-10" d="M30.04,79.95c-1.15,0-2.25,.18-3.28,.51,0,0,0,0,0,0-4.38,1.39-7.55,5.48-7.55,10.32s3.17,8.93,7.55,10.32c0,0,0,0,0,0,1.04,.33,2.14,.51,3.28,.51,5.98,0,10.83-4.85,10.83-10.83s-4.85-10.83-10.83-10.83"/>
    <path class="cls-9" d="M30.04,79.95c-1.15,0-2.25,.18-3.28,.51,0,0,0,0,0,0-.61,.2-1.2,.44-1.76,.74,3.44,1.81,5.78,5.42,5.78,9.58s-2.35,7.77-5.78,9.58c.56,.29,1.15,.54,1.76,.74,0,0,0,0,0,0,1.04,.33,2.14,.51,3.28,.51,5.98,0,10.83-4.85,10.83-10.83s-4.85-10.83-10.83-10.83"/>
    <path class="cls-6" d="M30.04,91.55c-3.59,0-6.51,2.99-6.57,6.7v1.15c1.82,1.39,4.1,2.22,6.57,2.22s4.74-.83,6.56-2.22v-1.15c-.05-3.71-2.97-6.7-6.56-6.7"/>
    <path class="cls-1" d="M30.75,91.59c-.28,3.81-2.54,7.08-5.75,8.77,.56,.3,1.15,.55,1.76,.74,0,0,0,0,0,0,1.04,.33,2.14,.51,3.28,.51,2.47,0,4.74-.83,6.57-2.22v-1.14c-.05-3.46-2.6-6.29-5.85-6.66"/>
    <path class="cls-3" d="M33.57,89.46c0,2.02-1.58,3.65-3.53,3.65s-3.53-1.63-3.53-3.65,1.58-3.65,3.53-3.65,3.53,1.63,3.53,3.65"/>
    <path class="cls-2" d="M30.04,85.81c-.15,0-.3,.01-.45,.03,.76,1.48,1.19,3.16,1.19,4.94,0,.79-.08,1.55-.24,2.29,1.71-.25,3.03-1.77,3.03-3.61,0-2.02-1.58-3.65-3.53-3.65"/>
    <path class="cls-10" d="M59.99,79.95c-1.15,0-2.25,.18-3.28,.51t0,0c-4.38,1.39-7.55,5.48-7.55,10.32s3.17,8.93,7.55,10.32c0,0,0,0,0,0,1.04,.33,2.14,.51,3.28,.51,5.98,0,10.83-4.85,10.83-10.83s-4.85-10.83-10.83-10.83"/>
    <path class="cls-9" d="M59.99,79.95c-1.15,0-2.25,.18-3.28,.51t0,0c-.61,.2-1.2,.44-1.76,.74,3.43,1.81,5.78,5.42,5.78,9.58s-2.35,7.77-5.78,9.58c.56,.29,1.14,.54,1.76,.74,0,0,0,0,0,0,1.04,.33,2.14,.51,3.28,.51,5.98,0,10.83-4.85,10.83-10.83s-4.85-10.83-10.83-10.83"/>
    <path class="cls-6" d="M59.99,91.55c-3.59,0-6.51,2.99-6.57,6.7v1.15c1.82,1.39,4.1,2.22,6.57,2.22s4.74-.83,6.56-2.22v-1.15c-.05-3.71-2.97-6.7-6.56-6.7"/>
    <path class="cls-1" d="M60.7,91.59c-.28,3.81-2.54,7.08-5.75,8.77,.56,.3,1.15,.55,1.76,.74,0,0,0,0,0,0,1.04,.33,2.14,.51,3.28,.51,2.47,0,4.74-.83,6.57-2.22v-1.14c-.05-3.46-2.6-6.29-5.85-6.66"/>
    <path class="cls-3" d="M63.52,89.46c0,2.02-1.58,3.65-3.53,3.65s-3.53-1.63-3.53-3.65,1.58-3.65,3.53-3.65,3.53,1.63,3.53,3.65"/>
    <path class="cls-2" d="M59.99,85.81c-.15,0-.3,.01-.45,.03,.76,1.48,1.19,3.16,1.19,4.94,0,.79-.08,1.55-.24,2.29,1.71-.25,3.03-1.77,3.03-3.61,0-2.02-1.58-3.65-3.53-3.65"/>
    <path class="cls-10" d="M89.97,79.95c-1.15,0-2.25,.18-3.28,.51t0,0c-4.38,1.39-7.55,5.48-7.55,10.32s3.17,8.93,7.55,10.32c0,0,0,0,0,0,1.04,.33,2.14,.51,3.28,.51,5.98,0,10.83-4.85,10.83-10.83s-4.85-10.83-10.83-10.83"/>
    <path class="cls-9" d="M89.97,79.95c-1.15,0-2.25,.18-3.28,.51t0,0c-.61,.2-1.2,.44-1.76,.74,3.44,1.81,5.78,5.42,5.78,9.58s-2.35,7.77-5.78,9.58c.56,.29,1.15,.54,1.76,.74,0,0,0,0,0,0,1.04,.33,2.14,.51,3.28,.51,5.98,0,10.83-4.85,10.83-10.83s-4.85-10.83-10.83-10.83"/>
    <path class="cls-6" d="M89.97,91.55c-3.59,0-6.51,2.99-6.57,6.7v1.15c1.82,1.39,4.1,2.22,6.57,2.22s4.74-.83,6.56-2.22v-1.15c-.05-3.71-2.97-6.7-6.56-6.7"/>
    <path class="cls-1" d="M90.68,91.59c-.28,3.81-2.54,7.08-5.75,8.77,.56,.3,1.15,.55,1.76,.74,0,0,0,0,0,0,1.04,.33,2.14,.51,3.28,.51,2.47,0,4.74-.83,6.57-2.22v-1.14c-.05-3.46-2.6-6.29-5.85-6.66"/>
    <path class="cls-3" d="M93.5,89.46c0,2.02-1.58,3.65-3.53,3.65s-3.53-1.63-3.53-3.65,1.58-3.65,3.53-3.65,3.53,1.63,3.53,3.65"/>
    <path class="cls-2" d="M89.97,85.81c-.15,0-.3,.01-.45,.03,.76,1.48,1.19,3.16,1.19,4.94,0,.79-.08,1.55-.24,2.29,1.71-.25,3.03-1.77,3.03-3.61,0-2.02-1.58-3.65-3.53-3.65"/>
    <path class="cls-4" d="M78.05,37.22c-2.76,0-4.15-3.33-2.2-5.27,1.35-1.35,1.35-3.54,0-4.89l-1.39-1.39c-1.34-1.34-3.46-1.27-4.8,.07-1.95,1.96-5.28,.58-5.28-2.18,0-1.91-1.55-3.45-3.45-3.45h-1.86c-1.91,0-3.45,1.55-3.45,3.45,0,2.75-3.33,4.13-5.27,2.18-1.35-1.35-3.54-1.35-4.89,0l-1.31,1.31c-1.35,1.35-1.35,3.54,0,4.89,1.95,1.95,.56,5.28-2.2,5.27-1.89,0-3.44,1.45-3.44,3.34v1.97c0,1.91,1.55,3.45,3.46,3.45,2.75,0,4.13,3.33,2.18,5.28-1.35,1.35-1.35,3.54,0,4.89l1.31,1.31c1.35,1.35,3.54,1.35,4.89,0,1.95-1.95,5.27-.57,5.27,2.18,0,1.91,1.55,3.45,3.45,3.45h1.86c1.91,0,3.45-1.55,3.45-3.45,0-2.75,3.33-4.13,5.28-2.18,1.35,1.35,3.54,1.35,4.89,0l1.31-1.31c1.35-1.35,1.35-3.54,0-4.89-1.95-1.95-.56-5.29,2.2-5.28,1.89,0,3.44-1.45,3.44-3.34v-2.08c0-1.89-1.55-3.35-3.44-3.34m-17.47,13.29c-5.39,.34-9.83-4.1-9.49-9.49,.28-4.45,3.88-8.05,8.33-8.33,5.39-.34,9.83,4.1,9.49,9.49-.28,4.45-3.88,8.05-8.33,8.33"/>
  </g>
  <g class="cls-5">
    <path class="cls-8" d="M76.05,39.22c-2.76,0-4.15-3.33-2.2-5.27,1.35-1.35,1.35-3.54,0-4.89l-1.39-1.39c-1.34-1.34-3.46-1.27-4.8,.07-1.95,1.96-5.28,.58-5.28-2.18,0-1.91-1.55-3.45-3.45-3.45h-1.85c-.98,0-1.86,.41-2.49,1.06,8.61,2.81,14.82,10.9,14.82,20.44s-6.22,17.63-14.82,20.44c.63,.65,1.51,1.06,2.49,1.06h1.85c1.91,0,3.45-1.55,3.45-3.46,0-2.75,3.33-4.13,5.27-2.18,1.35,1.35,3.54,1.35,4.89,0l1.31-1.31c1.35-1.35,1.35-3.54,0-4.89-1.95-1.95-.56-5.29,2.2-5.27,1.9,0,3.44-1.45,3.44-3.34v-2.08c0-1.9-1.55-3.35-3.44-3.34"/>
    <path class="cls-11" d="M98.96,94.25c-.66-.16-1.33,.24-1.49,.9-.33,1.31-.91,2.5-1.7,3.52-.44-2.06-1.64-3.86-3.35-5.01,.32-.65,.5-1.39,.5-2.17,0-2.69-2.14-4.89-4.76-4.89s-4.77,2.19-4.77,4.89c0,.78,.18,1.51,.5,2.17-1.71,1.15-2.91,2.95-3.35,5-1.24-1.62-1.99-3.64-1.99-5.84,0-5.3,4.31-9.61,9.61-9.61,4.2,0,7.98,2.81,9.2,6.83,.2,.65,.88,1.02,1.54,.82,.65-.2,1.02-.88,.82-1.53-.73-2.43-2.26-4.61-4.29-6.15-1.78-1.34-3.84-2.14-6.03-2.37v-6.39c0-1.66-1.35-3.01-3.01-3.01h-26.99v-5.09c2.46-.15,4.4-2.19,4.4-4.68,0-1.67,2-2.49,3.18-1.32,1.83,1.83,4.8,1.83,6.63,0l1.31-1.31c1.83-1.83,1.83-4.8,0-6.63-1.18-1.18-.34-3.18,1.32-3.18h.03c1.27,0,2.45-.48,3.33-1.36,.86-.86,1.33-2,1.33-3.22v-2.08c0-1.22-.47-2.36-1.33-3.22-.87-.86-2.04-1.36-3.35-1.36-1.67,0-2.5-2-1.32-3.18,1.83-1.83,1.83-4.8,0-6.63l-1.39-1.39c-.86-.86-2-1.33-3.21-1.33h-.01c-1.25,0-2.43,.5-3.33,1.41-1.17,1.18-3.18,.35-3.18-1.31,0-2.58-2.11-4.69-4.69-4.69h-1.86c-2.59,0-4.69,2.1-4.69,4.69,0,1.67-2,2.49-3.17,1.32-1.83-1.83-4.81-1.83-6.63,0l-1.31,1.31c-1.83,1.83-1.83,4.8,0,6.63,1.18,1.18,.35,3.18-1.31,3.18h-.02c-1.27,0-2.45,.48-3.33,1.36-.86,.86-1.33,2-1.33,3.22v1.97c0,2.59,2.1,4.69,4.69,4.69,1.66,0,2.49,2,1.32,3.18-1.83,1.83-1.83,4.8,0,6.63l1.31,1.31c1.83,1.83,4.8,1.83,6.63,0,1.18-1.18,3.17-.34,3.17,1.32,0,2.48,1.93,4.51,4.37,4.68v5.09H29.96c-1.66,0-3.02,1.35-3.02,3.01v6.39c-6.08,.62-10.84,5.77-10.84,12.01,0,6.6,5.36,12.07,12.07,12.07s12.07-5.4,12.07-12.07c0-6.24-4.76-11.39-10.84-12.01v-6.38c0-.3,.25-.55,.55-.55h26.96v6.93c-6.08,.62-10.84,5.77-10.84,12.01,0,6.66,5.42,12.07,12.07,12.07s12.07-5.4,12.07-12.07c0-6.24-4.76-11.39-10.84-12.01v-6.93h26.99c.3,0,.55,.25,.55,.55v6.38c-6.08,.62-10.84,5.77-10.84,12.01,0,6.65,5.42,12.07,12.07,12.07,5.55,0,10.36-3.76,11.71-9.13,.16-.66-.24-1.33-.9-1.49M55.01,61.63c0-3.87-4.66-5.78-7.38-3.06-.87,.87-2.28,.87-3.15,0l-1.31-1.31c-.87-.87-.87-2.28,0-3.15,2.72-2.72,.8-7.38-3.06-7.38-1.23,0-2.23-1-2.23-2.23v-1.97c0-.56,.21-1.08,.61-1.47,.42-.42,.98-.64,1.6-.64h.02c3.85,0,5.79-4.65,3.06-7.38-.87-.87-.87-2.28,0-3.15l1.31-1.31c.87-.87,2.28-.87,3.15,0,2.73,2.72,7.38,.8,7.38-3.06,0-1.23,1-2.23,2.23-2.23h1.86c1.23,0,2.23,1,2.23,2.23,0,3.86,4.67,5.79,7.39,3.05,.43-.44,1-.68,1.59-.68h0c.55,0,1.07,.22,1.47,.61l1.39,1.39c.87,.87,.87,2.28,0,3.15-2.72,2.72-.8,7.38,3.06,7.38h.03c.61,0,1.18,.23,1.59,.64,.39,.39,.61,.91,.61,1.47v2.08c0,.56-.21,1.08-.61,1.47-.42,.41-.98,.64-1.59,.64h-.03c-3.85,0-5.78,4.65-3.06,7.38,.87,.87,.87,2.28,0,3.15l-1.31,1.31c-.87,.87-2.28,.87-3.15,0-2.72-2.72-7.38-.8-7.38,3.06,0,1.23-1,2.23-2.23,2.23h-1.86c-1.23,0-2.23-1-2.23-2.23M22.83,100.79c.02-.09-.34-3.44,2.69-5.25,.76,.52,1.67,.83,2.65,.83s1.89-.31,2.65-.83c1.62,.97,2.66,2.76,2.69,4.74v.5c-1.53,1.03-3.36,1.62-5.34,1.62s-3.81-.6-5.34-1.62m5.34-6.88c-1.27,0-2.3-1.08-2.3-2.42s1.03-2.42,2.3-2.42,2.3,1.09,2.3,2.42-1.03,2.42-2.3,2.42m9.61-1.1c0,2.2-.74,4.22-1.99,5.84-.44-2.05-1.64-3.85-3.35-5,.32-.65,.5-1.39,.5-2.17,0-2.69-2.14-4.88-4.77-4.88s-4.76,2.19-4.76,4.88c0,.78,.18,1.51,.5,2.17-1.71,1.15-2.91,2.95-3.35,5-1.24-1.62-1.99-3.64-1.99-5.84,0-5.3,4.31-9.61,9.61-9.61s9.61,4.31,9.61,9.61m15.03,7.98v-.5c.03-1.99,1.07-3.78,2.69-4.74,.76,.52,1.67,.83,2.65,.83s1.89-.31,2.65-.83c1.62,.97,2.66,2.76,2.69,4.74v.5c-1.53,1.03-3.36,1.62-5.34,1.62-1.97,0-3.81-.6-5.34-1.62m5.34-6.88c-1.27,0-2.3-1.08-2.3-2.42s1.03-2.42,2.3-2.42,2.3,1.09,2.3,2.42-1.03,2.42-2.3,2.42m9.61-1.1c0,2.2-.74,4.22-1.99,5.84-.44-2.05-1.64-3.85-3.35-5,.32-.65,.5-1.39,.5-2.17,0-2.69-2.14-4.88-4.77-4.88s-4.76,2.19-4.76,4.88c0,.78,.18,1.51,.49,2.17-1.71,1.15-2.91,2.95-3.35,5-1.24-1.62-1.99-3.64-1.99-5.84,0-5.3,4.31-9.61,9.61-9.61s9.6,4.31,9.6,9.61m20.4-3.74c1.27,0,2.3,1.09,2.3,2.42s-1.03,2.42-2.3,2.42-2.3-1.08-2.3-2.42,1.03-2.42,2.3-2.42m-5.34,11.72v-.5c.03-1.99,1.07-3.78,2.69-4.74,.76,.52,1.67,.83,2.65,.83s1.89-.31,2.65-.83c1.62,.97,2.66,2.76,2.69,4.74v.51c-1.54,1.03-3.38,1.61-5.34,1.61s-3.81-.6-5.34-1.62"/>
  </g>
  <path class="cls-11" d="M60.82,51.73c5.09-.32,9.17-4.4,9.49-9.49,.39-6.12-4.67-11.2-10.81-10.81-4.1,.26-7.62,2.95-8.96,6.85-.22,.64,.12,1.34,.76,1.57,.64,.22,1.35-.12,1.57-.76,1-2.91,3.73-5,6.79-5.19,4.64-.29,8.49,3.54,8.19,8.19-.24,3.85-3.33,6.94-7.19,7.19-3.48,.22-6.7-1.93-7.81-5.23-.22-.64-.92-.99-1.56-.77-.65,.22-.99,.92-.77,1.56,1.47,4.36,5.71,7.19,10.3,6.9"/>
</svg>