<?xml version="1.0" encoding="UTF-8"?>
<svg id="Layer_1" data-name="Layer 1" xmlns="http://www.w3.org/2000/svg" viewBox="0 0 120 120">
  <defs>
    <style>
      .cls-1 {
        fill: #b4e2eb;
      }

      .cls-2 {
        fill: #84acb6;
      }

      .cls-3 {
        fill: #ee4291;
      }

      .cls-4 {
        fill: #e0f2f6;
      }

      .cls-5 {
        fill: #68c5ac;
      }

      .cls-6 {
        fill: #3cbca2;
      }

      .cls-7 {
        fill: #f26e89;
      }

      .cls-8 {
        fill: #a2c3d0;
      }

      .cls-9 {
        fill: #231f20;
      }

      .cls-10 {
        fill: #456073;
      }

      .cls-11 {
        fill: #294958;
      }
    </style>
  </defs>
  <g>
    <path class="cls-5" d="M114.88,22.68V94.52c0,1.61-1.31,2.92-2.92,2.92H7.46c-1.61,0-2.92-1.31-2.92-2.92V22.68c0-1.61,1.31-2.92,2.92-2.92H111.96c1.61,0,2.92,1.31,2.92,2.92h0Zm0,0"/>
    <path class="cls-6" d="M114.88,22.68V94.52c0,1.61-1.31,2.92-2.92,2.92H7.46c-1.61,0-2.92-1.31-2.92-2.92v-3.74H101.84c3.26,0,5.91-2.64,5.91-5.91V19.76h4.21c1.61,0,2.92,1.31,2.92,2.92h0Zm0,0"/>
    <path class="cls-10" d="M114.88,22.68v10.4H4.54v-10.4c0-1.61,1.31-2.92,2.92-2.92H111.96c1.61,0,2.92,1.31,2.92,2.92h0Zm0,0"/>
    <path class="cls-10" d="M114.88,84.12v10.4c0,1.61-1.31,2.92-2.92,2.92H7.46c-1.61,0-2.92-1.31-2.92-2.92v-10.4H114.88Zm0,0"/>
    <path class="cls-8" d="M74.11,111h-28.81l2.26-6.95,2.15-6.61h19.98l4.41,13.56Zm0,0"/>
    <path class="cls-2" d="M74.11,111h-28.81l2.26-6.95h14.11c2.54,0,4.36-2.44,3.65-4.87l-.51-1.74h4.88l4.41,13.56Zm0,0"/>
    <path class="cls-10" d="M83.02,111.78c0,1.4-1.14,2.54-2.54,2.54H38.94c-.7,0-1.34-.28-1.8-.75-.46-.46-.75-1.09-.75-1.8,0-.28,.03-.55,.08-.81,.38-1.88,2.04-3.3,4.03-3.3h38.39c1.14,0,2.17,.46,2.91,1.2,.74,.75,1.21,1.77,1.21,2.91h0Zm0,0"/>
    <path class="cls-11" d="M81.81,108.87c.74,.75,1.21,1.77,1.21,2.91,0,1.4-1.14,2.54-2.54,2.54H38.94c-.7,0-1.34-.28-1.8-.75-.46-.46-.75-1.09-.75-1.8,0-.28,.03-.55,.08-.81h39c1.4,0,2.54-1.14,2.54-2.54,0-.26-.02-.51-.07-.76h.95c1.14,0,2.17,.46,2.91,1.2h0Zm0,0"/>
    <path class="cls-11" d="M114.88,22.68v10.4h-7.13v-13.32h4.21c1.61,0,2.92,1.31,2.92,2.92h0Zm0,0"/>
    <path class="cls-11" d="M107.75,84.12h7.13v10.4c0,1.61-1.31,2.92-2.92,2.92H7.46c-1.61,0-2.92-1.31-2.92-2.92v-3.74H101.84c3.26,0,5.91-2.64,5.91-5.91v-.75Zm0,0"/>
    <path class="cls-4" d="M82.16,52.19c0,12.4-10.05,22.44-22.45,22.44-.75,0-1.49-.04-2.22-.11-11.35-1.11-20.22-10.69-20.22-22.33,0-10.39,7.06-19.13,16.64-21.68V10.65h-2.22c-.7,0-1.34-.28-1.8-.74-.46-.46-.75-1.09-.75-1.8,0-2.27,1.85-4.12,4.12-4.12h12.91c1.14,0,2.16,.46,2.91,1.2,.75,.75,1.21,1.77,1.21,2.91,0,1.4-1.14,2.54-2.54,2.54h-2.22V30.51c9.58,2.56,16.63,11.3,16.63,21.68h0Zm0,0"/>
    <path class="cls-1" d="M82.16,52.19c0,12.4-10.05,22.44-22.45,22.44-.75,0-1.49-.04-2.22-.11,11.36-1.11,20.45-10.69,20.45-22.33,0-10.39-6.46-19.12-12.42-21.68,9.58,2.56,16.63,11.3,16.63,21.68h0Zm0,0"/>
    <path class="cls-1" d="M70.28,8.1c0,1.4-1.14,2.54-2.54,2.54h-16.06c-.7,0-1.34-.28-1.8-.74-.46-.46-.75-1.09-.75-1.8,0-2.27,1.85-4.12,4.12-4.12h12.91c1.14,0,2.16,.46,2.91,1.2,.75,.75,1.21,1.77,1.21,2.91h0Zm0,0"/>
    <path class="cls-7" d="M75.24,52.28c0,8.57-6.95,15.52-15.53,15.52-1.36,0-2.67-.17-3.92-.5-6.67-1.74-11.6-7.81-11.6-15.02,0-3.07,.89-5.92,2.42-8.33h0c3.27,0,3.27,1.33,6.55,1.33s3.27-1.33,6.55-1.33,3.28,1.33,6.55,1.33c.76,0,1.35-.07,1.83-.18,1.62-.36,2.2-1.15,4.72-1.15,1.53,2.41,2.42,5.26,2.42,8.33h0Zm0,0"/>
    <path class="cls-3" d="M75.24,52.28c0,8.57-6.95,15.52-15.53,15.52-1.36,0-2.67-.17-3.92-.5,7.89-.46,14.14-7,14.14-15,0-2.61-.66-5.06-1.83-7.2,1.62-.36,2.2-1.15,4.72-1.15,1.53,2.41,2.42,5.26,2.42,8.33h0Zm0,0"/>
    <path d="M111.96,18.09h-39.89c-.92,0-1.67,.74-1.67,1.66s.75,1.67,1.67,1.67h39.89c.69,0,1.26,.56,1.26,1.26v8.73h-31.08c-.92,0-1.67,.75-1.67,1.67s.75,1.67,1.67,1.67h31.08v47.72h-12.6c-.92,0-1.67,.75-1.67,1.67s.75,1.67,1.67,1.67h12.6v8.73c0,.69-.56,1.26-1.26,1.26H7.46c-.69,0-1.26-.56-1.26-1.26v-8.73H92.95c.92,0,1.67-.75,1.67-1.67s-.75-1.67-1.67-1.67H6.21V34.74h31.3c.92,0,1.67-.75,1.67-1.67s-.75-1.67-1.67-1.67H6.21v-8.73c0-.69,.56-1.26,1.26-1.26H47.29c.92,0,1.67-.74,1.67-1.66s-.74-1.67-1.67-1.67H7.46c-2.53,0-4.59,2.06-4.59,4.58V94.52c0,2.53,2.06,4.58,4.59,4.58H47.43l-2.25,6.9h-4.66c-3.19,0-5.78,2.59-5.78,5.78,0,2.32,1.89,4.21,4.21,4.21h41.54c2.32,0,4.21-1.89,4.21-4.21,0-3.19-2.59-5.78-5.78-5.78h-4.66l-2.25-6.9h39.96c2.53,0,4.59-2.06,4.59-4.58V22.68c0-2.53-2.06-4.58-4.59-4.58h0Zm-41.22,87.91h-10.82c-.92,0-1.67,.75-1.67,1.67s.74,1.67,1.67,1.67h18.99c1.35,0,2.45,1.1,2.45,2.45,0,.48-.39,.88-.88,.88H38.94c-.48,0-.88-.39-.88-.88,0-1.35,1.1-2.45,2.45-2.45h11.71c.92,0,1.67-.75,1.67-1.67s-.75-1.67-1.67-1.67h-3.55l2.25-6.9h17.56l2.25,6.9Zm0,0"/>
    <path d="M51.68,12.31h.56V29.26c-9.86,3.21-16.63,12.46-16.63,22.93,0,7.41,3.33,14.3,9.15,18.91,.72,.57,1.77,.45,2.34-.27,.57-.72,.45-1.77-.27-2.34-5.01-3.97-7.88-9.91-7.88-16.3,0-9.4,6.33-17.65,15.4-20.07,.73-.2,1.23-.85,1.23-1.61V12.31h8.29V30.51c0,.75,.51,1.41,1.23,1.61,9.07,2.42,15.4,10.68,15.4,20.07,0,11.46-9.32,20.78-20.78,20.78-2.26,0-4.49-.36-6.61-1.07-.87-.29-1.82,.18-2.11,1.05-.29,.87,.18,1.82,1.05,2.11,2.47,.83,5.05,1.25,7.67,1.25,13.29,0,24.11-10.81,24.11-24.11,0-10.47-6.78-19.72-16.63-22.93V12.31h.56c2.32,0,4.21-1.89,4.21-4.21,0-3.19-2.59-5.78-5.78-5.78h-12.92c-3.19,0-5.78,2.59-5.78,5.78,0,2.32,1.89,4.21,4.21,4.21h0Zm1.57-6.66h12.92c1.35,0,2.45,1.1,2.45,2.45,0,.48-.39,.88-.88,.88h-16.06c-.48,0-.88-.39-.88-.88,0-1.35,1.1-2.45,2.45-2.45h0Zm0,0"/>
    <path d="M76.9,52.28c0-3.28-.93-6.47-2.68-9.22-.32-.51-.88-.78-1.44-.77-1.94,0-3.01,.44-3.87,.79-.75,.3-1.34,.54-2.65,.54s-1.9-.24-2.65-.54c-.86-.35-1.94-.79-3.9-.79s-3.04,.44-3.9,.79c-.75,.3-1.34,.54-2.65,.54s-1.9-.24-2.65-.54c-.86-.35-1.92-.78-3.85-.79-.57-.02-1.13,.26-1.45,.77-1.75,2.75-2.68,5.94-2.68,9.22,0,9.48,7.71,17.19,17.19,17.19s17.19-7.71,17.19-17.19h0Zm-31.05,0c0-2.32,.58-4.59,1.68-6.61,.72,.09,1.18,.27,1.73,.49,.86,.35,1.94,.79,3.9,.79s3.04-.44,3.9-.79c.75-.3,1.34-.54,2.65-.54s1.9,.24,2.65,.54c.86,.35,1.94,.79,3.9,.79s3.04-.44,3.9-.79c.55-.22,1.01-.41,1.73-.49,1.1,2.02,1.68,4.29,1.68,6.61,0,7.64-6.22,13.86-13.86,13.86s-13.86-6.22-13.86-13.86h0Zm0,0"/>
  </g>
  <g>
    <path class="cls-9" d="M17.81,41.28c-.42,.42-1.11,.42-1.53,0-.42-.42-.42-1.11,0-1.53,.42-.42,1.11-.42,1.53,0,.42,.42,.42,1.11,0,1.53h0Zm0,0"/>
    <path class="cls-9" d="M19.29,42.92c-.13,0-.26-.05-.36-.15-.2-.2-.2-.53,0-.73,.41-.41,.63-.95,.63-1.52s-.22-1.12-.63-1.52c-.2-.2-.2-.53,0-.73,.2-.2,.53-.2,.73,0,.6,.6,.94,1.4,.94,2.25s-.33,1.65-.94,2.25c-.1,.1-.23,.15-.36,.15h0Zm0,0"/>
    <path class="cls-9" d="M20.45,44.44c-.13,0-.26-.05-.36-.15-.2-.2-.2-.53,0-.73,.81-.81,1.26-1.89,1.26-3.04s-.45-2.23-1.26-3.04c-.2-.2-.2-.53,0-.73,.2-.2,.53-.2,.73,0,1.01,1.01,1.57,2.35,1.57,3.77,0,1.42-.56,2.76-1.57,3.77-.1,.1-.23,.15-.36,.15h0Zm0,0"/>
    <path class="cls-9" d="M14.79,42.92c-.13,0-.26-.05-.36-.15-.6-.6-.94-1.4-.94-2.25s.33-1.65,.94-2.25c.2-.2,.53-.2,.73,0,.2,.2,.2,.53,0,.73-.41,.41-.63,.95-.63,1.52s.22,1.12,.63,1.52c.2,.2,.2,.53,0,.73-.1,.1-.23,.15-.36,.15h0Zm0,0"/>
    <path class="cls-9" d="M13.62,44.44c-.13,0-.26-.05-.36-.15-1.01-1.01-1.57-2.35-1.57-3.77s.56-2.76,1.57-3.77c.2-.2,.53-.2,.73,0,.2,.2,.2,.53,0,.73-.81,.81-1.26,1.89-1.26,3.04s.45,2.23,1.26,3.04c.2,.2,.2,.53,0,.73-.1,.1-.23,.15-.36,.15h0Zm0,0"/>
    <path class="cls-9" d="M23.83,45.33H10.25c-.67,0-1.21,.54-1.21,1.21v5.93c0,.67,.54,1.21,1.21,1.21h13.59c.67,0,1.21-.54,1.21-1.21v-5.93c0-.67-.54-1.21-1.21-1.21h0Zm-10.83,6.79h-1.9c-.28,0-.52-.23-.52-.52v-4.22c0-.28,.23-.52,.52-.52s.52,.23,.52,.52v3.7h1.38c.28,0,.52,.23,.52,.52s-.23,.52-.52,.52h0Zm2.11-.52c0,.28-.23,.52-.52,.52s-.52-.23-.52-.52v-4.22c0-.28,.23-.52,.52-.52s.52,.23,.52,.52v4.22Zm4.34-4.07l-1.27,4.22s0,0,0,0c-.14,.47-.84,.46-.99,0,0,0,0,0,0,0l-1.27-4.22c-.08-.27,.07-.56,.34-.64,.27-.08,.56,.07,.64,.34l.78,2.58,.78-2.58c.08-.27,.37-.43,.64-.34,.27,.08,.43,.37,.34,.64h0Zm3.17,1.18c.28,0,.52,.23,.52,.52s-.23,.52-.52,.52h-1.46v1.34h1.74c.28,0,.52,.23,.52,.52s-.23,.52-.52,.52h-2.26c-.28,0-.52-.23-.52-.52v-4.22c0-.28,.23-.52,.52-.52h2.32c.28,0,.52,.23,.52,.52s-.23,.52-.52,.52h-1.81v.81h1.46Zm0,0"/>
  </g>
</svg>