<?xml version="1.0" encoding="UTF-8"?>
<svg id="Layer_1" data-name="Layer 1" xmlns="http://www.w3.org/2000/svg" viewBox="0 0 120 120">
  <defs>
    <style>
      .cls-1 {
        fill: #a8d387;
      }

      .cls-2 {
        fill: #63cbe8;
      }

      .cls-3 {
        fill: #fbd474;
      }

      .cls-4 {
        fill: #edc9ad;
      }

      .cls-5 {
        fill: #c1c9d1;
      }

      .cls-6 {
        fill: #231f20;
      }

      .cls-7 {
        fill: #9eaab5;
      }

      .cls-8 {
        fill: #d8aa86;
      }
    </style>
  </defs>
  <path class="cls-7" d="M116.08,21.08c-.81,.81-1.93,1.3-3.14,1.3-.45,0-.89-.19-1.2-.5l-7.6-7.6c-.31-.31-.5-.75-.5-1.2,0-1.22,.5-2.34,1.3-3.14s1.93-1.31,3.15-1.31c.45,0,.89,.19,1.2,.5l7.6,7.6c.31,.31,.5,.75,.5,1.2,0,1.22-.5,2.34-1.3,3.14"/>
  <rect class="cls-7" x="101.7" y="17.03" width="7.29" height="7.29" transform="translate(16.25 80.56) rotate(-45.01)"/>
  <path class="cls-5" d="M105.85,26.32c.79,.79,1.22,1.84,1.22,2.94s-.43,2.15-1.22,2.94l-8.61,8.61c-1.12-.79-2.46-1.24-3.92-1.24-3.8,0-6.87,3.07-6.87,6.87,0,1.46,.45,2.8,1.24,3.92l-6.39,6.39-12.03-12.03,24.55-24.56c.79-.79,1.84-1.22,2.94-1.22s2.15,.43,2.94,1.22l6.15,6.15Z"/>
  <path class="cls-5" d="M81.3,56.75l-2.22,2.22c-.79,.79-1.84,1.22-2.94,1.22s-2.15-.43-2.94-1.22l-6.15-6.15c-.79-.79-1.22-1.84-1.22-2.94s.43-2.15,1.22-2.94l2.22-2.22,12.03,12.03Z"/>
  <path class="cls-5" d="M62.4,80.81h27.49c1.89,0,3.44,1.55,3.44,3.44-3.04,0-5.79,1.32-7.68,3.44h-23.25v-6.87Z"/>
  <path class="cls-7" d="M100.2,46.44l5.22,5.22c3.83,3.83,6.82,8.35,8.85,13.25,2.05,4.9,3.11,10.21,3.11,15.62,0,6.94-1.77,13.76-5.14,19.83l-3.3,5.94-.02,.02c-.93-.91-2.18-1.46-3.57-1.46h-12.03c5.69,0,10.31-4.62,10.31-10.31,0-1.7-.41-3.3-1.13-4.71,1.48-2.16,2.63-4.55,3.4-7.04,.77-2.51,1.17-5.12,1.17-7.77,0-8.26-3.88-16.05-10.5-21l-1.32-1c2.87-.82,4.95-3.47,4.95-6.6"/>
  <path class="cls-7" d="M60.59,104.86h44.76c1.39,0,2.65,.55,3.57,1.46,.98,.91,1.58,2.23,1.58,3.69,0,.95-.77,1.72-1.72,1.72H60.68c-.95,0-1.72-.77-1.72-1.72v-3.44c0-.91,.72-1.67,1.63-1.7v-.02Z"/>
  <path class="cls-2" d="M24.59,17.23c0,2.85-2.31,5.16-5.16,5.16s-5.15-2.31-5.15-5.16,2.31-5.15,5.15-5.15,5.16,2.31,5.16,5.15"/>
  <path class="cls-2" d="M28.03,41.28c0,2.85-2.31,5.16-5.16,5.16s-5.16-2.31-5.16-5.16,2.31-5.15,5.16-5.15,5.16,2.31,5.16,5.15"/>
  <path class="cls-2" d="M41.78,29.26c0,1.9-1.54,3.44-3.44,3.44s-3.44-1.54-3.44-3.44,1.54-3.44,3.44-3.44,3.44,1.54,3.44,3.44"/>
  <path class="cls-2" d="M38.34,49.88c0,1.9-1.54,3.44-3.44,3.44s-3.44-1.54-3.44-3.44,1.54-3.44,3.44-3.44,3.44,1.54,3.44,3.44"/>
  <path class="cls-2" d="M65.83,12.07c0,1.9-1.54,3.44-3.44,3.44s-3.44-1.54-3.44-3.44,1.54-3.44,3.44-3.44,3.44,1.54,3.44,3.44"/>
  <path class="cls-2" d="M93.33,18.95c0,1.9-1.54,3.44-3.44,3.44s-3.44-1.54-3.44-3.44,1.54-3.44,3.44-3.44,3.44,1.54,3.44,3.44"/>
  <path class="cls-2" d="M69.27,36.13c1.89,0,3.44,1.55,3.44,3.44,0,.94-.38,1.8-1.01,2.42-.62,.63-1.48,1.01-2.42,1.01-1.89,0-3.44-1.54-3.44-3.44,0-1.31,.74-2.44,1.81-3.02,.48-.26,1.05-.41,1.63-.41"/>
  <path class="cls-1" d="M72.71,22.38s0,10.52-9.21,13.16c-1.3,.38-2.82,.58-4.54,.58h-3.44c0-5.15,3.44-13.75,17.18-13.75"/>
  <path class="cls-1" d="M55.52,22.38h-3.44c-13.75,0-13.75-13.75-13.75-13.75,13.75,0,17.18,8.59,17.18,13.75"/>
  <path class="cls-1" d="M55.52,46.44h-3.44c-13.75,0-13.75-13.75-13.75-13.75,13.75,0,17.18,8.59,17.18,13.75"/>
  <path class="cls-4" d="M21.16,67.06v30.93c0,3.8,3.07,6.87,6.87,6.87,1.89,0,3.61-.77,4.86-2.01,1.24-1.25,2.01-2.97,2.01-4.86v-30.93h-13.75Z"/>
  <path class="cls-4" d="M48.65,67.06v30.93c0,3.8,3.08,6.87,6.87,6.87,1.89,0,3.61-.77,4.86-2.01,1.24-1.25,2.01-2.97,2.01-4.86v-30.93h-13.75Z"/>
  <path class="cls-8" d="M65.83,61.9v3.44c0,.95-.77,1.72-1.72,1.72h-17.18c-.94,0-1.72-.77-1.72-1.72v-3.44c0-.95,.77-1.72,1.72-1.72h17.18c.95,0,1.72,.77,1.72,1.72"/>
  <path class="cls-8" d="M38.34,61.9v3.44c0,.95-.77,1.72-1.72,1.72H19.44c-.94,0-1.72-.77-1.72-1.72v-3.44c0-.95,.77-1.72,1.72-1.72h17.18c.95,0,1.72,.77,1.72,1.72"/>
  <path class="cls-3" d="M93.33,39.57c1.46,0,2.8,.45,3.92,1.24,1.79,1.24,2.95,3.3,2.95,5.64,0,3.13-2.08,5.77-4.95,6.6-.62,.17-1.25,.27-1.92,.27-2.34,0-4.4-1.17-5.64-2.95-.79-1.12-1.24-2.46-1.24-3.92,0-3.8,3.07-6.87,6.87-6.87"/>
  <path class="cls-3" d="M102.5,89.84c.72,1.41,1.13,3.01,1.13,4.71,0,5.69-4.62,10.31-10.31,10.31s-10.31-4.62-10.31-10.31c0-2.65,1-5.05,2.63-6.87,1.89-2.11,4.64-3.44,7.68-3.44,3.99,0,7.46,2.29,9.18,5.6"/>
  <path class="cls-5" d="M96.77,94.55c0,1.9-1.54,3.44-3.44,3.44s-3.44-1.54-3.44-3.44,1.54-3.44,3.44-3.44,3.44,1.54,3.44,3.44"/>
  <path class="cls-6" d="M95.05,46.44c0,.95-.77,1.72-1.72,1.72s-1.72-.77-1.72-1.72,.77-1.72,1.72-1.72,1.72,.77,1.72,1.72"/>
  <path class="cls-6" d="M93.33,89.4c-2.84,0-5.16,2.31-5.16,5.15s2.31,5.16,5.16,5.16,5.15-2.31,5.15-5.16-2.31-5.15-5.15-5.15m0,6.87c-.95,0-1.72-.77-1.72-1.72s.77-1.72,1.72-1.72,1.72,.77,1.72,1.72-.77,1.72-1.72,1.72"/>
  <path class="cls-6" d="M95.42,47.83c-.18-1.87-.94-3.56-2.12-4.89l7.35-7.35c1.11-1.11,1.72-2.58,1.72-4.15,0-1.23-.38-2.39-1.08-3.37l2.8-2.79c.65,.65,1.51,1.01,2.43,1.01,3.4,0,6.16-2.76,6.16-6.16,0-.92-.36-1.78-1.01-2.43l-7.58-7.58c-.65-.65-1.51-1.01-2.43-1.01-3.4,0-6.16,2.76-6.16,6.16,0,.92,.36,1.78,1.01,2.43l-2.8,2.8c-1.53-1.05-3.53-1.28-5.28-.7-.59-2.19-2.58-3.82-4.96-3.82-2.84,0-5.15,2.31-5.15,5.15,0,2.13,1.3,3.96,3.14,4.74l-13.86,13.86c-.79-1.84-2.61-3.14-4.74-3.14-.04,0-.07,.01-.12,.01,3.99-3.43,5.27-8.68,5.27-12.04v-1.72h-1.72c-7.86,0-12.66,2.7-15.46,6.09v-4.38c0-5.74-3.98-15.47-18.9-15.47h-1.72v1.72c0,5.35,3.23,15.47,15.47,15.47h1.72v12.97c-2.19-2.65-5.62-4.87-10.76-5.71,.28-.64,.45-1.35,.45-2.1,0-2.84-2.31-5.16-5.16-5.16s-5.16,2.31-5.16,5.16c0,2.27,1.48,4.17,3.52,4.86,.53,5.54,4.17,14.04,15.39,14.04h1.72v10.31h-6.87c-1.9,0-3.44,1.54-3.44,3.44v3.44c0,1.9,1.54,3.44,3.44,3.44v3.44h-10.31v-3.44c1.9,0,3.44-1.54,3.44-3.44v-3.44c0-1.9-1.54-3.44-3.44-3.44H13.02c-1.89,0-3.44,1.54-3.44,3.44v3.44c0,1.9,1.54,3.44,3.44,3.44v3.44h-1.72c-2.84,0-5.16,2.31-5.16,5.16v36.09h3.44v-36.09c0-.95,.77-1.72,1.72-1.72h1.72v22.34c0,4.74,3.86,8.59,8.59,8.59s8.59-3.85,8.59-8.59v-22.34h10.31v22.34c0,4.74,3.85,8.59,8.59,8.59,.59,0,1.18-.06,1.74-.18,0,.06-.02,.12-.02,.18v3.44c0,1.89,1.54,3.44,3.44,3.44h48.11c1.9,0,3.44-1.54,3.44-3.44,0-1.45-.45-2.78-1.22-3.89l2.74-4.93c3.5-6.31,5.35-13.45,5.35-20.66,0-11.37-4.43-22.05-12.46-30.09l-4.8-4.8ZM45.67,22.85c-9.14,0-11.34-6.89-11.86-10.25,8.9,.6,12.73,5.49,13.45,10.25h-1.59ZM13.02,64.09H30.2v3.44s-17.18,0-17.18,0v-3.44Zm3.44,6.87h10.31v3.44h-10.31v-3.44Zm10.31,29.21c0,2.84-2.31,5.15-5.16,5.15s-5.16-2.31-5.16-5.15v-22.34h10.31v22.34Zm60.14-46.4c-2.84,0-5.15-2.31-5.15-5.16s2.31-5.16,5.15-5.16,5.16,2.31,5.16,5.16-2.31,5.16-5.16,5.16m14.75-41.24l7.59,7.58c0,1.5-1.22,2.73-2.73,2.73l-7.59-7.58c0-1.5,1.22-2.73,2.73-2.73m-2.73,7.58l2.73,2.73-2.73,2.73-2.72-2.73,2.72-2.73Zm-6.87,3.44l6.16,6.16c.45,.45,.71,1.08,.71,1.72s-.26,1.27-.71,1.72l-7.7,7.7c-1.1-.52-2.32-.83-3.62-.83-4.74,0-8.59,3.85-8.59,8.59,0,1.3,.31,2.51,.83,3.62l-4.26,4.26-9.6-9.6,23.35-23.35c.9-.9,2.53-.9,3.44,0m-30.22,26.78l1-1.01,9.6,9.6-1.01,1.01c-.91,.9-2.53,.9-3.44,0l-6.16-6.16c-.45-.45-.71-1.08-.71-1.72s.26-1.26,.71-1.72m21.63-30.93c.95,0,1.72,.77,1.72,1.72s-.77,1.72-1.72,1.72-1.72-.77-1.72-1.72,.77-1.72,1.72-1.72m-18.9,22.34c0,.95-.77,1.72-1.72,1.72s-1.72-.77-1.72-1.72,.77-1.72,1.72-1.72,1.72,.77,1.72,1.72m-.17-15.4c-.53,3.36-2.73,10.25-11.86,10.25h-1.59c.72-4.76,4.55-9.64,13.45-10.25m-32.48,3.38c.95,0,1.72,.77,1.72,1.72s-.77,1.72-1.72,1.72-1.72-.77-1.72-1.72,.77-1.72,1.72-1.72m13.75,17.18c-9.14,0-11.34-6.89-11.86-10.25,8.9,.6,12.73,5.49,13.45,10.25h-1.59Zm5.16,3.44v-10.31h1.72c2.28,0,4.23-.35,5.93-.96-.48,.78-.77,1.69-.77,2.67,0,2.13,1.3,3.96,3.14,4.74l-1.42,1.42c-1.11,1.11-1.72,2.58-1.72,4.15s.61,3.04,1.72,4.15l6.16,6.16c1.11,1.11,2.58,1.72,4.15,1.72s3.04-.61,4.15-1.72l7.35-7.35c1.52,1.35,3.5,2.2,5.68,2.2,.52,0,1.02-.07,1.51-.15l.7,.52c6.15,4.61,9.81,11.95,9.81,19.63,0,4.1-1.02,8.08-2.96,11.65-1.91-2.2-4.6-3.7-7.64-4.06-.68-2.05-2.59-3.53-4.87-3.53h-25.78v-3.44h6.87v-3.44h-6.87v-3.44c1.9,0,3.44-1.54,3.44-3.44v-3.44c0-1.9-1.54-3.44-3.44-3.44h-6.87v-10.31Zm36.08,54.99c-4.74,0-8.59-3.85-8.59-8.59s3.85-8.59,8.59-8.59,8.59,3.86,8.59,8.59-3.85,8.59-8.59,8.59m-8.4-17.18h-20.81v-3.44h25.78c.33,0,.62,.12,.88,.28-2.25,.49-4.26,1.6-5.85,3.16m-20.81,12.03v-8.59h18.36c-.75,1.57-1.18,3.31-1.18,5.16,0,3.36,1.39,6.41,3.63,8.59h-22.57c1.09-1.44,1.76-3.21,1.76-5.15m-17.18-36.09h17.18v3.44s-17.18,0-17.18,0v-3.44Zm3.44,6.87h10.31v3.44h-10.31v-3.44Zm0,29.21v-22.34h10.31v22.34c0,2.84-2.31,5.15-5.16,5.15s-5.16-2.31-5.16-5.15m10.31,12.03v-3.44h44.68c1.9,0,3.44,1.54,3.44,3.44H54.26Zm50.07-10.49l-2.4,4.33c-.91-.44-1.91-.71-2.99-.71h-3.62c2.23-2.19,3.62-5.23,3.62-8.59,0-1.62-.33-3.17-.91-4.58,2.83-4.48,4.35-9.62,4.35-14.94,0-8.4-3.86-16.44-10.36-21.72,1.19-.89,2.16-2.07,2.77-3.45l3.01,3.01c7.39,7.39,11.46,17.21,11.46,27.66,0,6.63-1.7,13.2-4.92,18.99"/>
  <path class="cls-6" d="M62.4,17.23c2.84,0,5.16-2.31,5.16-5.15s-2.31-5.16-5.16-5.16-5.15,2.31-5.15,5.16,2.31,5.15,5.15,5.15m0-6.87c.95,0,1.72,.77,1.72,1.72s-.77,1.72-1.72,1.72-1.72-.77-1.72-1.72,.77-1.72,1.72-1.72"/>
  <path class="cls-6" d="M34.91,55.03c2.84,0,5.16-2.31,5.16-5.15s-2.31-5.16-5.16-5.16-5.16,2.31-5.16,5.16,2.31,5.15,5.16,5.15m0-6.87c.95,0,1.72,.77,1.72,1.72s-.77,1.72-1.72,1.72-1.72-.77-1.72-1.72,.77-1.72,1.72-1.72"/>
  <path class="cls-6" d="M19.44,24.1c3.79,0,6.87-3.08,6.87-6.87s-3.08-6.87-6.87-6.87-6.87,3.08-6.87,6.87,3.08,6.87,6.87,6.87m0-10.31c1.9,0,3.44,1.54,3.44,3.44s-1.54,3.44-3.44,3.44-3.44-1.54-3.44-3.44,1.54-3.44,3.44-3.44"/>
  <path class="cls-6" d="M16,41.28c0,3.79,3.08,6.87,6.87,6.87s6.87-3.08,6.87-6.87-3.08-6.87-6.87-6.87-6.87,3.08-6.87,6.87m10.31,0c0,1.9-1.54,3.44-3.44,3.44s-3.44-1.54-3.44-3.44,1.54-3.44,3.44-3.44,3.44,1.54,3.44,3.44"/>
</svg>