<?xml version="1.0" encoding="UTF-8"?>
<svg id="Layer_1" data-name="Layer 1" xmlns="http://www.w3.org/2000/svg" viewBox="0 0 120 120">
  <defs>
    <style>
      .cls-1 {
        fill: #6ebf5f;
      }

      .cls-2 {
        fill: #bea7d0;
      }

      .cls-3 {
        fill: #5ca879;
      }

      .cls-4 {
        fill: #aa90c3;
      }

      .cls-5 {
        fill: #de705d;
      }

      .cls-6 {
        fill: #e9dfdb;
      }

      .cls-7 {
        fill: #fed13e;
      }

      .cls-8 {
        fill: #f0a628;
      }

      .cls-9 {
        fill: #fec128;
      }

      .cls-10 {
        fill: #dc4184;
      }

      .cls-11 {
        fill: #806baf;
      }
    </style>
  </defs>
  <path class="cls-5" d="M64.4,114.62h-28.39c-.08,0-.14-.06-.14-.14V20.11c0-.08,.06-.14,.14-.14h28.39c.08,0,.14,.06,.14,.14V114.49c0,.08-.06,.14-.14,.14h0Zm0,0"/>
  <path class="cls-10" d="M46,114.62h-10c-.07,0-.14-.06-.14-.14V20.11c0-.07,.06-.14,.14-.14h10c-.08,0-.14,.06-.14,.14V114.49c0,.07,.06,.14,.14,.14h0Zm0,0"/>
  <path class="cls-7" d="M38.6,114.62H10.15c-1.57,0-2.84-1.27-2.84-2.84V8.7c0-1.57,1.27-2.84,2.84-2.84h25.6c1.57,0,2.84,1.27,2.84,2.84V114.62Zm0,0"/>
  <path class="cls-8" d="M27.02,86.42h-8.14c-1.57,0-2.84-1.27-2.84-2.84V19.67c0-1.57,1.27-2.84,2.84-2.84h8.14c1.57,0,2.84,1.27,2.84,2.84v63.9c0,1.57-1.27,2.84-2.84,2.84h0Zm0,0"/>
  <path class="cls-2" d="M87.36,114.62h-22.51c-1.57,0-2.84-1.27-2.84-2.84V13.96c0-1.57,1.27-2.84,2.84-2.84h22.51c1.57,0,2.84,1.27,2.84,2.84V111.78c0,1.57-1.27,2.84-2.84,2.84h0Zm0,0"/>
  <path class="cls-11" d="M81.47,86.65h-10.73V24.68c0-1.57,1.27-2.84,2.84-2.84h5.04c1.57,0,2.84,1.27,2.84,2.84v61.97Zm0,0"/>
  <path class="cls-1" d="M116.07,85.4c0,12.52-10.15,22.67-22.67,22.67s-22.67-10.15-22.67-22.67,10.15-22.67,22.67-22.67,22.67,10.15,22.67,22.67h0Zm0,0"/>
  <path class="cls-6" d="M102.97,81.97h-6.14v-6.13c0-1.89-1.54-3.43-3.43-3.43s-3.43,1.54-3.43,3.43v6.13h-6.14c-1.89,0-3.41,1.53-3.41,3.41v.03c0,1.89,1.53,3.41,3.41,3.41h6.14v6.13c0,1.89,1.53,3.43,3.43,3.43s3.43-1.54,3.43-3.43v-6.13h6.14c1.89,0,3.42-1.53,3.42-3.41v-.03c0-1.89-1.53-3.41-3.42-3.41h0Zm0,0"/>
  <path class="cls-9" d="M18.89,114.62H10.15c-1.57,0-2.84-1.27-2.84-2.84V8.7c0-1.57,1.27-2.84,2.84-2.84h8.74c-1.57,0-2.84,1.27-2.84,2.84V111.78c0,1.57,1.27,2.84,2.84,2.84h0Zm0,0"/>
  <path class="cls-4" d="M73.6,114.62h-8.75c-1.57,0-2.84-1.27-2.84-2.84V13.96c0-1.57,1.27-2.84,2.84-2.84h8.75c-1.57,0-2.84,1.27-2.84,2.84V111.78c0,1.57,1.27,2.84,2.84,2.84h0Zm0,0"/>
  <path class="cls-3" d="M97.23,107.74c-1.25,.21-2.53,.32-3.83,.32-12.52,0-22.67-10.15-22.67-22.67s10.15-22.67,22.67-22.67c1.3,0,2.58,.11,3.83,.32-10.7,1.82-18.84,11.13-18.84,22.34s8.14,20.53,18.84,22.34h0Zm0,0"/>
  <path d="M29.66,93.92h-13.42c-.91,0-1.64,.74-1.64,1.64s.74,1.64,1.64,1.64h13.42c.91,0,1.64-.74,1.64-1.64s-.74-1.64-1.64-1.64h0Zm0,0"/>
  <path d="M29.66,102.01h-13.42c-.91,0-1.64,.74-1.64,1.64s.74,1.64,1.64,1.64h13.42c.91,0,1.64-.74,1.64-1.64s-.74-1.64-1.64-1.64h0Zm0,0"/>
  <path d="M27.02,15.19h-8.14c-2.47,0-4.49,2.01-4.49,4.49v50.26c0,.91,.74,1.64,1.64,1.64s1.64-.74,1.64-1.64V19.67c0-.66,.54-1.2,1.2-1.2h8.14c.66,0,1.2,.54,1.2,1.2v63.9c0,.66-.54,1.2-1.2,1.2h-8.14c-.66,0-1.2-.54-1.2-1.2v-7.07c0-.91-.73-1.64-1.64-1.64s-1.64,.74-1.64,1.64v7.07c0,2.47,2.01,4.49,4.49,4.49h8.14c2.47,0,4.49-2.01,4.49-4.49V19.67c0-2.47-2.01-4.49-4.49-4.49h0Zm0,0"/>
  <path d="M47.11,29.55c-.91,0-1.64,.74-1.64,1.64V103.41c0,.91,.74,1.64,1.64,1.64s1.64-.74,1.64-1.64V31.19c0-.91-.73-1.64-1.64-1.64h0Zm0,0"/>
  <path d="M53.51,88.64c-.91,0-1.64,.74-1.64,1.64v13.13c0,.91,.74,1.64,1.64,1.64s1.64-.74,1.64-1.64v-13.13c0-.91-.73-1.64-1.64-1.64h0Zm0,0"/>
  <path d="M53.51,29.55c-.91,0-1.64,.74-1.64,1.64v52.52c0,.91,.74,1.64,1.64,1.64s1.64-.74,1.64-1.64V31.19c0-.91-.73-1.64-1.64-1.64h0Zm0,0"/>
  <path d="M107.03,65.27c-.75-.51-1.77-.31-2.28,.44-.51,.75-.31,1.77,.44,2.28,5.78,3.93,9.24,10.44,9.24,17.42,0,11.59-9.43,21.03-21.03,21.03s-21.03-9.43-21.03-21.03c0-14.16,13.8-24.33,27.36-20.06,.86,.27,1.79-.21,2.06-1.07,.27-.86-.21-1.79-1.07-2.06-2.84-.9-5.84-1.26-8.87-1.07V13.96c0-2.47-2.01-4.49-4.49-4.49h-22.51c-2.47,0-4.49,2.01-4.49,4.49v4.38h-20.12V8.7c0-2.47-2.01-4.49-4.49-4.49H10.15c-2.47,0-4.49,2.01-4.49,4.49V111.78c0,2.47,2.01,4.49,4.49,4.49H87.36c2.47,0,4.49-2.01,4.49-4.49v-2.12c14.06,.89,25.86-10.3,25.86-24.26,0-8.07-3.99-15.59-10.68-20.13h0ZM36.96,112.98H10.15c-.66,0-1.2-.54-1.2-1.2V8.7c0-.66,.54-1.2,1.2-1.2h25.6c.66,0,1.2,.54,1.2,1.2,0,2.84,0-1.48,0,104.28h0Zm3.28,0V21.62h20.12V111.78s.02,.29,.02,1.2h-20.14Zm39.59-47.74c-3.04,2.06-5.6,4.78-7.45,7.96V24.68c0-.66,.54-1.2,1.2-1.2h5.04c.66,0,1.2,.54,1.2,1.2v40.56Zm8.73,46.54c0,.66-.54,1.2-1.2,1.2h-22.51c-.59,0-1.08-.43-1.18-.99,0-89.15-.02-98.04-.02-98.04,0-.66,.54-1.2,1.2-1.2h22.51c.66,0,1.2,.54,1.2,1.2V61.57c-1.91,.39-3.73,1-5.45,1.8V24.68c0-2.47-2.01-4.49-4.49-4.49h-5.04c-2.47,0-4.49,2.01-4.49,4.49,0,.12,0,60.03,0,60.15-.27,11.99,8.19,22.1,19.47,24.39v2.56Zm0,0"/>
  <path d="M93.4,100.02c2.79,0,5.07-2.28,5.07-5.07v-4.49h4.5c2.79,0,5.06-2.27,5.06-5.06v-.03c0-2.79-2.27-5.06-5.06-5.06h-4.5v-4.49c0-2.79-2.27-5.07-5.07-5.07s-5.07,2.28-5.07,5.07v4.49h-4.5c-2.74,0-5.06,2.21-5.06,5.08s2.27,5.06,5.06,5.06h4.5v4.49c0,2.8,2.27,5.07,5.07,5.07h0Zm-9.57-12.84c-.94,0-1.77-.75-1.77-1.8,0-.98,.8-1.77,1.77-1.77h6.14c.91,0,1.64-.74,1.64-1.64v-6.13c0-.99,.8-1.79,1.79-1.79s1.79,.8,1.79,1.79v6.13c0,.91,.73,1.64,1.64,1.64h6.14c.94,0,1.77,.75,1.77,1.8,0,.98-.8,1.77-1.77,1.77h-6.14c-.91,0-1.64,.74-1.64,1.64v6.13c0,.99-.8,1.79-1.79,1.79s-1.79-.8-1.79-1.79v-6.13c0-.91-.74-1.64-1.64-1.64h-6.14Zm0,0"/>
</svg>