<?xml version="1.0" encoding="UTF-8"?>
<svg id="Layer_1" data-name="Layer 1" xmlns="http://www.w3.org/2000/svg" xmlns:xlink="http://www.w3.org/1999/xlink" viewBox="0 0 120 120">
  <defs>
    <style>
      .cls-1 {
        fill: #efdb54;
      }

      .cls-2 {
        fill: #db545c;
      }

      .cls-3 {
        fill: #e7bf40;
      }

      .cls-4 {
        fill: #dd6871;
      }

      .cls-5 {
        clip-path: url(#clippath);
      }

      .cls-6 {
        fill: #efb384;
      }

      .cls-7 {
        fill: none;
      }

      .cls-8 {
        fill: #86ca90;
      }

      .cls-9 {
        fill: #c42e3c;
      }

      .cls-10 {
        fill: #ecc99e;
      }

      .cls-11 {
        fill: #9ad1a2;
      }

      .cls-12 {
        fill: #231f20;
      }
    </style>
    <clipPath id="clippath">
      <rect class="cls-7" x="65.22" y="67.9" width="21.05" height="21.05" transform="translate(-8.81 9.59) rotate(-6.85)"/>
    </clipPath>
  </defs>
  <path class="cls-6" d="M77.04,51.5h.02c2.17,0,3.93-1.76,3.93-3.93s-1.76-3.93-3.93-3.93c-.03,0-.06,0-.08,0H41.01s-.06,0-.08,0c-2.17,0-3.93,1.76-3.93,3.93s1.76,3.93,3.93,3.93h.03"/>
  <path class="cls-10" d="M76.14,33.38c-11.43-1.11-22.86-1.11-34.29,0-.89,7.11-1.15,14.21-.78,21.32,.26,5.17,4.4,9.29,9.58,9.53,5.57,.26,11.13,.26,16.7,0,5.17-.25,9.31-4.36,9.58-9.53,.36-7.11,.1-14.21-.78-21.32"/>
  <path class="cls-6" d="M41.86,33.38c5.71-.55,11.43-.83,17.14-.83-2.89,0-5.79,.28-8.68,.84-.45,7.18-.58,14.35-.4,21.52,.12,4.72,1.85,8.57,4.11,9.45-1.13-.03-2.26-.07-3.38-.13-5.17-.25-9.31-4.36-9.58-9.54-.36-7.1-.1-14.21,.78-21.32"/>
  <path class="cls-1" d="M68.52,39.29c-6.57,2.54-15.9,1.42-20.6-3.28,0,0-1.12,7.64-6.9,7.64l-2.52,.85c-6.74-26.45,7.63-19.38,7.63-19.38,1.36-2.63,3.33-3.72,5.4-3.98,.18-.02,.36-.04,.55-.05,.01,0,.03,0,.04,0,1.45-.08,2.93,.22,4.24,.64,.46,.15,.89,.31,1.3,.47,1.64,.67,2.84,1.43,3.09,1.59,.03,.02,.05,.03,.05,.03,1.48-1.96,2.89-3.73,4.44-3.73,.64,0,1.08,.24,1.37,.63,1.12,1.47,.2,4.99,.13,5.27h0s0,0,0,0v-.02c.21-.5,2.43-5.88,6.41-5.88,.25,0,.48,.02,.68,.07,2.97,.66,.65,5.85,.39,6.4h0s-.01,.04-.01,.04c.13-.16,5.1-6.48,7.31-3.58t0,0c2.23,2.94-6.42,13.73-12.99,16.27"/>
  <path class="cls-3" d="M81.5,23.02h0c-1.12-1.12-4.99,4.15-7.32,3.58l.02-.03s-.01,.02-.01,.03c.13-.16,5.1-6.48,7.31-3.58"/>
  <path class="cls-3" d="M73.95,19.96c-1.68-.38-3.24,2.81-4.12,5.08-.43,1.1-1.74,1.54-2.74,.92l-.24-.15h0s0-.02,0-.02h0v-.02c.21-.5,2.43-5.88,6.41-5.88,.25,0,.48,.02,.68,.07"/>
  <path class="cls-3" d="M51.65,20.94c-4.81,.85-6.62,11.87-3.61,14.88,0,0-1.12,7.63-6.9,7.63l-2.52,.85c-6.74-26.45,7.63-19.38,7.63-19.38,1.36-2.63,3.33-3.72,5.4-3.98"/>
  <path class="cls-3" d="M66.6,20.72c-1.69-1.69-2.81,6.97-6.62,8.36-3.8,1.39-4.16-.38-4.16-.38h0c1.87-.69,3.45-2.88,4.96-4.88h0c.05-.06,.09-.12,.14-.18,.06-.08,.12-.15,.18-.23,1.37-1.79,2.69-3.31,4.13-3.31,.64,0,1.08,.24,1.37,.63"/>
  <path class="cls-2" d="M87.72,61.3v25.52c0,1.63-1.14,3.05-2.74,3.39l-22.67,4.91h-2.93V62.5h2.93l21.2-4.6c2.16-.47,4.21,1.18,4.21,3.39"/>
  <path class="cls-9" d="M59.39,62.5v32.63h-3.14l-22.67-4.91c-1.59-.35-2.74-1.76-2.74-3.39v-25.52c0-2.21,2.05-3.86,4.21-3.39l21.2,4.59h3.14Z"/>
  <polyline class="cls-4" points="56.24 95.13 56.24 62.5 62.31 62.5 62.31 95.13"/>
  <path class="cls-10" d="M30.21,73.63h-1.19c-1.75,0-3.17-1.42-3.17-3.17v-2.85c0-1.75,1.42-3.18,3.17-3.18h1.19c1.75,0,3.17,1.42,3.17,3.18v2.85c0,1.75-1.42,3.17-3.17,3.17"/>
  <path class="cls-6" d="M30.82,73.57c-.2,.04-.4,.06-.61,.06h-1.19c-1.75,0-3.17-1.42-3.17-3.18v-2.85c0-1.76,1.42-3.18,3.17-3.18h1.19c.21,0,.41,.02,.61,.06-1.46,.28-2.56,1.57-2.56,3.12v2.85c0,1.54,1.1,2.83,2.56,3.11"/>
  <path class="cls-10" d="M89.53,73.63h-1.19c-1.75,0-3.18-1.42-3.18-3.17v-2.85c0-1.75,1.42-3.18,3.18-3.18h1.19c1.75,0,3.17,1.42,3.17,3.18v2.85c0,1.75-1.42,3.17-3.17,3.17"/>
  <path class="cls-6" d="M90.14,73.57c-.2,.04-.4,.06-.61,.06h-1.19c-1.75,0-3.17-1.42-3.17-3.18v-2.85c0-1.76,1.42-3.18,3.17-3.18h1.19c.21,0,.41,.02,.61,.06-1.46,.28-2.56,1.57-2.56,3.12v2.85c0,1.54,1.1,2.83,2.56,3.11"/>
  <path class="cls-12" d="M63.7,55.56c.27-.56,.03-1.24-.54-1.51-.57-.27-1.24-.03-1.51,.54-.48,1.02-1.53,1.68-2.65,1.68s-2.17-.66-2.65-1.68c-.27-.57-.94-.81-1.51-.54-.57,.27-.81,.94-.54,1.51,.86,1.81,2.7,2.97,4.7,2.97s3.84-1.17,4.7-2.97"/>
  <path class="cls-12" d="M52.27,48.46c0,1.35-.73,2.44-1.64,2.44s-1.64-1.09-1.64-2.44,.73-2.43,1.64-2.43,1.64,1.09,1.64,2.43"/>
  <path class="cls-12" d="M69,48.46c0,1.35-.73,2.44-1.64,2.44s-1.64-1.09-1.64-2.44,.73-2.43,1.64-2.43,1.64,1.09,1.64,2.43"/>
  <path class="cls-12" d="M86.53,66.3h-.68v-2c0-1.4-.63-2.71-1.72-3.58-1.09-.88-2.5-1.21-3.86-.92l-5.9,1.28c.39-1.06,.63-2.18,.69-3.32,.04-.75,.07-1.49,.09-2.24,2.27-.5,3.98-2.52,3.98-4.94s-1.75-4.5-4.06-4.96c-.14-2.84-.37-5.67-.7-8.49,2.65-2.83,4.73-5.98,5.39-8.29,.42-1.47,.3-2.64-.35-3.49-.6-.78-1.41-1.2-2.36-1.21-1.08,0-2.26,.51-3.61,1.58,.05-.97-.12-1.77-.51-2.39-.39-.62-1.19-1.37-2.78-1.37-2.12,0-3.78,1.19-5,2.56-.12-.55-.32-1.06-.64-1.48-.54-.71-1.32-1.08-2.27-1.08-1.84,0-3.28,1.52-4.72,3.37-.6-.34-1.44-.77-2.43-1.18-.45-.18-.91-.35-1.38-.51-1.66-.53-3.23-.77-4.64-.69,0,0-.02,0-.04,0h-.01c-.21,.01-.41,.03-.62,.06-2.44,.31-4.37,1.55-5.74,3.68-2.46-.86-6.42-1.17-8.58,2.33-.33,.53-.16,1.23,.37,1.56,.19,.11,.39,.17,.59,.17,.38,0,.75-.19,.96-.54,2.02-3.27,6.46-1.17,6.64-1.08,.56,.27,1.22,.05,1.51-.5,1.04-2.02,2.53-3.12,4.53-3.38,.15-.02,.31-.03,.46-.04,.02,0,.05,0,.07,0,1.14-.06,2.42,.14,3.8,.59,.41,.13,.82,.28,1.22,.45,.75,.31,1.4,.63,1.9,.9-1.19,1.55-2.41,3.02-3.69,3.49-.59,.22-.89,.87-.67,1.46,.22,.59,.87,.89,1.45,.67,2.09-.77,3.7-2.9,5.25-4.96,1.26-1.68,2.7-3.58,3.76-3.58,.3,0,.4,.1,.47,.19,.56,.73,.29,3-.07,4.3-.16,.58,.17,1.19,.74,1.38,.58,.19,1.2-.11,1.41-.68,.02-.05,2.06-5.19,5.36-5.19,.67,0,.82,.23,.87,.31,.53,.83-.19,3.23-.84,4.59-.25,.52-.07,1.15,.43,1.45,.49,.31,1.13,.19,1.49-.26,0-.01,.81-1.03,1.89-2.05,1.78-1.68,2.73-1.86,3.06-1.86h0c.2,0,.37,.05,.57,.31,.18,.24,.17,.8-.03,1.51-1.11,3.94-7.48,11.1-12.47,13.02-6.51,2.52-15.21,1.16-19.39-3.03-.3-.3-.75-.41-1.16-.27-.41,.13-.7,.49-.76,.91,0,.02-.26,1.74-1.16,3.45-1.12,2.13-2.67,3.21-4.62,3.21h0s-.05,0-.08,0c-.59,0-1.16,.1-1.68,.29-1.16-4.91-1.61-8.88-1.34-11.81,.06-.62-.4-1.18-1.02-1.23-.62-.06-1.18,.4-1.23,1.02-.31,3.33,.22,7.82,1.58,13.34-.85,.9-1.37,2.12-1.37,3.45,0,2.42,1.71,4.45,3.98,4.94,.02,.75,.05,1.5,.09,2.24,.06,1.09,.27,2.17,.64,3.19l-5.3-1.15c-1.37-.3-2.78,.04-3.86,.92-1.09,.88-1.72,2.18-1.72,3.58v2h-.68c-2.37,0-4.31,1.93-4.31,4.31v2.85c0,2.38,1.93,4.31,4.31,4.31h.68v12.06c0,2.15,1.53,4.04,3.63,4.5l22.67,4.91s0,0,0,0c.03,0,.06,.01,.1,.02,0,0,.01,0,.02,0,.04,0,.08,0,.11,0h6.08s.08,0,.11,0c0,0,.02,0,.02,0,.03,0,.06,0,.1-.02,0,0,0,0,0,0l22.67-4.91c2.1-.46,3.63-2.35,3.63-4.5v-1.54c0-.62-.51-1.13-1.13-1.13s-1.13,.51-1.13,1.13v1.54c0,1.09-.78,2.05-1.84,2.29l-21.3,4.62v-30.31l20.31-4.4c.69-.15,1.41,.02,1.96,.46,.55,.45,.87,1.11,.87,1.82v2.38c-1.5,.67-2.55,2.18-2.55,3.93v2.85c0,1.75,1.05,3.26,2.55,3.93v6.36c0,.63,.51,1.13,1.13,1.13s1.13-.51,1.13-1.13v-5.98h.68c2.38,0,4.31-1.93,4.31-4.31v-2.85c0-2.38-1.93-4.31-4.31-4.31m-9.66-15.73c0,1.14-.69,2.12-1.66,2.55,.02-1.71,.01-3.42-.04-5.13,1,.43,1.7,1.42,1.7,2.58m-41.74,0c0-1.15,.7-2.15,1.7-2.57-.05,1.71-.06,3.42-.04,5.13-.98-.44-1.66-1.42-1.66-2.55m4.07,7.07c-.17-3.29-.2-6.63-.1-9.95,2.31-.35,4.21-1.83,5.53-4.34,.42-.8,.72-1.6,.94-2.29,2.31,1.72,5.35,2.91,8.77,3.42,4.03,.59,8.14,.19,11.57-1.14,2.1-.81,4.34-2.36,6.39-4.21,.63,6.15,.8,12.36,.48,18.5-.07,1.43-.49,2.81-1.2,4.04l-12.4,2.69h-5.83l-13.04-2.83c-.67-1.19-1.05-2.53-1.12-3.9m15.17,8.99h3.81v30.36h-3.81v-30.36Zm-30.39,6.82v-2.85c0-1.13,.92-2.04,2.04-2.04h1.19c1.13,0,2.04,.92,2.04,2.04v2.85c0,1.13-.92,2.04-2.04,2.04h-1.19c-1.13,0-2.04-.92-2.04-2.04m4.98,16.37v-12.43c1.5-.67,2.55-2.18,2.55-3.93v-2.85c0-1.75-1.05-3.26-2.55-3.93v-2.38c0-.71,.32-1.37,.87-1.82,.55-.45,1.27-.61,1.96-.46l20.31,4.4v30.31l-21.3-4.62c-1.07-.23-1.84-1.19-1.84-2.29m59.6-16.37c0,1.13-.92,2.04-2.04,2.04h-1.19c-1.13,0-2.04-.92-2.04-2.04v-2.85c0-1.13,.92-2.04,2.04-2.04h1.19c1.12,0,2.04,.92,2.04,2.04v2.85Z"/>
  <path class="cls-8" d="M77.64,82.35c.15-1.38,1.06-2.42,2.04-2.31,.98,.11,1.64,1.31,1.49,2.7-.15,1.38-1.06,2.42-2.04,2.31-.97-.11-1.64-1.31-1.49-2.7"/>
  <path class="cls-8" d="M83.17,79.63c.92-.33,2.05,.46,2.53,1.76,.47,1.31,.11,2.64-.81,2.97-.92,.33-2.05-.46-2.53-1.76-.47-1.31-.11-2.64,.81-2.97"/>
  <path class="cls-11" d="M80.05,83.81c-.08-.69,.03-1.37,.31-1.9,.29-.53,.72-.86,1.2-.92,1.01-.12,1.97,.94,2.14,2.37,.17,1.43-.51,2.69-1.52,2.81-1.01,.12-1.97-.94-2.14-2.37"/>
  <path class="cls-11" d="M79.26,78.19l1.18,1.21c-.02,.22-.06,.43-.14,.65-.38,1.11-1.41,1.81-2.51,1.83-.87-.69-1.25-1.87-.87-2.98,.02-.06,.04-.12,.07-.18l2.27-.52Z"/>
  <path class="cls-11" d="M83.14,77.72l-.86,1.46c.07,.21,.16,.41,.28,.6,.63,.99,1.79,1.42,2.87,1.18,.68-.87,.77-2.12,.14-3.1-.03-.05-.07-.11-.11-.16l-2.33,.03Z"/>
  <path class="cls-8" d="M79.53,80.42c-.09-.73,.03-1.45,.33-2.01,.3-.56,.76-.91,1.28-.97,1.07-.13,2.09,1,2.27,2.52,.18,1.52-.54,2.86-1.61,2.99-1.07,.13-2.09-1-2.27-2.52"/>
  <path class="cls-11" d="M79.15,77.32c-.09-.73,.03-1.45,.33-2.01,.3-.56,.76-.91,1.28-.97,1.07-.13,2.09,1,2.27,2.52,.18,1.52-.54,2.86-1.61,2.99-1.07,.13-2.09-1-2.27-2.52"/>
  <path class="cls-8" d="M85.72,76.71c-.24-1.98-2.04-3.4-4.02-3.16-.31,.04-.6,.11-.88,.22-.16,1.22,.31,2.5,1.35,3.32s2.39,.97,3.55,.53c.04-.29,.04-.6,0-.91"/>
  <path class="cls-8" d="M76.52,77.81c-.24-1.98,1.18-3.79,3.16-4.02,.31-.04,.61-.03,.91,0,.45,1.15,.29,2.51-.53,3.55-.82,1.04-2.1,1.51-3.32,1.35-.11-.28-.18-.57-.22-.88"/>
  <path class="cls-8" d="M66.97,85.27c.15-1.38,1.06-2.42,2.04-2.31s1.64,1.31,1.49,2.7c-.15,1.38-1.06,2.42-2.04,2.31-.97-.11-1.64-1.31-1.49-2.7"/>
  <path class="cls-8" d="M72.5,82.56c.92-.33,2.05,.46,2.53,1.76,.47,1.31,.11,2.64-.81,2.97-.92,.33-2.05-.46-2.53-1.76-.47-1.31-.11-2.64,.81-2.97"/>
  <path class="cls-11" d="M69.38,86.74c-.17-1.43,.51-2.69,1.52-2.81,1.01-.12,1.97,.94,2.14,2.37,.17,1.43-.51,2.69-1.52,2.81-1.01,.12-1.97-.94-2.14-2.37"/>
  <path class="cls-11" d="M68.59,81.12l1.18,1.21c-.02,.22-.06,.43-.14,.65-.38,1.11-1.41,1.81-2.51,1.82-.87-.69-1.25-1.87-.87-2.98,.02-.06,.04-.12,.07-.18l2.27-.52Z"/>
  <path class="cls-11" d="M72.47,80.65l-.86,1.46c.07,.21,.16,.41,.28,.6,.63,.99,1.79,1.42,2.87,1.18,.68-.87,.77-2.12,.14-3.1-.03-.06-.07-.11-.11-.16l-2.33,.03Z"/>
  <path class="cls-8" d="M68.86,83.35c-.18-1.52,.54-2.86,1.61-2.99,1.07-.13,2.09,1,2.27,2.52,.18,1.52-.54,2.86-1.61,2.99-1.07,.13-2.09-1-2.27-2.52"/>
  <path class="cls-11" d="M68.48,80.25c-.18-1.52,.54-2.86,1.61-2.99,1.07-.13,2.09,1,2.27,2.52,.18,1.52-.54,2.86-1.61,2.99-1.07,.13-2.09-1-2.27-2.52"/>
  <path class="cls-8" d="M75.04,79.63c-.24-1.98-2.04-3.4-4.02-3.16-.31,.04-.6,.11-.88,.22-.16,1.22,.31,2.5,1.35,3.32,1.04,.82,2.39,.97,3.55,.53,.04-.29,.04-.6,0-.91"/>
  <g class="cls-5">
    <path class="cls-8" d="M65.85,80.74c-.24-1.98,1.18-3.79,3.16-4.02,.31-.04,.61-.04,.91,0,.45,1.15,.29,2.5-.53,3.55-.82,1.04-2.1,1.51-3.32,1.35-.11-.28-.18-.57-.22-.88"/>
    <path class="cls-12" d="M65.79,81.92c-.14,.55-.14,1.12,.02,1.66,.15,.53,.44,.99,.83,1.36,0,.03-.01,.07-.02,.1-.21,1.33,.45,2.66,1.63,3.3,.08,.04,.16,.06,.25,.05,.01,0,.02,0,.03,0,.31-.06,.61-.17,.89-.31,.44,.71,1.16,1.25,2.01,1.44,.05,.01,.09,.01,.14,0,.05,0,.09-.02,.14-.04,.78-.39,1.35-1.08,1.61-1.88,.31,.08,.63,.11,.94,.09,0,0,.02,0,.03,0,.08,0,.16-.04,.23-.1,1-.9,1.32-2.35,.81-3.6-.01-.03-.03-.06-.04-.1,.29-.45,.46-.97,.48-1.52,.02-.56-.11-1.12-.38-1.62,.03-.05,.06-.11,.07-.17,.04-.33,.05-.67,0-1.01-.26-2.21-2.27-3.79-4.48-3.52-.2,.02-.4,.06-.59,.12l-.3-2.53c-.1-.8-.51-1.49-1.11-1.94l8.86-1.06c1.13-.14,2.17,.68,2.3,1.81l.11,.9c-.56-.02-1.13,.09-1.65,.3-.21,.09-.31,.32-.22,.54,.09,.21,.33,.31,.54,.22,.44-.18,.92-.26,1.39-.23,.3,.99,.1,2.09-.55,2.91-.65,.82-1.66,1.27-2.7,1.22-.05-.18-.09-.36-.11-.54-.03-.29-.03-.57,.01-.86,.03-.22-.12-.43-.35-.47-.22-.03-.43,.12-.47,.35-.05,.36-.06,.72-.01,1.08,.04,.34,.12,.66,.24,.98,.02,.06,.06,.11,.11,.15-.14,.55-.14,1.12,.02,1.66,.15,.52,.44,.99,.83,1.36,0,.03-.01,.07-.02,.1-.21,1.33,.45,2.66,1.64,3.3,.07,.04,.16,.06,.25,.05,0,0,.02,0,.03,0,.31-.06,.61-.17,.89-.31,.44,.71,1.16,1.25,2.01,1.44,.05,0,.09,.01,.14,0,.05,0,.09-.02,.13-.04,.78-.39,1.35-1.07,1.62-1.88,.31,.08,.63,.11,.94,.09,0,0,.02,0,.03,0,.08,0,.16-.05,.23-.1,1-.9,1.32-2.35,.81-3.6-.01-.03-.03-.06-.04-.09,.29-.45,.46-.97,.48-1.52,.02-.56-.11-1.11-.38-1.61,.03-.05,.06-.11,.06-.17,.04-.33,.05-.67,0-1.01-.26-2.21-2.28-3.79-4.48-3.52-.2,.02-.4,.06-.59,.12l-.11-.9c-.14-1.13-.91-2.03-1.92-2.39,.58-.55,.9-1.36,.8-2.22-.03-.23-.23-.39-.46-.36-.23,.03-.39,.23-.36,.46,.12,.99-.59,1.89-1.58,2.01l-12.71,1.52c-.22,.03-.39,.23-.36,.46,.03,.23,.23,.39,.46,.36l2.32-.28c1.06-.04,2,.75,2.13,1.82l.3,2.53c-.2,0-.4,0-.6,.03-2.21,.26-3.79,2.27-3.52,4.48,.04,.34,.12,.67,.24,.98,.02,.06,.06,.11,.1,.15m15.95-7.97c1.75-.21,3.36,1.05,3.57,2.8,.02,.18,.03,.37,.02,.56-.99,.3-2.09,.1-2.91-.55-.82-.65-1.28-1.66-1.22-2.7,.18-.05,.36-.09,.54-.11m-1.77,5.61c.39,.32,.86,.55,1.37,.66,.05,0,.09,.01,.14,0,.05,0,.09-.02,.14-.04,.47-.23,.86-.56,1.17-.96,.11,.24,.19,.5,.22,.77,.12,1.01-.38,2-1.26,2.5-.97-.28-1.69-1.12-1.81-2.13-.03-.27-.02-.54,.03-.81m3.28-1.17c.03-.09,.07-.18,.09-.27,.5,.14,1.03,.18,1.55,.11,.14-.01,.27-.04,.41-.07,.45,.77,.42,1.69-.06,2.4-.48,.08-.97,.01-1.39-.18,0-.16,0-.32-.02-.48-.07-.55-.26-1.06-.57-1.51m1.49,5.55c-.2,0-.4-.03-.6-.09,.01-.18,0-.37-.02-.56-.07-.56-.28-1.09-.62-1.54,.08-.18,.15-.36,.21-.55,.47,.18,.99,.24,1.51,.18,0,0,0,0,.01,0,.36,.88,.16,1.88-.5,2.55m-2.6,1.79c-.9-.26-1.58-1.05-1.69-2-.04-.32-.01-.63,.07-.93,.35,.25,.75,.43,1.19,.53,.05,.01,.09,.01,.14,0,.05,0,.09-.02,.13-.04,.4-.2,.75-.47,1.03-.8,.16,.27,.26,.57,.29,.89,.11,.95-.35,1.87-1.17,2.34m-2.95-1.13c-.79-.5-1.23-1.43-1.09-2.36,0,0,.01,0,.02,0,.51-.06,1-.24,1.42-.53,.1,.17,.21,.33,.33,.48-.22,.51-.3,1.08-.24,1.64,.02,.19,.06,.37,.11,.54-.18,.1-.37,.17-.56,.22m-1.5-5.51c.52-.06,1.02-.23,1.48-.48,.05,.08,.1,.16,.15,.24-.2,.51-.26,1.06-.2,1.6,.02,.16,.05,.32,.09,.47-.36,.29-.83,.47-1.31,.51-.64-.58-.88-1.46-.63-2.31,.14,0,.28-.01,.41-.03m2.7-1.51c.28-.35,.49-.75,.63-1.16,.24,.37,.54,.7,.89,.98,.21,.16,.43,.3,.66,.42-.17,.66-.6,1.22-1.19,1.56-.66-.19-1.21-.64-1.53-1.24,.2-.17,.38-.36,.54-.56m-13.15,6.78c-.64-.58-.88-1.46-.63-2.31,.14,0,.28-.01,.41-.03,.52-.06,1.02-.23,1.48-.48,.05,.08,.1,.16,.15,.24-.2,.51-.26,1.06-.2,1.6,.02,.16,.05,.32,.09,.47-.36,.29-.83,.47-1.31,.51m7.33-.88c-.48,.08-.97,.01-1.39-.18,0-.16,0-.32-.02-.48-.07-.54-.26-1.06-.57-1.51,.03-.09,.06-.18,.09-.27,.5,.14,1.03,.18,1.55,.11,.14-.02,.27-.04,.41-.07,.44,.77,.42,1.69-.06,2.4m-4.21-4.14c.24,.37,.54,.7,.89,.98,.21,.16,.43,.3,.66,.42-.17,.66-.6,1.22-1.19,1.56-.66-.19-1.21-.63-1.53-1.24,.2-.17,.38-.36,.54-.56,.28-.35,.49-.75,.63-1.16m1.98,3.58c.12,1.01-.38,2-1.25,2.5-.97-.28-1.69-1.12-1.81-2.13-.03-.27-.02-.54,.03-.8,.39,.32,.86,.55,1.37,.66,.05,.01,.09,.01,.14,0,.05,0,.09-.02,.13-.04,.47-.23,.87-.57,1.17-.97,.11,.24,.19,.5,.22,.77m-2.72-5.83c.3,.99,.1,2.09-.55,2.91-.64,.82-1.66,1.27-2.7,1.22-.05-.18-.09-.36-.11-.54-.21-1.76,1.05-3.36,2.8-3.57,.18-.02,.37-.03,.56-.02m1.46-.22c1.76-.21,3.36,1.05,3.57,2.8,.02,.18,.03,.37,.02,.55-.99,.3-2.09,.1-2.91-.55-.82-.65-1.28-1.66-1.22-2.7,.18-.05,.36-.09,.54-.11m3,10c-.2,0-.4-.03-.6-.09,.01-.18,0-.37-.02-.56-.07-.56-.28-1.09-.62-1.54,.09-.18,.16-.36,.21-.55,.47,.18,.99,.24,1.51,.18,0,0,.01,0,.01,0,.36,.88,.16,1.88-.5,2.55m-2.6,1.79c-.9-.27-1.58-1.05-1.69-1.99-.04-.32-.01-.63,.07-.93,.35,.25,.75,.43,1.19,.53,.05,0,.09,.01,.14,0,.05,0,.09-.02,.13-.04,.4-.2,.75-.47,1.03-.79,.15,.27,.26,.57,.29,.89,.11,.95-.35,1.87-1.17,2.34m-2.95-1.13c-.8-.5-1.23-1.43-1.09-2.36,0,0,.01,0,.01,0,.52-.06,1.01-.24,1.42-.53,.1,.17,.21,.33,.33,.49-.22,.51-.3,1.07-.24,1.64,.02,.19,.06,.37,.11,.55-.18,.1-.37,.17-.56,.22"/>
  </g>
  <path class="cls-12" d="M77.52,74.82c-.09-.07-.2-.1-.3-.08-.11,.01-.21,.07-.27,.15-.07,.09-.1,.2-.08,.3s.07,.21,.15,.27c.08,.07,.2,.1,.3,.08,.11-.01,.21-.07,.27-.15,.07-.09,.1-.2,.09-.3-.01-.11-.07-.21-.15-.27"/>
</svg>