<?xml version="1.0" encoding="UTF-8"?>
<svg id="Layer_1" data-name="Layer 1" xmlns="http://www.w3.org/2000/svg" viewBox="0 0 120 120">
  <defs>
    <style>
      .cls-1 {
        fill: #fff;
      }

      .cls-2 {
        fill: #427dc0;
      }

      .cls-3 {
        fill: #64c086;
      }

      .cls-4 {
        fill: #51c5d6;
      }

      .cls-5 {
        fill: #db1e36;
      }

      .cls-6 {
        fill: #f89832;
      }

      .cls-7 {
        fill: #a89278;
      }

      .cls-8 {
        fill: #e2e3e3;
      }
    </style>
  </defs>
  <rect class="cls-5" x="5.13" y="12.22" width="108.85" height="71.31"/>
  <path class="cls-1" d="M59.56,15.97v60.05H12.64V8.47H52.05c4.15,0,7.51,3.36,7.51,7.51h0Zm0,0"/>
  <path class="cls-8" d="M106.48,8.47V76.03H59.56V15.97c0-4.15,3.36-7.51,7.51-7.51h39.41Zm0,0"/>
  <rect class="cls-2" x="18.27" y="15.97" width="13.14" height="24.4"/>
  <path class="cls-4" d="M113.98,44.12c0,15.55-12.6,28.15-28.15,28.15s-28.15-12.6-28.15-28.15,12.6-28.15,28.15-28.15,28.15,12.6,28.15,28.15h0Zm0,0"/>
  <path class="cls-6" d="M21.09,92.92H97.09v20.64H21.09c-5.7,0-10.32-4.62-10.32-10.32s4.62-10.32,10.32-10.32h0Zm0,0"/>
  <path class="cls-7" d="M21.09,98.55H97.09v9.38H21.09c-2.59,0-4.69-2.1-4.69-4.69s2.1-4.69,4.69-4.69h0Zm0,0"/>
  <path class="cls-3" d="M37.98,72.28H113.98v20.64H37.98c-5.7,0-10.32-4.62-10.32-10.32s4.62-10.32,10.32-10.32h0Zm0,0"/>
  <path class="cls-7" d="M37.98,77.91H113.98v9.38H37.98c-2.59,0-4.69-2.1-4.69-4.69s2.1-4.69,4.69-4.69h0Zm0,0"/>
  <rect x="37.04" y="15.97" width="3.75" height="3.75"/>
  <rect x="44.55" y="15.97" width="9.38" height="3.75"/>
  <rect x="37.04" y="23.48" width="16.89" height="3.75"/>
  <rect x="37.04" y="30.99" width="3.75" height="3.75"/>
  <rect x="44.55" y="30.99" width="9.38" height="3.75"/>
  <rect x="37.04" y="38.49" width="16.89" height="3.75"/>
  <rect x="18.27" y="46" width="28.15" height="3.75"/>
  <rect x="18.27" y="53.51" width="35.66" height="3.75"/>
  <rect x="18.27" y="61.02" width="11.26" height="3.75"/>
  <path d="M113.98,10.34h-5.63v-1.88c0-1.04-.84-1.88-1.88-1.88h-39.41c-2.96,.01-5.75,1.42-7.51,3.81-1.76-2.38-4.54-3.8-7.51-3.81H12.64c-1.04,0-1.88,.84-1.88,1.88v1.88H5.13c-.5,0-.97,.2-1.33,.55s-.55,.83-.55,1.33V83.54c0,1.04,.84,1.88,1.88,1.88H26.12c.5,2.12,1.57,4.06,3.08,5.63h-8.11c-6.74,0-12.2,5.46-12.2,12.2s5.46,12.2,12.2,12.2H97.09c1.04,0,1.88-.84,1.88-1.88v-18.77h15.01c1.04,0,1.88-.84,1.88-1.88V12.22c0-1.04-.84-1.88-1.88-1.88h0Zm-7.02,18.24c2.95,3.98,4.7,8.72,5.05,13.66h-9.35c-.11-3.85-.66-7.67-1.65-11.39,2.05-.57,4.04-1.33,5.95-2.27h0Zm-10.81-.43c-2.79,.52-5.61,.82-8.45,.9v-10.88c3.4,1.01,6.4,4.73,8.45,9.98h0Zm-.3-8.29c3.24,1.33,6.17,3.29,8.63,5.78-1.49,.65-3.03,1.2-4.6,1.63-.96-2.66-2.32-5.16-4.04-7.41h0Zm1.5,11.9c.93,3.42,1.45,6.94,1.56,10.49h-11.2v-9.42c3.24-.09,6.47-.45,9.65-1.07h0Zm1.56,14.24c-.11,3.55-.63,7.07-1.56,10.49-3.18-.62-6.41-.97-9.65-1.05v-9.44h11.2Zm-2.76,14.09c-2.05,5.25-5.05,8.97-8.45,9.98v-10.88c2.83,.08,5.66,.38,8.45,.9h0Zm3.73,.88c1.57,.44,3.1,.98,4.6,1.63-2.46,2.49-5.4,4.45-8.63,5.78,1.72-2.25,3.08-4.75,4.04-7.41h0Zm4.71,6.55v2.87h-4.26c1.5-.83,2.93-1.79,4.26-2.87h0Zm-3.58-10.13c.99-3.72,1.54-7.54,1.65-11.39h9.35c-.35,4.94-2.1,9.68-5.05,13.66-1.91-.94-3.9-1.7-5.95-2.27h0ZM25.83,81.66H7.01V14.1h3.75v61.93c0,1.04,.84,1.88,1.88,1.88h14.08c-.5,1.19-.79,2.46-.88,3.75h0Zm-11.32-7.51V10.34H52.05c3.11,0,5.62,2.52,5.63,5.63v3.75h3.75v-3.75c0-3.11,2.52-5.62,5.63-5.63h37.53v10.38c-6.56-5.26-15.02-7.53-23.33-6.26-8.31,1.27-15.71,5.98-20.38,12.96-4.68,6.99-6.21,15.61-4.23,23.78,1.98,8.17,7.31,15.13,14.67,19.19H37.98c-3.32,0-6.49,1.35-8.78,3.75H14.52ZM70.65,30.86c-.99,3.72-1.54,7.54-1.65,11.39h-9.35c.35-4.94,2.1-9.68,5.05-13.66,1.91,.94,3.9,1.7,5.95,2.27h0Zm-3.47-5.22c2.46-2.49,5.4-4.45,8.63-5.78-1.72,2.25-3.08,4.75-4.04,7.41-1.57-.44-3.1-.98-4.6-1.63h0Zm1.82,20.36c.11,3.85,.66,7.67,1.65,11.39-2.05,.57-4.04,1.33-5.95,2.27-2.95-3.98-4.7-8.72-5.05-13.66h9.35Zm2.78,14.98c.96,2.66,2.32,5.16,4.04,7.41-3.24-1.33-6.17-3.29-8.63-5.78,1.49-.65,3.03-1.2,4.6-1.63h0Zm3.73-.88c2.79-.52,5.61-.82,8.45-.9v10.88c-3.4-1.01-6.4-4.73-8.45-9.98h0Zm-1.2-3.6c-.93-3.42-1.45-6.94-1.56-10.49h11.2v9.44c-3.24,.08-6.47,.43-9.65,1.05h0Zm-1.56-14.24c.11-3.55,.63-7.07,1.56-10.49,3.18,.62,6.41,.98,9.65,1.07v9.42h-11.2Zm2.76-14.09c2.05-5.25,5.05-8.97,8.45-9.98v10.88c-2.83-.08-5.66-.38-8.45-.9h0Zm19.71,77.9H21.09c-1.55,0-2.82-1.26-2.82-2.82s1.26-2.82,2.82-2.82H95.22v5.63Zm0-9.38H21.09c-3.63,0-6.57,2.94-6.57,6.57s2.94,6.57,6.57,6.57H95.22v1.88H21.09c-4.66,0-8.45-3.78-8.45-8.45s3.78-8.45,8.45-8.45H95.22v1.88Zm16.89-11.26H37.98c-1.55,0-2.82-1.26-2.82-2.82s1.26-2.82,2.82-2.82H112.11v5.63Zm0-9.38H37.98c-3.63,0-6.57,2.94-6.57,6.57s2.94,6.57,6.57,6.57H112.11v1.88H37.98c-4.66,0-8.45-3.78-8.45-8.45s3.78-8.45,8.45-8.45H112.11v1.88Zm0-5.63h-3.75v-6.47c1.43-1.63,2.69-3.4,3.75-5.29v11.77Zm0-40.78c-1.06-1.89-2.32-3.67-3.75-5.29V14.1h3.75v15.52Zm0,0"/>
  <path d="M31.41,42.25c1.04,0,1.88-.84,1.88-1.88V15.97c0-1.04-.84-1.88-1.88-1.88h-13.14c-1.04,0-1.88,.84-1.88,1.88v24.4c0,1.04,.84,1.88,1.88,1.88h13.14Zm-11.26-24.4h9.38v20.64h-9.38V17.85Zm0,0"/>
</svg>