<?xml version="1.0" encoding="UTF-8"?>
<svg id="Layer_1" data-name="Layer 1" xmlns="http://www.w3.org/2000/svg" viewBox="0 0 120 120">
  <defs>
    <style>
      .cls-1 {
        fill: #3e7390;
      }

      .cls-2 {
        fill: #44809d;
      }

      .cls-3 {
        fill: #98d8f1;
      }

      .cls-4 {
        fill: #7abfdb;
      }

      .cls-5 {
        fill: #8bd5e7;
      }

      .cls-6 {
        fill: #e4e4e4;
      }

      .cls-7 {
        fill: #f16143;
      }

      .cls-8 {
        fill: #b3e2ed;
      }

      .cls-9 {
        fill: #f3f3f3;
      }

      .cls-10 {
        fill: #ea4335;
      }
    </style>
  </defs>
  <path class="cls-3" d="M112.27,105.69H7.41c-1.73,0-3.13-1.4-3.13-3.13v-4.92c0-1.73,1.4-3.13,3.13-3.13H112.27c1.73,0,3.13,1.4,3.13,3.13v4.92c0,1.73-1.4,3.13-3.13,3.13h0Zm0,0"/>
  <path class="cls-4" d="M112.27,94.51h-6.71c1.73,0,3.13,1.4,3.13,3.13v4.92c0,1.73-1.4,3.13-3.13,3.13h6.71c1.73,0,3.13-1.4,3.13-3.13v-4.92c0-1.73-1.4-3.13-3.13-3.13h0Zm0,0"/>
  <path class="cls-2" d="M103.43,94.5H16.24c-2.47,0-4.47-2-4.47-4.47V31.91c0-2.47,2-4.47,4.47-4.47H103.43c2.47,0,4.47,2,4.47,4.47v58.13c0,2.47-2,4.47-4.47,4.47h0Zm0,0"/>
  <path class="cls-1" d="M107.91,90.03c0,2.47-2,4.47-4.47,4.47h-6.71c2.47,0,4.47-2,4.47-4.47V31.9c0-2.47-2-4.46-4.46-4.47h6.7c2.47,0,4.47,2,4.47,4.47v58.13Zm0,0"/>
  <path class="cls-8" d="M101.2,87.8H18.48s0-53.65,0-53.65H94.49s6.71,0,6.71,0v53.66Zm0,0"/>
  <rect class="cls-5" x="94.49" y="34.14" width="6.71" height="53.66"/>
  <path class="cls-7" d="M59.84,63.88H28.22c-.69,0-1.25-.56-1.25-1.25V23.71c0-.69,.56-1.25,1.25-1.25h31.61V63.88Zm0,0"/>
  <path class="cls-10" d="M91.45,63.88h-31.61V22.46h31.61c.69,0,1.25,.56,1.25,1.25V62.62c0,.69-.56,1.25-1.25,1.25h0Zm0,0"/>
  <path class="cls-9" d="M59.84,63.88l-26.32-9.1c-.51-.17-.84-.65-.84-1.18V12.36c0-.86,.85-1.46,1.66-1.18l25.5,8.82V63.88Zm0,0"/>
  <path class="cls-6" d="M59.84,63.88l26.32-9.1c.51-.17,.84-.65,.84-1.18V12.36c0-.86-.85-1.46-1.66-1.18l-25.5,8.82V63.88Zm0,0"/>
  <path class="cls-4" d="M66.94,99.87h-14.21c-1.39,0-2.51-1.12-2.51-2.51v-2.86h19.23v2.86c0,1.39-1.12,2.51-2.51,2.51h0Zm0,0"/>
  <path d="M112.27,92.83h-3.36c.43-.84,.68-1.79,.68-2.8V31.9c0-3.39-2.76-6.15-6.15-6.15h-9.05v-2.05c0-1.61-1.31-2.93-2.93-2.93h-2.78V12.36c0-.95-.46-1.84-1.23-2.39-.77-.55-1.76-.69-2.66-.38l-5.28,1.83c-.88,.3-1.34,1.26-1.04,2.13,.3,.87,1.26,1.34,2.13,1.04l4.72-1.63V53.29l-23.81,8.23V21.19l12.33-4.26c.88-.3,1.34-1.26,1.04-2.13-.3-.88-1.26-1.34-2.13-1.04l-12.91,4.46-24.95-8.63c-.89-.31-1.89-.17-2.66,.38-.77,.55-1.23,1.44-1.23,2.39v8.41h-2.78c-1.62,0-2.93,1.31-2.93,2.93v2.05h-9.06c-3.39,0-6.15,2.76-6.15,6.15v5.96c0,.93,.75,1.68,1.68,1.68s1.68-.75,1.68-1.68v-5.96c0-1.54,1.25-2.79,2.79-2.79h9.06v3.35h-6.82c-.44,0-.87,.18-1.19,.49-.31,.31-.49,.74-.49,1.19v53.66c0,.93,.75,1.68,1.68,1.68H101.2c.44,0,.87-.18,1.19-.49,.31-.31,.49-.74,.49-1.19V34.14c0-.93-.75-1.68-1.68-1.68h-6.82v-3.35h9.05c1.54,0,2.79,1.25,2.79,2.79v58.13c0,1.54-1.25,2.79-2.79,2.79H16.24c-1.54,0-2.79-1.25-2.79-2.79V45.04c0-.93-.75-1.68-1.68-1.68s-1.68,.75-1.68,1.68v44.99c0,1.01,.25,1.96,.68,2.79h-3.36c-2.65,0-4.81,2.16-4.81,4.81v4.92c0,2.65,2.16,4.81,4.81,4.81H74.07c.93,0,1.68-.75,1.68-1.68s-.75-1.68-1.68-1.68H7.41c-.8,0-1.45-.65-1.45-1.45v-4.92c0-.8,.65-1.45,1.45-1.45H48.54v1.18c0,2.31,1.88,4.19,4.19,4.19h14.21c2.31,0,4.19-1.88,4.19-4.19v-1.18h41.14c.8,0,1.45,.65,1.45,1.45v4.92c0,.8-.65,1.45-1.45,1.45h-30.87c-.93,0-1.68,.75-1.68,1.68s.75,1.68,1.68,1.68h30.87c2.65,0,4.81-2.16,4.81-4.81v-4.92c0-2.65-2.16-4.81-4.81-4.81h0Zm-25.56-36.47c1.18-.41,1.97-1.52,1.97-2.77V24.13h2.35V62.2h-21.21l16.89-5.84ZM34.35,12.96l23.81,8.23V61.52l-23.81-8.23V12.96Zm-5.7,11.17h2.35v29.46c0,1.25,.79,2.36,1.97,2.77l16.89,5.84H28.65V24.13Zm70.87,11.68v50.3s-79.37,0-79.37,0V35.82s5.14,0,5.14,0v26.81c0,1.62,1.31,2.93,2.93,2.93h63.23c1.62,0,2.93-1.31,2.93-2.93v-26.81h5.14Zm-31.75,61.55c0,.46-.37,.83-.83,.83h-14.21c-.46,0-.83-.37-.83-.83v-1.18h15.87v1.18Zm0,0"/>
  <path d="M81.86,70.33H37.81c-.93,0-1.68,.75-1.68,1.68s.75,1.68,1.68,1.68h44.05c.93,0,1.68-.75,1.68-1.68s-.75-1.68-1.68-1.68h0Zm0,0"/>
  <path d="M66.38,77.45h-28.57c-.93,0-1.68,.75-1.68,1.68s.75,1.68,1.68,1.68h28.57c.93,0,1.68-.75,1.68-1.68s-.75-1.68-1.68-1.68h0Zm0,0"/>
</svg>