<svg id="Layer_1" data-name="Layer 1" xmlns="http://www.w3.org/2000/svg" xmlns:xlink="http://www.w3.org/1999/xlink" width="120" height="120" viewBox="0 0 120 120"><defs><style>.cls-1{fill:none;}.cls-2{fill:#564737;}.cls-3{fill:#fee897;}.cls-4{fill:#f15e3b;}.cls-5{fill:#957a5c;}.cls-6{fill:#f89832;}.cls-7{clip-path:url(#clip-path);}.cls-8{fill:#231f20;}.cls-9{fill:#fff;}.cls-10{fill:#f2e9b3;}.cls-11{fill:#facd57;}.cls-12{fill:#e9ae51;}.cls-13{fill:#f6a149;}</style><clipPath id="clip-path"><rect class="cls-1" x="28.7499" y="56.9787" width="65.2966" height="63.0213"/></clipPath></defs><title>arteboard1</title><path class="cls-2" d="M74.7468,114.8083H45.582c-4.2647,0-7.7205-4.2327-7.7205-9.4534s3.4558-9.4534,7.7205-9.4534H89.3292v4.2024H86.7557v10.502h2.5735v4.2024H83.3247"/><path class="cls-3" d="M84.8835,109.3984h4.2024V98.8951H38.6691a5.2517,5.2517,0,1,0,0,10.5033H74.38"/><polygon class="cls-4" points="92.606 116.702 88.547 113.837 84.486 116.702 84.486 102.376 92.606 102.376 92.606 116.702"/><path class="cls-5" d="M55.4748,94.6932H41.819V90.4921h3.1525V79.9888H41.819v-4.201H91.1859a9.4527,9.4527,0,1,1,0,18.9054Z"/><path class="cls-3" d="M36.568,90.4922H82.7824a5.2517,5.2517,0,1,0,0-10.5033H36.568Z"/><path class="cls-6" d="M84.13,74.58H48.4192a9.4527,9.4527,0,1,1,0-18.9054H97.7848v4.201H94.6336V70.3784h3.1512V74.58Z"/><g class="cls-7"><path class="cls-3" d="M85.644,72.7338V62.2305H39.43a5.2517,5.2517,0,1,0,0,10.5033Z"/><path class="cls-8" d="M92.9966,94.7913h-3.16a10.4967,10.4967,0,0,0,1.1344-15.8307,10.71,10.71,0,0,0-1.4852-1.2333,1.0528,1.0528,0,0,0,.36-.7928v-4.201a1.0513,1.0513,0,0,0-1.0513-1.05H86.6956V63.28h2.0986a1.05,1.05,0,0,0,1.0513-1.05V58.029a1.0516,1.0516,0,0,0-1.0513-1.0512H39.43a10.5,10.5,0,0,0-5.9369,19.1627,1.0475,1.0475,0,0,0-.3667.794v4.2024a1.051,1.051,0,0,0,1.05,1.05h2.1012V90.589H34.1763a1.0513,1.0513,0,0,0-1.05,1.0512v4.2011a1.053,1.053,0,0,0,.3614.7915,10.5067,10.5067,0,0,0-3.7631,12.6809A10.5037,10.5037,0,0,0,39.43,115.798H74.09v3.1511a1.0511,1.0511,0,0,0,1.592.901l4.71-2.828,4.7115,2.828a1.0518,1.0518,0,0,0,1.592-.901V115.798h6.301a1.0509,1.0509,0,0,0,1.05-1.05v-4.2024a1.0509,1.0509,0,0,0-1.05-1.05H90.8954v-8.4022h2.1012a1.0513,1.0513,0,0,0,1.05-1.0512V95.8413a1.05,1.05,0,0,0-1.05-1.05M31.0252,67.4824A8.4064,8.4064,0,0,1,39.43,59.079H87.7443V61.18H39.43a6.3023,6.3023,0,1,0,0,12.6046H87.7443v2.1H39.43a8.4139,8.4139,0,0,1-8.4048-8.4022m15.757,1.05H84.5945v3.1511H39.43a4.2017,4.2017,0,1,1,0-8.4034H84.5945v3.1511H46.7822a1.0506,1.0506,0,1,0,0,2.1012M35.2276,92.69H83.5432a6.3016,6.3016,0,1,0,0-12.6032H35.2276V77.9858H83.5432a8.4028,8.4028,0,1,1,0,16.8055H35.2276ZM76.191,85.338H38.3787V82.1869H83.5432a4.2011,4.2011,0,1,1,0,8.4021H38.3787v-3.15H76.191a1.0506,1.0506,0,1,0,0-2.1012m8.4035,31.7553-3.6616-2.1961a1.0535,1.0535,0,0,0-1.0816,0l-3.66,2.1961v-12.85h8.4035Zm1.05-14.95H75.141a1.0513,1.0513,0,0,0-1.0512,1.05v6.3022H39.43a4.2011,4.2011,0,1,1,0-8.4022H88.7942v8.4022H86.6956v-6.3022a1.0521,1.0521,0,0,0-1.0512-1.05m6.3023,11.5532H86.6956v-2.1011h5.2511Zm0-14.7044H39.43a6.3023,6.3023,0,1,0,0,12.6046H74.09v2.1H39.43a8.4028,8.4028,0,1,1,0-16.8055H91.9467Z"/></g><path class="cls-8" d="M46.0214,105.1972H70.1779a1.0506,1.0506,0,1,0,0-2.1012H46.0214a1.0506,1.0506,0,1,0,0,2.1012"/><path class="cls-8" d="M41.82,105.1972h1.05a1.0506,1.0506,0,1,0,0-2.1012H41.82a1.0506,1.0506,0,1,0,0,2.1012"/><path class="cls-8" d="M78.5821,86.291h1.05a1.0506,1.0506,0,0,0,0-2.1011h-1.05a1.0506,1.0506,0,1,0,0,2.1011"/><path class="cls-8" d="M42.8694,65.2839h-1.05a1.0506,1.0506,0,1,0,0,2.1012h1.05a1.0506,1.0506,0,1,0,0-2.1012"/><path class="cls-9" d="M41.08,32.487l-.1056-1.1621c-.1055-2.4283-.211-4.8552-.1055-7.2835V22.7738l1.4786.3165.8442.2111v3.9069a1.7945,1.7945,0,0,0,3.589,0V23.83h1.9007a27.4212,27.4212,0,0,0,5.9119-.6344l.6344-.1056,1.3718-.211v1.2675c.1055,2.4283.1055,4.8554,0,7.1781l-.1055,1.1621H41.08Z"/><path class="cls-10" d="M56.5993,24.1466v-1.373L55.333,23.09l-.6331.1055c-.5289.1055-1.1607.2111-1.7952.3179v.5276c.1055,2.4283.1055,4.8567,0,7.1794l-.1055,1.1608h3.589l.1055-1.1608a52.7615,52.7615,0,0,0,.1056-7.0739"/><path class="cls-11" d="M48.2589,56.3472a13.9545,13.9545,0,0,1-5.0677-.6331l-1.0552-.3178.4221-1.0553a8.06,8.06,0,0,0,.6331-2.1117l.3166-.95.951.2111a20.2244,20.2244,0,0,0,4.3277.5275,17.4549,17.4549,0,0,0,4.0124-.5275l1.0552-.2111.3166,1.0552c.2124.74.4234,1.3731.6345,2.1118l.4221,1.0552-1.0566.3179a19.6,19.6,0,0,1-5.0663.6331Z"/><path class="cls-12" d="M54.805,54.341a8.06,8.06,0,0,1-.6331-2.1117l-.3179-1.0552-1.0552.211a11.1345,11.1345,0,0,1-3.2725.4221l.2111.7387c.211.74.4233,1.3731.6344,2.1117l.4208,1.0565-1.0552.3166-.6332.2111a15.5977,15.5977,0,0,0,4.9609-.6345l1.0565-.3166Z"/><path class="cls-9" d="M44.9871,29.0027a1.85,1.85,0,0,1-1.7952-1.7952V23.3019l-1.0552-.2111-.8455-.211V20.346a2.0817,2.0817,0,0,1,2.5338-1.4786,2.05,2.05,0,0,1,1.4773,1.5841h.211a2.93,2.93,0,0,1-.1055-.951,3.1694,3.1694,0,0,1,6.3353-.211,3.8,3.8,0,0,1-.2111,1.162h.2111a2.4375,2.4375,0,0,1,4.8566.4221,2.4194,2.4194,0,0,1-2.4283,2.2172l-.1055.1056H53.96a28.6838,28.6838,0,0,1-5.1732.5276,11.4875,11.4875,0,0,1-1.9007-.1055v3.3779a1.9849,1.9849,0,0,1-1.8993,2.0063h0"/><path class="cls-10" d="M54.1713,18.34a2.3986,2.3986,0,0,0-1.6884.6332,2.4886,2.4886,0,0,1,.1055,3.4848,2.4256,2.4256,0,0,1-1.7965.8442l-.1042.1056h-.1055a19.67,19.67,0,0,1-3.5891.4221c.6332,0,1.1608.1054,1.6884.1054a27.7431,27.7431,0,0,0,5.1732-.5275H53.96l.1055-.1056a2.484,2.484,0,0,0,.1056-4.9622"/><path class="cls-13" d="M52.0068,51.94a20.3921,20.3921,0,0,1-4.4333-.5275l-.951-.2124.1055-.95c.4221-4.2222-.8454-10.1353-1.8994-14.3588a18.3776,18.3776,0,0,1-.4233-2.11l-.3166-1.2676h15.31l-.3179,1.2676c-.1055.6331-.3165,1.3717-.422,2.11-.9511,4.2235-2.3229,10.1366-1.9008,14.3588l.1055.8441-.8441.2124a12.3034,12.3034,0,0,1-4.0124.6331"/><path class="cls-11" d="M68.0286,57.3371c-2.85,0-4.4333-1.5841-4.4333-4.329V38.1231h4.4333l.1055.8442a5.2419,5.2419,0,0,0,10.3464,0l.1055-.8442h4.4345v14.885c0,2.7449-1.5841,4.329-4.4345,4.329Z"/><path class="cls-13" d="M73.308,33.226a5.1732,5.1732,0,1,1-5.1733,5.1732A5.1733,5.1733,0,0,1,73.308,33.226"/><path class="cls-11" d="M78.586,37.7329l-.1055-.8442a5.2416,5.2416,0,0,0-10.3464,0l-.1056.8442H63.5953V27.9141l4.8553-8.8678.6345-7.8125h8.4457l.6344,7.8125,4.8553,8.8678v9.8188Z"/><polygon class="cls-13" points="69.085 10.844 69.613 3.77 76.898 3.77 77.531 10.844 69.085 10.844"/><path class="cls-8" d="M54.1719,17.2838a3.5659,3.5659,0,0,0-1.7952.5276,4.2547,4.2547,0,0,0-5.5953-2.11,4.0051,4.0051,0,0,0-2.2172,2.3215,3.0893,3.0893,0,0,0-4.118,1.5841,1.9561,1.9561,0,0,0-.2111.7386v1.69a1.3028,1.3028,0,0,0-.422.8455,59.61,59.61,0,0,0,0,8.6567,32.9718,32.9718,0,0,0,.95,4.6456c1.0566,4.5387,2.5339,11.296,1.69,15.3072a12.0732,12.0732,0,0,1-1.1607,3.2738,1.0139,1.0139,0,0,0,.211,1.3717c.2111.2124,1.7939,1.3731,6.756,1.3731H49.21c4.9621,0,6.5462-1.1607,6.7573-1.3731a1.1244,1.1244,0,0,0,.211-1.3717A17.2269,17.2269,0,0,1,55.016,51.49c-.8441-4.0112.6345-10.7685,1.6884-15.3072a36.1065,36.1065,0,0,0,.951-4.6456,59.2442,59.2442,0,0,0,0-8.6567c0-.2124-.1055-.3179-.211-.5289a3.5625,3.5625,0,0,0-1.7939-4.6457,2.4294,2.4294,0,0,0-1.4786-.422M49.21,55.2913h-.9511a13.6865,13.6865,0,0,1-4.6442-.5276,15.0111,15.0111,0,0,0,.7386-2.3228,22.19,22.19,0,0,0,4.54.5276,19.28,19.28,0,0,0,4.2235-.5276,18.4984,18.4984,0,0,0,.7373,2.2172,13.7346,13.7346,0,0,1-4.6442.6332M54.594,35.6538C53.5388,40.0883,52.2712,46,52.6933,50.4347a17.1853,17.1853,0,0,1-8.0236,0C45.0931,46,43.8255,40.0883,42.769,35.6538a18.34,18.34,0,0,1-.4208-2.11H55.1216c-.2111.6331-.3166,1.3718-.5276,2.11m.951-4.4333v.21H42.03v-.21c-.1055-2.3227-.1055-4.7511-.1055-7.0738h.2124v3.0614a2.85,2.85,0,0,0,5.7008,0V24.9908h.8428a23.74,23.74,0,0,0,6.1242-.7387l.6331-.1054a52.5455,52.5455,0,0,1,.1069,7.0738m-.74-9.08c-.211.1055-.74.1055-.951.2111a27.5223,27.5223,0,0,1-5.0663.5289,10.7383,10.7383,0,0,1-1.7952-.1068,1.2042,1.2042,0,0,0-.8442.3165,1.138,1.138,0,0,0-.3179.74v3.3781a.7387.7387,0,0,1-1.4773,0v-3.907a1.0276,1.0276,0,0,0-.8442-1.0552l-1.0565-.211V20.5562a1.0136,1.0136,0,0,1,.95-.7386,1,1,0,0,1,.951.8442,1.0285,1.0285,0,0,0,1.0552.8455h.2111a.9622.9622,0,0,0,.8455-.4221,1.08,1.08,0,0,0,.211-.9511,2.1038,2.1038,0,1,1,4.0125-1.2662,3.52,3.52,0,0,1,0,1.4773,1.098,1.098,0,0,0,.6318,1.3732c.1055,0,.2123.1054.3179.1054h.211a1.0424,1.0424,0,0,0,1.0566-.95,1.3771,1.3771,0,0,1,1.3717-1.2676A1.3982,1.3982,0,0,1,55.6505,20.98,1.562,1.562,0,0,1,54.805,22.14"/><path class="cls-8" d="M76.87,18.4451,75.71,4.825h.1055A.9962.9962,0,0,0,76.87,3.77.9968.9968,0,0,0,75.815,2.7146H66.1017A.9972.9972,0,0,0,65.0452,3.77.9966.9966,0,0,0,66.1017,4.825h.1056l-1.0565,13.62-4.8553,8.5525a.7768.7768,0,0,0-.1069.5263V52.2292c0,3.3779,2.1118,5.3842,5.4911,5.3842H76.13c3.4849,0,5.4911-2.0063,5.4911-5.3842V27.5239a.9354.9354,0,0,0-.1068-.5263ZM68.319,4.825h5.2787L74.02,9.7884H67.8956ZM79.6151,52.2292c0,2.2172-1.1607,3.2724-3.3793,3.2724H65.7852c-2.3228,0-3.3793-1.0552-3.3793-3.2724v-13.83h2.4283a6.2572,6.2572,0,0,0,12.3526,0h2.4283ZM66.84,37.3427a4.123,4.123,0,0,1,4.118-4.1167,4.1174,4.1174,0,1,1,0,8.2347,4.0575,4.0575,0,0,1-4.118-4.118m12.7747-1.0553H77.1868a6.2573,6.2573,0,0,0-12.3526,0H62.4059V27.8418l4.7524-8.5525a.6344.6344,0,0,0,.1055-.4221l.5263-6.8628h6.5463l.5276,6.8628c0,.1056.1068.3166.1068.4221l4.75,8.5525Z"/></svg>