<?xml version="1.0" encoding="UTF-8"?>
<svg id="Layer_1" data-name="Layer 1" xmlns="http://www.w3.org/2000/svg" viewBox="0 0 120 120">
  <defs>
    <style>
      .cls-1 {
        fill: #fff;
      }

      .cls-2 {
        fill: #427dc0;
      }

      .cls-3 {
        fill: #a0a2a9;
      }

      .cls-4 {
        fill: #f15e3b;
      }

      .cls-5 {
        fill: #7f828a;
      }

      .cls-6 {
        fill: #6f717c;
      }

      .cls-7 {
        fill: #f1d9c4;
      }

      .cls-8 {
        fill: #edc9ad;
      }

      .cls-9 {
        fill: #e2e3e3;
      }

      .cls-10 {
        fill: #505359;
      }

      .cls-11 {
        fill: #60503c;
      }

      .cls-12 {
        fill: #37393f;
      }
    </style>
  </defs>
  <path class="cls-9" d="M114.64,89.5H5.52V33.06c0-2.08,1.68-3.76,3.76-3.76H110.87c2.08,0,3.76,1.68,3.76,3.76v56.44Zm0,0"/>
  <rect class="cls-2" x="11.16" y="34.94" width="97.83" height="48.92"/>
  <path class="cls-10" d="M65.72,29.29h-11.29l1.19-8.66c2.78,1.51,6.14,1.51,8.92,0l1.19,8.66Zm0,0"/>
  <path class="cls-5" d="M69.48,14.24c0,5.2-4.21,9.41-9.41,9.41s-9.41-4.21-9.41-9.41,4.21-9.41,9.41-9.41,9.41,4.21,9.41,9.41h0Zm0,0"/>
  <path class="cls-3" d="M114.64,89.5v3.76c0,2.08-1.69,3.76-3.76,3.76H9.28c-2.08,0-3.76-1.69-3.76-3.76v-3.76H114.64Zm0,0"/>
  <rect class="cls-3" x="41.26" y="106.43" width="37.63" height="7.53"/>
  <rect class="cls-6" x="54.43" y="97.02" width="11.29" height="9.41"/>
  <path class="cls-4" d="M63.84,14.24c0,2.08-1.68,3.76-3.76,3.76s-3.76-1.68-3.76-3.76,1.68-3.76,3.76-3.76,3.76,1.68,3.76,3.76h0Zm0,0"/>
  <path class="cls-12" d="M54.62,68.95l-3.9,6.34-3.82-2.73H26.21c-4.16,0-7.53,3.37-7.53,7.53v3.76H56.31l5.34-9.63-7.04-5.27Zm0,0"/>
  <path class="cls-7" d="M61.71,64.91c.09,.04,.17,.09,.24,.15,2.01,1.17,2.72,3.74,1.58,5.78l-1.88,3.39-7.04-5.27,1.5-2.45c.78-1.28,2.17-2.05,3.67-2.05,.67,0,1.32,.16,1.92,.45h0Zm0,0"/>
  <path class="cls-1" d="M41.26,72.57l-5.64,7.53-5.64-7.53h11.29Zm0,0"/>
  <path class="cls-8" d="M39.93,65.87l1.34,6.7h-11.29l1.34-6.7c2.7,1.4,5.92,1.4,8.62,0h0Zm0,0"/>
  <path class="cls-11" d="M45.03,49.99H20.57c0-5.2,4.21-9.41,9.41-9.41,2.13,0,4.18,.75,5.83,2.09,.55-.14,1.12-.21,1.69-.21,4.16,0,7.53,3.37,7.53,7.53h0Zm0,0"/>
  <path class="cls-7" d="M26.21,49.99h18.81v7.53c0,5.2-4.21,9.41-9.41,9.41s-9.41-4.21-9.41-9.41v-7.53Zm0,0"/>
  <path d="M110.87,27.41h-43.57l-.7-3.97c4.01-2.84,5.72-7.95,4.23-12.63-1.49-4.68-5.84-7.86-10.76-7.86s-9.26,3.18-10.76,7.86c-1.49,4.68,.22,9.79,4.23,12.63l-.7,3.97H11.16c-4.16,0-7.53,3.37-7.53,7.53v58.32c0,3.11,2.53,5.63,5.64,5.64H52.55v5.64h-11.29c-1.04,0-1.88,.84-1.88,1.88v7.53c0,1.04,.84,1.88,1.88,1.88h37.63c1.04,0,1.88-.84,1.88-1.88v-7.53c0-1.04-.84-1.88-1.88-1.88h-11.29v-5.64h43.27c3.11,0,5.63-2.53,5.64-5.64V33.06c0-3.11-2.53-5.63-5.64-5.64h0ZM52.55,14.24c0-3.04,1.83-5.79,4.65-6.95,2.81-1.16,6.05-.52,8.2,1.63,2.15,2.15,2.8,5.39,1.63,8.2-1.16,2.81-3.91,4.65-6.95,4.65-4.16,0-7.53-3.37-7.53-7.53h0Zm10.93,13.17h-6.81l.39-2.3c1.97,.55,4.05,.55,6.02,0l.39,2.3Zm13.53,80.9v3.76H43.14v-3.76h33.87Zm-20.7-3.76v-5.64h7.53v5.64h-7.53Zm56.44-11.29c0,1.04-.84,1.88-1.88,1.88H9.28c-1.04,0-1.88-.84-1.88-1.88v-1.88H112.76v1.88Zm0-5.64H7.4V34.94c0-2.08,1.69-3.76,3.76-3.76H110.87c1.04,0,1.88,.84,1.88,1.88v54.56Zm0,0"/>
  <path d="M60.08,19.89c2.28,0,4.34-1.38,5.21-3.48,.87-2.11,.39-4.54-1.22-6.15-1.61-1.61-4.04-2.1-6.15-1.22-2.11,.87-3.48,2.93-3.48,5.21,0,3.12,2.53,5.64,5.64,5.64h0Zm0-7.53c.76,0,1.45,.46,1.74,1.16,.29,.7,.13,1.51-.41,2.05-.54,.54-1.35,.7-2.05,.41s-1.16-.98-1.16-1.74c0-1.04,.84-1.88,1.88-1.88h0Zm0,0"/>
  <path d="M108.99,33.06H11.16c-1.04,0-1.88,.84-1.88,1.88v48.92c0,1.04,.84,1.88,1.88,1.88H108.99c1.04,0,1.88-.84,1.88-1.88V34.94c0-1.04-.84-1.88-1.88-1.88h0Zm-53.79,48.92H20.57v-1.88c0-3.11,2.53-5.63,5.64-5.64h2.82l5.08,6.77c.36,.47,.91,.75,1.51,.75s1.15-.28,1.51-.75l5.08-6.77h4.1l3.33,2.37c.42,.32,.96,.43,1.47,.32,.51-.1,.96-.41,1.22-.86l2.82-4.57,4.08,3.05-4.03,7.22Zm-27.11-30.1h15.05v5.64c0,4.16-3.37,7.53-7.53,7.53s-7.53-3.37-7.53-7.53v-5.64Zm-5.4-3.76c.62-2.47,2.46-4.46,4.88-5.26,2.42-.8,5.08-.32,7.06,1.29,.45,.36,1.04,.49,1.6,.36,.41-.09,.84-.14,1.26-.15,2.39,0,4.52,1.51,5.32,3.76H22.69Zm9.58,22.58l.45-2.28c1.89,.53,3.9,.53,5.79,0l.45,2.28h-6.7Zm5.23,3.76l-1.88,2.5-1.88-2.5h3.76Zm19.62-5.96l.62-1c.65-1.07,2.01-1.45,3.12-.88,.59,.3,1.03,.82,1.22,1.45,.19,.63,.13,1.31-.19,1.89l-.83,1.49-3.95-2.93Zm49.99,13.49H59.51l5.68-10.22c.82-1.47,1-3.21,.49-4.82-.27-.89-.74-1.7-1.39-2.37l6.87-13.73-3.35-1.69-6.79,13.58c-2.53-.53-5.13,.58-6.49,2.78l-4.35,7.07-2.18-1.54c-.31-.24-.7-.36-1.09-.36h-4.1l-.77-3.9c3.05-2.1,4.87-5.57,4.87-9.27v-7.53c0-5.2-4.21-9.41-9.41-9.41-.41,0-.82,.04-1.22,.09-1.85-1.29-4.05-1.98-6.3-1.98-6.23,0-11.29,5.05-11.29,11.29,0,1.04,.84,1.88,1.88,1.88h3.76v5.64c0,3.7,1.82,7.17,4.87,9.27l-.77,3.9h-2.22c-5.2,0-9.41,4.21-9.41,9.41v1.88h-3.76V36.82H107.11v45.15Zm0,0"/>
  <rect x="73.25" y="40.58" width="15.05" height="3.76"/>
  <rect x="92.06" y="40.58" width="11.29" height="3.76"/>
  <rect x="73.25" y="48.11" width="7.53" height="3.76"/>
  <rect x="84.53" y="48.11" width="18.81" height="3.76"/>
  <rect x="73.25" y="55.63" width="11.29" height="3.76"/>
  <rect x="88.3" y="55.63" width="15.05" height="3.76"/>
  <rect x="73.25" y="63.16" width="30.1" height="3.76"/>
  <rect x="73.25" y="70.68" width="30.1" height="3.76"/>
</svg>