<svg xmlns="http://www.w3.org/2000/svg" width="83.503" height="83.503" viewBox="0 0 83.503 83.503"><defs><style>.cls-1{fill:#506e8f;}.cls-2{fill:#44617e;}.cls-3{fill:#e4eff9;}.cls-4{fill:#d1e4f5;}.cls-5{fill:#3e5a72;}.cls-6{fill:#fff;}.cls-7{fill:#e8e3ee;}.cls-8{fill:#d9848f;}.cls-9{fill:#d1717e;}.cls-10{fill:#efc5b5;}.cls-11{fill:#eaa795;}.cls-12{fill:#c79170;}.cls-13{fill:#c2825a;}.cls-14{fill:#f3dc81;}.cls-15{fill:#eccd74;}.cls-16{fill:#231f20;}</style></defs><title>Online</title><g id="Layer_2" data-name="Layer 2"><g id="Layer_1-2" data-name="Layer 1"><path class="cls-1" d="M134.4434,79.89H63.1724a4.8921,4.8921,0,0,1-4.893-4.8929v-46.06a4.892,4.892,0,0,1,4.893-4.8921h71.271a4.8927,4.8927,0,0,1,4.893,4.8921v46.06a4.8927,4.8927,0,0,1-4.893,4.8929" transform="translate(-57.0558 -15.801)"/><path class="cls-2" d="M134.4434,24.045H129.55a4.8928,4.8928,0,0,1,4.893,4.893v46.06a4.8926,4.8926,0,0,1-4.893,4.892h4.893a4.8926,4.8926,0,0,0,4.893-4.892V28.938a4.8928,4.8928,0,0,0-4.893-4.893" transform="translate(-57.0558 -15.801)"/><path class="cls-3" d="M63.1719,71.899V29.59a.6521.6521,0,0,1,.652-.652h69.967a.6521.6521,0,0,1,.652.652V71.899a.6521.6521,0,0,1-.652.652H63.8239a.6521.6521,0,0,1-.652-.652" transform="translate(-57.0558 -15.801)"/><path class="cls-4" d="M133.7905,28.9376h-4.893a.6524.6524,0,0,1,.653.6521V71.8986a.6531.6531,0,0,1-.653.653h4.893a.6538.6538,0,0,0,.653-.653V29.59a.6531.6531,0,0,0-.653-.6521" transform="translate(-57.0558 -15.801)"/><polygon class="cls-2" points="49.831 82.28 33.671 82.28 36.118 64.089 47.385 64.089 49.831 82.28"/><polygon class="cls-5" points="47.385 64.089 42.492 64.089 44.939 82.28 49.831 82.28 47.385 64.089"/><path class="cls-1" d="M109.3916,90.2159l1.723,6.212a1.305,1.305,0,0,1-1.258,1.653H87.7586a1.305,1.305,0,0,1-1.258-1.653l1.723-6.212a1.3049,1.3049,0,0,1,1.257-.956h18.654a1.3049,1.3049,0,0,1,1.257.956" transform="translate(-57.0558 -15.801)"/><path class="cls-2" d="M111.1143,96.4279l-1.723-6.212a1.304,1.304,0,0,0-1.257-.955h-4.893a1.3052,1.3052,0,0,1,1.258.955l1.722,6.212a1.3048,1.3048,0,0,1-1.257,1.653h4.893a1.3048,1.3048,0,0,0,1.257-1.653" transform="translate(-57.0558 -15.801)"/><rect class="cls-6" x="15.8212" y="11.009" width="51.86" height="45.742"/><path class="cls-7" d="M122.78,17.0245h-4.893a1.9568,1.9568,0,0,1,1.957,1.957v53.57h4.893v-53.57a1.9568,1.9568,0,0,0-1.957-1.957" transform="translate(-57.0558 -15.801)"/><path class="cls-2" d="M122.78,17.0245H74.8353a1.9576,1.9576,0,0,0-1.958,1.957V26.81h51.86v-7.828a1.9568,1.9568,0,0,0-1.957-1.957" transform="translate(-57.0558 -15.801)"/><path class="cls-5" d="M122.78,17.0245h-4.893a1.9568,1.9568,0,0,1,1.957,1.957V26.81h4.893v-7.828a1.9568,1.9568,0,0,0-1.957-1.957" transform="translate(-57.0558 -15.801)"/><path class="cls-8" d="M112.6865,72.5514v-8.459a6.7813,6.7813,0,0,0-4.299-6.31l-3.305-1.3a3.4149,3.4149,0,0,1-2.166-3.179v-2.701h-8.219v2.701a3.4149,3.4149,0,0,1-2.166,3.179l-3.305,1.3a6.7813,6.7813,0,0,0-4.299,6.31v8.459" transform="translate(-57.0558 -15.801)"/><path class="cls-9" d="M108.3877,57.7823l-3.305-1.3a3.4163,3.4163,0,0,1-2.166-3.179v-2.701h-4.892V55.75a3.415,3.415,0,0,0,2.166,3.178l3.304,1.3a6.7809,6.7809,0,0,1,4.299,6.31v6.013h4.893v-8.459a6.7813,6.7813,0,0,0-4.299-6.31" transform="translate(-57.0558 -15.801)"/><path class="cls-10" d="M98.8076,59.0138a7.5132,7.5132,0,0,0,5.818-2.751c-1.045-.6029-4.155-1.726-4.155-2.959v-2.701h-5.772v2.701a3.4156,3.4156,0,0,1-1.71,2.959,7.5152,7.5152,0,0,0,5.819,2.751" transform="translate(-57.0558 -15.801)"/><path class="cls-11" d="M100.1206,58.899a7.52,7.52,0,0,0,4.505-2.637,3.414,3.414,0,0,1-1.709-2.958V50.603h-4.892V55.75a3.417,3.417,0,0,0,2.096,3.149" transform="translate(-57.0558 -15.801)"/><path class="cls-10" d="M98.9893,51.6871c-.258,0-.696.829-.947.803a7.4887,7.4887,0,0,1-6.723-7.449v-3.25l2.446-5.885c0-2.163,1.754-1.471,3.917-1.471h4.696c2.164,0,1.472-.692,1.472,1.471l2.446,5.885v3.25a7.4836,7.4836,0,0,1-3.378,6.261c-1.181.775-3.929.385-3.929.385" transform="translate(-57.0558 -15.801)"/><path class="cls-11" d="M103.85,35.9064c0-2.163.692-1.472-1.472-1.472l-.975,4.911v5.694a5.994,5.994,0,0,1-1.42,4.388,6.2311,6.2311,0,0,1-5.285,1.874,7.6512,7.6512,0,0,0,2.959,1.139,8.864,8.864,0,0,0,1.151.089,7.4891,7.4891,0,0,0,7.488-7.49v-3.248Z" transform="translate(-57.0558 -15.801)"/><path class="cls-12" d="M106.2964,35.9064a3.9185,3.9185,0,0,0-3.918-3.918h-7.142a3.9185,3.9185,0,0,0-3.918,3.918v5.885a13.86,13.86,0,0,0,6.739-.624,13.5774,13.5774,0,0,0,3.089-1.58.3227.3227,0,0,1,.454.087,4.7526,4.7526,0,0,0,4.696,2.117Z" transform="translate(-57.0558 -15.801)"/><path class="cls-13" d="M102.3784,31.9884h-4.893a3.9185,3.9185,0,0,1,3.918,3.918v3.6321a.3192.3192,0,0,1,.197.1359,4.7521,4.7521,0,0,0,4.696,2.117v-5.885a3.9185,3.9185,0,0,0-3.918-3.918" transform="translate(-57.0558 -15.801)"/><path class="cls-14" d="M115.4512,21.9171h20.083a3.8015,3.8015,0,0,1,3.802,3.801v8.665a3.8024,3.8024,0,0,1-3.802,3.802h-11.275a.8885.8885,0,0,0-.627.2591l-3.669,3.669a.5066.5066,0,0,1-.865-.3581V39.0712a.8867.8867,0,0,0-.887-.8861h-2.76a3.8014,3.8014,0,0,1-3.801-3.802v-8.665a3.8013,3.8013,0,0,1,3.801-3.801" transform="translate(-57.0558 -15.801)"/><path class="cls-15" d="M135.5347,21.9171h-4.893a3.8022,3.8022,0,0,1,3.802,3.801v8.665a3.803,3.803,0,0,1-3.802,3.802h4.893a3.8022,3.8022,0,0,0,3.801-3.802v-8.665a3.8013,3.8013,0,0,0-3.801-3.801" transform="translate(-57.0558 -15.801)"/><path class="cls-16" d="M82.6628,20.694a1.223,1.223,0,1,0,1.223,1.223,1.2236,1.2236,0,0,0-1.223-1.223m4.893,0a1.223,1.223,0,1,0,1.224,1.223,1.2236,1.2236,0,0,0-1.224-1.223m-9.785,0a1.223,1.223,0,1,0,1.223,1.223,1.2229,1.2229,0,0,0-1.223-1.223m57.764,0h-9.574V18.982a3.1844,3.1844,0,0,0-3.18-3.181H74.8348a3.1844,3.1844,0,0,0-3.18,3.181v3.839h-8.483a6.1234,6.1234,0,0,0-6.116,6.116v46.06a6.1234,6.1234,0,0,0,6.116,6.116h28.604l-.932,6.925h-1.363a2.5331,2.5331,0,0,0-2.435,1.851l-1.723,6.212a2.527,2.527,0,0,0,2.436,3.203h22.098a2.5295,2.5295,0,0,0,2.437-3.203L110.57,89.89a2.5346,2.5346,0,0,0-2.435-1.852h-1.364l-.931-6.925h28.604a6.1226,6.1226,0,0,0,6.115-6.116V25.718a5.0287,5.0287,0,0,0-5.024-5.024m-61.434,7.339h19.814a1.223,1.223,0,0,0,0-2.446H74.1008V18.982a.7345.7345,0,0,1,.734-.734h47.946a.7343.7343,0,0,1,.733.734v1.712h-8.063a5.03,5.03,0,0,0-5.021,4.893H99.6228a1.223,1.223,0,1,0,0,2.446h10.804v6.35a5.0309,5.0309,0,0,0,5.024,5.025h2.424v2.347a1.73,1.73,0,0,0,2.954,1.223l2.685-2.686V59.384a1.2235,1.2235,0,1,0,2.447,0V39.408h7.259V71.327h-7.259V65.092a1.2235,1.2235,0,0,0-2.447,0v6.235H113.91V64.092a7.9561,7.9561,0,0,0-5.074-7.447l-3.305-1.301a2.18,2.18,0,0,1-1.39-2.04V51.922a8.6984,8.6984,0,0,0,3.378-6.882V35.906a5.1461,5.1461,0,0,0-5.14-5.14h-7.141a5.1465,5.1465,0,0,0-5.142,5.14V45.04a8.6993,8.6993,0,0,0,3.379,6.882v1.382a2.18,2.18,0,0,1-1.391,2.04L88.78,56.645a7.9561,7.9561,0,0,0-5.074,7.447v7.235h-9.605Zm31.246,38.689a1.2236,1.2236,0,0,0-1.223,1.223v3.382H93.4908V67.945a1.223,1.223,0,0,0-2.446,0v3.382h-4.893V64.092a5.5237,5.5237,0,0,1,3.524-5.171l3.008-1.184a8.7482,8.7482,0,0,0,12.246,0l3.01,1.184a5.5237,5.5237,0,0,1,3.524,5.171v7.235h-4.893V67.945a1.2238,1.2238,0,0,0-1.224-1.223M93.4588,43.176a14.6762,14.6762,0,0,0,7.663-2.118,5.934,5.934,0,0,0,3.951,1.983v2a6.2655,6.2655,0,0,1-12.531,0V43.146c.306.019.612.03.917.03m-.917-2.48v-4.79a2.6979,2.6979,0,0,1,2.695-2.694h7.142a2.697,2.697,0,0,1,2.694,2.694v4.675a3.4694,3.4694,0,0,1-1.018-.311,3.5584,3.5584,0,0,1-1.429-1.263,1.5472,1.5472,0,0,0-2.171-.429,12.24,12.24,0,0,1-2.809,1.437,12.5523,12.5523,0,0,1-5.104.681m10.284,15.646a6.2954,6.2954,0,0,1-8.036,0,4.6155,4.6155,0,0,0,1.132-3.037v-.046a8.6938,8.6938,0,0,0,5.772,0v.046a4.6155,4.6155,0,0,0,1.132,3.037m5.309,34.142a.08.08,0,0,1,.078.059l1.722,6.211a.091.091,0,0,1-.078.104H87.7588a.0905.0905,0,0,1-.079-.104l1.723-6.211a.081.081,0,0,1,.078-.06h18.654Zm-14.822-2.446.931-6.925h9.127l.932,6.925Zm44.8-13.041a3.6741,3.6741,0,0,1-3.669,3.67H63.1718a3.6741,3.6741,0,0,1-3.669-3.67V28.937a3.6741,3.6741,0,0,1,3.669-3.67h8.483v2.447h-7.831a1.877,1.877,0,0,0-1.875,1.875V71.898a1.8778,1.8778,0,0,0,1.875,1.876h69.967a1.878,1.878,0,0,0,1.876-1.876V39.404a4.9878,4.9878,0,0,0,2.446-.71Zm-66.458-3.67h-7.259V30.16h7.259Zm66.458-36.944a2.5818,2.5818,0,0,1-2.578,2.579H124.26a2.0927,2.0927,0,0,0-1.492.618l-2.446,2.446v-.955a2.1123,2.1123,0,0,0-2.111-2.109h-2.76a2.5816,2.5816,0,0,1-2.577-2.579V25.718a2.5814,2.5814,0,0,1,2.577-2.578h20.084a2.5809,2.5809,0,0,1,2.578,2.578Zm-4.311-3.109h-16.618a1.223,1.223,0,0,0,0,2.446h16.618a1.223,1.223,0,1,0,0-2.446m0-4.893h-16.618a1.223,1.223,0,1,0,0,2.446h16.618a1.223,1.223,0,1,0,0-2.446" transform="translate(-57.0558 -15.801)"/></g></g></svg>