<?xml version="1.0" encoding="UTF-8"?>
<svg id="Layer_1" data-name="Layer 1" xmlns="http://www.w3.org/2000/svg" xmlns:xlink="http://www.w3.org/1999/xlink" viewBox="0 0 120 120">
  <defs>
    <style>
      .cls-1 {
        fill: #31454d;
      }

      .cls-2 {
        fill: #abadb0;
      }

      .cls-3 {
        fill: #c4d1d4;
      }

      .cls-4 {
        fill: #f26439;
      }

      .cls-5 {
        fill: #f3f4f4;
      }

      .cls-6 {
        fill: #4e595d;
      }

      .cls-7 {
        fill: #75888f;
      }

      .cls-8 {
        fill: #888a8c;
      }

      .cls-9 {
        fill: #fdda2d;
      }

      .cls-10 {
        stroke: #231f20;
        stroke-linecap: round;
        stroke-linejoin: round;
        stroke-width: 2px;
      }

      .cls-10, .cls-11 {
        fill: none;
      }

      .cls-12 {
        fill: #b1babf;
      }

      .cls-13 {
        fill: #fbbd77;
      }

      .cls-14 {
        fill: #f8982d;
      }

      .cls-15 {
        clip-path: url(#clippath);
      }

      .cls-16 {
        fill: #febe2b;
      }

      .cls-17 {
        fill: #da4f27;
      }
    </style>
    <clipPath id="clippath">
      <rect class="cls-11" x="16.54" y="27.41" width="84.42" height="84.42"/>
    </clipPath>
  </defs>
  <path class="cls-1" d="M31.2,97.17v9.85c0,.78-.63,1.41-1.41,1.41h-2.81c-.78,0-1.41-.63-1.41-1.41v-9.85h5.63Z"/>
  <path class="cls-1" d="M50.9,97.17v9.85c0,.78-.63,1.41-1.41,1.41h-2.81c-.78,0-1.41-.63-1.41-1.41v-9.85h5.63Z"/>
  <path class="cls-1" d="M76.22,97.17v9.85c0,.78-.63,1.41-1.41,1.41h-2.81c-.78,0-1.41-.63-1.41-1.41v-9.85h5.63Z"/>
  <path class="cls-1" d="M95.92,97.17v9.85c0,.78-.63,1.41-1.41,1.41h-2.81c-.78,0-1.41-.63-1.41-1.41v-9.85h5.63Z"/>
  <path class="cls-6" d="M28.39,97.17v9.85c0,.78-.63,1.41-1.41,1.41s-1.41-.63-1.41-1.41v-9.85h2.81Z"/>
  <path class="cls-6" d="M48.08,97.17v9.85c0,.78-.63,1.41-1.41,1.41s-1.41-.63-1.41-1.41v-9.85h2.81Z"/>
  <path class="cls-6" d="M73.41,97.17v9.85c0,.78-.63,1.41-1.41,1.41s-1.41-.63-1.41-1.41v-9.85h2.81Z"/>
  <path class="cls-6" d="M93.11,97.17v9.85c0,.78-.63,1.41-1.41,1.41s-1.41-.63-1.41-1.41v-9.85h2.81Z"/>
  <path class="cls-14" d="M41.05,46.72v-8.64c0-.78-.63-1.41-1.41-1.41h-2.81c-.78,0-1.41,.63-1.41,1.41v8.64h5.63Z"/>
  <path class="cls-8" d="M53.71,56.37v42.21c0,.78-.63,1.41-1.41,1.41H24.16c-.78,0-1.41-.63-1.41-1.41V56.37h30.95Z"/>
  <path class="cls-3" d="M53.71,53.56l-15.48,2.81-2.11-.38-13.37-2.43,1.07-1.07c3.31-3.3,7.65-5.37,12.3-5.85,.7-.07,1.41-.11,2.11-.11,5.4,0,10.59,2.14,14.41,5.97l1.07,1.07Z"/>
  <path class="cls-8" d="M98.74,56.37v42.21c0,.78-.63,1.41-1.41,1.41h-28.14c-.78,0-1.41-.63-1.41-1.41V56.37h30.96Z"/>
  <path class="cls-2" d="M50.9,56.37v42.21c0,.78-.63,1.41-1.41,1.41H24.16c-.78,0-1.41-.63-1.41-1.41V56.37h28.14Z"/>
  <path class="cls-2" d="M95.92,56.37v42.21c0,.78-.63,1.41-1.41,1.41h-25.33c-.78,0-1.41-.63-1.41-1.41V56.37h28.14Z"/>
  <path class="cls-3" d="M98.74,53.56l-15.45,2.81-2.11-.38-13.39-2.43,1.07-1.07c3.31-3.3,7.65-5.37,12.3-5.85,.7-.07,1.41-.11,2.11-.11,5.4,0,10.59,2.14,14.41,5.97l1.07,1.07Z"/>
  <path class="cls-5" d="M49.49,53.56l-13.37,2.43-13.37-2.43,1.07-1.07c3.31-3.3,7.65-5.37,12.3-5.85,1.96,.2,3.87,.68,5.68,1.43,2.47,1.02,4.72,2.53,6.61,4.42l1.07,1.07Z"/>
  <path class="cls-5" d="M94.52,53.56l-13.34,2.43-13.39-2.43,1.07-1.07c3.31-3.3,7.65-5.37,12.3-5.85,1.96,.2,3.87,.68,5.68,1.43,2.47,1.02,4.72,2.53,6.61,4.42l1.07,1.07Z"/>
  <path class="cls-6" d="M101.55,56.37c-.01,1.55-1.26,2.8-2.81,2.81h-30.96c-1.55,0-2.81-1.26-2.81-2.81,.01-1.55,1.26-2.8,2.81-2.81h30.96c1.55,0,2.81,1.26,2.81,2.81"/>
  <path class="cls-12" d="M25.57,42.3c0,1.55-1.26,2.81-2.81,2.81s-2.81-1.26-2.81-2.81,1.26-2.81,2.81-2.81,2.81,1.26,2.81,2.81"/>
  <path class="cls-12" d="M32.61,33.86c0,1.55-1.26,2.81-2.81,2.81s-2.81-1.26-2.81-2.81,1.26-2.81,2.81-2.81,2.81,1.26,2.81,2.81"/>
  <path class="cls-17" d="M45.27,26.82h8.44c.78,0,1.41,.63,1.41,1.41v2.82c0,.78-.63,1.41-1.41,1.41h-8.44c-.78,0-1.41-.63-1.41-1.41v-2.82c0-.78,.63-1.41,1.41-1.41"/>
  <path class="cls-17" d="M67.78,26.82h8.44c.78,0,1.41,.63,1.41,1.41v2.82c0,.78-.63,1.41-1.41,1.41h-8.44c-.78,0-1.41-.63-1.41-1.41v-2.82c0-.78,.63-1.41,1.41-1.41"/>
  <path class="cls-4" d="M45.27,26.82h5.16c.78,0,1.41,.63,1.41,1.41v2.82c0,.78-.63,1.41-1.41,1.41h-5.16c-.78,0-1.41-.63-1.41-1.41v-2.82c0-.78,.63-1.41,1.41-1.41"/>
  <path class="cls-4" d="M67.78,26.82h5.16c.78,0,1.41,.63,1.41,1.41v2.82c0,.78-.63,1.41-1.41,1.41h-5.16c-.78,0-1.41-.63-1.41-1.41v-2.82c0-.78,.63-1.41,1.41-1.41"/>
  <path class="cls-1" d="M48.08,80.29v8.23c-1.01-.32-1.96-.8-2.81-1.43-.5-.36-.97-.74-1.41-1.17,0,.62-.3,1.2-.8,1.58-1.47,.83-3.14,1.26-4.83,1.24-.38,0-.75-.05-1.11-.14-.3-.06-.59-.15-.87-.27-1.35-.57-2.59-1.39-3.65-2.4,0,.62-.3,1.2-.8,1.56-.64,.47-1.39,.79-2.17,.94-.41,.09-.83,.16-1.25,.21v-8.34c0-.78,.63-1.41,1.41-1.41h16.88c.15,0,.31,.03,.45,.08,.27,.08,.51,.26,.68,.49,.18,.24,.28,.53,.28,.83"/>
  <path class="cls-13" d="M29.64,88.42c-.71,1.52-1.12,3.17-1.21,4.84-.03-.1-.04-.2-.04-.31v-4.32c.42-.05,.84-.12,1.25-.21"/>
  <path class="cls-16" d="M48.08,88.52v4.43c0,.78-.63,1.41-1.41,1.41H29.79c-.35,0-.68-.13-.94-.36-.22-.19-.37-.45-.42-.73,.09-1.68,.5-3.32,1.21-4.84,.78-.15,1.52-.47,2.17-.94,.5-.36,.8-.94,.8-1.56,1.06,1.02,2.29,1.83,3.65,2.41,.28,.12,.57,.21,.87,.27,.36,.09,.74,.14,1.11,.14,1.69,.02,3.35-.41,4.83-1.24,.5-.37,.8-.95,.8-1.58,1.2,1.16,2.64,2.05,4.22,2.6"/>
  <path class="cls-1" d="M93.11,80.29v8.23c-1.01-.32-1.96-.8-2.81-1.43-.5-.36-.97-.74-1.41-1.17,0,.62-.3,1.2-.8,1.58-1.47,.83-3.14,1.26-4.83,1.24-.38,0-.75-.05-1.11-.14-.3-.06-.59-.15-.87-.27-1.35-.57-2.59-1.39-3.65-2.4,0,.62-.3,1.2-.8,1.56-.64,.47-1.38,.79-2.17,.94-.41,.09-.83,.16-1.25,.21v-8.34c0-.78,.63-1.41,1.41-1.41h16.88c.15,0,.31,.03,.45,.08,.27,.08,.51,.26,.67,.49,.18,.24,.28,.53,.28,.83"/>
  <path class="cls-6" d="M45.27,80.29v8.23c-.78-.23-1.53-.58-2.21-1.03-.57-.46-1.37-.53-2.01-.17,0,1.79-2.28,1.03-3.93,1.27-.56,.08-1.13,.13-1.7,.14-.68,0-1.35-.15-1.98-.41-.57-.22-1.12-.5-1.63-.84-.58-.45-1.37-.51-2.01-.15,0,.91-.6,.13-1.41,.55v-7.58c0-.78,.63-1.41,1.41-1.41h14.07c.15,0,.31,.03,.45,.08,.27,.08,.51,.26,.68,.49,.18,.24,.28,.53,.28,.83"/>
  <path class="cls-6" d="M90.29,80.29v8.23c-.78-.23-1.53-.58-2.21-1.03-1.19-.76-2.01,1.24-2.01,1.24,0,1.79-2.28-.38-3.93-.14-.56,.08-1.13,.13-1.7,.14-.68,0-1.35-.15-1.98-.41-.57-.22-1.12-.5-1.63-.84-1.2-.74-2.01,1.25-2.01,1.25,0,.91-.6-1.28-1.41-.86v-7.58c0-.78,.63-1.41,1.41-1.41h14.07c.15,0,.31,.03,.45,.08,.27,.08,.51,.26,.68,.49,.18,.24,.28,.53,.28,.83"/>
  <path class="cls-13" d="M74.66,88.42c-.71,1.52-1.12,3.17-1.21,4.84-.03-.1-.04-.2-.04-.31v-4.32c.42-.05,.84-.12,1.25-.21"/>
  <path class="cls-16" d="M93.11,88.52v4.43c0,.78-.63,1.41-1.41,1.41h-16.88c-.35,0-.69-.13-.94-.36-.22-.19-.37-.45-.42-.73,.09-1.68,.5-3.32,1.21-4.84,.78-.15,1.52-.47,2.17-.94,.5-.36,.8-.94,.8-1.56,1.06,1.02,2.29,1.83,3.65,2.41,.28,.12,.57,.21,.87,.27,.36,.09,.74,.14,1.11,.14,1.69,.02,3.35-.41,4.83-1.24,.5-.37,.8-.95,.8-1.58,1.2,1.16,2.64,2.05,4.22,2.6"/>
  <path class="cls-9" d="M45.27,88.52v4.43c0,.78-.63,1.41-1.41,1.41h-14.07c-.35,0-.68-.13-.94-.36-.22-.19-.37-.45-.42-.73,.09-1.68,.5-3.32,1.21-4.84,.78-.15,1.52-.47,2.17-.94,.51,.34,1.06,.62,1.63,.84,.63,.26,1.3,.4,1.98,.41,.57,0,1.14-.06,1.7-.14,.36,.09,.74,.14,1.11,.14,1.69,.02,3.35-.41,4.83-1.24,.68,.44,1.43,.79,2.21,1.03"/>
  <path class="cls-9" d="M90.29,88.52v4.43c0,.78-.63,1.41-1.41,1.41h-14.07c-.35,0-.68-.13-.94-.36-.22-.19-.37-.45-.42-.73,.09-1.68,.5-3.32,1.21-4.84,.78-.15,1.52-.47,2.17-.94,.51,.34,1.06,.62,1.63,.84,.63,.26,1.3,.4,1.98,.41,.57,0,1.14-.06,1.7-.14,.36,.09,.74,.14,1.11,.14,1.69,.02,3.35-.41,4.83-1.24,.68,.44,1.43,.79,2.21,1.03"/>
  <path class="cls-3" d="M42.46,69.03c0,2.33-1.89,4.22-4.22,4.22-.48,0-.96-.08-1.41-.25-1.69-.59-2.81-2.18-2.81-3.97s1.13-3.38,2.81-3.97c.45-.17,.93-.26,1.41-.25,2.33,0,4.22,1.89,4.22,4.22"/>
  <path class="cls-3" d="M87.48,69.03c0,2.33-1.89,4.22-4.22,4.22-.48,0-.96-.08-1.41-.25-1.68-.59-2.81-2.18-2.81-3.97s1.13-3.38,2.81-3.97c.45-.17,.93-.26,1.41-.25,2.33,0,4.22,1.89,4.22,4.22"/>
  <path class="cls-5" d="M39.64,69.03c0-2.19-1.26-3.97-2.81-3.97s-2.81,1.78-2.81,3.97,1.26,3.97,2.81,3.97,2.81-1.78,2.81-3.97"/>
  <path class="cls-5" d="M84.67,69.03c0-2.19-1.26-3.97-2.81-3.97s-2.81,1.78-2.81,3.97,1.26,3.97,2.81,3.97,2.81-1.78,2.81-3.97"/>
  <path class="cls-6" d="M56.53,56.37c-.01,1.55-1.26,2.8-2.81,2.81H22.76c-1.55,0-2.81-1.26-2.81-2.81,0-.75,.3-1.46,.83-1.98,.52-.53,1.24-.83,1.98-.83h30.95c1.55,0,2.81,1.26,2.81,2.81"/>
  <path class="cls-7" d="M98.3,56.37c0,.75-.3,1.46-.83,1.98-.52,.54-1.24,.83-1.98,.83h-27.71c-1.55,0-2.81-1.26-2.81-2.81,.01-1.55,1.26-2.8,2.81-2.81h27.71c1.55,0,2.81,1.26,2.81,2.81"/>
  <path class="cls-7" d="M53.28,56.37c0,.75-.3,1.46-.83,1.98-.52,.54-1.24,.83-1.98,.83H22.76c-1.55,0-2.81-1.26-2.81-2.81,0-.75,.3-1.46,.83-1.98,.52-.53,1.24-.83,1.98-.83h27.7c1.55,0,2.81,1.26,2.81,2.81"/>
  <g class="cls-15">
    <path class="cls-10" d="M20.76,61.18h30.95v39.4c0,.78-.63,1.41-1.41,1.41H22.16c-.78,0-1.41-.63-1.41-1.41V61.18Zm30.95-5.63H20.76l1.06-1.07c3.82-3.82,9.01-5.97,14.41-5.97s10.59,2.15,14.41,5.97l1.06,1.07Zm-30.95,0h30.95c1.55,0,2.81,1.26,2.81,2.81s-1.26,2.81-2.81,2.81H20.76c-1.55,0-2.81-1.26-2.81-2.81s1.26-2.81,2.81-2.81Zm45.03,5.63h30.95v39.4c0,.78-.63,1.41-1.41,1.41h-28.14c-.78,0-1.41-.63-1.41-1.41V61.18Zm30.95-5.63h-30.95l1.06-1.07c3.82-3.82,9.01-5.97,14.41-5.97s10.59,2.15,14.41,5.97l1.06,1.07Zm-30.95,0h30.95c1.55,0,2.81,1.26,2.81,2.81s-1.26,2.81-2.81,2.81h-30.95c-1.55,0-2.81-1.26-2.81-2.81s1.26-2.81,2.81-2.81Zm-42.21-11.26c0,1.55-1.26,2.81-2.81,2.81s-2.81-1.26-2.81-2.81,1.26-2.81,2.81-2.81,2.81,1.26,2.81,2.81Zm7.03-8.44c0,1.55-1.26,2.81-2.81,2.81s-2.81-1.26-2.81-2.81,1.26-2.81,2.81-2.81,2.81,1.26,2.81,2.81Zm2.81,8.44h-9.85m15.48,4.42v-8.64c0-.78-.63-1.41-1.41-1.41h-2.81c-.78,0-1.41,.63-1.41,1.41v8.64m8.44-17.08h-2.81c-1.55,0-2.81,1.26-2.81,2.81v4.22m7.04-9.85h8.44c.78,0,1.41,.63,1.41,1.41v2.81c0,.78-.63,1.41-1.41,1.41h-8.44c-.78,0-1.41-.63-1.41-1.41v-2.81c0-.78,.63-1.41,1.41-1.41Zm22.51,0h8.44c.78,0,1.41,.63,1.41,1.41v2.81c0,.78-.63,1.41-1.41,1.41h-8.44c-.78,0-1.41-.63-1.41-1.41v-2.81c0-.78,.63-1.41,1.41-1.41Zm9.85,2.81h2.81c1.55,0,2.81,1.26,2.81,2.81v14.07m-28.14-16.89h2.82c1.55,0,2.81,1.26,2.81,2.81v56.28c0,1.55,1.26,2.81,2.81,2.81h4.22M27.79,44.3v-4.22m23.92,53.47h4.22c1.55,0,2.81-1.26,2.81-2.81V34.45c0-1.55,1.26-2.81,2.81-2.81h2.81M27.79,80.88h16.88c.78,0,1.41,.63,1.41,1.41v12.66c0,.78-.63,1.41-1.41,1.41H27.79c-.78,0-1.41-.63-1.41-1.41v-12.66c0-.78,.63-1.41,1.41-1.41Zm-1.41,9.75c1.66-.2,4.22-.82,4.22-2.71,0,0,2.81,2.81,5.63,2.81m0,0s5.63,0,5.63-2.81c1.2,1.16,2.64,2.05,4.22,2.6m26.73-9.64h16.89c.78,0,1.41,.63,1.41,1.41v12.66c0,.78-.63,1.41-1.41,1.41h-16.89c-.78,0-1.41-.63-1.41-1.41v-12.66c0-.78,.63-1.41,1.41-1.41Zm-1.41,9.75c1.66-.2,4.22-.82,4.22-2.71,0,0,2.81,2.81,5.63,2.81m0,0s5.63,0,5.63-2.81c1.2,1.16,2.64,2.05,4.22,2.6m-50.65-19.49c0,2.33-1.89,4.22-4.22,4.22s-4.22-1.89-4.22-4.22,1.89-4.22,4.22-4.22,4.22,1.89,4.22,4.22Zm45.03,0c0,2.33-1.89,4.22-4.22,4.22s-4.22-1.89-4.22-4.22,1.89-4.22,4.22-4.22,4.22,1.89,4.22,4.22Zm-61.91,30.95h5.63v7.04c0,.78-.63,1.41-1.41,1.41h-2.81c-.78,0-1.41-.63-1.41-1.41v-7.04Zm19.7,0h5.63v7.04c0,.78-.63,1.41-1.41,1.41h-2.81c-.78,0-1.41-.63-1.41-1.41v-7.04Zm25.33,0h5.63v7.04c0,.78-.63,1.41-1.41,1.41h-2.81c-.78,0-1.41-.63-1.41-1.41v-7.04Zm19.7,0h5.63v7.04c0,.78-.63,1.41-1.41,1.41h-2.82c-.78,0-1.41-.63-1.41-1.41v-7.04Z"/>
  </g>
</svg>