<?xml version="1.0" encoding="UTF-8"?>
<svg id="Layer_1" data-name="Layer 1" xmlns="http://www.w3.org/2000/svg" xmlns:xlink="http://www.w3.org/1999/xlink" viewBox="0 0 120 120">
  <defs>
    <style>
      .cls-1 {
        fill: #31454d;
      }

      .cls-2 {
        fill: #abadb0;
      }

      .cls-3 {
        fill: #5d7a87;
      }

      .cls-4 {
        fill: #fcec4d;
      }

      .cls-5 {
        fill: #888a8c;
      }

      .cls-6 {
        fill: #f05344;
      }

      .cls-7 {
        fill: #252c37;
      }

      .cls-8 {
        fill: #ca2a2c;
      }

      .cls-9 {
        stroke: #231f20;
        stroke-linecap: round;
        stroke-linejoin: round;
        stroke-width: 2px;
      }

      .cls-9, .cls-10 {
        fill: none;
      }

      .cls-11 {
        fill: #f8982d;
      }

      .cls-12 {
        clip-path: url(#clippath);
      }

      .cls-13 {
        fill: #f58226;
      }
    </style>
    <clipPath id="clippath">
      <rect class="cls-10" x="25.6" y="22.44" width="71.28" height="79.11"/>
    </clipPath>
  </defs>
  <path class="cls-13" d="M69.84,67.91v17.14h-13.19v-17.14c0-1.89,2.22-4.93,3.01-6.59,.7-2.12,1.03-4.36,.95-6.59,.04-.73-.19-1.45-.66-2.02-.47-.57-.7-1.29-.66-2.02,0-1.4,1.13-2.53,2.53-2.53h2.85c.67,0,1.32,.26,1.79,.74,.47,.48,.74,1.12,.74,1.79,0,2.23-1.32,1.81-1.32,4.03-.08,2.24,.24,4.47,.95,6.59,.79,1.66,3.01,4.71,3.01,6.59"/>
  <path class="cls-13" d="M51.38,67.91v17.14h-13.19v-17.14c0-1.89,2.21-4.93,3.01-6.59,.7-2.12,1.03-4.36,.95-6.59,.04-.73-.19-1.45-.66-2.02-.47-.57-.7-1.29-.66-2.02,0-1.4,1.13-2.53,2.53-2.53h2.85c.67,0,1.32,.26,1.79,.74,.47,.48,.74,1.12,.74,1.79,0,2.23-1.32,1.81-1.32,4.03-.08,2.24,.24,4.47,.95,6.59,.79,1.66,3.01,4.71,3.01,6.59"/>
  <path class="cls-13" d="M88.3,67.91v17.14h-13.19v-17.14c0-1.89,2.22-4.93,3.01-6.59,.71-2.12,1.03-4.36,.95-6.59,.04-.73-.19-1.45-.66-2.02-.47-.57-.7-1.29-.66-2.02,0-1.4,1.13-2.53,2.53-2.53h2.85c.67,0,1.32,.26,1.79,.74,.48,.48,.74,1.12,.74,1.79,0,2.23-1.32,1.81-1.32,4.03-.08,2.24,.24,4.47,.95,6.59,.79,1.66,3.01,4.71,3.01,6.59"/>
  <path class="cls-11" d="M66.71,67.91v17.14h-10.55v-17.14c0-1.89,2.21-4.93,3.01-6.59,.71-2.12,1.03-4.36,.95-6.59,.04-.73-.19-1.45-.66-2.02-.47-.57-.7-1.29-.66-2.02,0-1.4,1.13-2.53,2.53-2.53h.21c.67,0,1.32,.26,1.79,.74,.47,.48,.74,1.12,.74,1.79,0,2.23-1.32,1.81-1.32,4.03-.08,2.24,.24,4.47,.95,6.59,.79,1.66,3.01,4.71,3.01,6.59"/>
  <path class="cls-11" d="M48.25,67.91v17.14h-10.55v-17.14c0-1.89,2.21-4.93,3.01-6.59,.7-2.12,1.02-4.36,.95-6.59,.04-.73-.19-1.45-.66-2.02-.47-.57-.7-1.29-.66-2.02,0-1.4,1.13-2.53,2.53-2.53h.21c.67,0,1.32,.26,1.79,.74,.48,.48,.74,1.12,.74,1.79,0,2.23-1.32,1.81-1.32,4.03-.08,2.24,.24,4.47,.95,6.59,.79,1.66,3.01,4.71,3.01,6.59"/>
  <path class="cls-11" d="M85.17,67.91v17.14h-10.55v-17.14c0-1.89,2.22-4.93,3.01-6.59,.71-2.12,1.03-4.36,.95-6.59,.04-.73-.19-1.45-.66-2.02-.47-.57-.7-1.29-.66-2.02,0-1.4,1.13-2.53,2.53-2.53h.21c.67,0,1.32,.26,1.79,.74,.48,.48,.74,1.12,.74,1.79,0,2.23-1.32,1.81-1.32,4.03-.08,2.24,.24,4.47,.95,6.59,.79,1.66,3.01,4.71,3.01,6.59"/>
  <path class="cls-1" d="M84.34,23.08v2.64c0,2.18-1.77,3.96-3.96,3.96h-10.55v-5.27h9.23v-1.32c0-.47,.25-.9,.66-1.13,.2-.12,.43-.18,.66-.18h2.64c.73,0,1.32,.59,1.32,1.32"/>
  <path class="cls-3" d="M80.38,23.08v2.64c0,2.18-1.77,3.96-3.96,3.96h-6.59v-5.27h9.23v-1.32c0-.47,.25-.9,.66-1.13,.41,.23,.66,.66,.66,1.13"/>
  <path class="cls-3" d="M42.15,23.08v2.64c0,2.18,1.77,3.96,3.95,3.96h10.55v-5.27h-9.23v-1.32c0-.73-.59-1.32-1.32-1.32h-2.64c-.73,0-1.32,.59-1.32,1.32"/>
  <rect class="cls-8" x="56.65" y="70.55" width="13.19" height="9.23"/>
  <rect class="cls-8" x="38.19" y="70.55" width="13.19" height="9.23"/>
  <rect class="cls-8" x="75.11" y="70.55" width="13.19" height="9.23"/>
  <rect class="cls-6" x="56.65" y="70.55" width="9.78" height="9.23"/>
  <rect class="cls-6" x="38.19" y="70.55" width="9.78" height="9.23"/>
  <rect class="cls-6" x="75.11" y="70.55" width="9.78" height="9.23"/>
  <path class="cls-1" d="M35.61,85.05h55.6c3.56,0,6.42,2.86,6.42,6.42h0c0,3.57-2.86,6.43-6.42,6.43H35.61c-3.56,0-6.42-2.86-6.42-6.42h0c0-3.57,2.86-6.43,6.42-6.43"/>
  <path class="cls-3" d="M35.61,85.05h51.65c3.56,0,6.42,2.86,6.42,6.42h0c0,3.57-2.86,6.43-6.42,6.43H35.61c-3.56,0-6.42-2.86-6.42-6.42h0c0-3.57,2.86-6.43,6.42-6.43"/>
  <path class="cls-4" d="M38.19,91.65c0,1.46-1.18,2.64-2.64,2.64s-2.64-1.18-2.64-2.64,1.18-2.64,2.64-2.64,2.64,1.18,2.64,2.64"/>
  <path class="cls-4" d="M47.42,91.65c0,1.46-1.18,2.64-2.64,2.64s-2.64-1.18-2.64-2.64,1.18-2.64,2.64-2.64,2.64,1.18,2.64,2.64"/>
  <path class="cls-4" d="M56.65,91.65c0,1.46-1.18,2.64-2.64,2.64s-2.64-1.18-2.64-2.64,1.18-2.64,2.64-2.64,2.64,1.18,2.64,2.64"/>
  <path class="cls-4" d="M65.88,91.65c0,1.46-1.18,2.64-2.64,2.64s-2.64-1.18-2.64-2.64,1.18-2.64,2.64-2.64,2.64,1.18,2.64,2.64"/>
  <path class="cls-4" d="M75.11,91.65c0,1.46-1.18,2.64-2.64,2.64s-2.64-1.18-2.64-2.64,1.18-2.64,2.64-2.64,2.64,1.18,2.64,2.64"/>
  <path class="cls-4" d="M84.34,91.65c0,1.46-1.18,2.64-2.64,2.64s-2.64-1.18-2.64-2.64,1.18-2.64,2.64-2.64,2.64,1.18,2.64,2.64"/>
  <path class="cls-4" d="M93.57,91.65c0,1.46-1.18,2.64-2.64,2.64s-2.64-1.18-2.64-2.64,1.18-2.64,2.64-2.64,2.64,1.18,2.64,2.64"/>
  <path class="cls-7" d="M90.93,99.56H35.56c-4.37,0-7.91-3.54-7.91-7.91s3.54-7.91,7.91-7.91h55.38c4.37,0,7.91,3.54,7.91,7.91s-3.54,7.91-7.91,7.91m-55.38-13.19c-2.91,0-5.27,2.36-5.27,5.28s2.36,5.27,5.27,5.27h55.38c2.91,0,5.27-2.36,5.27-5.27s-2.36-5.28-5.27-5.28H35.56Z"/>
  <path class="cls-5" d="M57.97,21.76h10.55c2.19,0,3.96,1.77,3.96,3.96v3.96c0,2.19-1.76,3.95-3.96,3.95h-10.55c-2.19,0-3.96-1.76-3.96-3.95v-3.96c0-2.19,1.77-3.96,3.96-3.96"/>
  <path class="cls-2" d="M69.43,25.72v3.96c0,2.18-1.77,3.95-3.96,3.95h-7.1c-2.18,0-3.95-1.77-3.95-3.95v-3.96c0-2.18,1.77-3.96,3.95-3.96h7.1c2.18,0,3.96,1.77,3.96,3.96"/>
  <g class="cls-12">
    <path class="cls-9" d="M36.19,93.65c0,1.46-1.18,2.64-2.64,2.64s-2.64-1.18-2.64-2.64,1.18-2.64,2.64-2.64,2.64,1.18,2.64,2.64Zm9.23,0c0,1.46-1.18,2.64-2.64,2.64s-2.64-1.18-2.64-2.64,1.18-2.64,2.64-2.64,2.64,1.18,2.64,2.64Zm9.23,0c0,1.46-1.18,2.64-2.64,2.64s-2.64-1.18-2.64-2.64,1.18-2.64,2.64-2.64,2.64,1.18,2.64,2.64Zm9.23,0c0,1.46-1.18,2.64-2.64,2.64s-2.64-1.18-2.64-2.64,1.18-2.64,2.64-2.64,2.64,1.18,2.64,2.64Zm9.23,0c0,1.46-1.18,2.64-2.64,2.64s-2.64-1.18-2.64-2.64,1.18-2.64,2.64-2.64,2.64,1.18,2.64,2.64Zm9.23,0c0,1.46-1.18,2.64-2.64,2.64s-2.64-1.18-2.64-2.64,1.18-2.64,2.64-2.64,2.64,1.18,2.64,2.64Zm9.23,0c0,1.46-1.18,2.64-2.64,2.64s-2.64-1.18-2.64-2.64,1.18-2.64,2.64-2.64,2.64,1.18,2.64,2.64Zm-2.64,6.59H33.55c-3.64,0-6.59-2.95-6.59-6.59s2.95-6.59,6.59-6.59h55.38c3.64,0,6.59,2.95,6.59,6.59,0,1.75-.69,3.43-1.93,4.66-1.24,1.24-2.91,1.93-4.66,1.93Zm-30.33-13.18h9.23v-17.14c0-1.89-2.21-4.93-3.01-6.59-.7-2.12-1.03-4.36-.95-6.59,0-2.23,1.32-1.81,1.32-4.04,0-1.4-1.13-2.53-2.53-2.53h-2.85c-1.4,0-2.53,1.13-2.53,2.53,0,2.23,1.32,1.81,1.32,4.04,.08,2.24-.24,4.47-.95,6.59-.79,1.66-3.01,4.71-3.01,6.59v17.14h3.95Zm-3.95-14.51h13.19v9.23h-13.19v-9.23Zm-14.5,14.51h9.23v-17.14c0-1.89-2.21-4.93-3-6.59-.71-2.12-1.03-4.36-.95-6.59,0-2.23,1.32-1.81,1.32-4.04,0-1.4-1.13-2.53-2.53-2.53h-2.85c-1.4,0-2.53,1.13-2.53,2.53,0,2.23,1.32,1.81,1.32,4.04,.08,2.24-.25,4.47-.95,6.59-.79,1.66-3.01,4.71-3.01,6.59v17.14h3.96Zm-3.96-14.51h13.19v9.23h-13.19v-9.23Zm40.88,14.51h9.23v-17.14c0-1.89-2.21-4.93-3.01-6.59-.71-2.12-1.03-4.36-.95-6.59,0-2.23,1.32-1.81,1.32-4.04,0-1.4-1.14-2.53-2.53-2.53h-2.85c-1.4,0-2.53,1.13-2.53,2.53,0,2.23,1.32,1.81,1.32,4.04,.08,2.24-.24,4.47-.95,6.59-.79,1.66-3.01,4.71-3.01,6.59v17.14h3.96Zm-3.96-14.51h13.19v9.23h-13.19v-9.23ZM55.97,23.76h10.55c2.19,0,3.96,1.77,3.96,3.96v3.96c0,2.19-1.77,3.95-3.96,3.95h-10.55c-2.19,0-3.96-1.76-3.96-3.95v-3.96c0-2.19,1.76-3.96,3.96-3.96Zm1.32,11.87v2.64m7.91-2.64v2.64m-3.95,1.32v2.64m0,5.27v2.64m21.1-26.37v3.96c0,2.18-1.77,3.96-3.96,3.96h-7.91v-5.27h6.59v-2.64h5.27Zm-42.19,0v3.96c0,2.18,1.77,3.96,3.95,3.96h7.91v-5.27h-6.59v-2.64h-5.27Z"/>
  </g>
</svg>