<?xml version="1.0" encoding="UTF-8"?>
<svg id="Layer_1" data-name="Layer 1" xmlns="http://www.w3.org/2000/svg" viewBox="0 0 120 120">
  <defs>
    <style>
      .cls-1 {
        fill: #fbc4b6;
      }

      .cls-2 {
        fill: #d3e4f5;
      }

      .cls-3 {
        fill: #79acdc;
      }

      .cls-4 {
        fill: #6f4d4f;
      }

      .cls-5 {
        fill: #e37f50;
      }

      .cls-6 {
        fill: #eee;
      }

      .cls-7 {
        fill: #4880a9;
      }
    </style>
  </defs>
  <polygon class="cls-4" points="53.02 40.61 13.84 40.61 13.84 18.66 19.44 14.72 30.41 9.28 48.7 11.14 53.02 18.66 53.02 40.61"/>
  <path d="M64.35,59.62c-2.81-.39-3.32-2.04-3.3-4.4,.1-10.33,.04-20.67,.05-31,0-1.17,.1-1.98-1.53-2.52-2.77-.93-1.9-3.65-1.79-5.73,.1-1.89,1.44-2.67,3.34-2.67,17.45,.02,34.9,.02,52.35,0,1.84,0,3.38,.6,3.47,2.52,.09,2.12,1.1,4.96-1.86,5.92-1.59,.52-1.39,1.35-1.39,2.4-.01,10.25-.01,20.5-.03,30.75,0,3.89-.73,4.62-4.55,4.62-5.68,0-11.35-.03-17.03,.03-.93,0-2.23-.59-2.74,.49-.65,1.37,.56,2.01,1.54,2.75,1.91,1.45,2.37,3.54,1.66,5.7-.72,2.18-2.42,3.47-4.8,3.51-2.34,.04-4.05-1.05-4.96-3.26-.93-2.29-.25-4.76,1.97-6.2,1.01-.66,1.52-1.35,1.2-2.42-.35-1.18-1.44-.55-2.16-.56-4.4-.06-8.81,.01-13.21-.06-1.28-.02-2.19,.24-2.98,1.38-1.64,2.36-3.39,4.65-5.21,6.87-.82,1-.64,1.65,.07,2.6,1.31,1.73,1.81,3.74,1.79,5.94-.05,9.49-.09,18.98,0,28.46,.02,2.34-.78,3.11-3.09,3.1-13.55-.07-27.11-.02-40.66-.05-1.39,0-2.58,.28-3.83,.96-6.7,3.7-13.52-.37-13.53-8.02,0-8.05-.01-16.09,0-24.14,.01-6.34,4.1-10.44,10.45-10.47,3.47-.02,6.95-.08,10.42,.05,1.62,.06,2.13-.49,1.95-2.02-.1-.84-.12-1.71,0-2.54,.26-1.8-.43-2.9-1.95-3.94-2.35-1.62-3.99-3.97-4.63-6.76-.48-2.09-1.24-2.93-3.6-2.94-4.28-.03-7.19-4.01-5.42-7.62,1.32-2.68,1.99-5.22,1.85-8.11-.05-.99,.62-1.6,1.59-1.59,.96,.01,1.55,.61,1.59,1.61,.03,.76,.08,1.53,.02,2.29-.09,1.14,.23,1.66,1.53,1.67,1.34,0,1.79-.42,1.74-1.74-.08-2.2-.02-4.4-.02-6.61,0-6.26,3.9-9.15,9.65-6.64,5.52,2.41,11.05,4.03,17.11,3.79,2.28-.09,3.27,1.55,3.38,3.64,.1,2.03,.07,4.07,0,6.1-.04,1.12,.37,1.45,1.46,1.44,1.09-.02,1.71-.14,1.68-1.49-.08-4.74,.12-9.49-.09-14.23-.22-5.14-4.46-9-9.76-9.11-3.73-.08-7.45-.04-11.18,0-2.36,.02-4.33,.93-5.5,3.02-.76,1.36-1.73,2.04-3.26,1.84-4.49-.59-7.19,2.67-6.72,6.73,.06,.5,.01,1.02-.02,1.52-.06,.98-.53,1.57-1.58,1.6-1.04,.03-1.55-.51-1.66-1.5-.76-6.76,2.24-11.46,8.9-11.73,.96-.04,1.49-.4,2.07-1.12,1.96-2.45,4.52-3.68,7.72-3.62,3.81,.07,7.62-.02,11.44,.05,7.03,.12,12.38,5.04,12.8,12.13,.3,5.07,.11,10.16,.13,15.24,0,1.02,0,1.96,.77,2.83,1.66,1.88,2.02,4.06,.89,6.35-1.11,2.25-3.04,3.5-5.51,3.37-2.08-.11-2.91,.52-3.31,2.62-.6,3.1-2.64,5.42-5.08,7.37-1.23,.98-2.23,6.4-1.41,7.65,.48,.73,1.22,.42,1.85,.43,3.81,.03,7.77-.64,11.4,.19,3.98,.91,5.6-.98,7.28-3.7,.57-.93,1.3-1.76,2.21-2.97Z"/>
  <path class="cls-2" d="M71.26,56.03c1.19-1.57,2.04-2.7,2.9-3.82,.68-.89,1.08-1.87,0-2.64-.95-.67-1.92-.43-2.64,.55-1.15,1.57-2.38,3.08-3.44,4.71-.79,1.21-1.87,1.46-3.05,1.12-1.15-.32-.57-1.45-.57-2.18-.05-9.9-.02-19.81-.09-29.72-.01-1.61,.37-2.16,2.11-2.15,13.97,.08,27.94,.06,41.91,.02,1.37,0,2.11,.08,2.1,1.84-.09,10.16-.06,20.32-.03,30.48,0,1.15-.04,1.83-1.56,1.82-12.36-.06-24.71-.04-37.62-.04Z"/>
  <path class="cls-5" d="M59.35,71.83c1.37,1.52,1.67,3.15,1.67,4.86,.01,8.55-.03,17.11,.06,25.66,.02,1.55-.36,2-1.95,2-5.11,0-5.11,.07-5.11-5.16,0-1.27-.02-2.54,0-3.81,.02-1.1-.42-1.81-1.59-1.85-1.21-.04-1.63,.73-1.65,1.79-.03,2.37-.09,4.74,0,7.11,.05,1.36-.26,1.92-1.78,1.91-7.87-.08-15.75-.03-24.44-.03,1.99-1.17,3.44-1.88,4.71-2.82,1.2-.89,3.93-1.17,2.56-3.47-1.26-2.11-2.81-.1-4.07,.59-4.06,2.24-8.07,4.58-12.1,6.88-5.12,2.93-9.09,.66-9.1-5.23-.01-7.71-.02-15.41,0-23.12,.01-5.3,2.48-7.59,7.74-7.87,3.35-.18,6.08,.51,8.34,3.11,1.16,1.33,2.59,2.44,3.98,3.54,1.86,1.47,3.29,1.19,4.63-.82,.79-1.19,1.51-2.42,2.47-3.98,.85,1.37,1.56,2.54,2.3,3.68,1.56,2.42,2.98,2.67,5.15,.86,1.23-1.03,2.61-1.96,3.6-3.2,3.2-3.95,7.33-3.41,11.95-2.7-1.8,2.38-3.46,4.56-5.09,6.77-.41,.56-.74,.73-1.45,.4-2.68-1.28-5.05-.3-7.4,1.07-7.87,4.59-15.78,9.13-23.67,13.68-.64,.37-1.19,.93-2.28,.9,0-1.25,0-2.48,0-3.72,0-1.21-.35-2.32-1.74-2.33-1.4-.01-1.75,1.06-1.74,2.3,.02,2.12-.05,4.24,.02,6.35,.07,2.36,1.17,2.98,3.27,1.79,6.09-3.46,12.19-6.92,18.19-10.53,1.63-.98,2.51-.96,3.16,.86,.14,.39,.44,.72,.65,1.08q1.67,2.84-1.08,4.5c-.99,.6-2.35,1.15-1.53,2.67,.87,1.61,2.09,.88,3.24,.22,3.73-2.16,7.47-4.28,11.19-6.45,3.3-1.92,4.53-4.73,3.45-8.34-.32-1.06-.17-1.68,.44-2.47,1.66-2.13,3.25-4.32,5.02-6.68Z"/>
  <path class="cls-1" d="M21.98,36.75c0-2.96,0-5.93,0-8.89,0-3.91,1.81-5.11,5.5-3.38,4.4,2.06,8.94,3.47,13.8,3.82,1.32,.1,3.31-.24,3.78,.45,.68,.99,.3,2.75,.3,4.18,.02,4.57,.04,9.15,0,13.72-.05,6.18-4.72,10.77-11,10.88-7.06,.13-12.12-4.17-12.35-10.61-.12-3.38-.02-6.77-.02-10.16,0,0,0,0,0,0Z"/>
  <path class="cls-3" d="M87.34,18.57c-8.05,0-16.09,.02-24.14-.04-.74,0-2.14,.65-2.04-1,.08-1.38,1.3-.77,1.99-.77,16.18-.04,32.36-.05,48.54-.01,.69,0,1.9-.6,1.93,.86,.03,1.44-1.16,.94-1.87,.94-8.13,.03-16.26,.02-24.4,.02Z"/>
  <path class="cls-1" d="M47.33,79.75c1.64-.04,2.8,.67,3.37,2.17,.6,1.6,.17,2.99-1.21,4-.74,.54-1.57,.98-2.36,1.45-3.96,2.34-3.89,2.3-6.25-1.62-.96-1.59-1-2.57,.87-3.31,1.92-.76,3.45-2.38,5.59-2.68Z"/>
  <path class="cls-1" d="M33.74,66.11c-.76,0-1.54-.09-2.28,.01-1.74,.24-2.36-.34-2.3-2.18,.11-3.3,0-3.29,3.29-3.07,.76,.05,1.53-.04,2.28,.03,1.13,.11,2.72-.99,3.25,.06,.59,1.15,.2,2.8,.24,4.23,.02,.84-.52,.93-1.18,.92-1.1-.02-2.2,0-3.3,0Z"/>
  <path class="cls-1" d="M18.68,42.46c.03,1.24,.38,2.56-1.74,2.38-1.83-.16-3.47-.45-3.59-2.61-.12-2.24,1.51-2.61,3.36-2.77,2.67-.22,1.84,1.66,1.97,3Z"/>
  <path class="cls-1" d="M50.39,39.48c2.15,.04,3.7,.47,3.67,2.62-.03,2.22-1.59,2.66-3.48,2.71-3.06,.08-1.38-2.19-1.68-3.4-.34-1.38,.11-2.4,1.49-1.93Z"/>
  <path class="cls-7" d="M24.49,69.42h5.91c-.18,1.34-.94,3.18-1.78,3.2-1.72,.04-2.7-1.76-4.13-3.2Z"/>
  <path class="cls-7" d="M42.72,69.81c-1.19,1.06-2.37,2.12-3.67,3.29-1.01-1-1.53-2.19-2.22-3.56,1.99-.51,3.86-.1,5.89,.26Z"/>
  <path class="cls-6" d="M89.57,66.68c-.13,1.13-.73,1.9-1.88,1.97-1.21,.07-1.89-.75-1.92-1.85-.03-1,.61-1.76,1.69-1.84,1.18-.09,1.83,.61,2.11,1.72Z"/>
  <path d="M33.65,52.43c-1.53,.18-2.89-.45-4.1-1.4-.75-.59-1.3-1.37-.56-2.38,.65-.89,1.44-1.11,2.37-.44,1.64,1.19,3.22,1.15,4.85-.07,.83-.62,1.59-.29,2.18,.46,.64,.83,.37,1.57-.32,2.21-1.22,1.12-2.65,1.73-4.42,1.62Z"/>
</svg>