<?xml version="1.0" encoding="UTF-8"?>
<svg id="Layer_1" data-name="Layer 1" xmlns="http://www.w3.org/2000/svg" xmlns:xlink="http://www.w3.org/1999/xlink" viewBox="0 0 120 120">
  <defs>
    <style>
      .cls-1 {
        fill: #fff;
      }

      .cls-2 {
        fill: #f7bf30;
      }

      .cls-3 {
        clip-path: url(#clippath-2);
      }

      .cls-4 {
        fill: #f4f3d2;
      }

      .cls-5 {
        fill: #323537;
      }

      .cls-6 {
        clip-path: url(#clippath-1);
      }

      .cls-7 {
        clip-path: url(#clippath-4);
      }

      .cls-8 {
        fill: #f8e7d0;
      }

      .cls-9 {
        fill: #dacc81;
      }

      .cls-10 {
        fill: #f3e8a7;
      }

      .cls-11 {
        clip-path: url(#clippath);
      }

      .cls-12 {
        fill: none;
      }

      .cls-13 {
        clip-path: url(#clippath-3);
      }

      .cls-14 {
        fill: #4c2618;
      }

      .cls-15 {
        clip-path: url(#clippath-5);
      }

      .cls-16 {
        fill: #3a4246;
      }

      .cls-17 {
        fill: #231f20;
      }

      .cls-18 {
        fill: #646768;
      }
    </style>
    <clipPath id="clippath">
      <rect class="cls-12" x="106.45" y="45.21" width="4.07" height="7.42"/>
    </clipPath>
    <clipPath id="clippath-1">
      <rect class="cls-12" x="71.95" y="45.21" width="4.07" height="7.42"/>
    </clipPath>
    <clipPath id="clippath-2">
      <rect class="cls-12" x="38.96" y="45.21" width="4.07" height="7.42"/>
    </clipPath>
    <clipPath id="clippath-3">
      <rect class="cls-12" x="106.45" y="80.32" width="4.07" height="7.42"/>
    </clipPath>
    <clipPath id="clippath-4">
      <rect class="cls-12" x="71.95" y="80.32" width="4.07" height="7.42"/>
    </clipPath>
    <clipPath id="clippath-5">
      <rect class="cls-12" x="38.96" y="80.32" width="4.07" height="7.42"/>
    </clipPath>
  </defs>
  <path class="cls-10" d="M34.8,4.31h53.41c1.29,0,2.32,1.04,2.32,2.32V39.14c0,1.29-1.04,2.32-2.32,2.32H34.8c-1.29,0-2.32-1.04-2.32-2.32V6.63c0-1.29,1.04-2.32,2.32-2.32"/>
  <rect class="cls-16" x="37.12" y="8.95" width="48.77" height="27.87"/>
  <path class="cls-9" d="M90.53,36.82v2.32c0,1.28-1.04,2.32-2.32,2.32H34.8c-1.28,0-2.32-1.04-2.32-2.32v-2.32h58.06Z"/>
  <rect class="cls-1" x="37.12" y="8.95" width="48.77" height="27.87"/>
  <rect class="cls-18" x="41.76" y="34.5" width="11.61" height="6.97"/>
  <path class="cls-17" d="M86.37,44.82c1.92,0,3.48-1.56,3.48-3.48V8.82c0-1.92-1.56-3.48-3.48-3.48H32.96c-1.92,0-3.48,1.56-3.48,3.48V41.33c0,1.92,1.56,3.48,3.48,3.48h53.41Zm-3.48-6.97h-30.19v-1.16c0-.64-.52-1.16-1.16-1.16h-11.61c-.64,0-1.16,.52-1.16,1.16v1.16h-2.32V12.3h46.45v25.55Zm-41.8,0h9.29v4.64h-9.29v-4.64Zm46.45,3.48c0,.64-.52,1.16-1.16,1.16H52.7v-2.32h34.83v1.16ZM32.96,7.66h53.41c.64,0,1.16,.52,1.16,1.16v29.03h-2.32V11.14c0-.64-.52-1.16-1.16-1.16H35.28c-.64,0-1.16,.52-1.16,1.16v26.71h-2.32V8.82c0-.64,.52-1.16,1.16-1.16m-1.16,33.67v-1.16h6.97v2.32h-5.81c-.64,0-1.16-.52-1.16-1.16"/>
  <rect class="cls-14" x="6.18" y="53.02" width="110.65" height="4.64"/>
  <rect class="cls-14" x="109.97" y="57.67" width="4.65" height="18.58"/>
  <rect class="cls-14" x="9.67" y="57.67" width="4.64" height="18.58"/>
  <path class="cls-5" d="M37.75,76.24H19.18v-2.32c0-1.28,1.04-2.32,2.32-2.32h13.93c1.28,0,2.32,1.04,2.32,2.32v2.32Z"/>
  <path class="cls-5" d="M71.26,76.24h-18.58v-2.32c0-1.28,1.04-2.32,2.32-2.32h13.93c1.28,0,2.32,1.04,2.32,2.32v2.32Z"/>
  <path class="cls-5" d="M105.15,76.24h-18.58v-2.32c0-1.28,1.04-2.32,2.32-2.32h13.93c1.28,0,2.32,1.04,2.32,2.32v2.32Z"/>
  <rect class="cls-5" x="86.57" y="51.64" width="18.58" height="10.45"/>
  <path class="cls-17" d="M94.7,58.03h2.32c.64,0,1.16-.52,1.16-1.16s-.52-1.16-1.16-1.16h-2.32c-.64,0-1.16,.52-1.16,1.16s.52,1.16,1.16,1.16"/>
  <rect class="cls-5" x="19.18" y="51.64" width="18.58" height="10.45"/>
  <path class="cls-17" d="M27.3,58.03h2.32c.64,0,1.16-.52,1.16-1.16s-.52-1.16-1.16-1.16h-2.32c-.64,0-1.16,.52-1.16,1.16s.52,1.16,1.16,1.16"/>
  <path class="cls-17" d="M114.3,53.37h-10.45c0-.64-.52-1.16-1.16-1.16h-18.58c-.64,0-1.16,.52-1.16,1.16H36.38c0-.64-.52-1.16-1.16-1.16H16.64c-.64,0-1.16,.52-1.16,1.16H3.86c-.64,0-1.16,.52-1.16,1.16v4.64c0,.64,.52,1.16,1.16,1.16h2.32v17.42c0,.64,.52,1.16,1.16,1.16h4.64c.64,0,1.16-.52,1.16-1.16v-17.42h2.32v3.48c0,.64,.52,1.16,1.16,1.16h2.32v6.97c-1.92,0-3.48,1.56-3.48,3.48v2.32c0,.64,.52,1.16,1.16,1.16h18.58c.64,0,1.16-.52,1.16-1.16v-2.32c0-1.92-1.56-3.48-3.48-3.48v-6.97h2.32c.64,0,1.16-.52,1.16-1.16v-3.48h46.58v3.48c0,.64,.52,1.16,1.16,1.16h2.32v6.97c-1.92,0-3.48,1.56-3.48,3.48v2.32c0,.64,.52,1.16,1.16,1.16h18.58c.64,0,1.16-.52,1.16-1.16v-2.32c0-1.92-1.56-3.48-3.48-3.48v-6.97h2.32c.64,0,1.16-.52,1.16-1.16v-3.48h2.32v17.42c0,.64,.52,1.16,1.16,1.16h4.64c.64,0,1.16-.52,1.16-1.16v-17.42h1.16c.64,0,1.16-.52,1.16-1.16v-4.64c0-.64-.52-1.16-1.16-1.16M10.83,76.59h-2.32v-16.26h2.32v16.26Zm-5.81-20.9H15.47v2.32H5.02v-2.32Zm29.03,19.74v1.16H17.8v-1.16c0-.64,.52-1.16,1.16-1.16h13.93c.64,0,1.16,.52,1.16,1.16m-3.48-3.48h-9.29v-6.97h9.29v6.97Zm3.48-9.29H17.8v-8.13h16.26v8.13Zm2.32-6.97h46.58v2.32H36.38v-2.32Zm65.16,19.74v1.16h-16.26v-1.16c0-.64,.52-1.16,1.16-1.16h13.93c.64,0,1.16,.52,1.16,1.16m-3.48-3.48h-9.29v-6.97h9.29v6.97Zm3.48-9.29h-16.26v-8.13h16.26v8.13Zm9.29,13.93h-2.32v-16.26h2.32v16.26Zm2.32-18.58h-9.29v-2.32h9.29v2.32Z"/>
  <rect class="cls-5" x="52.22" y="51.64" width="18.58" height="10.45"/>
  <path class="cls-17" d="M60.34,58.03h2.32c.64,0,1.16-.52,1.16-1.16s-.52-1.16-1.16-1.16h-2.32c-.64,0-1.16,.52-1.16,1.16s.52,1.16,1.16,1.16"/>
  <path class="cls-17" d="M69.53,53.37c0-.64-.52-1.16-1.16-1.16h-18.58c-.64,0-1.16,.52-1.16,1.16v10.45c0,.64,.52,1.16,1.16,1.16h2.32v6.97c-1.92,0-3.48,1.56-3.48,3.48v2.32c0,.64,.52,1.16,1.16,1.16h18.58c.64,0,1.16-.52,1.16-1.16v-2.32c0-1.92-1.56-3.48-3.48-3.48v-6.97h2.32c.64,0,1.16-.52,1.16-1.16v-10.45Zm-2.32,22.06v1.16h-16.26v-1.16c0-.64,.52-1.16,1.16-1.16h13.93c.64,0,1.16,.52,1.16,1.16m-3.48-3.48h-9.29v-6.97h9.29v6.97Zm3.48-9.29h-16.26v-8.13h16.26v8.13Z"/>
  <polygon class="cls-8" points="108.77 51.9 108.77 49.97 108.19 49.97 108.19 51.9 107.03 52.48 109.93 52.48 108.77 51.9"/>
  <path class="cls-2" d="M110.37,48.08v.03c0,1.04-.84,1.88-1.88,1.88s-1.88-.84-1.88-1.88c0-.13,.01-.25,.03-.37,.23,.22,.54,.46,.83,.51,.56,.09,1.13-.6,1.74-.58,.38,.01,.86,.24,1.16,.41"/>
  <g class="cls-11">
    <path class="cls-4" d="M109.08,45.35h.71l.53,2.33c.03,.13,.05,.26,.05,.39-.3-.17-.77-.39-1.16-.41-.61-.02-1.18,.67-1.74,.58-.3-.05-.61-.29-.83-.51,0-.02,.55-2.39,.55-2.39h.74"/>
    <path class="cls-17" d="M106.45,48.11c0,.96,.67,1.78,1.59,1.98v1.73l-1.08,.54c-.06,.03-.09,.1-.08,.16,.02,.06,.07,.11,.14,.11h2.9c.07,0,.13-.05,.14-.11,.02-.07-.02-.13-.08-.16l-1.08-.54v-1.73c.94-.21,1.61-1.05,1.59-2.01,0-.37-.06-.42-.58-2.75-.01-.07-.07-.11-.14-.11h-.71c-.08,0-.15,.06-.15,.14s.06,.15,.15,.15h.59s.52,2.29,.53,2.33c-.3-.15-.67-.29-.99-.3-.33,0-.64,.16-.94,.32-.28,.15-.55,.3-.78,.26-.2-.03-.44-.18-.7-.42l.5-2.19h.62c.08,0,.14-.06,.14-.15s-.06-.14-.14-.14h-.74c-.07,0-.13,.05-.14,.11-.58,2.53-.58,2.46-.58,2.79m2.86,4.23h-1.67l.61-.3s.08-.08,.08-.13v-1.77s.1,0,.15,0,.1,0,.15,0v1.77c0,.06,.03,.11,.08,.13l.61,.3Zm-.9-4.24c.26-.14,.53-.29,.79-.28,.25,0,.61,.13,1.02,.35-.03,.91-.79,1.69-1.75,1.68-.99,0-1.76-.85-1.72-1.81,.25,.2,.49,.32,.7,.36,.34,.06,.67-.13,.97-.29"/>
  </g>
  <path class="cls-17" d="M108.64,45.35c0,.08-.06,.15-.15,.15s-.14-.06-.14-.15,.06-.14,.14-.14,.15,.06,.15,.14"/>
  <polygon class="cls-8" points="74.27 51.9 74.27 49.97 73.69 49.97 73.69 51.9 72.53 52.48 75.43 52.48 74.27 51.9"/>
  <path class="cls-2" d="M75.87,48.08v.03c0,1.04-.84,1.88-1.88,1.88s-1.88-.84-1.88-1.88c0-.13,.01-.25,.03-.37,.23,.22,.54,.46,.83,.51,.56,.09,1.13-.6,1.74-.58,.38,.01,.86,.24,1.16,.41"/>
  <g class="cls-6">
    <path class="cls-4" d="M74.58,45.35h.71l.53,2.33c.03,.13,.05,.26,.05,.39-.3-.17-.77-.39-1.16-.41-.61-.02-1.18,.67-1.74,.58-.3-.05-.61-.29-.83-.51,0-.02,.55-2.39,.55-2.39h.74"/>
    <path class="cls-17" d="M71.96,48.11c0,.96,.67,1.78,1.59,1.98v1.73l-1.08,.54c-.06,.03-.09,.1-.08,.16,.02,.06,.07,.11,.14,.11h2.9c.07,0,.13-.05,.14-.11,.02-.07-.02-.13-.08-.16l-1.08-.54v-1.73c.94-.21,1.61-1.05,1.59-2.01,0-.37-.06-.42-.58-2.75-.01-.07-.07-.11-.14-.11h-.71c-.08,0-.15,.06-.15,.14s.06,.15,.15,.15h.59s.52,2.29,.53,2.33c-.3-.15-.67-.29-.99-.3-.33,0-.64,.16-.94,.32-.28,.15-.55,.3-.78,.26-.2-.03-.44-.18-.7-.42l.5-2.19h.62c.08,0,.14-.06,.14-.15s-.06-.14-.14-.14h-.74c-.07,0-.13,.05-.14,.11-.58,2.53-.58,2.46-.58,2.79m2.86,4.23h-1.67l.61-.3s.08-.08,.08-.13v-1.77s.1,0,.15,0,.1,0,.15,0v1.77c0,.06,.03,.11,.08,.13l.61,.3Zm-.9-4.24c.26-.14,.53-.29,.79-.28,.25,0,.61,.13,1.02,.35-.03,.91-.79,1.69-1.75,1.68-.99,0-1.76-.85-1.72-1.81,.25,.2,.49,.32,.7,.36,.34,.06,.67-.13,.97-.29"/>
  </g>
  <path class="cls-17" d="M74.14,45.35c0,.08-.06,.15-.14,.15s-.15-.06-.15-.15,.06-.14,.15-.14,.14,.06,.14,.14"/>
  <polygon class="cls-8" points="41.28 51.9 41.28 49.97 40.7 49.97 40.7 51.9 39.54 52.48 42.44 52.48 41.28 51.9"/>
  <path class="cls-2" d="M42.87,48.08v.03c0,1.04-.84,1.88-1.88,1.88s-1.88-.84-1.88-1.88c0-.13,.01-.25,.03-.37,.23,.22,.54,.46,.83,.51,.56,.09,1.13-.6,1.74-.58,.38,.01,.86,.24,1.16,.41"/>
  <g class="cls-3">
    <path class="cls-4" d="M41.58,45.35h.71l.53,2.33c.03,.13,.05,.26,.05,.39-.3-.17-.77-.39-1.16-.41-.61-.02-1.18,.67-1.74,.58-.3-.05-.61-.29-.83-.51,0-.02,.55-2.39,.55-2.39h.74"/>
    <path class="cls-17" d="M38.96,48.11c0,.96,.67,1.78,1.59,1.98v1.73l-1.08,.54c-.06,.03-.09,.1-.08,.16,.02,.06,.07,.11,.14,.11h2.9c.07,0,.13-.05,.14-.11,.02-.07-.02-.13-.08-.16l-1.08-.54v-1.73c.94-.21,1.61-1.05,1.59-2.01,0-.37-.06-.42-.58-2.75-.01-.07-.07-.11-.14-.11h-.71c-.08,0-.15,.06-.15,.14s.06,.15,.15,.15h.59s.52,2.29,.53,2.33c-.3-.15-.67-.29-.99-.3-.33,0-.64,.16-.94,.32-.28,.15-.55,.3-.78,.26-.2-.03-.44-.18-.7-.42l.5-2.19h.62c.08,0,.14-.06,.14-.15s-.06-.14-.14-.14h-.74c-.07,0-.13,.05-.14,.11-.58,2.53-.58,2.46-.58,2.79m2.86,4.23h-1.67l.61-.3s.08-.08,.08-.13v-1.77s.1,0,.15,0,.1,0,.15,0v1.77c0,.06,.03,.11,.08,.13l.61,.3Zm-.9-4.24c.26-.14,.53-.29,.79-.28,.25,0,.61,.13,1.02,.35-.03,.91-.79,1.69-1.75,1.68-.99,0-1.76-.85-1.72-1.81,.25,.2,.49,.32,.7,.36,.34,.06,.67-.13,.97-.29"/>
  </g>
  <path class="cls-17" d="M41.15,45.35c0,.08-.06,.15-.14,.15s-.15-.06-.15-.15,.06-.14,.15-.14,.14,.06,.14,.14"/>
  <rect class="cls-14" x="6.18" y="88.13" width="110.65" height="4.64"/>
  <rect class="cls-14" x="109.97" y="92.77" width="4.65" height="18.58"/>
  <rect class="cls-14" x="9.67" y="92.77" width="4.64" height="18.58"/>
  <path class="cls-5" d="M37.75,111.35H19.18v-2.32c0-1.28,1.04-2.32,2.32-2.32h13.93c1.28,0,2.32,1.04,2.32,2.32v2.32Z"/>
  <path class="cls-5" d="M71.26,111.35h-18.58v-2.32c0-1.28,1.04-2.32,2.32-2.32h13.93c1.28,0,2.32,1.04,2.32,2.32v2.32Z"/>
  <path class="cls-5" d="M105.15,111.35h-18.58v-2.32c0-1.28,1.04-2.32,2.32-2.32h13.93c1.28,0,2.32,1.04,2.32,2.32v2.32Z"/>
  <rect class="cls-5" x="86.57" y="86.75" width="18.58" height="10.45"/>
  <path class="cls-17" d="M94.7,93.14h2.32c.64,0,1.16-.52,1.16-1.16s-.52-1.16-1.16-1.16h-2.32c-.64,0-1.16,.52-1.16,1.16s.52,1.16,1.16,1.16"/>
  <rect class="cls-5" x="19.18" y="86.75" width="18.58" height="10.45"/>
  <path class="cls-17" d="M27.3,93.14h2.32c.64,0,1.16-.52,1.16-1.16s-.52-1.16-1.16-1.16h-2.32c-.64,0-1.16,.52-1.16,1.16s.52,1.16,1.16,1.16"/>
  <path class="cls-17" d="M114.3,88.13h-10.45c0-.64-.52-1.16-1.16-1.16h-18.58c-.64,0-1.16,.52-1.16,1.16H36.38c0-.64-.52-1.16-1.16-1.16H16.64c-.64,0-1.16,.52-1.16,1.16H3.86c-.64,0-1.16,.52-1.16,1.16v4.64c0,.64,.52,1.16,1.16,1.16h2.32v17.42c0,.64,.52,1.16,1.16,1.16h4.64c.64,0,1.16-.52,1.16-1.16v-17.42h2.32v3.48c0,.64,.52,1.16,1.16,1.16h2.32v6.97c-1.92,0-3.48,1.56-3.48,3.48v2.32c0,.64,.52,1.16,1.16,1.16h18.58c.64,0,1.16-.52,1.16-1.16v-2.32c0-1.92-1.56-3.48-3.48-3.48v-6.97h2.32c.64,0,1.16-.52,1.16-1.16v-3.48h46.58v3.48c0,.64,.52,1.16,1.16,1.16h2.32v6.97c-1.92,0-3.48,1.56-3.48,3.48v2.32c0,.64,.52,1.16,1.16,1.16h18.58c.64,0,1.16-.52,1.16-1.16v-2.32c0-1.92-1.56-3.48-3.48-3.48v-6.97h2.32c.64,0,1.16-.52,1.16-1.16v-3.48h2.32v17.42c0,.64,.52,1.16,1.16,1.16h4.64c.64,0,1.16-.52,1.16-1.16v-17.42h1.16c.64,0,1.16-.52,1.16-1.16v-4.64c0-.64-.52-1.16-1.16-1.16M10.83,111.35h-2.32v-16.26h2.32v16.26Zm-5.81-20.9H15.47v2.32H5.02v-2.32Zm29.03,19.74v1.16H17.8v-1.16c0-.64,.52-1.16,1.16-1.16h13.93c.64,0,1.16,.52,1.16,1.16m-3.48-3.48h-9.29v-6.97h9.29v6.97Zm3.48-9.29H17.8v-8.13h16.26v8.13Zm2.32-6.97h46.58v2.32H36.38v-2.32Zm65.16,19.74v1.16h-16.26v-1.16c0-.64,.52-1.16,1.16-1.16h13.93c.64,0,1.16,.52,1.16,1.16m-3.48-3.48h-9.29v-6.97h9.29v6.97Zm3.48-9.29h-16.26v-8.13h16.26v8.13Zm9.29,13.93h-2.32v-16.26h2.32v16.26Zm2.32-18.58h-9.29v-2.32h9.29v2.32Z"/>
  <rect class="cls-5" x="52.22" y="86.75" width="18.58" height="10.45"/>
  <path class="cls-17" d="M60.34,93.14h2.32c.64,0,1.16-.52,1.16-1.16s-.52-1.16-1.16-1.16h-2.32c-.64,0-1.16,.52-1.16,1.16s.52,1.16,1.16,1.16"/>
  <path class="cls-17" d="M70.11,88.13c0-.64-.52-1.16-1.16-1.16h-18.58c-.64,0-1.16,.52-1.16,1.16v10.45c0,.64,.52,1.16,1.16,1.16h2.32v6.97c-1.92,0-3.48,1.56-3.48,3.48v2.32c0,.64,.52,1.16,1.16,1.16h18.58c.64,0,1.16-.52,1.16-1.16v-2.32c0-1.92-1.56-3.48-3.48-3.48v-6.97h2.32c.64,0,1.16-.52,1.16-1.16v-10.45Zm-2.32,22.06v1.16h-16.26v-1.16c0-.64,.52-1.16,1.16-1.16h13.93c.64,0,1.16,.52,1.16,1.16m-3.48-3.48h-9.29v-6.97h9.29v6.97Zm3.48-9.29h-16.26v-8.13h16.26v8.13Z"/>
  <polygon class="cls-8" points="108.77 87.01 108.77 85.08 108.19 85.08 108.19 87.01 107.03 87.59 109.93 87.59 108.77 87.01"/>
  <path class="cls-2" d="M110.37,83.19v.03c0,1.04-.84,1.88-1.88,1.88s-1.88-.84-1.88-1.88c0-.13,.01-.25,.03-.37,.23,.22,.54,.46,.83,.51,.56,.09,1.13-.6,1.74-.58,.38,.01,.86,.24,1.16,.41"/>
  <g class="cls-13">
    <path class="cls-4" d="M109.08,80.46h.71l.53,2.33c.03,.13,.05,.26,.05,.39-.3-.17-.77-.39-1.16-.4-.61-.02-1.18,.67-1.74,.58-.3-.05-.61-.29-.83-.51,0-.02,.55-2.39,.55-2.39h.74"/>
    <path class="cls-17" d="M106.45,83.22c0,.96,.67,1.78,1.59,1.98v1.73l-1.08,.54c-.06,.03-.09,.1-.08,.16s.07,.11,.14,.11h2.9c.07,0,.13-.05,.14-.11,.02-.07-.02-.13-.08-.16l-1.08-.54v-1.73c.94-.21,1.61-1.05,1.59-2.01,0-.37-.06-.42-.58-2.75-.01-.07-.07-.11-.14-.11h-.71c-.08,0-.15,.06-.15,.15s.06,.15,.15,.15h.59s.52,2.29,.53,2.33c-.3-.15-.67-.29-.99-.3-.33-.01-.64,.16-.94,.32-.28,.15-.55,.3-.78,.26-.2-.03-.44-.18-.7-.42l.5-2.19h.62c.08,0,.14-.06,.14-.15s-.06-.15-.14-.15h-.74c-.07,0-.13,.05-.14,.11-.58,2.53-.58,2.46-.58,2.78m2.86,4.23h-1.67l.61-.3s.08-.08,.08-.13v-1.77s.1,0,.15,0,.1,0,.15,0v1.77c0,.06,.03,.11,.08,.13l.61,.3Zm-.9-4.24c.26-.14,.53-.29,.79-.28,.25,0,.61,.13,1.02,.35-.03,.91-.79,1.69-1.75,1.68-.99,0-1.76-.85-1.72-1.81,.25,.2,.49,.33,.7,.36,.34,.06,.67-.13,.97-.29"/>
  </g>
  <g class="cls-7">
    <path class="cls-4" d="M74.58,80.46h.71l.53,2.33c.03,.13,.05,.26,.05,.39-.3-.17-.77-.39-1.16-.4-.61-.02-1.18,.67-1.74,.58-.3-.05-.61-.29-.83-.51,0-.02,.55-2.39,.55-2.39h.74"/>
    <path class="cls-17" d="M71.96,83.22c0,.96,.67,1.78,1.59,1.98v1.73l-1.08,.54c-.06,.03-.09,.1-.08,.16,.02,.07,.07,.11,.14,.11h2.9c.07,0,.13-.05,.14-.11,.02-.07-.02-.13-.08-.16l-1.08-.54v-1.73c.94-.21,1.61-1.05,1.59-2.01,0-.37-.06-.42-.58-2.75-.01-.07-.07-.11-.14-.11h-.71c-.08,0-.15,.06-.15,.15s.06,.15,.15,.15h.59s.52,2.29,.53,2.33c-.3-.15-.67-.29-.99-.3-.33-.01-.64,.16-.94,.32-.28,.15-.55,.3-.78,.26-.2-.03-.44-.18-.7-.42l.5-2.19h.62c.08,0,.14-.06,.14-.15s-.06-.15-.14-.15h-.74c-.07,0-.13,.05-.14,.11-.58,2.53-.58,2.46-.58,2.78m2.86,4.23h-1.67l.61-.3s.08-.08,.08-.13v-1.77s.1,0,.15,0,.1,0,.15,0v1.77c0,.06,.03,.11,.08,.13l.61,.3Zm-.9-4.24c.26-.14,.53-.29,.79-.28,.25,0,.61,.13,1.02,.35-.03,.91-.79,1.69-1.75,1.68-.99,0-1.76-.85-1.72-1.81,.25,.2,.49,.33,.7,.36,.34,.06,.67-.13,.97-.29"/>
  </g>
  <path class="cls-17" d="M74.14,80.46c0,.08-.06,.15-.14,.15s-.15-.06-.15-.15,.06-.15,.15-.15,.14,.06,.14,.15"/>
  <polygon class="cls-8" points="41.28 87.01 41.28 85.08 40.7 85.08 40.7 87.01 39.54 87.59 42.44 87.59 41.28 87.01"/>
  <path class="cls-2" d="M42.87,83.19v.03c0,1.04-.84,1.88-1.88,1.88s-1.88-.84-1.88-1.88c0-.13,.01-.25,.03-.37,.23,.22,.54,.46,.83,.51,.56,.09,1.13-.6,1.74-.58,.38,.01,.86,.24,1.16,.41"/>
  <g class="cls-15">
    <path class="cls-4" d="M41.58,80.46h.71l.53,2.33c.03,.13,.05,.26,.05,.39-.3-.17-.77-.39-1.16-.4-.61-.02-1.18,.67-1.74,.58-.3-.05-.61-.29-.83-.51,0-.02,.55-2.39,.55-2.39h.74"/>
    <path class="cls-17" d="M38.96,83.22c0,.96,.67,1.78,1.59,1.98v1.73l-1.08,.54c-.06,.03-.09,.1-.08,.16,.02,.07,.07,.11,.14,.11h2.9c.07,0,.13-.05,.14-.11,.02-.07-.02-.13-.08-.16l-1.08-.54v-1.73c.94-.21,1.61-1.05,1.59-2.01,0-.37-.06-.42-.58-2.75-.01-.07-.07-.11-.14-.11h-.71c-.08,0-.15,.06-.15,.15s.06,.15,.15,.15h.59s.52,2.29,.53,2.33c-.3-.15-.67-.29-.99-.3-.33-.01-.64,.16-.94,.32-.28,.15-.55,.3-.78,.26-.2-.03-.44-.18-.7-.42l.5-2.19h.62c.08,0,.14-.06,.14-.15s-.06-.15-.14-.15h-.74c-.07,0-.13,.05-.14,.11-.58,2.53-.58,2.46-.58,2.78m2.86,4.23h-1.67l.61-.3s.08-.08,.08-.13v-1.77s.1,0,.15,0,.1,0,.15,0v1.77c0,.06,.03,.11,.08,.13l.61,.3Zm-.9-4.24c.26-.14,.53-.29,.79-.28,.25,0,.61,.13,1.02,.35-.03,.91-.79,1.69-1.75,1.68-.99,0-1.76-.85-1.72-1.81,.25,.2,.49,.33,.7,.36,.34,.06,.67-.13,.97-.29"/>
  </g>
  <path class="cls-17" d="M41.15,80.46c0,.08-.06,.15-.14,.15s-.15-.06-.15-.15,.06-.15,.15-.15,.14,.06,.14,.15"/>
</svg>