<?xml version="1.0" encoding="UTF-8"?>
<svg id="Layer_1" data-name="Layer 1" xmlns="http://www.w3.org/2000/svg" viewBox="0 0 120 120">
  <defs>
    <style>
      .cls-1 {
        fill: #fff;
      }

      .cls-2 {
        fill: #fcc4a4;
      }

      .cls-3 {
        fill: #fbc536;
      }

      .cls-4 {
        fill: #231f20;
      }
    </style>
  </defs>
  <path class="cls-4" d="M59.88,81.96c-5.31,0-10.34-.02-15.38,.03-.53,0-1.1,.36-1.57,.68-2.64,1.85-5.23,3.75-7.86,5.6-1.78,1.25-2.81,1.01-3.94-.88-2.57-4.27-5.14-8.55-7.7-12.83-1.09-1.83-.89-2.76,.88-3.89,4.78-3.07,9.57-6.13,14.4-9.14,.64-.4,1.49-.56,2.26-.65,.93-.11,1.89-.02,2.7-.02-.21-2.58-.68-4.97-.53-7.32,.14-2.27,.79-4.53,1.43-6.73,1.16-4.01,2.52-17.83,3.73-21.83,.45-1.49,1.26-2.19,2.89-2.18,7.19,.05,14.38,.03,21.57,0,1.24,0,2.29,.27,2.69,1.55,1.73,5.58,3.49,21.01,5.06,26.63,.44,1.56,.4,3.3,.32,4.95-.08,1.59-.49,3.16-.78,4.84,.32,.07,.67,.15,1.02,.21,2.46,.4,4.17,1.76,4.83,4.14,.64,2.3,.13,4.5-1.8,5.96-4.31,3.27-8.63,6.57-13.2,9.46-1.83,1.16-4.32,1.28-6.79,1.94,0,2.77-.03,5.92,.04,9.06,0,.44,.47,.93,.83,1.29,2.56,2.6,5.14,5.18,7.74,7.73,.86,.85,1.51,1.73,.99,2.97-.5,1.19-1.56,1.28-2.7,1.27-6.06-.02-12.13-.02-18.19,0-1.16,0-2.13-.2-2.64-1.37-.51-1.17,.15-1.95,.89-2.69,2.61-2.63,5.26-5.21,7.81-7.89,.52-.55,.92-1.45,.95-2.2,.11-2.83,.04-5.66,.04-8.71m-25.94,1.89c2.52-1.79,4.88-3.55,7.35-5.16,.79-.52,1.85-.88,2.8-.89,6.76-.07,13.52-.11,20.27,0,2.44,.04,4.53-.58,6.39-2.12,.62-.51,1.29-.96,1.94-1.43,2.81-2.06,5.66-4.07,8.4-6.23,.46-.36,.73-1.49,.52-2.05-.35-.93-1.31-.97-2.19-.49-.42,.23-.83,.49-1.24,.74-3.61,2.22-7.2,4.47-10.84,6.63-.69,.41-1.59,.67-2.4,.68-5.15,.06-10.3,.04-15.45,.04-1.76,0-2.8-.85-2.78-2.19,.02-1.31,.96-2.01,2.73-2.02,3.33-.01,6.65,0,9.98,0,1.77,0,2.79-.85,2.75-2.21-.03-1.32-.96-2.01-2.73-2.02-5.74,0-11.48-.03-17.22,.02-.8,0-1.7,.27-2.39,.69-3.66,2.24-7.26,4.57-10.87,6.88-.39,.25-.73,.57-1.17,.91,2.07,3.45,4.08,6.79,6.15,10.23m42.08-33.31c-1.56,.47-3.09,.76-4.48,1.38-6.39,2.87-12.71,2.91-19.11,0-1.41-.64-3-.91-4.58-1.37-.93,3.24-.75,6.11,.24,8.98,.33,.95,.82,1.34,1.86,1.32,3.05-.06,6.11-.01,9.16,0,4.78,.02,7.11,2.26,7.28,6.99,0,.13,.11,.25,.17,.38,9.3-3.93,11.18-10.78,9.46-17.68m-1.12-3.93c-.96-3.04-1.87-15.64-2.68-18.4-.27-.94-.71-1.24-1.68-1.23-4.45,.05-8.9,.01-13.35,.03-1.66,0-3.78-.54-4.84,.27-1.13,.87-2.76,17.63-3.27,19.31,4.62,.57,8.3,3.32,12.93,3.31,4.62,0,8.29-2.79,12.9-3.29m-9.11,53.91c-1.19-1.25-2.62-2.76-3.96-4.17-1.22,1.25-2.64,2.72-4.06,4.17h8.02Z"/>
  <path class="cls-2" d="M35.94,81.86c-2.07-3.45-4.08-6.79-6.15-10.23,.44-.34,.78-.66,1.17-.91,3.62-2.31,7.22-4.63,10.88-6.88,.68-.42,1.58-.68,2.39-.69,5.74-.06,11.48-.03,17.22-.02,1.78,0,2.7,.7,2.73,2.01,.03,1.36-.99,2.2-2.75,2.21-3.33,.02-6.65,0-9.98,0-1.77,0-2.7,.71-2.73,2.02-.03,1.34,1.02,2.19,2.78,2.19,5.15,0,10.3,.03,15.45-.04,.81-.01,1.7-.27,2.4-.68,3.64-2.16,7.23-4.41,10.84-6.63,.41-.25,.82-.51,1.24-.74,.88-.47,1.84-.44,2.19,.49,.21,.56-.07,1.68-.52,2.05-2.73,2.16-5.58,4.17-8.4,6.23-.65,.48-1.32,.92-1.94,1.43-1.86,1.54-3.95,2.16-6.39,2.12-6.76-.1-13.52-.07-20.27,0-.94,.01-2,.37-2.8,.89-2.46,1.61-4.82,3.37-7.34,5.16"/>
  <path class="cls-3" d="M78.02,48.55c1.72,6.91-.16,13.75-9.46,17.68-.06-.12-.16-.25-.17-.38-.17-4.73-2.5-6.98-7.28-6.99-3.05-.01-6.11-.06-9.16,0-1.04,.02-1.54-.37-1.86-1.32-.98-2.87-1.16-5.73-.24-8.98,1.58,.46,3.16,.72,4.58,1.37,6.39,2.91,12.72,2.87,19.1,0,1.38-.62,2.92-.91,4.48-1.38"/>
  <path class="cls-1" d="M76.91,44.62c-4.61,.5-8.28,3.29-12.9,3.29-4.63,0-8.31-2.74-12.93-3.31,.23-2.28,2.15-18.45,3.27-19.31,.51-.39,1.27-.47,2.1-.44,.9,.03,11.64,.19,16.09,.14,.97-.01,1.41,.29,1.68,1.23,.81,2.77,1.72,15.37,2.68,18.41"/>
  <path class="cls-1" d="M67.79,98.54h-8.02c1.42-1.46,2.85-2.92,4.06-4.17,1.35,1.42,2.77,2.92,3.96,4.17"/>
</svg>