<?xml version="1.0" encoding="utf-8"?>
<!-- Generator: Adobe Illustrator 24.0.1, SVG Export Plug-In . SVG Version: 6.00 Build 0)  -->
<svg version="1.1" id="Layer_1" xmlns="http://www.w3.org/2000/svg" xmlns:xlink="http://www.w3.org/1999/xlink" x="0px" y="0px"
	 viewBox="0 0 120 120" style="enable-background:new 0 0 120 120;" xml:space="preserve">
<style type="text/css">
	.st0{fill:#506E8F;}
	.st1{fill:#44617E;}
	.st2{fill:#E4EFF9;}
	.st3{fill:#D1E4F5;}
	.st4{fill:#3E5A72;}
	.st5{fill:#FFFFFF;}
	.st6{fill:#E8E3EE;}
	.st7{fill:#D9848F;}
	.st8{fill:#D1717E;}
	.st9{fill:#EFC5B5;}
	.st10{fill:#EAA795;}
	.st11{fill:#C79170;}
	.st12{fill:#C2825A;}
	.st13{fill:#F3DC81;}
	.st14{fill:#ECCD74;}
	.st15{fill:#F3E8A7;}
	.st16{fill:#3A4246;}
	.st17{fill:#DACC81;}
	.st18{fill:#646768;}
	.st19{fill:#4C2618;}
	.st20{fill:#323537;}
	.st21{fill:#EFB384;}
	.st22{fill:#ECC99E;}
	.st23{fill:#EFDB54;}
	.st24{fill:#E7BF40;}
	.st25{fill:#DB545C;}
	.st26{fill:#C42E3C;}
	.st27{fill:#DD6871;}
	.st28{fill:#86CA90;}
	.st29{fill:#9AD1A2;}
	.st30{clip-path:url(#SVGID_2_);fill:#86CA90;}
	.st31{clip-path:url(#SVGID_2_);}
	.st32{fill:#564737;}
	.st33{fill:#FEE897;}
	.st34{fill:#F15E3B;}
	.st35{fill:#957A5C;}
	.st36{fill:#F89832;}
	.st37{clip-path:url(#SVGID_4_);fill:#FEE897;}
	.st38{clip-path:url(#SVGID_4_);}
	.st39{fill:#F2E9B3;}
	.st40{fill:#FACD57;}
	.st41{fill:#E9AE51;}
	.st42{fill:#F6A149;}
	.st43{fill:#F0523D;}
	.st44{fill:#FEC86B;}
	.st45{fill:#7D443F;}
	.st46{fill:#B4714C;}
	.st47{fill:#F9A35D;}
	.st48{fill:#DE8D54;}
	.st49{fill:#8F9192;}
	.st50{fill:#A8ABAB;}
	.st51{fill:#484A4C;}
	.st52{fill:#31454D;}
	.st53{fill:#4E595D;}
	.st54{fill:#F8982D;}
	.st55{fill:#888A8C;}
	.st56{fill:#C4D1D4;}
	.st57{fill:#ABADB0;}
	.st58{fill:#F3F4F4;}
	.st59{fill:#B1BABF;}
	.st60{fill:#DA4F27;}
	.st61{fill:#F26439;}
	.st62{fill:#FBBD77;}
	.st63{fill:#FEBE2B;}
	.st64{fill:#FDDA2D;}
	.st65{fill:#75888F;}
	.st66{clip-path:url(#SVGID_6_);fill:none;stroke:#000000;stroke-width:2;stroke-linecap:round;stroke-linejoin:round;}
	.st67{fill:#FBB15F;}
	.st68{fill:#95C93F;}
	.st69{fill:#BBBDC2;}
	.st70{fill:#A0A2A9;}
	.st71{fill:#F47C5F;}
	.st72{fill:#FDE6A6;}
	.st73{fill:#9EAAB5;}
	.st74{fill:#C1C9D1;}
	.st75{fill:#63CBE8;}
	.st76{fill:#A8D387;}
	.st77{fill:#EDC9AD;}
	.st78{fill:#D8AA86;}
	.st79{fill:#FBD474;}
	.st80{fill:#AF7754;}
	.st81{fill:#FCD362;}
	.st82{fill:#F89C68;}
	.st83{fill:#F383A4;}
	.st84{fill:#FED9BD;}
	.st85{fill:#F68E51;}
	.st86{fill:#8F5630;}
	.st87{fill:#FCC4A4;}
	.st88{fill:#75D1F7;}
	.st89{clip-path:url(#SVGID_8_);}
	.st90{fill:#FBC536;}
	.st91{fill:#F58226;}
	.st92{fill:#5D7A87;}
	.st93{fill:#CA2A2C;}
	.st94{fill:#F05344;}
	.st95{fill:#FCEC4E;}
	.st96{fill:#252C37;}
	.st97{clip-path:url(#SVGID_10_);fill:none;stroke:#000000;stroke-width:2;stroke-linecap:round;stroke-linejoin:round;}
	.st98{fill:#3D5CAA;}
	.st99{fill:#2DA4DD;}
	.st100{clip-path:url(#SVGID_12_);fill:none;stroke:#000000;stroke-width:2;stroke-linecap:round;stroke-linejoin:round;}
	.st101{fill:none;stroke:#000000;stroke-width:2;stroke-linecap:round;stroke-linejoin:round;}
	.st102{fill:#6A7184;}
	.st103{fill:#F7932D;}
	.st104{fill:#5B6373;}
	.st105{fill:#D8E8F7;}
	.st106{fill:#B9D5ED;}
	.st107{fill:#EEA249;}
	.st108{fill:#DD8637;}
	.st109{fill:#DAE2E6;}
	.st110{fill:#4BBA7A;}
	.st111{fill:#1F8642;}
	.st112{fill:#C3D6E0;}
	.st113{fill:#0B7CBF;}
	.st114{fill:#23459A;}
	.st115{fill:#93C5CE;}
	.st116{clip-path:url(#SVGID_14_);fill:none;stroke:#000000;stroke-width:2;stroke-linecap:round;stroke-linejoin:round;}
	.st117{fill:#F37F86;}
	.st118{fill:#F26B74;}
	.st119{fill:#F8E57F;}
	.st120{fill:#FFCD6C;}
	.st121{fill:#FEE6DB;}
	.st122{fill:#FDD6C5;}
	.st123{fill:#82959F;}
	.st124{clip-path:url(#SVGID_16_);fill:#738590;}
	.st125{clip-path:url(#SVGID_16_);}
	.st126{fill:#E2E3E3;}
	.st127{fill:#427DC0;}
	.st128{fill:#505359;}
	.st129{fill:#7F828A;}
	.st130{fill:#6F717C;}
	.st131{fill:#36393F;}
	.st132{fill:#F1D8C4;}
	.st133{fill:#60503C;}
	.st134{fill:#B66B27;}
	.st135{fill:#F69324;}
	.st136{fill:#D07C27;}
	.st137{fill:#8F9597;}
	.st138{fill:#F9A25F;}
	.st139{fill:#DD8C54;}
	.st140{fill:#8D9192;}
	.st141{fill:#A8ABAA;}
	.st142{fill:#30A2DC;}
	.st143{fill:#234695;}
	.st144{fill:#3D5DA9;}
	.st145{fill:#5D7A86;}
	.st146{fill:#4E5A5E;}
	.st147{fill:#75878D;}
	.st148{clip-path:url(#SVGID_18_);fill:none;stroke:#000000;stroke-linecap:round;stroke-linejoin:round;}
	.st149{fill:#F8E7D0;}
	.st150{fill:#F7BF30;}
	.st151{clip-path:url(#SVGID_20_);fill:#F4F3D2;}
	.st152{clip-path:url(#SVGID_20_);}
	.st153{clip-path:url(#SVGID_22_);fill:#F4F3D2;}
	.st154{clip-path:url(#SVGID_22_);}
	.st155{clip-path:url(#SVGID_24_);fill:#F4F3D2;}
	.st156{clip-path:url(#SVGID_24_);}
	.st157{clip-path:url(#SVGID_26_);fill:#F4F3D2;}
	.st158{clip-path:url(#SVGID_26_);}
	.st159{display:none;}
	.st160{display:inline;}
	.st161{display:inline;clip-path:url(#SVGID_28_);}
	.st162{display:inline;clip-path:url(#SVGID_28_);fill:#F8E7D0;}
	.st163{display:inline;clip-path:url(#SVGID_28_);fill:#F7BF30;}
	.st164{clip-path:url(#SVGID_30_);fill:#F4F3D2;}
	.st165{clip-path:url(#SVGID_30_);}
	.st166{clip-path:url(#SVGID_32_);fill:#F4F3D2;}
	.st167{clip-path:url(#SVGID_32_);}
	.st168{fill:#887D8C;}
	.st169{fill:#9C93A0;}
	.st170{fill:#FDCD9E;}
	.st171{fill:#FBB784;}
	.st172{fill:#FFE0BA;}
	.st173{fill:#BCE6F6;}
	.st174{fill:#F5EDE9;}
	.st175{fill:#EEE3DE;}
	.st176{fill:#F7F2F1;}
	.st177{fill:#FCE780;}
</style>
<path class="st0" d="M109.5,88.1H20.1c-3.4,0-6.1-2.7-6.1-6.1V24.2c0-3.4,2.7-6.1,6.1-6.1h89.4c3.4,0,6.1,2.7,6.1,6.1V82
	C115.6,85.4,112.9,88.1,109.5,88.1"/>
<path class="st1" d="M109.5,18h-6.1c3.4,0,6.1,2.7,6.1,6.1V82c0,3.4-2.7,6.1-6.1,6.1h6.1c3.4,0,6.1-2.7,6.1-6.1V24.2
	C115.6,20.8,112.9,18,109.5,18"/>
<path class="st2" d="M20.1,78.1V25c0-0.5,0.4-0.8,0.8-0.8h87.8c0.5,0,0.8,0.4,0.8,0.8v53.1c0,0.5-0.4,0.8-0.8,0.8H20.9
	C20.4,78.9,20.1,78.5,20.1,78.1"/>
<path class="st3" d="M108.7,24.2h-6.1c0.5,0,0.8,0.4,0.8,0.8v53.1c0,0.5-0.4,0.8-0.8,0.8h6.1c0.5,0,0.8-0.4,0.8-0.8V25
	C109.5,24.5,109.1,24.2,108.7,24.2"/>
<polygon class="st1" points="74.9,110.9 54.7,110.9 57.7,88.1 71.9,88.1 "/>
<polygon class="st4" points="71.9,88.1 65.7,88.1 68.8,110.9 74.9,110.9 "/>
<path class="st0" d="M78.1,101.1l2.2,7.8c0.3,1-0.5,2.1-1.6,2.1H50.9c-1.1,0-1.9-1-1.6-2.1l2.2-7.8c0.2-0.7,0.8-1.2,1.6-1.2h23.4
	C77.2,99.9,77.9,100.4,78.1,101.1"/>
<path class="st1" d="M80.2,108.9l-2.2-7.8c-0.2-0.7-0.8-1.2-1.6-1.2h-6.1c0.7,0,1.4,0.5,1.6,1.2l2.2,7.8c0.3,1-0.5,2.1-1.6,2.1h6.1
	C79.7,110.9,80.5,109.9,80.2,108.9"/>
<rect x="32.3" y="21.5" class="st5" width="65.1" height="57.4"/>
<path class="st6" d="M94.9,9.2h-6.1c1.4,0,2.5,1.1,2.5,2.5v67.2h6.1V11.7C97.3,10.3,96.2,9.2,94.9,9.2"/>
<path class="st1" d="M94.9,9.2H34.7c-1.4,0-2.5,1.1-2.5,2.5v9.8h65.1v-9.8C97.3,10.3,96.2,9.2,94.9,9.2"/>
<path class="st4" d="M94.9,9.2h-6.1c1.4,0,2.5,1.1,2.5,2.5v9.8h6.1v-9.8C97.3,10.3,96.2,9.2,94.9,9.2"/>
<path class="st7" d="M82.2,78.9V68.3c0-3.5-2.1-6.6-5.4-7.9l-4.1-1.6c-1.6-0.6-2.7-2.2-2.7-4v-3.4H59.6v3.4c0,1.8-1.1,3.3-2.7,4
	l-4.1,1.6c-3.3,1.3-5.4,4.4-5.4,7.9v10.6"/>
<path class="st8" d="M76.8,60.4l-4.1-1.6c-1.6-0.6-2.7-2.2-2.7-4v-3.4h-6.1v6.5c0,1.8,1.1,3.3,2.7,4l4.1,1.6
	c3.3,1.3,5.4,4.4,5.4,7.9v7.5h6.1V68.3C82.2,64.8,80.1,61.6,76.8,60.4"/>
<path class="st9" d="M64.8,61.9c2.9,0,5.6-1.3,7.3-3.5c-1.3-0.8-5.2-2.2-5.2-3.7v-3.4h-7.2v3.4c0,1.5-0.8,3-2.1,3.7
	C59.2,60.6,61.9,61.9,64.8,61.9"/>
<path class="st10" d="M66.4,61.8c2.3-0.4,4.3-1.6,5.7-3.3c-1.2-0.7-2.1-2.1-2.1-3.7v-3.4h-6.1v6.5C63.8,59.5,64.9,61.1,66.4,61.8"/>
<path class="st9" d="M65,52.7c-0.3,0-0.9,1-1.2,1c-4.7-0.5-8.4-4.5-8.4-9.3v-4.1l3.1-7.4c0-2.7,2.2-1.8,4.9-1.8h5.9
	c2.7,0,1.8-0.9,1.8,1.8l3.1,7.4v4.1c0,3.3-1.7,6.2-4.2,7.9C68.5,53.2,65,52.7,65,52.7"/>
<path class="st10" d="M71.1,32.9c0-2.7,0.9-1.8-1.8-1.8l-1.2,6.2v7.1c0,0.5,0.2,3.2-1.8,5.5c-2.6,2.9-6.3,2.4-6.6,2.4
	c0.7,0.5,2,1.2,3.7,1.4c0,0,0.7,0.1,1.4,0.1c5.2,0,9.4-4.2,9.4-9.4v-4.1L71.1,32.9z"/>
<path class="st11" d="M74.2,32.9c0-2.7-2.2-4.9-4.9-4.9h-9c-2.7,0-4.9,2.2-4.9,4.9v7.4c1.7,0.3,4.9,0.5,8.5-0.8
	c1.6-0.6,2.9-1.3,3.9-2c0.2-0.1,0.4-0.1,0.6,0.1c0.4,0.6,1.1,1.5,2.4,2.1c1.5,0.7,3,0.6,3.5,0.5V32.9z"/>
<path class="st12" d="M69.3,28h-6.1c2.7,0,4.9,2.2,4.9,4.9v4.6c0.1,0,0.2,0.1,0.2,0.2c0.4,0.6,1.1,1.5,2.4,2.1
	c1.5,0.7,3,0.6,3.5,0.5v-7.4C74.2,30.2,72,28,69.3,28"/>
<path class="st13" d="M85.7,15.4h25.2c2.6,0,4.8,2.1,4.8,4.8V31c0,2.6-2.1,4.8-4.8,4.8H96.7c-0.3,0-0.6,0.1-0.8,0.3l-4.6,4.6
	c-0.4,0.4-1.1,0.1-1.1-0.4v-3.4c0-0.6-0.5-1.1-1.1-1.1h-3.5c-2.6,0-4.8-2.1-4.8-4.8V20.1C80.9,17.5,83,15.4,85.7,15.4"/>
<path class="st14" d="M110.9,15.4h-6.1c2.6,0,4.8,2.1,4.8,4.8V31c0,2.6-2.1,4.8-4.8,4.8h6.1c2.6,0,4.8-2.1,4.8-4.8V20.1
	C115.6,17.5,113.5,15.4,110.9,15.4"/>
<path d="M36.9,16.7c-0.8,0-1.5,0.7-1.5,1.5c0,0.8,0.7,1.5,1.5,1.5c0.8,0,1.5-0.7,1.5-1.5C38.5,17.4,37.8,16.7,36.9,16.7 M43.1,16.7
	c-0.8,0-1.5,0.7-1.5,1.5c0,0.8,0.7,1.5,1.5,1.5c0.8,0,1.5-0.7,1.5-1.5C44.6,17.4,43.9,16.7,43.1,16.7 M30.8,16.7
	c-0.8,0-1.5,0.7-1.5,1.5c0,0.8,0.7,1.5,1.5,1.5c0.8,0,1.5-0.7,1.5-1.5C32.3,17.4,31.6,16.7,30.8,16.7 M103.3,16.7h-12v-2.1
	c0-2.2-1.8-4-4-4H27.1c-2.2,0-4,1.8-4,4v4.8H12.5c-4.2,0-7.7,3.4-7.7,7.7v57.8c0,4.2,3.4,7.7,7.7,7.7h35.9l-1.2,8.7h-1.7
	c-1.4,0-2.7,1-3.1,2.3l-2.2,7.8c-0.3,1-0.1,2,0.5,2.8c0.6,0.8,1.5,1.3,2.5,1.3H71c1,0,1.9-0.5,2.5-1.3c0.6-0.8,0.8-1.8,0.5-2.8
	l-2.2-7.8c-0.4-1.4-1.6-2.3-3.1-2.3h-1.7L66,92.5h35.9c4.2,0,7.7-3.4,7.7-7.7V23C109.6,19.5,106.7,16.7,103.3,16.7 M26.2,25.9H51
	c0.8,0,1.5-0.7,1.5-1.5c0-0.8-0.7-1.5-1.5-1.5H26.2v-8.3c0-0.5,0.4-0.9,0.9-0.9h60.2c0.5,0,0.9,0.4,0.9,0.9v2.1H78.1
	c-3.4,0-6.2,2.7-6.3,6.1H58.2c-0.8,0-1.5,0.7-1.5,1.5c0,0.8,0.7,1.5,1.5,1.5h13.6v8c0,3.5,2.8,6.3,6.3,6.3h3v2.9
	c0,0.9,0.5,1.7,1.3,2c0.8,0.3,1.7,0.2,2.4-0.5l3.4-3.4v24c0,0.8,0.7,1.5,1.5,1.5s1.5-0.7,1.5-1.5V40.2h9.1v40h-9.1v-7.8
	c0-0.8-0.7-1.5-1.5-1.5s-1.5,0.7-1.5,1.5v7.8H76.1v-9.1c0-4.2-2.5-7.8-6.4-9.3l-4.1-1.6c-1.1-0.4-1.7-1.4-1.7-2.6v-1.7
	c2.6-2,4.2-5.1,4.2-8.6V35.8c0-3.6-2.9-6.4-6.4-6.4h-9c-3.6,0-6.5,2.9-6.5,6.4v11.5c0,3.5,1.7,6.6,4.2,8.6v1.7
	c0,1.1-0.7,2.1-1.7,2.6l-4.1,1.6c-3.9,1.5-6.4,5.2-6.4,9.3v9.1H26.2V25.9z M65.4,74.5c-0.8,0-1.5,0.7-1.5,1.5v4.2H50.5V76
	c0-0.8-0.7-1.5-1.5-1.5c-0.8,0-1.5,0.7-1.5,1.5v4.2h-6.1v-9.1c0-2.9,1.7-5.4,4.4-6.5l3.8-1.5c2,2,4.8,3.1,7.7,3.1
	c2.9,0,5.6-1.1,7.7-3.1l3.8,1.5c2.7,1.1,4.4,3.6,4.4,6.5v9.1h-6.1V76C66.9,75.2,66.2,74.5,65.4,74.5 M50.5,44.9
	c2.2,0,4.3-0.4,6.3-1.1c1.2-0.4,2.3-0.9,3.3-1.6c0.6,0.6,1.3,1.3,2.3,1.8c0.9,0.5,1.8,0.6,2.6,0.7v2.5c0,4.3-3.5,7.9-7.9,7.9
	s-7.9-3.5-7.9-7.9v-2.4C49.7,44.9,50.1,44.9,50.5,44.9 M49.3,41.8v-6c0-1.9,1.5-3.4,3.4-3.4h9c1.9,0,3.4,1.5,3.4,3.4v5.9
	c-0.4-0.1-0.8-0.2-1.3-0.4c-0.9-0.4-1.5-1.1-1.8-1.6c-0.3-0.4-0.7-0.7-1.2-0.8c-0.5-0.1-1,0-1.5,0.3c-1.1,0.8-2.3,1.4-3.5,1.8
	C53.7,41.7,51.5,42,49.3,41.8 M62.2,61.4c-1.4,1.2-3.2,1.8-5,1.8c-1.9,0-3.6-0.7-5-1.8c0.9-1,1.4-2.4,1.4-3.8v-0.1
	c1.1,0.4,2.4,0.6,3.6,0.6c1.3,0,2.5-0.2,3.6-0.6v0.1C60.8,59.1,61.3,60.4,62.2,61.4 M68.9,104.3C68.9,104.3,69,104.3,68.9,104.3
	l2.3,7.9c0,0.1,0,0.1-0.1,0.1H43.3c-0.1,0-0.1-0.1-0.1-0.1l2.2-7.8c0,0,0.1-0.1,0.1-0.1L68.9,104.3L68.9,104.3z M50.3,101.2l1.2-8.7
	h11.5l1.2,8.7H50.3z M106.5,84.9c0,2.5-2.1,4.6-4.6,4.6H12.5c-2.5,0-4.6-2.1-4.6-4.6V27.1c0-2.5,2.1-4.6,4.6-4.6h10.6v3.1h-9.8
	c-1.3,0-2.4,1.1-2.4,2.4V81c0,1.3,1.1,2.4,2.4,2.4h87.8c1.3,0,2.4-1.1,2.4-2.4V40.2c1.1,0,2.2-0.3,3.1-0.9V84.9z M23.1,80.2H14V28.6
	h9.1V80.2z M106.5,33.9c0,1.8-1.5,3.2-3.2,3.2H89.1c-0.7,0-1.4,0.3-1.9,0.8L84.2,41v-1.2c0-1.5-1.2-2.6-2.6-2.6h-3.5
	c-1.8,0-3.2-1.5-3.2-3.2V23c0-1.8,1.5-3.2,3.2-3.2h25.2c1.8,0,3.2,1.5,3.2,3.2V33.9z M101.1,30H80.2c-0.8,0-1.5,0.7-1.5,1.5
	c0,0.8,0.7,1.5,1.5,1.5h20.9c0.8,0,1.5-0.7,1.5-1.5C102.6,30.7,101.9,30,101.1,30 M101.1,23.9H80.2c-0.8,0-1.5,0.7-1.5,1.5
	c0,0.8,0.7,1.5,1.5,1.5h20.9c0.8,0,1.5-0.7,1.5-1.5C102.6,24.5,101.9,23.9,101.1,23.9"/>
</svg>
