<?xml version="1.0" encoding="utf-8"?>
<!-- Generator: Adobe Illustrator 24.0.1, SVG Export Plug-In . SVG Version: 6.00 Build 0)  -->
<svg version="1.1" baseProfile="tiny" id="Layer_1" xmlns="http://www.w3.org/2000/svg" xmlns:xlink="http://www.w3.org/1999/xlink"
	 x="0px" y="0px" viewBox="0 0 109.38 24.5" xml:space="preserve">
<g>
	<g>
		<g>
			<path fill="#423619" d="M20.67,11.99c0-0.02-0.02-0.04-0.04-0.05c-0.02-0.01-0.05-0.01-0.07,0.01c-0.02,0.01-0.07,0.04-0.24,0.04
				c-0.08,0-0.16-0.01-0.22-0.01c0.09-2.16-0.46-3.57-0.46-3.59c-0.01-0.03-0.04-0.05-0.08-0.04c-0.03,0.01-0.06,0.03-0.06,0.06
				c0,0.2-0.16,0.45-0.28,0.61c-0.07-0.9-0.9-2.99-0.94-3.08c-0.01-0.03-0.04-0.04-0.07-0.04c-0.03,0-0.06,0.02-0.07,0.04
				c-0.07,0.19-0.15,0.46-0.21,0.67c-0.26-1.29-1.45-2.8-1.51-2.87c-0.02-0.03-0.06-0.03-0.09-0.02c-0.03,0.02-0.04,0.05-0.03,0.08
				c0.08,0.19,0.08,0.33,0.06,0.41c-0.72-1.15-2.45-2.57-2.52-2.63c-0.02-0.02-0.06-0.02-0.08-0.01c-0.03,0.02-0.04,0.05-0.03,0.07
				c0.08,0.24,0.06,0.53,0.03,0.72c-0.47-0.77-1.61-1.64-1.67-1.68c-0.03-0.02-0.06-0.02-0.09,0c-0.05,0.04-1.2,0.91-1.67,1.68
				c-0.03-0.19-0.05-0.49,0.03-0.72c0.01-0.03,0-0.06-0.03-0.07c-0.03-0.02-0.06-0.01-0.08,0.01c-0.08,0.06-1.8,1.49-2.52,2.63
				C7.73,4.13,7.73,3.99,7.81,3.8c0.01-0.03,0-0.06-0.03-0.08C7.75,3.7,7.71,3.71,7.69,3.74C7.63,3.81,6.44,5.32,6.18,6.61
				C6.12,6.39,6.04,6.13,5.97,5.93C5.96,5.91,5.94,5.89,5.91,5.89c-0.04,0-0.06,0.02-0.07,0.04C5.8,6.03,4.91,8.26,4.9,9.1
				C4.75,9.04,4.5,8.89,4.5,8.68c0-0.03-0.03-0.06-0.06-0.06c-0.04,0-0.07,0.02-0.08,0.05c-0.02,0.1-0.44,2.49-0.34,3.3
				c-0.05,0.01-0.13,0.01-0.21,0.01c-0.16,0-0.22-0.03-0.24-0.04c-0.02-0.01-0.05-0.02-0.07-0.01c-0.02,0.01-0.04,0.03-0.04,0.05
				c0,0.02-0.03,0.56,0.22,1.31c0.23,0.69,0.76,1.7,1.95,2.58c0.86,0.64,1.86,1.07,2.74,1.45c1.45,0.62,2.7,1.16,2.76,2.37
				c0,0.01,0.97,4.08-2.87,4.08v0.21h7.66v-0.21c-3.85,0-2.9-4.07-2.9-4.08c0.06-1.21,1.31-1.75,2.76-2.37
				c0.88-0.38,1.88-0.81,2.74-1.45c1.19-0.88,1.71-1.89,1.95-2.58C20.71,12.55,20.68,12.02,20.67,11.99z"/>
		</g>
		<g>
			<g>
				<path fill="#423619" d="M4.53,16.81c0,0-0.03-0.03-0.08-0.09c-0.05-0.06-0.12-0.14-0.2-0.26c-0.16-0.22-0.38-0.54-0.6-0.94
					c-0.11-0.2-0.22-0.42-0.32-0.65c-0.1-0.23-0.21-0.48-0.29-0.74c-0.05-0.13-0.08-0.26-0.13-0.39c-0.04-0.13-0.08-0.27-0.11-0.41
					c-0.03-0.14-0.07-0.28-0.09-0.42l-0.04-0.21L2.64,12.5c-0.02-0.14-0.04-0.28-0.05-0.42c-0.02-0.14-0.02-0.28-0.03-0.42
					c-0.01-0.28-0.01-0.55,0.01-0.82c0-0.13,0.02-0.26,0.03-0.39c0.01-0.13,0.03-0.25,0.05-0.37c0.03-0.24,0.08-0.47,0.13-0.68
					c0.03-0.1,0.05-0.2,0.08-0.3c0.01-0.05,0.02-0.09,0.04-0.14c0.01-0.04,0.03-0.09,0.04-0.13c0.05-0.17,0.09-0.31,0.14-0.43
					c0.09-0.24,0.14-0.37,0.14-0.37S3.16,8.18,3.09,8.42C3.05,8.54,3.02,8.68,2.97,8.85C2.96,8.89,2.95,8.94,2.93,8.98
					C2.93,9.03,2.92,9.07,2.91,9.12c-0.02,0.09-0.04,0.19-0.06,0.3c-0.03,0.21-0.08,0.43-0.09,0.68c-0.01,0.12-0.03,0.24-0.03,0.37
					c0,0.13-0.02,0.26-0.01,0.39c0,0.26,0,0.53,0.03,0.81c0.01,0.14,0.02,0.28,0.04,0.41c0.02,0.14,0.04,0.28,0.07,0.42l0.04,0.21
					l0.05,0.21c0.03,0.14,0.07,0.27,0.11,0.41c0.04,0.13,0.08,0.27,0.12,0.4c0.05,0.13,0.09,0.26,0.14,0.38
					c0.1,0.25,0.21,0.49,0.32,0.72c0.11,0.22,0.23,0.44,0.34,0.63c0.23,0.38,0.45,0.69,0.62,0.9c0.08,0.11,0.15,0.18,0.2,0.24
					c0.05,0.05,0.07,0.08,0.07,0.08l0,0.01c0.06,0.07,0.04,0.15-0.06,0.2C4.71,16.9,4.59,16.88,4.53,16.81
					C4.53,16.82,4.53,16.81,4.53,16.81z"/>
				<path fill="#423619" d="M2.16,16.06c0,0-0.02-0.04-0.04-0.12c-0.03-0.08-0.06-0.2-0.11-0.34c-0.04-0.15-0.09-0.33-0.13-0.54
					c-0.05-0.21-0.09-0.44-0.13-0.7c-0.04-0.26-0.07-0.54-0.09-0.83c-0.01-0.15-0.02-0.3-0.03-0.46c0-0.16-0.01-0.31-0.01-0.48
					c0-0.16,0-0.33,0.01-0.49c0-0.17,0.02-0.33,0.03-0.5c0.01-0.17,0.04-0.34,0.05-0.51c0.03-0.17,0.05-0.34,0.08-0.51
					c0.06-0.34,0.13-0.68,0.23-1.01c0.05-0.17,0.09-0.33,0.14-0.49c0.03-0.08,0.05-0.16,0.08-0.24C2.27,8.75,2.3,8.67,2.33,8.59
					c0.06-0.16,0.11-0.31,0.18-0.46C2.57,7.99,2.63,7.84,2.69,7.7c0.07-0.14,0.13-0.28,0.2-0.41c0.07-0.13,0.14-0.25,0.2-0.37
					c0.06-0.12,0.14-0.23,0.2-0.34c0.07-0.11,0.12-0.21,0.19-0.3C3.6,6.09,3.7,5.92,3.8,5.79c0.19-0.27,0.3-0.42,0.3-0.42
					S4,5.52,3.82,5.79C3.72,5.93,3.63,6.1,3.51,6.29C3.45,6.38,3.4,6.49,3.33,6.59C3.28,6.7,3.21,6.82,3.15,6.94
					C3.09,7.06,3.03,7.18,2.96,7.32C2.9,7.45,2.85,7.58,2.78,7.72C2.72,7.86,2.67,8.01,2.61,8.16C2.55,8.31,2.5,8.46,2.45,8.61
					C2.42,8.69,2.4,8.77,2.37,8.85C2.35,8.93,2.33,9.01,2.3,9.09C2.26,9.25,2.22,9.42,2.18,9.58c-0.08,0.33-0.14,0.67-0.19,1.01
					c-0.02,0.17-0.04,0.34-0.06,0.51C1.92,11.27,1.9,11.44,1.9,11.6c-0.01,0.17-0.01,0.33-0.01,0.5c0,0.16,0,0.33,0.01,0.49
					c0,0.16,0.02,0.32,0.02,0.47c0.02,0.15,0.02,0.3,0.04,0.45c0.03,0.29,0.08,0.57,0.12,0.82c0.05,0.25,0.1,0.48,0.15,0.69
					c0.05,0.2,0.1,0.38,0.15,0.52c0.05,0.14,0.09,0.26,0.11,0.33c0.03,0.07,0.04,0.11,0.04,0.11l0,0c0.03,0.08-0.03,0.16-0.14,0.18
					C2.3,16.18,2.19,16.14,2.16,16.06C2.16,16.06,2.16,16.06,2.16,16.06z"/>
				<path fill="#423619" d="M2.86,19.35c0,0-0.01-0.01-0.02-0.02c-0.02-0.02-0.04-0.04-0.07-0.07c-0.06-0.06-0.13-0.15-0.23-0.27
					c-0.09-0.12-0.2-0.26-0.31-0.43C2.12,18.39,2,18.2,1.88,17.99c-0.12-0.21-0.24-0.44-0.34-0.69c-0.06-0.12-0.1-0.25-0.16-0.38
					c-0.05-0.13-0.1-0.27-0.14-0.4c-0.02-0.07-0.04-0.14-0.07-0.21c-0.02-0.07-0.04-0.14-0.06-0.21c-0.04-0.14-0.07-0.29-0.11-0.43
					c-0.03-0.15-0.06-0.3-0.08-0.44c-0.02-0.15-0.04-0.3-0.06-0.45c-0.03-0.3-0.05-0.6-0.05-0.9c-0.01-0.3,0.01-0.59,0.03-0.87
					c0.01-0.14,0.03-0.28,0.04-0.41c0.02-0.13,0.04-0.27,0.05-0.39c0.02-0.13,0.04-0.25,0.06-0.37c0.02-0.12,0.04-0.24,0.07-0.35
					c0.05-0.22,0.09-0.43,0.15-0.6c0.05-0.18,0.09-0.34,0.13-0.46c0.08-0.26,0.13-0.4,0.13-0.4s-0.04,0.15-0.11,0.4
					c-0.04,0.13-0.07,0.28-0.11,0.46c-0.04,0.18-0.08,0.38-0.12,0.61c-0.02,0.11-0.04,0.23-0.05,0.35
					c-0.02,0.12-0.04,0.24-0.05,0.37C1.01,12.33,1,12.46,0.98,12.59c-0.01,0.13-0.01,0.27-0.02,0.41c-0.01,0.28-0.01,0.57,0.01,0.86
					c0.02,0.29,0.05,0.59,0.09,0.89c0.02,0.15,0.05,0.3,0.08,0.44c0.03,0.15,0.06,0.29,0.1,0.44c0.04,0.14,0.07,0.29,0.12,0.43
					c0.02,0.07,0.04,0.14,0.07,0.21c0.02,0.07,0.05,0.14,0.07,0.2c0.05,0.14,0.1,0.27,0.15,0.39c0.06,0.13,0.11,0.25,0.17,0.37
					c0.11,0.24,0.24,0.46,0.36,0.67c0.12,0.2,0.25,0.39,0.36,0.54c0.12,0.16,0.23,0.29,0.32,0.4c0.09,0.11,0.17,0.19,0.23,0.25
					c0.05,0.06,0.08,0.08,0.08,0.08l0,0c0.07,0.06,0.05,0.15-0.04,0.2C3.06,19.43,2.94,19.41,2.86,19.35
					C2.87,19.35,2.87,19.35,2.86,19.35z"/>
				<path fill="#423619" d="M5.41,19.21c-0.42-2.26-2.85-2.82-2.88-2.83c-0.01,0-0.03,0-0.04,0c-0.03,0-0.06,0.01-0.08,0.02
					c-0.04,0.02-0.06,0.05-0.06,0.08c-0.03,2.28,2.86,2.84,2.89,2.84c0.01,0,0.02,0,0.04,0c0.03,0,0.07-0.01,0.09-0.03
					C5.4,19.27,5.42,19.24,5.41,19.21z M2.75,16.72c0,0,1.96,0.79,2.23,2.17C4.98,18.89,4.09,17.72,2.75,16.72z"/>
				<path fill="#423619" d="M5.07,17.01C5.07,17.01,5.07,17.01,5.07,17.01c-0.05,0-0.08,0.01-0.11,0.03
					c-0.03,0.02-0.04,0.05-0.04,0.08c0.45,2.29,3.28,3.21,3.31,3.22c0.02,0.01,0.04,0.01,0.06,0.01c0.03,0,0.06-0.01,0.08-0.02
					c0.04-0.02,0.06-0.05,0.06-0.09C8.29,17.13,5.1,17.01,5.07,17.01z M5.41,17.24c0,0,2.41,0.63,2.71,2.67
					C8.12,19.91,7.38,18.26,5.41,17.24z"/>
				<path fill="#423619" d="M9.14,18.6c-0.02-0.01-0.05-0.02-0.08-0.02c-0.02,0-0.03,0-0.05,0.01c-0.04,0.01-0.08,0.04-0.09,0.07
					c-0.39,0.92-0.37,1.68,0.07,2.25c0.49,0.64,1.3,0.81,1.33,0.81c0.01,0,0.03,0,0.04,0c0.06,0,0.11-0.03,0.13-0.07
					C11.38,19.78,9.16,18.62,9.14,18.6z M10.32,21.42c0,0,0.05-1.14-1.15-2.52C9.17,18.89,10.78,20.01,10.32,21.42z"/>
				<path fill="#423619" d="M8.33,21.22c-1.04-1.78-4.13-1.87-4.74-1.87c-0.06,0-0.1,0-0.1,0c-0.05,0-0.09,0.02-0.12,0.05
					c-0.02,0.03-0.03,0.07-0.01,0.1c1.15,1.67,3.03,1.92,4.05,1.92c0.48,0,0.79-0.05,0.81-0.06c0.04-0.01,0.07-0.03,0.09-0.05
					C8.34,21.28,8.34,21.25,8.33,21.22z M3.87,19.58c0,0,2.91,0.04,4.01,1.48C7.88,21.06,6.51,19.97,3.87,19.58z"/>
				<path fill="#423619" d="M10.37,22.03c-0.01-0.03-0.03-0.05-0.06-0.07c-0.04-0.02-0.91-0.44-2.09-0.44
					c-0.62,0-1.21,0.11-1.76,0.34c-0.04,0.02-0.06,0.04-0.07,0.08c-0.01,0.03,0.01,0.06,0.04,0.09c0.04,0.03,1.03,0.69,2.2,0.69h0
					c0.65,0,1.22-0.2,1.7-0.6C10.36,22.09,10.38,22.06,10.37,22.03z M6.77,21.92C8.63,21.42,9.95,22,9.95,22
					C9.2,21.73,6.77,21.92,6.77,21.92z"/>
			</g>
			<g>
				<path fill="#423619" d="M19.61,16.81c0,0,0.03-0.03,0.08-0.09c0.05-0.06,0.12-0.14,0.2-0.26c0.16-0.22,0.38-0.54,0.6-0.94
					c0.11-0.2,0.22-0.42,0.32-0.65c0.1-0.23,0.21-0.48,0.29-0.74c0.05-0.13,0.08-0.26,0.13-0.39c0.04-0.13,0.08-0.27,0.11-0.41
					c0.03-0.14,0.07-0.28,0.09-0.42l0.04-0.21l0.03-0.21c0.02-0.14,0.04-0.28,0.05-0.42c0.02-0.14,0.02-0.28,0.03-0.42
					c0.01-0.28,0.01-0.55-0.01-0.82c0-0.13-0.02-0.26-0.03-0.39c-0.01-0.13-0.03-0.25-0.05-0.37c-0.03-0.24-0.08-0.47-0.13-0.68
					c-0.03-0.1-0.05-0.2-0.08-0.3c-0.01-0.05-0.02-0.09-0.04-0.14c-0.01-0.04-0.03-0.09-0.04-0.13c-0.05-0.17-0.09-0.31-0.14-0.43
					c-0.09-0.24-0.14-0.37-0.14-0.37s0.04,0.14,0.12,0.38c0.04,0.12,0.07,0.27,0.12,0.43c0.01,0.04,0.02,0.09,0.03,0.13
					c0.01,0.04,0.02,0.09,0.03,0.14c0.02,0.09,0.04,0.19,0.06,0.3c0.03,0.21,0.08,0.43,0.09,0.68c0.01,0.12,0.03,0.24,0.03,0.37
					c0,0.13,0.02,0.26,0.01,0.39c0,0.26,0,0.53-0.03,0.81c-0.01,0.14-0.02,0.28-0.04,0.41c-0.02,0.14-0.04,0.28-0.07,0.42
					l-0.04,0.21l-0.05,0.21c-0.03,0.14-0.07,0.27-0.11,0.41c-0.04,0.13-0.08,0.27-0.12,0.4c-0.05,0.13-0.09,0.26-0.14,0.38
					c-0.1,0.25-0.21,0.49-0.32,0.72c-0.11,0.22-0.23,0.44-0.34,0.63c-0.23,0.38-0.45,0.69-0.62,0.9c-0.08,0.11-0.15,0.18-0.2,0.24
					c-0.05,0.05-0.07,0.08-0.07,0.08l0,0.01c-0.06,0.07-0.04,0.15,0.06,0.2C19.42,16.9,19.54,16.88,19.61,16.81
					C19.61,16.82,19.61,16.81,19.61,16.81z"/>
				<path fill="#423619" d="M21.98,16.06c0,0,0.02-0.04,0.04-0.12c0.03-0.08,0.06-0.2,0.11-0.34c0.04-0.15,0.09-0.33,0.13-0.54
					c0.05-0.21,0.09-0.44,0.13-0.7c0.04-0.26,0.07-0.54,0.09-0.83c0.01-0.15,0.02-0.3,0.03-0.46c0-0.16,0.01-0.31,0.01-0.48
					c0-0.16,0-0.33-0.01-0.49c0-0.17-0.02-0.33-0.03-0.5c-0.01-0.17-0.04-0.34-0.05-0.51c-0.03-0.17-0.05-0.34-0.08-0.51
					c-0.06-0.34-0.13-0.68-0.23-1.01c-0.05-0.17-0.09-0.33-0.14-0.49c-0.03-0.08-0.05-0.16-0.08-0.24
					c-0.03-0.08-0.06-0.16-0.09-0.24c-0.06-0.16-0.11-0.31-0.18-0.46c-0.06-0.15-0.12-0.29-0.19-0.43c-0.07-0.14-0.13-0.28-0.2-0.41
					c-0.07-0.13-0.14-0.25-0.2-0.37c-0.06-0.12-0.14-0.23-0.2-0.34c-0.07-0.11-0.12-0.21-0.19-0.3c-0.13-0.19-0.23-0.36-0.33-0.49
					c-0.19-0.27-0.3-0.42-0.3-0.42s0.1,0.15,0.29,0.42c0.09,0.13,0.19,0.3,0.31,0.49c0.06,0.09,0.11,0.2,0.17,0.31
					c0.06,0.11,0.13,0.22,0.19,0.34c0.06,0.12,0.12,0.25,0.19,0.38c0.06,0.13,0.12,0.27,0.18,0.41c0.06,0.14,0.12,0.29,0.17,0.43
					c0.06,0.15,0.11,0.3,0.16,0.46c0.03,0.08,0.05,0.16,0.08,0.24c0.02,0.08,0.05,0.16,0.07,0.24c0.05,0.16,0.09,0.33,0.13,0.49
					c0.08,0.33,0.14,0.67,0.19,1.01c0.02,0.17,0.04,0.34,0.06,0.51c0.01,0.17,0.03,0.34,0.03,0.51c0.01,0.17,0.01,0.33,0.01,0.5
					c0,0.16,0,0.33-0.01,0.49c0,0.16-0.02,0.32-0.02,0.47c-0.02,0.15-0.02,0.3-0.04,0.45c-0.03,0.29-0.08,0.57-0.12,0.82
					c-0.05,0.25-0.1,0.48-0.15,0.69c-0.05,0.2-0.1,0.38-0.15,0.52c-0.05,0.14-0.09,0.26-0.11,0.33c-0.03,0.07-0.04,0.11-0.04,0.11
					l0,0c-0.03,0.08,0.03,0.16,0.14,0.18C21.84,16.18,21.95,16.14,21.98,16.06C21.98,16.06,21.98,16.06,21.98,16.06z"/>
				<path fill="#423619" d="M21.27,19.35c0,0,0.01-0.01,0.02-0.02c0.02-0.02,0.04-0.04,0.07-0.07c0.06-0.06,0.13-0.15,0.23-0.27
					c0.09-0.12,0.2-0.26,0.31-0.43c0.11-0.17,0.23-0.36,0.35-0.57c0.12-0.21,0.24-0.44,0.34-0.69c0.06-0.12,0.1-0.25,0.16-0.38
					c0.05-0.13,0.1-0.27,0.14-0.4c0.02-0.07,0.04-0.14,0.07-0.21c0.02-0.07,0.04-0.14,0.06-0.21c0.04-0.14,0.07-0.29,0.11-0.43
					c0.03-0.15,0.06-0.3,0.08-0.44c0.02-0.15,0.04-0.3,0.06-0.45c0.03-0.3,0.05-0.6,0.05-0.9c0.01-0.3-0.01-0.59-0.03-0.87
					c-0.01-0.14-0.03-0.28-0.04-0.41c-0.02-0.13-0.04-0.27-0.05-0.39c-0.02-0.13-0.04-0.25-0.06-0.37
					c-0.02-0.12-0.04-0.24-0.07-0.35c-0.05-0.22-0.09-0.43-0.15-0.6c-0.05-0.18-0.09-0.34-0.13-0.46c-0.08-0.26-0.13-0.4-0.13-0.4
					s0.04,0.15,0.11,0.4c0.04,0.13,0.07,0.28,0.11,0.46c0.04,0.18,0.08,0.38,0.12,0.61c0.02,0.11,0.04,0.23,0.05,0.35
					c0.02,0.12,0.04,0.24,0.05,0.37c0.01,0.13,0.02,0.26,0.04,0.39c0.01,0.13,0.01,0.27,0.02,0.41c0.01,0.28,0.01,0.57-0.01,0.86
					c-0.02,0.29-0.05,0.59-0.09,0.89c-0.02,0.15-0.05,0.3-0.08,0.44c-0.03,0.15-0.06,0.29-0.1,0.44c-0.04,0.14-0.07,0.29-0.12,0.43
					c-0.02,0.07-0.04,0.14-0.07,0.21c-0.02,0.07-0.05,0.14-0.07,0.2c-0.05,0.14-0.1,0.27-0.15,0.39c-0.06,0.13-0.11,0.25-0.17,0.37
					c-0.11,0.24-0.24,0.46-0.36,0.67c-0.12,0.2-0.25,0.39-0.36,0.54c-0.12,0.16-0.23,0.29-0.32,0.4c-0.09,0.11-0.17,0.19-0.23,0.25
					c-0.05,0.06-0.08,0.08-0.08,0.08l0,0c-0.07,0.06-0.05,0.15,0.04,0.2C21.07,19.43,21.2,19.41,21.27,19.35
					C21.27,19.35,21.27,19.35,21.27,19.35z"/>
				<path fill="#423619" d="M21.73,16.4c-0.02-0.01-0.05-0.02-0.08-0.02c-0.01,0-0.03,0-0.04,0c-0.02,0.01-2.46,0.56-2.88,2.83
					c-0.01,0.03,0.01,0.07,0.05,0.09c0.03,0.02,0.06,0.03,0.09,0.03c0.01,0,0.02,0,0.04,0c0.03-0.01,2.92-0.56,2.89-2.84
					C21.78,16.45,21.76,16.42,21.73,16.4z M19.15,18.89c0.27-1.38,2.23-2.17,2.23-2.17C20.04,17.72,19.15,18.89,19.15,18.89z"/>
				<path fill="#423619" d="M19.17,17.05c-0.03-0.02-0.07-0.03-0.11-0.03c0,0,0,0-0.01,0c-0.03,0-3.22,0.12-3.36,3.24
					c0,0.03,0.02,0.07,0.06,0.09c0.02,0.01,0.05,0.02,0.08,0.02c0.02,0,0.04,0,0.06-0.01c0.03-0.01,2.86-0.92,3.31-3.22
					C19.22,17.1,19.2,17.07,19.17,17.05z M16.01,19.91c0.3-2.03,2.71-2.67,2.71-2.67C16.76,18.26,16.01,19.91,16.01,19.91z"/>
				<path fill="#423619" d="M15.21,18.66c-0.01-0.03-0.05-0.06-0.09-0.07c-0.01,0-0.03-0.01-0.05-0.01c-0.03,0-0.06,0.01-0.08,0.02
					c-0.02,0.01-2.24,1.18-1.36,3.06c0.02,0.04,0.07,0.07,0.13,0.07c0.01,0,0.03,0,0.04,0c0.03-0.01,0.85-0.18,1.33-0.81
					C15.58,20.33,15.61,19.58,15.21,18.66z M13.81,21.42c-0.46-1.41,1.15-2.52,1.15-2.52C13.76,20.27,13.81,21.42,13.81,21.42z"/>
				<path fill="#423619" d="M20.76,19.4c-0.02-0.03-0.07-0.05-0.12-0.05c0,0-0.03,0-0.1,0c-0.61,0-3.7,0.09-4.74,1.87
					c-0.02,0.03-0.01,0.06,0,0.08c0.02,0.03,0.05,0.05,0.09,0.05c0.01,0,0.33,0.06,0.81,0.06c1.02,0,2.91-0.25,4.05-1.92
					C20.79,19.47,20.78,19.43,20.76,19.4z M16.25,21.06c1.1-1.44,4.01-1.48,4.01-1.48C17.62,19.97,16.25,21.06,16.25,21.06z"/>
				<path fill="#423619" d="M17.74,21.94c-0.01-0.03-0.03-0.06-0.07-0.08c-0.55-0.23-1.14-0.34-1.76-0.34
					c-1.19,0-2.06,0.42-2.09,0.44c-0.03,0.02-0.06,0.04-0.06,0.07c-0.01,0.03,0.01,0.06,0.03,0.08c0.48,0.4,1.05,0.6,1.7,0.6h0
					c1.17,0,2.16-0.66,2.2-0.69C17.73,22.01,17.75,21.98,17.74,21.94z M14.19,22c0,0,1.31-0.58,3.18-0.08
					C17.37,21.92,14.94,21.73,14.19,22z"/>
			</g>
		</g>
		<g>
			<path fill="#F7941D" d="M10.81,17.88c0.59,0.48,0.95,0.81,0.95,0.81l0.31-1.8l0.31,1.8c0,0,0.41-0.3,1-0.78
				c0.6-0.49-1.31-2.87-1.31-2.87S10.2,17.39,10.81,17.88z"/>
			<path fill="#F7941D" d="M7.38,16.39c0,0-1.99-1.38-2.64-3.13c0,0,1.61,2.3,3.4,3.13c0,0,1.45,0.64,1.99,1.14
				c0,0,0.6-1.96,1.64-2.64l0.31-1.53l0.31,1.53c1.04,0.68,1.64,2.64,1.64,2.64c0.54-0.49,1.99-1.14,1.99-1.14
				c1.79-0.83,3.4-3.13,3.4-3.13c-0.66,1.75-2.64,3.13-2.64,3.13c2.94-1.35,3.18-3.93,3.18-3.93c-2.4,0.18-2.32,0.69-2.32,0.69
				c-0.68,1.46-1.63,1.89-1.63,1.89c1.47-1.35,0.8-3.13,0.8-3.13c-2.88,0.86-2.78,2.55-2.78,2.55c-0.23-2.58-1.95-3.56-1.95-3.56
				s-1.71,0.98-1.95,3.56c0,0,0.1-1.69-2.78-2.55c0,0-0.67,1.78,0.8,3.13c0,0-1.44-0.64-1.97-2.06c0,0-0.33-0.61-1.97-0.52
				C4.2,12.46,4.43,15.04,7.38,16.39z M16.46,13.5c-0.33,1.6-2.04,2.7-2.04,2.7C15.24,15.35,16.46,13.5,16.46,13.5z M7.68,13.5
				c0,0,1.21,1.84,2.04,2.7C9.72,16.2,8.01,15.1,7.68,13.5z"/>
			<path fill="#FFFFFF" d="M19.43,12.09c0,0,0.36-1.07-0.04-2.57c0,0-0.39,1.9-2.04,2.99c0,0,1.56-0.15,1.87-1.23l-0.2,0.89
				L19.43,12.09z"/>
			<path fill="#FFFFFF" d="M17.62,11.89c0,0,0.49-0.54,0.61-1c0,0,0.13-1.78-1.04-2.85c0,0-1.07,0.8-1.27,1.69
				c0,0,0.4,0.95,0.43,1.78c0,0,0.9-0.49,1-1.29c0,0,0.11,0.89-0.28,1.56C17.08,11.78,17.35,12.13,17.62,11.89z"/>
			<path fill="#FFFFFF" d="M14.75,12.52c0,0,0.74-0.52,1.17-0.77c0,0,0.07-1.35-0.94-2.7c0,0-1.2,1.29-1.61,2.32
				c0,0,0.7,0.94,0.74,1.4c0,0,0.55-0.75,0.54-1.53C14.65,11.23,14.84,11.96,14.75,12.52z"/>
			<path fill="#3D763B" d="M13.78,9.82c0,0,0.97-1.29,1.41-1.5c0,0,0.54,0.61,0.47,0.89c0,0,0.54-0.71-0.37-1.78
				c0,0-0.3-0.49-0.3-0.68C14.98,6.75,13.34,8.53,13.78,9.82z"/>
			<path fill="#5F9E45" d="M16.35,8.04c0,0-0.29-0.64-0.55-0.89c0,0,0.67-1.04,0.9-2.07c0,0,1.01,1.57,0.65,2.53
				c0,0,0.07-0.06-0.28-0.03c0,0-0.19-0.46-0.29-0.83C16.79,6.75,16.91,7.61,16.35,8.04z"/>
			<path fill="#AFD46C" d="M15.55,6.75c0,0,0.71-1.29,0.64-1.9c0,0-0.88-1.46-2.03-2.21c0,0,0.22,0.94,0,1.69
				C14.16,4.33,15,5.59,15.55,6.75z"/>
			<path fill="#5F9E45" d="M13.38,8.56c0,0,0.7-1.74,0.6-2.36c0,0,0.12,1.19,0.44,0.55c0,0,0.12-0.08,0.34-0.36
				c0,0-0.04-1.05-0.88-1.65c0,0-1.04,1.55-1.2,2.53C12.67,7.27,13.33,7.91,13.38,8.56z"/>
			<path fill="#3D763B" d="M18.73,10.22c0,0,0-1.76-0.44-3.07c0,0-0.2,0.65-0.44,0.8C17.84,7.95,18.46,8.69,18.73,10.22z"/>
			<path fill="#FFFFFF" d="M4.7,12.09c0,0-0.36-1.07,0.04-2.57c0,0,0.39,1.9,2.04,2.99c0,0-1.56-0.15-1.87-1.23l0.2,0.89L4.7,12.09z
				"/>
			<path fill="#FFFFFF" d="M6.52,11.89c0,0-0.49-0.54-0.61-1c0,0-0.13-1.78,1.04-2.85c0,0,1.07,0.8,1.27,1.69
				c0,0-0.4,0.95-0.43,1.78c0,0-0.9-0.49-1-1.29c0,0-0.11,0.89,0.28,1.56C7.06,11.78,6.79,12.13,6.52,11.89z"/>
			<path fill="#FFFFFF" d="M9.38,12.52c0,0-0.74-0.52-1.17-0.77c0,0-0.07-1.35,0.94-2.7c0,0,1.2,1.29,1.61,2.32
				c0,0-0.7,0.94-0.74,1.4c0,0-0.55-0.75-0.54-1.53C9.48,11.23,9.29,11.96,9.38,12.52z"/>
			<path fill="#3D763B" d="M10.35,9.82c0,0-0.97-1.29-1.41-1.5c0,0-0.54,0.61-0.47,0.89c0,0-0.54-0.71,0.37-1.78
				c0,0,0.3-0.49,0.3-0.68C9.15,6.75,10.79,8.53,10.35,9.82z"/>
			<path fill="#5F9E45" d="M7.78,8.04c0,0,0.29-0.64,0.55-0.89c0,0-0.67-1.04-0.9-2.07c0,0-1.01,1.57-0.65,2.53
				c0,0-0.07-0.06,0.28-0.03c0,0,0.19-0.46,0.29-0.83C7.34,6.75,7.22,7.61,7.78,8.04z"/>
			<path fill="#AFD46C" d="M8.59,6.75c0,0-0.71-1.29-0.64-1.9c0,0,1.24-1.82,1.99-2.21c0,0-0.15,1.04,0,1.69
				C9.93,4.33,9.13,5.59,8.59,6.75z"/>
			<path fill="#5F9E45" d="M10.76,8.56c0,0-0.7-1.74-0.6-2.36c0,0-0.12,1.19-0.44,0.55c0,0-0.12-0.08-0.34-0.36
				c0,0,0.04-1.05,0.88-1.65c0,0,1.04,1.55,1.2,2.53C11.46,7.27,10.81,7.91,10.76,8.56z"/>
			<path fill="#3D763B" d="M5.4,10.22c0,0,0-1.76,0.44-3.07c0,0,0.2,0.65,0.44,0.8C6.29,7.95,5.68,8.69,5.4,10.22z"/>
			<path fill="#AFD46C" d="M11.79,6.87c0,0,0.2-0.11,0.27-0.81s0.27,0.81,0.27,0.81c0.17-0.8,0.7-1.56,0.7-1.56
				c-0.13-0.66-0.98-1.44-0.98-1.44s-0.85,0.79-0.98,1.44C11.09,5.31,11.63,6.08,11.79,6.87z"/>
			<path fill="#AFD46C" d="M10.76,4.74c0,0,0.75-0.98,1.31-1.56c0.56,0.58,1.31,1.56,1.31,1.56c0.24-0.34,0.34-0.87,0.34-0.87
				c-0.5-1.81-1.65-2.54-1.65-2.54s-1.15,0.73-1.65,2.54C10.42,3.87,10.42,4.33,10.76,4.74z"/>
			<path fill="#FFFFFF" d="M12.07,7.4c-2.1,1.93-0.94,3.65-0.94,3.65c0.14-0.19,0.5-0.39,0.73-0.5c0.07-0.31,0.17-0.8,0.21-1.32
				c0,0-0.01,0.75,0.15,1.29c0.23,0.11,0.64,0.33,0.79,0.53C13.01,11.05,14.17,9.33,12.07,7.4z"/>
		</g>
	</g>
	<g>
		<g>
			<path fill="#423619" d="M27.87,13.02H26.2v-2.63h1.68l-0.11,0.4h-1.21v0.64h1.1v0.4h-1.1v0.8h1.3V13.02z"/>
			<path fill="#423619" d="M28.22,11.05c0-0.13,0.03-0.24,0.08-0.33c0.05-0.09,0.12-0.16,0.2-0.22c0.08-0.06,0.18-0.1,0.28-0.12
				c0.1-0.03,0.2-0.04,0.3-0.04c0.07,0,0.14,0.01,0.21,0.02c0.07,0.02,0.14,0.04,0.21,0.07c0.07,0.03,0.13,0.07,0.19,0.12
				c0.06,0.05,0.11,0.1,0.16,0.16l-0.25,0.26c-0.08-0.09-0.16-0.15-0.25-0.18c-0.09-0.03-0.19-0.05-0.3-0.05
				c-0.05,0-0.1,0.01-0.15,0.02c-0.05,0.01-0.1,0.03-0.14,0.05c-0.04,0.02-0.08,0.05-0.11,0.09c-0.03,0.04-0.04,0.08-0.04,0.14
				c0,0.06,0.01,0.11,0.02,0.16c0.01,0.04,0.04,0.07,0.06,0.1c0.03,0.03,0.06,0.05,0.1,0.07c0.04,0.02,0.08,0.04,0.13,0.05
				c0.11,0.04,0.21,0.07,0.32,0.1c0.11,0.03,0.21,0.07,0.32,0.13c0.11,0.06,0.21,0.15,0.27,0.25c0.07,0.1,0.1,0.24,0.1,0.41
				c0,0.14-0.03,0.27-0.08,0.36s-0.12,0.18-0.2,0.24c-0.08,0.06-0.18,0.1-0.28,0.13c-0.1,0.03-0.21,0.04-0.31,0.04
				c-0.09,0-0.18-0.01-0.27-0.04c-0.09-0.02-0.18-0.06-0.26-0.11c-0.08-0.05-0.15-0.11-0.22-0.18c-0.07-0.07-0.12-0.15-0.16-0.25
				l0.31-0.19c0.06,0.11,0.15,0.2,0.25,0.27c0.1,0.06,0.22,0.09,0.36,0.09c0.06,0,0.12-0.01,0.18-0.02
				c0.06-0.01,0.11-0.03,0.16-0.06c0.05-0.03,0.09-0.06,0.12-0.11c0.03-0.05,0.04-0.1,0.04-0.17c0-0.06-0.01-0.11-0.02-0.15
				c-0.02-0.04-0.04-0.07-0.07-0.1c-0.03-0.03-0.06-0.05-0.1-0.06c-0.04-0.02-0.08-0.03-0.12-0.05c-0.11-0.04-0.22-0.08-0.32-0.11
				c-0.11-0.03-0.21-0.07-0.32-0.13c-0.06-0.03-0.11-0.07-0.16-0.1c-0.05-0.04-0.09-0.08-0.12-0.13c-0.03-0.05-0.06-0.11-0.08-0.18
				C28.23,11.23,28.22,11.15,28.22,11.05z"/>
			<path fill="#423619" d="M30.55,11.7c0,0.15,0.01,0.28,0.03,0.4c0.02,0.12,0.05,0.22,0.1,0.3c0.05,0.08,0.12,0.15,0.21,0.19
				c0.09,0.04,0.2,0.07,0.35,0.07c0.1,0,0.19-0.01,0.27-0.04c0.08-0.03,0.15-0.08,0.22-0.17l0.25,0.27
				c-0.1,0.12-0.21,0.21-0.34,0.26c-0.13,0.05-0.26,0.08-0.4,0.08c-0.19,0-0.35-0.03-0.49-0.1c-0.14-0.07-0.25-0.16-0.33-0.28
				c-0.09-0.12-0.15-0.26-0.19-0.43s-0.06-0.35-0.06-0.55v-0.14c0-0.19,0.02-0.36,0.07-0.52c0.05-0.15,0.12-0.28,0.21-0.39
				c0.09-0.11,0.2-0.19,0.34-0.24c0.13-0.06,0.28-0.08,0.46-0.08c0.13,0,0.26,0.03,0.39,0.08c0.13,0.05,0.24,0.13,0.34,0.25
				l-0.25,0.29c-0.07-0.08-0.14-0.14-0.22-0.17c-0.07-0.03-0.16-0.05-0.26-0.05c-0.23,0-0.41,0.07-0.52,0.21
				c-0.11,0.14-0.17,0.35-0.17,0.62V11.7z"/>
			<path fill="#423619" d="M33.34,13.06c-0.18,0-0.35-0.03-0.49-0.1c-0.14-0.07-0.26-0.16-0.35-0.28c-0.09-0.12-0.16-0.27-0.21-0.43
				c-0.05-0.17-0.07-0.35-0.07-0.55v-0.1c0-0.18,0.03-0.35,0.08-0.51c0.05-0.16,0.13-0.29,0.23-0.4c0.1-0.11,0.22-0.2,0.35-0.26
				c0.14-0.06,0.29-0.09,0.45-0.09c0.16,0,0.31,0.03,0.45,0.09c0.14,0.06,0.25,0.15,0.35,0.26c0.1,0.11,0.17,0.24,0.23,0.4
				c0.05,0.16,0.08,0.33,0.08,0.51v0.1c0,0.2-0.02,0.38-0.07,0.55c-0.05,0.17-0.12,0.31-0.21,0.43c-0.09,0.12-0.21,0.22-0.35,0.28
				C33.68,13.03,33.52,13.06,33.34,13.06z M33.34,10.74c-0.24,0-0.42,0.08-0.54,0.23c-0.12,0.16-0.18,0.37-0.18,0.63v0.09
				c0,0.14,0.01,0.27,0.04,0.39c0.02,0.12,0.06,0.22,0.12,0.31s0.13,0.16,0.22,0.2c0.09,0.05,0.2,0.07,0.34,0.07
				c0.14,0,0.26-0.02,0.35-0.07c0.09-0.05,0.17-0.11,0.22-0.2c0.06-0.09,0.1-0.19,0.12-0.31c0.02-0.12,0.04-0.25,0.04-0.4V11.6
				c0-0.27-0.06-0.48-0.18-0.63C33.76,10.82,33.58,10.74,33.34,10.74z"/>
			<path fill="#423619" d="M35.15,10.38v2.23h1.11l-0.1,0.4h-1.38v-2.63H35.15z"/>
			<path fill="#423619" d="M36.95,12.27l-0.24,0.75h-0.39l0.85-2.63h0.44l0.9,2.63h-0.39l-0.25-0.75H36.95z M37.06,11.9h0.69
				l-0.3-0.88l-0.05-0.3l-0.05,0.3L37.06,11.9z"/>
			<path fill="#423619" d="M39.74,11.05c0-0.13,0.03-0.24,0.08-0.33c0.05-0.09,0.12-0.16,0.2-0.22c0.08-0.06,0.18-0.1,0.28-0.12
				c0.1-0.03,0.2-0.04,0.3-0.04c0.07,0,0.14,0.01,0.21,0.02c0.07,0.02,0.14,0.04,0.21,0.07c0.07,0.03,0.13,0.07,0.19,0.12
				c0.06,0.05,0.11,0.1,0.16,0.16l-0.25,0.26c-0.08-0.09-0.16-0.15-0.25-0.18c-0.09-0.03-0.19-0.05-0.3-0.05
				c-0.05,0-0.1,0.01-0.15,0.02c-0.05,0.01-0.1,0.03-0.14,0.05c-0.04,0.02-0.08,0.05-0.11,0.09c-0.03,0.04-0.04,0.08-0.04,0.14
				c0,0.06,0.01,0.11,0.02,0.16c0.01,0.04,0.04,0.07,0.06,0.1c0.03,0.03,0.06,0.05,0.1,0.07c0.04,0.02,0.08,0.04,0.13,0.05
				c0.11,0.04,0.21,0.07,0.32,0.1c0.11,0.03,0.21,0.07,0.32,0.13c0.11,0.06,0.21,0.15,0.27,0.25c0.07,0.1,0.1,0.24,0.1,0.41
				c0,0.14-0.03,0.27-0.08,0.36c-0.05,0.1-0.12,0.18-0.2,0.24c-0.08,0.06-0.18,0.1-0.28,0.13c-0.1,0.03-0.21,0.04-0.31,0.04
				c-0.09,0-0.18-0.01-0.27-0.04c-0.09-0.02-0.18-0.06-0.26-0.11c-0.08-0.05-0.15-0.11-0.22-0.18c-0.07-0.07-0.12-0.15-0.16-0.25
				l0.31-0.19c0.06,0.11,0.15,0.2,0.25,0.27c0.1,0.06,0.22,0.09,0.36,0.09c0.06,0,0.12-0.01,0.18-0.02
				c0.06-0.01,0.11-0.03,0.16-0.06c0.05-0.03,0.09-0.06,0.12-0.11c0.03-0.05,0.04-0.1,0.04-0.17c0-0.06-0.01-0.11-0.02-0.15
				c-0.02-0.04-0.04-0.07-0.07-0.1c-0.03-0.03-0.06-0.05-0.1-0.06c-0.04-0.02-0.08-0.03-0.12-0.05c-0.11-0.04-0.22-0.08-0.32-0.11
				c-0.11-0.03-0.21-0.07-0.32-0.13c-0.06-0.03-0.11-0.07-0.16-0.1c-0.05-0.04-0.09-0.08-0.12-0.13c-0.03-0.05-0.06-0.11-0.08-0.18
				C39.75,11.23,39.74,11.15,39.74,11.05z"/>
			<path fill="#423619" d="M42.11,10.38v1.47c0,0.13,0.01,0.25,0.02,0.35c0.02,0.1,0.05,0.19,0.09,0.25
				c0.04,0.07,0.1,0.12,0.17,0.15c0.07,0.03,0.17,0.05,0.28,0.05c0.11,0,0.2-0.02,0.27-0.05c0.07-0.04,0.13-0.09,0.17-0.16
				c0.04-0.07,0.07-0.15,0.09-0.25c0.02-0.1,0.03-0.22,0.03-0.34v-1.47h0.37v1.5c0,0.18-0.02,0.35-0.05,0.49
				c-0.03,0.15-0.09,0.27-0.16,0.37c-0.07,0.1-0.17,0.18-0.29,0.23c-0.12,0.05-0.27,0.08-0.44,0.08c-0.18,0-0.33-0.03-0.45-0.08
				c-0.12-0.05-0.22-0.13-0.29-0.23s-0.12-0.22-0.16-0.37c-0.03-0.15-0.05-0.31-0.05-0.5v-1.5H42.11z"/>
			<path fill="#423619" d="M43.98,13.02v-2.63h1.13c0.11,0,0.2,0.02,0.29,0.06s0.15,0.1,0.21,0.17c0.05,0.07,0.1,0.16,0.13,0.26
				c0.03,0.1,0.04,0.21,0.04,0.33c0,0.12-0.01,0.23-0.04,0.34c-0.03,0.11-0.07,0.2-0.12,0.27c-0.05,0.08-0.12,0.14-0.21,0.18
				c-0.08,0.04-0.18,0.07-0.29,0.07h-0.76v0.95H43.98z M44.35,10.78v0.89h0.63c0.14,0,0.25-0.04,0.32-0.11s0.1-0.19,0.1-0.35
				c0-0.15-0.04-0.26-0.11-0.33c-0.07-0.07-0.18-0.1-0.31-0.1H44.35z"/>
			<path fill="#423619" d="M47.66,13.02h-1.67v-2.63h1.68l-0.11,0.4h-1.21v0.64h1.1v0.4h-1.1v0.8h1.3V13.02z"/>
			<path fill="#423619" d="M48.81,12.04c-0.02-0.04-0.05-0.06-0.09-0.08c-0.04-0.02-0.07-0.02-0.11-0.02h-0.22v1.08h-0.37v-2.63
				h1.08c0.1,0,0.19,0.02,0.27,0.05c0.08,0.04,0.15,0.09,0.21,0.15c0.06,0.07,0.1,0.15,0.14,0.24c0.03,0.09,0.05,0.2,0.05,0.31
				c0,0.23-0.05,0.41-0.15,0.56c-0.1,0.15-0.24,0.23-0.43,0.24l0.43,0.63c0.04,0.05,0.07,0.08,0.1,0.1
				c0.03,0.02,0.07,0.02,0.13,0.02v0.33c-0.02,0.01-0.05,0.02-0.08,0.03c-0.03,0.01-0.06,0.01-0.09,0.01
				c-0.07,0-0.13-0.03-0.18-0.08c-0.05-0.05-0.1-0.11-0.14-0.16L48.81,12.04z M48.39,11.54H49c0.14,0,0.24-0.03,0.3-0.09
				c0.06-0.06,0.09-0.16,0.09-0.32c0-0.12-0.03-0.21-0.08-0.27c-0.05-0.06-0.14-0.09-0.27-0.09h-0.66V11.54z"/>
			<path fill="#423619" d="M50.55,10.38v2.63h-0.37v-2.63H50.55z"/>
			<path fill="#423619" d="M52.01,13.06c-0.18,0-0.35-0.03-0.49-0.1c-0.14-0.07-0.26-0.16-0.35-0.28c-0.09-0.12-0.16-0.27-0.21-0.43
				c-0.05-0.17-0.07-0.35-0.07-0.55v-0.1c0-0.18,0.03-0.35,0.08-0.51c0.05-0.16,0.13-0.29,0.23-0.4c0.1-0.11,0.22-0.2,0.35-0.26
				c0.14-0.06,0.29-0.09,0.45-0.09c0.16,0,0.31,0.03,0.45,0.09c0.14,0.06,0.25,0.15,0.35,0.26c0.1,0.11,0.17,0.24,0.23,0.4
				c0.05,0.16,0.08,0.33,0.08,0.51v0.1c0,0.2-0.02,0.38-0.07,0.55c-0.05,0.17-0.12,0.31-0.21,0.43c-0.09,0.12-0.21,0.22-0.35,0.28
				C52.35,13.03,52.19,13.06,52.01,13.06z M52.01,10.74c-0.24,0-0.42,0.08-0.54,0.23c-0.12,0.16-0.18,0.37-0.18,0.63v0.09
				c0,0.14,0.01,0.27,0.04,0.39c0.02,0.12,0.06,0.22,0.12,0.31s0.13,0.16,0.22,0.2c0.09,0.05,0.2,0.07,0.34,0.07
				c0.14,0,0.26-0.02,0.35-0.07c0.09-0.05,0.17-0.11,0.22-0.2c0.06-0.09,0.1-0.19,0.12-0.31c0.02-0.12,0.04-0.25,0.04-0.4V11.6
				c0-0.27-0.06-0.48-0.18-0.63C52.43,10.82,52.25,10.74,52.01,10.74z"/>
			<path fill="#423619" d="M54.24,12.04c-0.02-0.04-0.05-0.06-0.09-0.08c-0.04-0.02-0.07-0.02-0.11-0.02h-0.22v1.08h-0.37v-2.63
				h1.08c0.1,0,0.19,0.02,0.27,0.05c0.08,0.04,0.15,0.09,0.21,0.15c0.06,0.07,0.1,0.15,0.14,0.24c0.03,0.09,0.05,0.2,0.05,0.31
				c0,0.23-0.05,0.41-0.15,0.56c-0.1,0.15-0.24,0.23-0.43,0.24l0.43,0.63c0.04,0.05,0.07,0.08,0.1,0.1
				c0.03,0.02,0.07,0.02,0.13,0.02v0.33c-0.02,0.01-0.05,0.02-0.08,0.03c-0.03,0.01-0.06,0.01-0.09,0.01
				c-0.07,0-0.13-0.03-0.18-0.08c-0.05-0.05-0.1-0.11-0.14-0.16L54.24,12.04z M53.82,11.54h0.62c0.14,0,0.24-0.03,0.3-0.09
				c0.06-0.06,0.09-0.16,0.09-0.32c0-0.12-0.03-0.21-0.08-0.27c-0.05-0.06-0.14-0.09-0.27-0.09h-0.66V11.54z"/>
			<path fill="#423619" d="M57.68,13.02h-1.08v-2.63h1.08c0.17,0,0.31,0.04,0.42,0.11c0.11,0.07,0.2,0.16,0.27,0.28
				c0.07,0.12,0.12,0.25,0.15,0.41c0.03,0.15,0.04,0.31,0.04,0.48c0,0.17-0.01,0.34-0.04,0.51c-0.03,0.16-0.07,0.31-0.14,0.43
				c-0.07,0.13-0.16,0.23-0.27,0.3C58,12.98,57.85,13.02,57.68,13.02z M56.97,12.62h0.6c0.13,0,0.24-0.03,0.31-0.08
				c0.08-0.05,0.14-0.13,0.18-0.21c0.04-0.09,0.07-0.19,0.08-0.31c0.01-0.12,0.02-0.23,0.02-0.36c0-0.12-0.01-0.23-0.02-0.34
				c-0.02-0.11-0.05-0.2-0.09-0.28c-0.04-0.08-0.1-0.14-0.18-0.19c-0.08-0.05-0.18-0.07-0.3-0.07h-0.59V12.62z"/>
			<path fill="#423619" d="M60.57,13.02h-1.67v-2.63h1.68l-0.11,0.4h-1.21v0.64h1.1v0.4h-1.1v0.8h1.3V13.02z"/>
		</g>
		<g>
			<path fill="#423619" d="M76.83,15.88v3.92c0,0.29,0.03,0.47,0.09,0.57c0.06,0.09,0.17,0.15,0.33,0.17v1.31h-2.37v-1.31
				c0.15,0,0.27-0.06,0.34-0.17s0.1-0.28,0.1-0.52v-3.74c0-0.25-0.03-0.43-0.1-0.54c-0.07-0.11-0.18-0.19-0.34-0.22v-1.27h2.91
				l1.06,4.42l1.01-4.42h2.95v1.27c-0.17,0.04-0.28,0.11-0.35,0.19c-0.06,0.09-0.09,0.29-0.09,0.6v3.52c0,0.34,0.03,0.57,0.09,0.68
				c0.06,0.11,0.18,0.18,0.35,0.2v1.31h-2.69v-1.31c0.15-0.03,0.26-0.1,0.32-0.21c0.06-0.11,0.09-0.34,0.09-0.67V16l-1.44,5.84
				h-0.77L76.83,15.88z"/>
			<path fill="#423619" d="M83.48,21.84v-1.31c0.13-0.04,0.23-0.11,0.3-0.21c0.07-0.1,0.14-0.31,0.2-0.6l1.15-5.64h2.81l1.27,5.77
				c0.05,0.23,0.11,0.4,0.18,0.49c0.07,0.09,0.16,0.16,0.29,0.2v1.31H86.9v-1.31c0.13-0.01,0.22-0.05,0.3-0.11
				c0.07-0.06,0.11-0.15,0.11-0.26c0-0.03,0-0.06-0.01-0.1s-0.01-0.08-0.02-0.12l-0.07-0.33h-1.58l-0.07,0.3
				c-0.01,0.05-0.01,0.1-0.02,0.14c0,0.04-0.01,0.07-0.01,0.1c0,0.13,0.03,0.22,0.1,0.29c0.07,0.06,0.18,0.1,0.34,0.1v1.31H83.48z
				 M85.84,18.51h1.11l-0.56-2.97L85.84,18.51z"/>
			<path fill="#423619" d="M95.87,21.84h-5.52v-1.31c0.16-0.03,0.27-0.1,0.33-0.19c0.06-0.09,0.09-0.3,0.09-0.62v-3.59
				c0-0.32-0.03-0.52-0.09-0.61c-0.06-0.09-0.17-0.16-0.33-0.19v-1.26h2.72v1.26c-0.15,0.03-0.26,0.1-0.32,0.19
				c-0.06,0.09-0.09,0.3-0.09,0.62v4.23h0.62c0.37,0,0.62-0.07,0.75-0.21c0.14-0.14,0.2-0.47,0.2-0.97v-0.86h1.64V21.84z"/>
			<path fill="#423619" d="M97.74,15.55c-0.27,0.01-0.46,0.08-0.57,0.22c-0.12,0.14-0.17,0.36-0.17,0.67v0.79h-1.52v-3.15h6.42v3.15
				h-1.5v-0.79c0-0.31-0.06-0.54-0.18-0.67c-0.12-0.14-0.31-0.21-0.58-0.21l-0.01,4.18c0,0.32,0.03,0.53,0.09,0.62
				c0.06,0.09,0.16,0.15,0.32,0.19v1.31h-2.72v-1.31c0.16-0.03,0.27-0.1,0.33-0.19c0.06-0.09,0.09-0.3,0.09-0.62V15.55z"/>
			<path fill="#423619" d="M102.77,21.84v-1.31c0.16-0.03,0.27-0.1,0.33-0.19c0.06-0.09,0.09-0.3,0.09-0.62v-3.59
				c0-0.32-0.03-0.52-0.09-0.61c-0.06-0.09-0.17-0.16-0.33-0.19v-1.26h5.76v2.37h-1.77v-0.08c0-0.3-0.07-0.51-0.21-0.63
				c-0.14-0.12-0.4-0.18-0.76-0.18h-0.7v1.62h2.23v1.31h-2.23v1.87h0.83c0.32,0,0.54-0.06,0.66-0.18c0.12-0.12,0.19-0.34,0.19-0.66
				v-0.28h1.77v2.6H102.77z"/>
		</g>
		<path fill="#981B1E" d="M67.65,14.08v9.92l3.17-1.73L74,23.99v-9.92H67.65z M72.6,17.21h-1.09v-0.05c0-0.19-0.04-0.33-0.13-0.41
			c-0.09-0.08-0.24-0.12-0.47-0.12h-0.43v1.05h1.38v0.85h-1.38v1.21h0.51c0.2,0,0.33-0.04,0.41-0.11c0.08-0.08,0.11-0.22,0.11-0.43
			v-0.18h1.09v1.69h-3.55v-0.85c0.1-0.02,0.17-0.06,0.2-0.12c0.04-0.06,0.05-0.19,0.05-0.4v-2.33c0-0.21-0.02-0.34-0.05-0.4
			c-0.04-0.06-0.1-0.1-0.2-0.12v-0.81h3.55V17.21z"/>
		<g>
			<path fill="#423619" d="M26.2,16.68c0-0.58,0.02-0.99,0.07-1.24c0.05-0.25,0.13-0.47,0.24-0.65c0.2-0.32,0.48-0.56,0.86-0.71
				c0.38-0.15,0.88-0.23,1.51-0.23c0.44,0,0.87,0.05,1.3,0.15c0.43,0.1,0.85,0.24,1.27,0.44v2.25h-1.74v-0.16
				c0-0.36-0.07-0.63-0.21-0.81c-0.14-0.18-0.35-0.26-0.63-0.26c-0.3,0-0.52,0.09-0.65,0.27c-0.13,0.18-0.2,0.48-0.2,0.89v2.73
				c0,0.42,0.07,0.72,0.2,0.9c0.13,0.18,0.35,0.27,0.65,0.27c0.29,0,0.5-0.09,0.64-0.27c0.13-0.18,0.2-0.48,0.2-0.9v-0.56h1.74v2.73
				c-0.38,0.2-0.8,0.35-1.24,0.46c-0.44,0.1-0.89,0.16-1.33,0.16c-0.57,0-1.03-0.06-1.39-0.19c-0.36-0.13-0.65-0.32-0.86-0.59
				c-0.15-0.2-0.26-0.43-0.33-0.71c-0.06-0.28-0.1-0.73-0.1-1.36V16.68z"/>
			<path fill="#423619" d="M31.87,21.97v-1.34c0.16-0.03,0.27-0.1,0.33-0.2c0.06-0.1,0.09-0.31,0.09-0.63v-3.68
				c0-0.32-0.03-0.53-0.09-0.63c-0.06-0.1-0.17-0.16-0.33-0.2v-1.29h5.82v2.43H35.9v-0.08c0-0.31-0.07-0.52-0.22-0.64
				c-0.14-0.12-0.4-0.18-0.77-0.18H34.2v1.66h2.26v1.34H34.2v1.92h0.84c0.32,0,0.55-0.06,0.67-0.18c0.12-0.12,0.19-0.35,0.19-0.68
				V19.3h1.79v2.67H31.87z"/>
			<path fill="#423619" d="M51.23,21.97v-1.34c0.16-0.03,0.27-0.1,0.33-0.2c0.06-0.1,0.09-0.31,0.09-0.63v-3.68
				c0-0.32-0.03-0.53-0.09-0.63c-0.06-0.1-0.17-0.16-0.33-0.2v-1.29h5.82v2.43h-1.79v-0.08c0-0.31-0.07-0.52-0.22-0.64
				c-0.14-0.12-0.4-0.18-0.77-0.18h-0.71v1.66h2.26v1.34h-2.26v1.92h0.84c0.32,0,0.55-0.06,0.67-0.18c0.12-0.12,0.19-0.35,0.19-0.68
				V19.3h1.79v2.67H51.23z"/>
			<path fill="#423619" d="M40.54,19.8c0,0.33,0.03,0.54,0.09,0.64c0.06,0.09,0.17,0.16,0.33,0.19v1.34h-2.81v-1.34
				c0.17-0.03,0.28-0.1,0.34-0.2c0.06-0.1,0.09-0.31,0.09-0.63v-3.68c0-0.32-0.03-0.53-0.09-0.63c-0.06-0.1-0.17-0.16-0.34-0.2
				v-1.29h3.32c0.97,0,1.68,0.18,2.12,0.55c0.44,0.37,0.66,0.95,0.66,1.75c0,0.49-0.11,0.89-0.33,1.21
				c-0.22,0.31-0.54,0.53-0.95,0.63c0.4,0.09,0.68,0.22,0.84,0.4c0.16,0.18,0.24,0.46,0.24,0.85v0.43c0,0.3,0.03,0.5,0.08,0.6
				c0.05,0.11,0.15,0.17,0.29,0.2v1.34h-2.09c-0.06-0.12-0.1-0.26-0.13-0.42c-0.03-0.16-0.04-0.41-0.04-0.75v-1.02
				c0-0.39-0.07-0.66-0.21-0.79c-0.14-0.13-0.41-0.2-0.8-0.2h-0.6V19.8z M40.54,17.4h0.77c0.36,0,0.62-0.07,0.79-0.22
				c0.16-0.15,0.25-0.39,0.25-0.71c0-0.33-0.08-0.57-0.25-0.73c-0.16-0.16-0.42-0.24-0.76-0.24h-0.79V17.4z"/>
			<path fill="#423619" d="M46.21,21.97L44.9,16c-0.05-0.24-0.12-0.4-0.19-0.49c-0.07-0.09-0.19-0.16-0.33-0.21v-1.29h2.93v1.29
				c-0.16,0.03-0.27,0.08-0.33,0.15c-0.07,0.07-0.1,0.16-0.1,0.28c0,0.05,0,0.09,0.01,0.13c0.01,0.04,0.01,0.08,0.03,0.13l0.93,4.48
				l0.85-4.43c0.01-0.04,0.01-0.08,0.02-0.13s0.01-0.1,0.01-0.17c0-0.13-0.03-0.23-0.1-0.3c-0.07-0.07-0.18-0.11-0.35-0.14v-1.29
				h2.6v1.29c-0.13,0.05-0.23,0.13-0.3,0.24c-0.07,0.11-0.13,0.26-0.18,0.46l-1.24,5.98H46.21z"/>
			<path fill="#423619" d="M60.13,19.38c0,0.65-0.01,1.08-0.04,1.32c-0.03,0.23-0.08,0.42-0.14,0.56c-0.14,0.29-0.33,0.5-0.58,0.65
				c-0.25,0.14-0.56,0.21-0.93,0.21c-0.17,0-0.33-0.02-0.5-0.05c-0.17-0.03-0.33-0.08-0.48-0.14v-1.18c0.03,0,0.06,0.01,0.08,0.01
				c0.03,0,0.07,0,0.13,0c0.23,0,0.39-0.07,0.48-0.2c0.09-0.13,0.14-0.39,0.14-0.77v-3.68c0-0.33-0.03-0.54-0.08-0.64
				c-0.06-0.09-0.16-0.16-0.31-0.19v-1.29h2.64v1.29c-0.15,0.03-0.26,0.1-0.32,0.2c-0.06,0.1-0.09,0.31-0.09,0.63V19.38z"/>
			<path fill="#423619" d="M60.58,21.97v-1.34c0.13-0.04,0.22-0.11,0.29-0.22c0.07-0.11,0.13-0.31,0.19-0.62l1.12-5.79h2.74
				l1.24,5.92c0.05,0.24,0.11,0.41,0.18,0.5c0.07,0.1,0.16,0.16,0.28,0.2v1.34h-2.71v-1.34c0.12-0.01,0.22-0.05,0.29-0.12
				c0.07-0.07,0.11-0.15,0.11-0.26c0-0.03,0-0.06-0.01-0.1c0-0.04-0.01-0.08-0.02-0.13l-0.07-0.33h-1.54l-0.07,0.3
				c-0.01,0.06-0.01,0.1-0.02,0.14c0,0.04-0.01,0.07-0.01,0.1c0,0.13,0.03,0.23,0.1,0.29c0.07,0.06,0.18,0.1,0.33,0.1v1.34H60.58z
				 M62.88,18.55h1.08l-0.54-3.05L62.88,18.55z"/>
		</g>
	</g>
</g>
</svg>
